<?xml version="1.0" encoding="utf-8"?>
<!-- Generator: Adobe Illustrator 18.1.1, SVG Export Plug-In . SVG Version: 6.00 Build 0)  -->
<svg class="fill-path" version="1.1" id="Layer_1" xmlns="http://www.w3.org/2000/svg" xmlns:xlink="http://www.w3.org/1999/xlink" x="0px" y="0px"
	 viewBox="0 481.9 1920 956.3" enable-background="new 0 481.9 1920 956.3" xml:space="preserve">
<path fill="#6A6A6A" d="M327.9,1004.5h0.4c0-0.4,0-0.4,0-0.8c-0.4-3.8-1.5-7.7-3.1-11.1c-2.3-5.8-6.1-10.8-10-15.4
	c-9.2-11.9-18.8-23.8-28.4-35.3c-7.7-9.2-13.8-19.2-16.5-31.1c0-0.4,0-0.8-0.8-1.2c-0.8,0-0.8,0.4-0.8,0.8c-1.5,3.1-3.1,6.1-4.2,9.6
	c-4.2,10.8-5.4,21.9-5.4,33.4c0,1.2,0.4,1.9,1.5,2.7c12.3,7.3,25,15,37.2,21.9c8.1,4.6,15.7,9.6,21.9,16.5
	C323.7,996.9,326.4,1000.2,327.9,1004.5z"/>
<path fill="#6A6A6A" d="M309.1,1027.6c-3.8-0.8-8.1-0.8-11.9-1.2c-8.8-1.2-17.3-3.5-25.3-7.3c-14.2-6.9-24.6-17.3-32.3-31.1
	c-1.2-2.3-2.7-3.5-5-4.6c-8.1-4.2-15.7-9.6-21.5-16.9c-1.2-1.2-1.9-2.7-3.1-3.8c-0.8,0.8-0.4,1.5-0.4,1.9
	c1.9,11.5,6.1,21.9,13.1,31.5c5.8,7.7,13.1,13.4,21.1,18.4c17.7,10.8,36.9,16.1,57.6,14.2C303.7,1028.7,306.4,1028.7,309.1,1027.6z"
	/>
<path fill="#6A6A6A" d="M254.6,949.5c0.4-0.8,0.4-1.2,0.4-1.5c0-0.4,0-0.8,0-1.5c0-7.7,0.8-15.4,3.1-22.7c2.3-7.7,5.4-15,10.8-21.1
	c0.4-0.4,0.8-1.2,0.8-1.9c0-5.4,0-11.1,0-16.5c0-0.4,0-1.2-0.4-1.2c-0.4-0.4-0.8,0-1.2,0.4c-12.7,8.4-22.3,19.6-28.4,33.4
	c-1.5,3.5-2.7,6.9-0.8,10.8c1.2,2.3,2.3,5,3.8,7.3C245.8,940.4,250,945,254.6,949.5z"/>
<path fill="#6A6A6A" d="M235,979.2c0-0.4,0.4-0.4,0.4-0.4c0-0.4,0-0.4-0.4-0.8c-3.1-8.8-5-17.7-5.4-26.9c-0.4-7.3,0.4-14.6,1.5-21.9
	c0.4-2.3,1.2-5,0.4-7.7c-1.2-3.5-1.5-6.9-1.9-10.8c0-0.4,0.4-1.2-0.4-1.5c-0.8-0.4-0.8,0.4-1.2,0.8c-3.1,3.5-5.8,6.9-8.1,10.8
	c-5.4,8.8-9.6,18-10.8,28c-0.4,3.8,0,6.9,2.7,10.4c4.2,5.4,9.6,10,15,14.2C229.6,975,232.3,976.9,235,979.2z"/>
<path fill="#6A6A6A" d="M262.7,986.9c1.5,0.4,1.2-0.8,0.8-1.5c-2.3-7.3-5-14.6-5.4-22.3c-0.4-3.8-2.3-6.1-5-8.4
	c-7.3-5.8-13.1-12.3-16.9-21.1c0-0.4,0-1.2-0.8-1.2s-0.4,0.8-0.4,1.2c-0.4,5.8-0.4,11.5-0.4,17.7c0.4,10,2.7,19.6,6.5,28.8
	c0.4,1.2,1.2,1.5,2.3,1.9C249.6,985,256.1,986,262.7,986.9z"/>
<path fill="#6A6A6A" d="M316.4,1021.8c3.8-0.4,6.5-0.4,9.2-0.4c1.2,0,1.2-0.8,0.8-1.5c-3.1-8.1-8.1-14.6-15.7-18.8
	c-4.6-2.3-9.2-3.5-14.2-4.6c-7.3-1.9-15-2.3-22.3-3.5c-0.4,0-0.8-0.4-1.2,0.4c-0.4,0.4,0,0.8,0.4,1.2c1.5,1.9,2.7,4.2,4.2,6.1
	C288,1013.4,300.7,1021,316.4,1021.8z"/>
<path fill="#6A6A6A" d="M294.5,1021.8c0.4,0,1.2,0.4,1.2-0.4s-0.8-0.8-1.2-0.8c-2.7-1.2-5-2.3-7.3-3.8c-8.8-5.8-15-14.6-20.7-23.4
	c-0.8-0.8-1.2-1.5-2.3-1.5c-6.1-0.8-12.3-1.9-18-3.5c-0.8,0-1.2-0.8-1.9,0c-0.4,0.4,0.4,1.2,0.4,1.5c5.4,8.8,12.7,16.1,21.1,21.9
	C274.9,1017.2,284.5,1020.7,294.5,1021.8z"/>
<path fill="#6A6A6A" d="M317.2,1031.8c-7.7,5-16.1,8.4-25,10.8c-9.2,2.3-18.4,3.5-28,3.1c-24.2-1.2-48-14.6-61.8-34.9
	c-8.1-11.5-11.1-25-10.4-38c0.4-7.7,2.3-15.4,5-22.7c0.4-0.8,1.9-5.4,3.1-3.5c1.2,1.9,2.3,3.5,3.5,5.4c0.8,0.8,0.4,1.9,0.4,2.7
	c-0.8,10,1.2,19.2,5,28c5,11.5,12.7,21.1,22.3,29.6c9.6,8.1,20.7,13.8,32.6,17.3c11.9,3.5,24.6,4.6,36.9,3.5
	c5.8-0.4,11.1-1.2,16.9-2.7c0.4,0,0.4-0.4,0.8,0C318.3,1031.4,317.6,1031.4,317.2,1031.8z"/>
<path fill="#6A6A6A" d="M332.9,1003C332.9,1003,332.9,1002.5,332.9,1003c-0.4-0.4-0.4-0.8-0.8-1.2c-0.8-1.5-0.8-3.1-1.2-5
	s-1.2-3.5-1.5-5c-0.4-1.2-0.8-1.9-1.2-3.1c-1.2-3.1-2.7-6.1-4.6-8.8c-1.5-2.7-3.5-5.8-5.8-8.4c-0.8-1.2-1.9-2.3-2.7-3.8
	c-5.8-6.9-12.3-13.1-18-20.4c-8.8-11.1-16.9-22.7-21.1-36.1c-0.8-2.3-1.2-4.6-1.9-6.9c-0.4-1.5,0-3.1,1.2-4.2
	c8.4-8.8,17.3-17.7,28.8-23.4c4.2-1.9,8.4-3.5,13.1-4.6c0.4,0,1.2-0.4,1.5-0.8c0.8,0,1.2,0,1.9,0c0.4,1.2-0.4,1.5-0.8,2.3
	c-9.6,13.4-13.4,28.4-12.3,44.9c0.8,8.8,3.1,17.3,6.1,25.3c3.5,8.4,8.1,16.1,11.9,24.2c2.7,5.8,5,11.5,6.5,18
	c0.4,2.3,0.8,4.6,1.2,7.3c0.4,2.3,0.8,5,0.8,7.3C333.3,1001.5,333.3,1001.9,332.9,1003C333.3,1002.5,332.9,1003,332.9,1003z"/>
<path fill="#6A6A6A" d="M327.9,1004.5c-1.5-4.2-4.6-7.3-7.3-10.8c-6.1-6.9-13.8-11.9-21.9-16.5c-12.7-6.9-25-14.2-37.2-21.9
	c-1.2-0.8-1.5-1.5-1.5-2.7c0-11.5,1.2-22.7,5.4-33.4c1.2-3.5,2.7-6.5,4.2-9.6c0.4-0.4,0.4-1.2,0.8-0.8c0.4,0,0.4,0.8,0.8,1.2
	c2.7,11.9,8.8,21.9,16.5,31.1c9.6,11.9,18.8,23.4,28.4,35.3c3.8,5,7.7,9.6,10,15.4c1.5,3.5,2.3,7.3,3.1,11.1c0,0.4,0,0.4,0,0.8
	C328.3,1004.2,328.3,1004.2,327.9,1004.5z"/>
<path fill="#6A6A6A" d="M309.1,1027.6c-2.7,1.2-5.4,1.2-8.1,1.5c-16.1,1.5-33-1.5-47.6-8.8c-11.1-5.4-21.1-12.7-29.2-21.9
	c-8.4-9.2-13.1-21.5-15-33.8c0-0.4-0.4-1.2,0.4-1.9c1.2,1.2,1.9,2.7,3.1,3.8c5.8,7.3,13.4,12.7,21.5,16.9c1.9,1.2,3.5,2.3,5,4.6
	c7.7,13.4,18,24.2,32.3,31.1c8.1,3.8,16.5,5.8,25.3,7.3C301.1,1026.8,304.9,1026.8,309.1,1027.6z"/>
<path fill="#6A6A6A" d="M254.6,949.5c-4.6-4.6-9.2-9.2-12.3-14.6c-1.2-2.3-2.3-5-3.8-7.3c-1.9-3.8-0.8-7.3,0.8-10.8
	c6.1-13.8,15.7-25,28.4-33.4c0.4-0.4,0.8-0.8,1.2-0.4c0.4,0.4,0.4,0.8,0.4,1.2c0,5.4,0,11.1,0,16.5c0,0.8,0,1.2-0.8,1.9
	c-5.4,6.1-8.1,13.8-10.8,21.1c-2.3,7.3-3.5,15-3.1,22.7c0,0.4,0,0.8,0,1.5C255,948.5,255.4,948.9,254.6,949.5z"/>
<path fill="#6A6A6A" d="M235,979.2c-2.7-1.9-5.8-3.8-8.4-5.8c-5.4-4.2-10.8-8.4-15-14.2c-2.7-3.1-3.1-6.5-2.7-10.4
	c1.5-10.4,5.4-19.6,10.8-28c2.3-3.8,5-7.3,8.1-10.8c0.4-0.4,0.8-1.2,1.2-0.8c0.8,0,0.4,0.8,0.4,1.5c0.4,3.5,1.2,7.3,1.9,10.8
	c0.8,2.7,0,5-0.4,7.7c-1.2,7.3-1.9,14.6-1.5,21.9c0.4,9.2,1.9,18.4,5.4,26.9c0,0.4,0,0.4,0.4,0.8C235.4,978.4,235.4,978.8,235,979.2
	z"/>
<path fill="#6A6A6A" d="M262.7,986.9c-6.5-0.8-12.7-2.3-18.8-4.2c-1.2-0.4-1.9-1.2-2.3-1.9c-3.8-9.2-6.5-18.8-6.5-28.8
	c0-5.8,0-11.5,0.4-17.7c0-0.4-0.4-1.2,0.4-1.2c0.8,0,0.4,0.8,0.8,1.2c3.5,8.4,9.6,15.4,16.9,21.1c2.7,2.3,4.6,4.2,5,8.4
	c0.4,7.7,3.1,15,5.4,22.3C263.8,986,263.8,987.2,262.7,986.9z"/>
<path fill="#6A6A6A" d="M316.4,1021.8c-8.4-0.4-16.5-3.1-23.8-7.3c-5.8-3.8-10.8-8.4-15-14.2c-1.5-1.9-2.7-4.2-4.2-6.1
	c-0.4-0.4-0.4-0.8-0.4-1.2c0.4-0.4,0.8-0.4,1.2-0.4c7.3,1.2,15,1.5,22.3,3.5c5,1.2,9.6,2.3,14.2,4.6c7.7,4.2,12.7,10.8,15.7,18.8
	c0.8,1.5-1.9,1.9-3.1,1.9C321,1021.8,318.7,1021.8,316.4,1021.8L316.4,1021.8z"/>
<path fill="#6A6A6A" d="M319.9,1001.5C319.5,1001.5,319.5,1001.5,319.9,1001.5c-0.8-0.4-0.8-0.8-1.2-0.8c-0.8-0.4-1.5-0.8-2.3-1.5
	c-1.5-0.8-3.1-1.5-4.6-2.3h-0.4c-3.1-1.2-6.1-2.3-9.2-3.1s-6.5-1.5-9.6-1.9c-1.5-0.4-3.1-0.4-4.6-0.8c-0.8,0-1.5-0.4-2.3-0.4
	s-1.5-0.4-2.3-0.4c-4.2-0.8-8.4-1.2-12.3-1.5c-1.2,0-1.5-0.8-1.9-1.5c-2.3-5.4-4.2-10.8-5.4-16.1c-0.8-2.3-1.2-5-1.5-7.3
	c0-0.4-0.4-0.8,0-1.2s0.8,0,1.2,0.4c3.5,1.9,6.5,4.2,10,6.1c10.8,6.1,21.5,12.3,31.9,18.4c5.8,3.5,10.4,7.7,14.6,12.7
	c0,0.4,0.4,0.4,0.4,0.8C320.3,1001,319.9,1001,319.9,1001.5L319.9,1001.5z"/>
<path fill="#6A6A6A" d="M294.5,1021.8c-10.4-1.2-19.6-4.6-28-10.4c-8.4-5.8-15.7-13.1-21.1-21.9c-0.4-0.4-0.8-1.2-0.4-1.5
	c0.4-0.8,1.2,0,1.9,0c5.8,1.5,11.9,3.1,18,3.5c1.2,0,1.5,0.8,2.3,1.5c5.8,8.8,11.9,17.3,20.7,23.4c2.3,1.5,4.6,2.7,7.3,3.8
	c0.4,0,1.2,0,1.2,0.8C295.7,1022.2,294.9,1021.8,294.5,1021.8z"/>
<path fill="#6A6A6A" d="M466.6,1010.2c-5.4,2.7-15.7,5.4-29.2,5.4c-31.5,0-54.9-20-54.9-56.1c0-34.9,23.4-58.4,58-58.4
	c13.8,0,22.7,3.1,26.5,5l-3.5,11.5c-5.4-2.7-13.1-4.6-22.3-4.6c-26.1,0-43.4,16.5-43.4,45.7c0,27.3,15.7,44.5,42.6,44.5
	c8.8,0,17.7-1.9,23.4-4.6L466.6,1010.2z"/>
<path fill="#6A6A6A" d="M554.5,973.4c0,29.6-20.4,42.2-39.6,42.2c-21.5,0-38.4-15.7-38.4-41.1c0-26.9,17.7-42.2,39.6-42.2
	C539.1,932.4,554.5,949.2,554.5,973.4z M491.1,974.2c0,17.3,10,30.7,24.2,30.7c13.8,0,24.2-13.1,24.2-31.1
	c0-13.4-6.9-30.7-23.8-30.7C498.8,943.5,491.1,959.2,491.1,974.2z"/>
<path fill="#6A6A6A" d="M639.7,992.2c0,8.1,0,15.4,0.8,21.9h-12.7l-0.8-13.1h-0.4c-3.8,6.5-12.3,15-26.5,15
	c-12.7,0-27.6-6.9-27.6-34.9v-46.8h14.6v44.2c0,15,4.6,25.3,17.7,25.3c9.6,0,16.5-6.9,19.2-13.1c0.8-2.3,1.2-4.6,1.2-7.3v-49.2h14.6
	L639.7,992.2L639.7,992.2z"/>
<path fill="#6A6A6A" d="M663.6,959.2c0-9.2,0-17.3-0.8-25h12.7l0.4,15.7h0.8c3.5-10.8,12.3-17.3,22.3-17.3c1.5,0,2.7,0,4.2,0.4v13.8
	c-1.5-0.4-3.1-0.4-5-0.4c-10.4,0-17.7,7.7-19.6,18.8c-0.4,1.9-0.8,4.2-0.8,6.9v42.6h-14.2L663.6,959.2L663.6,959.2z"/>
<path fill="#6A6A6A" d="M760.7,1014l-1.2-10h-0.4c-4.6,6.1-13.1,11.9-24.6,11.9c-16.1,0-24.6-11.5-24.6-23c0-19.2,17.3-30,48-29.6
	v-1.5c0-6.5-1.9-18.4-18-18.4c-7.3,0-15,2.3-20.7,5.8l-3.5-9.6c6.5-4.2,16.1-6.9,26.1-6.9c24.6,0,30.3,16.5,30.3,32.6v30
	c0,6.9,0.4,13.8,1.2,19.2h-12.7v-0.5H760.7z M758.8,973.4c-15.7-0.4-33.8,2.3-33.8,18c0,9.2,6.1,13.8,13.8,13.8
	c10.4,0,16.9-6.5,19.2-13.4c0.4-1.5,0.8-3.1,0.8-4.6V973.4z"/>
<path fill="#6A6A6A" d="M864.8,934.2c-0.4,5.8-0.8,12.3-0.8,21.9v46.5c0,18.4-3.5,29.6-11.5,36.5c-7.7,7.3-18.8,9.6-29.2,9.6
	c-9.6,0-20-2.3-26.5-6.5l3.5-11.1c5.4,3.5,13.4,6.1,23.4,6.1c15,0,25.7-7.7,25.7-28v-8.8H849c-4.6,7.3-13.1,13.4-25.3,13.4
	c-20,0-33.8-16.9-33.8-38.8c0-26.9,17.7-42.2,36.1-42.2c13.8,0,21.5,7.3,25,13.8h0.4l0.8-11.9h12.7v-0.5H864.8z M849.8,965.8
	c0-2.3,0-4.6-0.8-6.5c-2.7-8.4-9.6-15.4-20.4-15.4c-13.8,0-23.8,11.5-23.8,30.3c0,15.7,8.1,28.8,23.4,28.8c8.8,0,16.9-5.8,20-15
	c0.8-2.3,1.2-5.4,1.2-7.7v-14.6h0.4V965.8z"/>
<path fill="#6A6A6A" d="M896.3,976.9c0.4,19.6,12.7,27.6,27.3,27.6c10.4,0,16.5-1.9,22.3-4.2l2.3,10.4c-5,2.3-13.8,5-26.5,5
	c-24.6,0-39.2-16.1-39.2-40.3s14.2-43,37.2-43c26.1,0,33,23,33,37.6c0,3.1-0.4,5.4-0.4,6.9H896.3L896.3,976.9z M938.9,966.5
	c0-9.2-3.8-23.4-20-23.4c-14.6,0-21.1,13.4-22.3,23.4H938.9z"/>
<path fill="#6A6A6A" d="M1018.4,1014l-28-111h15l13.1,56.1c3.5,13.8,6.1,27.6,8.1,38.4h0.4c1.9-11.1,5.4-24.2,9.2-38.4l15-56.1h15
	l13.4,56.4c3.1,13.1,6.1,26.5,7.7,38h0.4c2.3-12.3,5.4-24.6,8.8-38.4l14.6-56.1h14.6l-31.5,111h-15l-13.8-58
	c-3.5-14.2-5.8-25-7.3-36.1h-0.4c-1.9,11.1-4.6,21.9-8.4,36.1l-15.7,58L1018.4,1014L1018.4,1014z"/>
<path fill="#6A6A6A" d="M1206.1,973.4c0,29.6-20.4,42.2-39.6,42.2c-21.5,0-38.4-15.7-38.4-41.1c0-26.9,17.7-42.2,39.6-42.2
	C1190.4,932.4,1206.1,949.2,1206.1,973.4z M1142.8,974.2c0,17.3,10,30.7,24.2,30.7c13.8,0,24.2-13.1,24.2-31.1
	c0-13.4-6.9-30.7-23.8-30.7C1150.1,943.5,1142.8,959.2,1142.8,974.2z"/>
<path fill="#6A6A6A" d="M1224.2,959.2c0-9.2,0-17.3-0.8-25h12.7l0.4,15.7h0.8c3.5-10.8,12.3-17.3,22.3-17.3c1.5,0,2.7,0,4.2,0.4
	v13.8c-1.5-0.4-3.1-0.4-5-0.4c-10.4,0-17.7,7.7-19.6,18.8c-0.4,1.9-0.8,4.2-0.8,6.9v42.6h-14.2V959.2L1224.2,959.2z"/>
<path fill="#6A6A6A" d="M1278.7,897h14.6V1014h-14.6V897z"/>
<path fill="#6A6A6A" d="M1386.6,897v96.4c0,6.9,0,15,0.8,20.7h-13.1l-0.8-13.8h-0.4c-4.6,8.8-14.2,15.7-27.3,15.7
	c-19.2,0-34.2-16.1-34.2-40.7c0-26.5,16.1-43,35.7-43c12.3,0,20.4,5.8,24.2,12.3h0.4V897H1386.6z M1372,966.9c0-1.9,0-4.2-0.8-6.1
	c-2.3-9.2-10-16.9-21.1-16.9c-15,0-23.8,13.1-23.8,30.7c0,16.1,8.1,29.6,23.4,29.6c9.6,0,18.4-6.5,21.1-17.3
	c0.4-1.9,0.8-3.8,0.8-6.1V967h0.4V966.9z"/>
<path fill="#6A6A6A" d="M1416.6,934.2L1427,975c2.3,8.8,4.6,17.3,5.8,25.3h0.4c1.9-8.1,4.6-16.5,6.9-25.3l13.1-40.7h12.3l12.3,39.9
	c3.1,9.6,5.4,18,6.9,26.1h0.4c1.2-8.1,3.5-16.5,6.1-25.7l11.5-39.9h14.2l-25.7,79.9h-12.7l-12.3-38c-2.7-8.8-5-16.9-6.9-26.1h-0.4
	c-1.9,9.6-4.6,17.7-7.3,26.5l-12.7,38h-13.1l-24.2-80.6h15V934.2z"/>
<path fill="#6A6A6A" d="M1547.9,912c0,5-3.5,8.8-9.2,8.8c-5,0-8.8-3.8-8.8-8.8s3.8-9.2,9.2-9.2S1547.9,906.5,1547.9,912z
	 M1531.8,1014v-79.9h14.6v79.9H1531.8L1531.8,1014z"/>
<path fill="#6A6A6A" d="M1639.3,897v96.4c0,6.9,0,15,0.8,20.7H1627l-0.8-13.8h-0.4c-4.6,8.8-14.2,15.7-27.3,15.7
	c-19.2,0-34.2-16.1-34.2-40.7c0-26.5,16.1-43,35.7-43c12.3,0,20.4,5.8,24.2,12.3h0.4V897H1639.3z M1624.7,966.9c0-1.9,0-4.2-0.8-6.1
	c-2.3-9.2-10-16.9-21.1-16.9c-15,0-23.8,13.1-23.8,30.7c0,16.1,8.1,29.6,23.4,29.6c9.6,0,18.4-6.5,21.1-17.3
	c0.4-1.9,0.8-3.8,0.8-6.1V967h0.4V966.9z"/>
<path fill="#6A6A6A" d="M1671.6,976.9c0.4,19.6,12.7,27.6,27.3,27.6c10.4,0,16.5-1.9,22.3-4.2l2.3,10.4c-5,2.3-13.8,5-26.5,5
	c-24.6,0-39.2-16.1-39.2-40.3s14.2-43,37.2-43c26.1,0,33,23,33,37.6c0,3.1-0.4,5.4-0.4,6.9H1671.6L1671.6,976.9z M1714.2,966.5
	c0-9.2-3.8-23.4-20-23.4c-14.6,0-21.1,13.4-22.3,23.4H1714.2z"/>
</svg>
