<?xml version="1.0" encoding="utf-8"?>
<!-- Generator: Adobe Illustrator 18.1.1, SVG Export Plug-In . SVG Version: 6.00 Build 0)  -->
<svg class="fill-path" version="1.1" id="Layer_1" xmlns="http://www.w3.org/2000/svg" xmlns:xlink="http://www.w3.org/1999/xlink" x="0px" y="0px"
	 viewBox="0 481.9 1920 956.3" enable-background="new 0 481.9 1920 956.3" xml:space="preserve">
<path fill="#6A6A6A" d="M695.3,1013.4c-18.8,0-31.5,9.6-38.8,23v-95.6h-16.9v175.9h16.9l-0.4-21.5c6.9,13.8,21.1,23.4,38.8,23.4
	c27.6,0,48.8-22.3,48.8-52.6C744.1,1035.6,723,1013.4,695.3,1013.4z M691.9,1103.6c-21.5,0-35.7-15.7-35.7-37.6
	c0-21.5,14.2-37.2,35.7-37.2c21.1,0,34.9,15.7,34.9,37.2S713,1103.6,691.9,1103.6z"/>
<path fill="#6A6A6A" d="M815.1,1013.4c-30.3,0-53.4,23-53.4,52.6s23.4,52.2,53.4,52.2s53-23,53-52.2
	C868.1,1036.4,845.1,1013.4,815.1,1013.4z M815.1,1103.6c-21.5,0-36.1-16.1-36.1-37.6s14.6-37.6,36.1-37.6s35.7,16.1,35.7,37.6
	S836.3,1103.6,815.1,1103.6z"/>
<path fill="#6A6A6A" d="M938.8,1013.4c-30.3,0-53.4,23-53.4,52.6s23.4,52.2,53.4,52.2s53-23,53-52.2
	C991.8,1036.4,968.7,1013.4,938.8,1013.4z M938.8,1103.6c-21.5,0-36.1-16.1-36.1-37.6s14.6-37.6,36.1-37.6s35.7,16.1,35.7,37.6
	S960.3,1103.6,938.8,1103.6z"/>
<path fill="#6A6A6A" d="M1098.9,1015.7h-19.6l-48,51.8c0.8-4.2,1.2-9.2,1.2-14.2V940.8h-16.9v175.9h16.9V1086l15.7-16.5l36.5,47.2
	h20.4l-44.9-58.4L1098.9,1015.7z"/>
<rect x="1126.9" y="940.8" fill="#6A6A6A" width="16.9" height="175.9"/>
<path fill="#6A6A6A" d="M1221.4,1013.4c-19.2,0-32.3,7.7-41.1,19.6l10.4,9.6c6.1-8.4,15.4-14.6,29.6-14.6c15,0,23.4,7.7,23.4,26.9
	v2.3h-31.5c-21.1,0-38.4,9.6-38.4,30.3c0,21.1,15.7,30.7,36.9,30.7c16.1,0,26.5-6.9,33.4-16.9l-0.8,15h16.9v-61.8
	C1261,1026.4,1243.8,1013.4,1221.4,1013.4z M1243.8,1082.9c0,13.1-13.1,21.5-28.8,21.5s-24.2-6.1-24.2-17.7c0-12.3,10-16.9,23-16.9
	h30.3v13.1L1243.8,1082.9L1243.8,1082.9z"/>
<path fill="#6A6A6A" d="M1361.9,1071c0,19.6-12.3,31.9-31.5,31.9c-16.5,0-25-9.6-25-27.3v-60.3h-16.9v61.8
	c0,25.7,15.4,41.1,37.6,41.1c16.1,0,29.6-8.4,36.1-22.7l-0.4,20.4h16.9v-100.6h-16.8V1071L1361.9,1071z"/>
<path fill="#6A6A6A" d="M1461.8,1013.4c-16.1,0-29.6,8.4-36.1,23l0.4-20.7h-16.9v100.6h16.9v-55.7c0-20,12.7-31.9,31.5-31.9
	c16.9,0,25,10.4,25,28v59.5h16.9v-61.4C1499.4,1028.7,1484.4,1013.4,1461.8,1013.4z"/>
<path fill="#6A6A6A" d="M1572,1103.6c-21.5,0-34.9-16.1-34.9-37.6s13.4-37.6,34.9-37.6c12.7,0,21.5,5,27.6,13.1l12.3-10
	c-9.2-11.1-21.5-18-39.6-18c-29.6,0-52.2,23-52.2,52.6s22.7,52.2,52.2,52.2c18.8,0,31.1-6.5,40.7-18l-11.5-10
	C1594.8,1097.9,1585.8,1103.6,1572,1103.6z"/>
<path fill="#6A6A6A" d="M1690.3,1013.4c-16.1,0-29.6,8.4-35.7,21.9v-94.5h-16.9v175.9h16.9V1061c0-20,12.7-31.9,31.5-31.9
	c16.9,0,25,10.4,25,28v59.5h16.9v-61.4C1727.9,1028.7,1712.5,1013.4,1690.3,1013.4z"/>
<polygon fill="#6A6A6A" points="579,832.9 563.2,832.1 569.4,841.3 569.4,841.3 569.4,841.3 559.8,864 556.3,858.6 548.6,863.6 
	557.5,839.8 557.5,839.8 552.5,831.7 534,831 499.9,801.8 487.6,804.9 483,801.4 454.2,875.1 503.7,910.5 503.7,910.5 504.1,910.5 
	504.1,910.5 504.1,910.5 563.2,917.8 592,844 586.3,843.3 "/>
<path fill="#6A6A6A" d="M415.8,1033.7c13.1-13.1,26.1-26.9,37.6-41.5c7.7-9.6,15-20,21.9-30.3c8.4-13.4,16.1-26.9,21.9-41.1
	c-7.3,12.3-16.9,26.1-28.4,40.3c-0.4,0.4-0.8,0.8-1.2,1.5l-0.4-1.5c-5.4-18.4-16.1-34.9-30.7-47.6c-18.4-15.7-41.9-24.6-66-24.6
	c-36.1,0-69.1,19.2-86.8,49.9c-0.8,0-1.9,0-2.7,0c-42.2,0-77.6,29.6-86.8,68.7c-1.5,6.5-2.3,13.4-2.3,20.4
	c0,44.9,33.8,82.6,77.2,88.3c-0.4,0-0.4,0.4-0.8,0.4c3.1,0.4,9.6,0.4,13.1,0.4h24.5c13.8-7.7,30-17.7,47.2-30.3
	C373.1,1071.7,395,1054.1,415.8,1033.7z M282.1,1086.7c-32.3,0-59.1-25.3-59.9-57.6c0-5.8,0.4-11.1,1.9-16.1
	c6.5-25.3,29.6-44.2,56.8-44.2c3.1,0,6.1,0.4,9.2,0.8l11.5,1.9l4.6-10.4c11.5-25.3,36.5-41.9,64.1-41.9c34.6,0,64.5,25.7,69.5,59.5
	l1.9,13.1c-12.7,13.8-27.3,27.6-42.6,41.1c-22.7,19.6-48,38.4-72.6,53.8H282.1L282.1,1086.7z"/>
<path fill="#6A6A6A" d="M488.3,965c0.8-1.5,1.2-2.7,1.9-4.2c6.1-13.8,11.5-28,15.4-42.6c-5,12.7-11.9,26.9-20.7,41.5
	c-5.4,9.6-11.5,19.2-18.4,28.8c-10.4,15-21.9,30.3-34.2,44.9c-16.9,20-35.3,38.8-54.5,55.3c-12.3,10.8-25.3,20-38,28h5.4h15.7h103.7
	l5.8-0.4h0.8c40.3-3.8,70.3-37.2,70.3-77.6c0-3.5-0.4-7.3-0.8-10.8C536.7,998.8,516,974.2,488.3,965z M468.4,1086.3l-4.6,0.4h-65.3
	c15.7-15,32.3-32.6,47.6-53c9.6-13.1,19.2-26.9,27.6-41.5c18.8,4.2,33.4,19.6,36.5,38.8c0.4,2.7,0.8,5,0.8,7.7
	C511,1063.7,493,1084,468.4,1086.3z"/>
</svg>
