<?xml version="1.0" encoding="utf-8"?>
<!-- Generator: Adobe Illustrator 18.0.0, SVG Export Plug-In . SVG Version: 6.00 Build 0)  -->
<!DOCTYPE svg PUBLIC "-//W3C//DTD SVG 1.1//EN" "http://www.w3.org/Graphics/SVG/1.1/DTD/svg11.dtd">
<svg version="1.1" id="Layer_1" xmlns="http://www.w3.org/2000/svg" xmlns:xlink="http://www.w3.org/1999/xlink" x="0px" y="0px"
	 viewBox="0 0 500 200" enable-background="new 0 0 500 200" xml:space="preserve">
<g>
	<g>
		<path fill="#353535" d="M74.5,128v0.6c-0.6,0-1.3,0.1-1.3,0.8c0,1,3.3,10.2,3.7,12.2H77c0.5-2.1,4.4-11.2,4.4-12.2
			c0-0.7-0.7-0.8-1.3-0.8V128H90v0.6c-0.6,0-1.3,0.1-1.3,0.8c0,0.6,4,10.8,4.5,12.2h0.1c0.4-2.1,3.7-11,3.7-12.2
			c0-0.7-0.7-0.8-1.3-0.8V128h8.1v0.6c-1,0.1-1.1,0.6-1.3,1.3c-0.6,1.9-5.9,17.7-5.9,18.2c0,0.4,0.5,0.5,1.3,0.6v0.6H87.6v-0.6
			c1-0.1,1.4-0.2,1.4-0.6c0-1-3.9-10.6-4.3-12.1h-0.1c-0.4,1.5-4.2,11.2-4.2,12.1c0,0.4,0.6,0.5,1.2,0.6v0.6H71.5v-0.6
			c0.8-0.1,1.3-0.2,1.3-0.6c0-0.7-5.8-18.1-6.1-18.9c-0.1-0.6-0.5-0.6-0.8-0.6V128H74.5z"/>
		<path fill="#353535" d="M117.3,128v0.6c-1,0-1.5,0.2-1.5,0.8v18.4c0,0.7,0.6,0.8,1.5,0.8v0.6h-9.6v-0.6c1-0.1,1.5-0.2,1.5-0.8
			v-18.4c0-0.7-0.6-0.8-1.5-0.8V128H117.3z"/>
		<path fill="#353535" d="M125.5,129.4c0-0.7-0.6-0.8-1.3-0.8V128h9v0.6c-0.7,0-1.3,0.2-1.3,0.8v15h13.3c0.4,0,0.8-0.2,0.8-1.2h0.6
			v7.4H146c0-1-0.5-1.2-0.8-1.2h-21.1v-0.6c0.7-0.1,1.3-0.2,1.3-0.8v-18.5H125.5z"/>
		<path fill="#353535" d="M152.5,129.4c0-0.7-0.6-0.8-1.3-0.8V128h9v0.6c-0.7,0-1.3,0.2-1.3,0.8v15h13.3c0.4,0,0.8-0.2,0.8-1.2h0.6
			v7.4H173c0-1-0.5-1.2-0.8-1.2h-21v-0.6c0.7-0.1,1.3-0.2,1.3-0.8V129.4z"/>
		<path fill="#353535" d="M188.1,128v0.6c-1,0-1.5,0.2-1.5,0.8v18.4c0,0.7,0.6,0.8,1.5,0.8v0.6h-9.6v-0.6c1-0.1,1.5-0.2,1.5-0.8
			v-18.4c0-0.7-0.6-0.8-1.5-0.8V128H188.1z"/>
		<path fill="#353535" d="M202.9,141.5l4-8.6l4,8.6H202.9z M221.5,149.4v-0.6c-0.4,0-0.8-0.1-1-0.5c-2.1-5-8.9-18.7-8.9-19.2
			c0-0.4,0.1-0.5,0.6-0.5V128h-10.1v0.6c0.5,0,0.6,0.1,0.6,0.5c0,0.7-4.5,10.1-8.4,19.2c-0.1,0.4-0.6,0.5-1,0.5v0.6h7.2v-0.6
			c-0.2,0-0.6,0-0.6-0.5c0-0.6,1.1-2.4,1.4-3.3h11.3c0.4,0.8,1.4,2.7,1.4,3.3c0,0.5-0.5,0.5-0.6,0.5v0.6
			C213.5,149.4,221.5,149.4,221.5,149.4z"/>
		<path fill="#353535" d="M233.7,147.8c0,0.7,0.6,0.8,1.3,0.8v0.6h-7.6v-0.6c0.5,0,1.1-0.2,1.1-0.8v-18.4c0-0.7-0.6-0.8-1.1-0.8V128
			H238v0.6c-0.5,0-1,0.1-1,0.4c0,0.5,3.6,7.5,3.9,8.4c1.5-3.2,4.3-7.8,4.3-8.4c0-0.2-0.5-0.4-1-0.4V128h10.6v0.6
			c-0.5,0-1.1,0.2-1.1,0.8v18.4c0,0.7,0.6,0.8,1.1,0.8v0.6h-8.1v-0.6c0.7,0,1.3-0.2,1.3-0.8v-13.8H248l-7.2,14l-7-14h-0.1v13.8
			H233.7z"/>
		<path fill="#353535" d="M276.1,142.1l0.6,0.2v0.6c0.1,1,1.7,1.7,4.5,1.7c2.3,0,3.4-0.6,3.4-2.9v-12.4c0-0.7-0.6-0.8-1.1-0.8V128
			h8.6v0.6c-0.4,0-1,0.2-1,0.8v12.8c0,5.7-3.9,7.2-9.5,7.2c-2.6,0-5.9-1-6.3-1c-0.2,0-0.5,0.2-0.8,0.5l-0.5-0.2L276.1,142.1z"/>
		<path fill="#353535" d="M318.9,145.1c0.6,0,1.1-0.4,1.3-1.2h0.6v6.5h-0.5c-0.4-0.8-0.6-1.1-1.3-1.1h-21.7v-0.6
			c0.7-0.1,1.4-0.2,1.4-0.8v-18.5c0-0.7-0.7-0.8-1.4-0.8V128h22.1c0.4,0,0.8-0.2,0.8-1.1h0.6v6.5h-0.6c0-1-0.5-1.2-0.8-1.2h-14.1
			v3.9h9.1c0.4,0,0.8-0.2,0.8-1.1h0.6v6.3h-0.7c0-1-0.5-1.1-0.8-1.1h-9.1v4.8C305.1,145.1,318.9,145.1,318.9,145.1z"/>
		<path fill="#353535" d="M328.7,141.9l0.6,0.4c0,0.1,0,0.2,0,0.5c0,1.3,5.6,2.5,9.5,2.5c1.2,0,4.4-0.2,4.4-2
			c0-3.8-15.9-0.1-15.9-8.2c0-3.1,2.9-7.2,10.8-7.2c4.6,0,8.6,1.3,9.6,1.3c0.5,0,0.8-0.4,1.1-0.6l0.5,0.2l-3,6.1l-0.6-0.2
			c0-0.1,0-0.4,0-0.6c0-0.5-3.4-1.8-6.7-1.8c-1.2,0-5.6,0-5.6,2.1c0,3.4,15.8-0.1,15.8,8.3c0,3.8-3.2,7.1-10.7,7.1
			c-4.6,0-10.1-1.8-10.5-1.8c-0.5,0-0.7,0.4-1.1,0.7l-0.6-0.1L328.7,141.9z"/>
		<path fill="#353535" d="M355.6,141.9l0.6,0.4c0,0.1-0.1,0.2-0.1,0.5c0,1.3,5.6,2.5,9.5,2.5c1.2,0,4.4-0.2,4.4-2
			c0-3.8-15.8-0.1-15.8-8.2c0-3.1,2.9-7.2,10.7-7.2c4.6,0,8.6,1.3,9.6,1.3c0.6,0,0.8-0.4,1.1-0.6l0.6,0.2l-2.9,6.1l-0.7-0.2
			c0-0.1,0.1-0.4,0.1-0.6c0-0.5-3.4-1.8-6.7-1.8c-1.2,0-5.6,0-5.6,2.1c0,3.4,15.8-0.1,15.8,8.3c0,3.8-3.2,7.1-10.7,7.1
			c-4.6,0-10.1-1.8-10.5-1.8c-0.5,0-0.8,0.4-1.1,0.7l-0.5-0.1L355.6,141.9z"/>
		<path fill="#353535" d="M382.7,129.4c0-0.7-0.6-0.8-1.4-0.8V128h8.8v0.6c-0.4,0-0.8,0.2-0.8,0.8v11.8c0,2.5,2,3.4,4.9,3.4
			c2.9,0,4.9-1,4.9-3.4v-11.8c0-0.7-0.5-0.8-0.8-0.8V128h8.7v0.6c-0.8,0-1.4,0.2-1.4,0.8v10.7c0,5.1-2.9,9.5-11.4,9.5
			c-8.6,0-11.3-4.4-11.3-9.5L382.7,129.4L382.7,129.4z"/>
		<path fill="#353535" d="M419.2,132h5c2.4,0,3.4,0.8,3.4,2.9c0,2.1-1.2,2.9-3.8,2.9h-4.6V132z M412.8,147.8c0,0.7-0.6,0.8-0.8,0.8
			v0.6h8.4v-0.6c-0.5,0-1.1-0.2-1.1-0.8v-5.9h5.5c4.8,0,9.3-1.3,9.3-6.9s-4.4-7-9.3-7h-12.7v0.6c0.2,0,0.8,0.2,0.8,0.8v18.4H412.8z"
			/>
		<path fill="#353535" d="M114.1,164.2v0.5c-0.4,0-0.7,0.2-0.7,1v9.1c0,1.9,1.3,3,3.8,3c2.5,0,3.8-1.2,3.8-3v-9.1c0-0.7-0.4-1-0.7-1
			v-0.5h5v0.5c-0.4,0-0.7,0.2-0.7,1v8.7c0,4.2-2.7,5.9-7.5,5.9s-7.5-1.8-7.5-5.9v-8.7c0-0.7-0.4-1-0.7-1v-0.5
			C108.8,164.2,114.1,164.2,114.1,164.2z"/>
		<path fill="#353535" d="M142.1,180.2v-0.5c0.5,0,1-0.2,1-1v-13.1c0-0.7-0.4-1-1-1v-0.5h6.1v0.5c-0.4,0.1-0.6,0.2-0.6,0.5
			c0,0.4,0.6,1.2,1,1.5l5.9,8.2h0.1v-9.3c0-0.7-0.4-1-0.8-1v-0.5h4.9v0.5c-0.5,0-0.8,0.2-0.8,1v13.1c0,0.7,0.4,1,0.8,1v0.5h-5.2
			v-0.5c0.2,0,0.5-0.2,0.5-0.4c0-0.2-0.1-0.5-0.5-0.8l-7-9.3h-0.1v9.6c0,0.7,0.4,1,1,1v0.5h-5.1V180.2z"/>
		<path fill="#353535" d="M176.2,180.2v-0.5c0.5,0,0.8-0.2,0.8-1v-13.1c0-0.7-0.4-1-0.8-1v-0.5h5.5v0.5c-0.6,0-0.8,0.2-0.8,1v13.1
			c0,0.7,0.4,1,0.8,1v0.5C181.7,180.2,176.2,180.2,176.2,180.2z"/>
		<path fill="#353535" d="M197.8,164.2h5.5v0.5c-0.5,0.1-0.7,0.2-0.7,0.6c0,0.2,0.2,0.8,0.4,1.1l3.4,9.7l0,0l3.6-9.5
			c0.1-0.5,0.4-1,0.4-1.3c0-0.4-0.1-0.5-0.7-0.5v-0.5h5v0.5c-0.7,0-1,0.5-1.2,1l-4.6,12c-0.2,0.5-0.5,1.1-0.5,1.4
			c0,0.2,0.1,0.5,0.5,0.5v0.5h-5.1v-0.5c0.2,0,0.4-0.4,0.4-0.5c0-0.2-0.1-0.6-0.5-1.3l-4.6-12c-0.2-0.7-0.6-0.8-1.2-1v-0.7H197.8z"
			/>
		<path fill="#353535" d="M231.1,165.7c0-0.7-0.4-1-0.7-1v-0.5h12.1c0.7,0,1-0.2,1.1-0.7h0.6v4.2h-0.6c-0.1-0.7-0.4-1-1.1-1h-7.7
			v3.9h4.6c0.7,0,1-0.1,1.1-0.8h0.6v4.2h-0.6c-0.1-0.6-0.4-0.8-1.1-0.8h-4.6v4.4h7.7c0.7,0,1-0.2,1.1-0.8h0.6v4h-0.6
			c-0.1-0.5-0.4-0.7-1.1-0.7h-12.1v-0.5c0.4,0,0.7-0.2,0.7-1V165.7z"/>
		<path fill="#353535" d="M265.6,166.6h3.7c3.1,0,4.2,0.7,4.2,2.4c0,1.8-1.1,2.4-4.2,2.4h-3.7V166.6z M266.4,180.2v-0.5
			c-0.4,0-0.7-0.2-0.7-1v-4.9h3.2l3.2,4.6c0.4,0.4,0.4,0.6,0.4,0.8s-0.2,0.2-0.5,0.2v0.5h5v-0.5c-0.5-0.1-0.6-0.4-1.2-1.1l-3.4-5
			c2.5-0.2,4.5-2.3,4.5-4.4c0-2.9-1.9-4.9-6.3-4.9h-9.4v0.5c0.4,0,0.7,0.2,0.7,1v13.1c0,0.7-0.4,1-0.7,1v0.5
			C261.2,180.2,266.4,180.2,266.4,180.2z"/>
		<path fill="#353535" d="M306,168.7l-0.5-0.1c0-1.2-2-2.1-5-2.1c-2.3,0-3.4,0.8-3.4,2.1c0,3.3,10.9,0.8,10.9,7.4
			c0,2.7-3,4.5-6.5,4.5c-4.4,0-6.1-1.5-7-1.5c-0.4,0-0.4,0.2-0.6,0.4l-0.5-0.1l2.3-3.9l0.6,0.2c0,0.1-0.1,0.4-0.1,0.5
			c0,1.1,2.9,2.1,5.5,2.1c2.4,0,3.7-0.8,3.7-2.4c0-3-10.9-0.7-10.9-6.9c0-2.7,2.4-4.6,6.8-4.6c2.9,0,5.8,1.3,6.2,1.3
			c0.2,0,0.5-0.1,0.7-0.2l0.4,0.1L306,168.7z"/>
		<path fill="#353535" d="M325.8,180.2v-0.5c0.5,0,0.8-0.2,0.8-1v-13.1c0-0.7-0.4-1-0.8-1v-0.5h5.3v0.5c-0.6,0-0.8,0.2-0.8,1v13.1
			c0,0.7,0.4,1,0.8,1v0.5C331.2,180.2,325.8,180.2,325.8,180.2z"/>
		<path fill="#353535" d="M347.5,167.4v-3.8h0.6c0.1,0.4,0.4,0.7,1.1,0.7h10.9c0.7,0,1-0.4,1.1-0.7h0.6v3.9h-0.6
			c-0.1-0.5-0.4-0.7-1.1-0.7h-3.7v11.9c0,0.7,0.4,1,0.6,1v0.5h-4.9v-0.5c0.2,0,0.7-0.2,0.7-1v-11.9h-3.7c-0.7,0-1,0.2-1.1,0.7h-0.6
			V167.4z"/>
		<path fill="#353535" d="M382.1,180.2v-0.5c0.2,0,0.7-0.2,0.7-1v-5.9l-4.6-6.8c-0.6-1-0.7-1.1-1.7-1.1v-0.5h5.6v0.5
			c-0.2,0-0.6,0.1-0.6,0.4c0,0.2,0.2,0.7,0.5,1l2.9,4.3l2.6-4.3c0.2-0.4,0.5-0.8,0.5-1.1c0-0.2-0.2-0.2-0.6-0.2v-0.5h5.1v0.5
			c-0.8,0-1,0.4-1.5,1.2l-4.4,6.7v6.1c0,0.7,0.4,1,0.5,1v0.5h-4.9V180.2z"/>
	</g>
	<polygon fill="#353535" points="243.3,94.8 252.9,94.9 262.5,19.3 208.2,36 208.6,39.6 244.3,29 	"/>
	<polygon fill="#353535" points="223.3,94.9 223.2,57 238.4,52.5 238.9,44.1 215.9,50.9 220,94.9 	"/>
	<polygon fill="#353535" points="269.2,111.9 200.4,111.9 199.4,114.1 270.2,114.1 	"/>
	<polygon fill="#353535" points="261.1,106.7 260.4,104.8 209.2,104.8 208.4,106.7 	"/>
	<polygon fill="#353535" points="253.5,100.8 253,99.3 216.6,99.3 216.2,100.8 	"/>
	<polygon fill="#353535" points="269.2,111.9 200.4,111.9 199.4,114.1 270.2,114.1 	"/>
	<polygon fill="#353535" points="261.1,106.7 260.4,104.8 209.2,104.8 208.4,106.7 	"/>
	<polygon fill="#353535" points="253.5,100.8 253,99.3 216.6,99.3 216.2,100.8 	"/>
	<path fill="#353535" d="M230.7,93.2c0.1,0.1,0.2,0.4,0.4,0.5c-3-6.7,12.8-11,4.5-24.4C239.6,75.6,224.5,79.4,230.7,93.2"/>
	<path fill="#353535" d="M229.8,80.6c0,0.1,0.1,0.2,0.2,0.2c-1.9-4.2,8.1-7,2.9-15.3C235.4,69.5,225.9,71.9,229.8,80.6"/>
</g>
</svg>
