<?xml version="1.0" encoding="utf-8"?>
<!-- Generator: Adobe Illustrator 18.1.1, SVG Export Plug-In . SVG Version: 6.00 Build 0)  -->
<svg version="1.1" id="Layer_1" xmlns="http://www.w3.org/2000/svg" xmlns:xlink="http://www.w3.org/1999/xlink" x="0px" y="0px"
	 viewBox="0 160 1920 960" enable-background="new 0 160 1920 960" xml:space="preserve">
<path fill="#6A6A6A" d="M1438.5,754.4c-11.5,22.7-26.1,42.6-51.8,60.3c-24.6,17.7-59.1,27.3-96,28.4l0,0h-47.2v-17.7V769v-11.1h43
	c15,0,28-3.5,39.2-10c11.1-5.8,20.4-13.4,27.6-22.7c8.4-9.6,21.9-40.3,21.9-84.5c0-44.2-13.4-74.9-21.9-84.5
	c-6.9-9.2-16.1-16.9-27.6-23c-11.1-6.1-24.6-9.2-40.3-9.6h-0.8h-41.1v-11.1v-57.6v-17.7h44.9c0.4,0,0.4,0,0.8,0h1.9l0,0
	c36.9,0.8,69.1,10,94.1,27.6c25.3,17.7,42.2,38,53.8,61.1c7.3,11.9,20.7,47.6,20.7,114.4C1459.2,706.8,1441.9,747.1,1438.5,754.4
	 M1090.6,441.1h91v397.8h-91V441.1z M942,689.9H828.7v149h-91.4V441.1h91.4v144.8H942V441.1h91v397.8h-91.4v-149H942z M629.4,842.8
	c-36.9-1.2-71-10.8-96-28.4c-25.3-17.3-40.3-37.2-51.8-60.3c-3.5-7.3-21.1-47.6-21.1-114.4s13.8-102.5,21.1-114.4
	c11.5-22.7,28-43,53.8-61.1c24.6-17.7,57.2-26.9,94.1-27.6l0,0h1.9c0,0,0.4,0,0.8,0H677v17.7v56.4v11.1h-41.1h-0.8
	c-15.4,0.4-28.8,3.5-39.9,9.6c-11.5,6.1-20.7,13.8-27.6,23c-8.4,9.6-21.9,40.3-21.9,84.5c0,44.2,13.4,74.9,21.9,84.5
	c6.9,9.2,16.1,16.9,27.6,22.7c10.8,6.5,23.8,10,38.8,10h43v11.1v56.4v17.7L629.4,842.8L629.4,842.8z"/>
</svg>
