<?xml version="1.0" encoding="utf-8"?>
<!-- Generator: Adobe Illustrator 18.0.0, SVG Export Plug-In . SVG Version: 6.00 Build 0)  -->
<!DOCTYPE svg PUBLIC "-//W3C//DTD SVG 1.1//EN" "http://www.w3.org/Graphics/SVG/1.1/DTD/svg11.dtd">
<svg version="1.1" id="Layer_1" xmlns="http://www.w3.org/2000/svg" xmlns:xlink="http://www.w3.org/1999/xlink" x="0px" y="0px"
	 viewBox="0 0 500 200" enable-background="new 0 0 500 200" xml:space="preserve">
<path fill="#353535" d="M374.6,129.8c-3,5.9-6.8,11.1-13.5,15.7c-6.4,4.6-15.4,7.1-25,7.4l0,0h-12.3v-4.6v-14.7v-2.9H335
	c3.9,0,7.3-0.9,10.2-2.6c2.9-1.5,5.3-3.5,7.2-5.9c2.2-2.5,5.7-10.5,5.7-22s-3.5-19.5-5.7-22c-1.8-2.4-4.2-4.4-7.2-6
	c-2.9-1.6-6.4-2.4-10.5-2.5h-0.2h-10.7v-2.9v-15v-4.6h11.7c0.1,0,0.1,0,0.2,0h0.5l0,0c9.6,0.2,18,2.6,24.5,7.2
	c6.6,4.6,11,9.9,14,15.9c1.9,3.1,5.4,12.4,5.4,29.8C380,117.4,375.5,127.9,374.6,129.8 M284,48.2h23.7v103.6H284V48.2z M245.3,113
	h-29.5v38.8H192V48.2h23.8v37.7h29.5V48.2H269v103.6h-23.8V113H245.3z M163.9,152.8c-9.6-0.3-18.5-2.8-25-7.4
	c-6.6-4.5-10.5-9.7-13.5-15.7c-0.9-1.9-5.5-12.4-5.5-29.8s3.6-26.7,5.5-29.8c3-5.9,7.3-11.2,14-15.9c6.4-4.6,14.9-7,24.5-7.2l0,0
	h0.5c0,0,0.1,0,0.2,0h11.7v4.6v14.7v2.9h-10.7h-0.2c-4,0.1-7.5,0.9-10.4,2.5c-3,1.6-5.4,3.6-7.2,6c-2.2,2.5-5.7,10.5-5.7,22
	s3.5,19.5,5.7,22c1.8,2.4,4.2,4.4,7.2,5.9c2.8,1.7,6.2,2.6,10.1,2.6h11.2v2.9v14.7v4.6L163.9,152.8L163.9,152.8z"/>
</svg>
