<?xml version="1.0" encoding="utf-8"?>
<!-- Generator: Adobe Illustrator 18.1.1, SVG Export Plug-In . SVG Version: 6.00 Build 0)  -->
<svg version="1.1" id="Layer_1" xmlns="http://www.w3.org/2000/svg" xmlns:xlink="http://www.w3.org/1999/xlink" x="0px" y="0px"
	 viewBox="0 160 1920 960" enable-background="new 0 160 1920 960" xml:space="preserve">
<g>
	<g>
		<path fill="#6A6A6A" d="M1418.9,427.6c0-16.9,0-33,0-49.5c0-6.9-3.5-11.1-11.1-11.5c-1.9,0-3.5-2.3-5.4-4.2
			c1.9-1.2,4.2-3.1,5.8-3.1c13.4-2.3,27.3-4.2,41.9-6.5c0,4.2-0.8,8.1-0.8,12.3c0,54.9-0.8,109.4-0.8,164.4c0,3.1,0.8,5.8,0.8,8.8
			c0,7.7,4.6,11.5,11.5,12.3c5.4,0.8,6.5,2.3,5.4,6.5c-14.6,2.3-28.4,5.4-42.6,6.9c-8.1,1.2-3.5-6.5-5.8-10
			c-1.2,0.8-3.1,1.2-4.6,1.9c-30.7,18.8-84.9,10-91.4-45.3c-3.5-32.6,7.7-65.7,40.7-79.1c16.1-6.5,33.8-5.8,50.7-3.5
			C1415.8,427.3,1417,427.6,1418.9,427.6z M1419.3,495.2c0-12.7,0-26.1,0-39.2c0-3.1-1.2-6.5-3.1-8.1c-17.3-13.8-47.6-6.5-56.4,13.8
			c-6.5,16.1-7.7,33-3.5,50.7c6.5,26.1,30.7,39.2,56.4,30.3c4.6-1.9,6.9-4.2,6.9-9.2C1418.9,521,1419.3,507.9,1419.3,495.2z"/>
		<path fill="#6A6A6A" d="M880.5,561.7c-23.8,0-45.3,0-69.1,0c3.1-3.1,4.2-5.8,5.8-5.8c8.8-1.9,13.4-6.9,13.4-15.7
			c0.8-28,0.8-56.4,0.8-84.5c0-8.1-4.2-12.7-12.7-13.4c-1.9,0-4.2-3.1-5.8-4.6c0.8-0.8,1.2-1.2,1.2-1.9c9.2-1.2,19.2-2.3,28.4-3.5
			c2.3-0.8,5.4-1.2,7.7-1.9c10.4-3.5,10.4-3.5,11.5,5.8c10-3.1,20-7.7,29.6-8.8c8.8-1.2,18.8,0,27.3,2.3c15.7,4.6,23.8,17.3,25,33
			c1.2,21.1,1.2,41.9,1.2,62.2c0,5.4,0,10,0.8,14.6c0.8,10.4,3.1,13.4,12.7,16.1c1.9,0.8,3.5,3.1,5.4,4.2c-0.8,0.8-0.8,1.2-1.2,1.9
			c-21.5,0-43,0-66.8,0c3.1-3.1,4.2-5.8,5.4-5.8c9.2-1.9,13.4-8.1,13.4-16.1c0.8-23.4,0.8-46.5,0-69.1c-0.8-16.9-10.4-25-28-25
			c-1.9,0-3.1,0-4.6,0c-19.2,1.9-20.4,3.1-20.4,22.3c0,22.7,0,46.1,0,68.7c0,10,1.9,18.8,14.6,20.4
			C877.8,555.9,879,558.6,880.5,561.7z"/>
		<path fill="#6A6A6A" d="M453.1,556.3c0-12.7,0-25.7,0-38.4c1.9,0,4.2,0,6.9,0c0.8,12.3,5.8,22.3,18,25.7
			c15.7,4.6,31.9,5.8,46.5-4.2c13.4-9.2,13.8-33,0-45.3c-8.8-7.7-18.8-13.8-28.4-21.1c-7.7-5.4-15.7-10.4-22.7-16.1
			c-16.1-13.4-20.4-31.5-15-51.1c4.6-18.8,18.8-29.2,36.9-33c21.5-4.6,43-1.9,64.5,1.2c0,12.7,0,25,0,38c-3.5,1.9-5.8,1.9-6.5-4.2
			c-1.2-11.1-7.7-18-18-19.2c-10-1.2-20-1.9-29.2-0.8c-9.2,0.8-17.3,5.8-20,15.7c-3.1,10.4-2.3,21.1,6.9,28.4
			c9.2,7.7,20,14.6,29.6,21.5c8.1,5.8,16.9,11.5,25,17.3c25.7,20,24.6,75.3-17.3,87.2C503.8,565.9,478.8,564,453.1,556.3z"/>
		<path fill="#6A6A6A" d="M1067.5,496.4c1.2-26.1,8.8-50.7,34.9-63.4c21.5-10.4,44.2-10.4,65.7-0.8c17.3,8.1,26.9,22.7,30.3,41.5
			c5.4,27.3,2.3,53-18,73.3c-21.5,21.1-48.4,22.3-75.3,12.7c-25-8.8-34.9-29.6-36.9-54.9C1068.3,502.1,1068.3,499.5,1067.5,496.4z
			 M1168.9,496C1169.3,495.2,1168.1,496,1168.9,496c-0.8-13.4-3.1-26.9-8.8-38.4c-10.4-22.3-40.7-23.4-51.8-1.9
			c-13.8,26.1-12.7,53.8,1.2,79.1c10.4,20,38,18.8,49.9,0C1167,523.3,1168.9,509.8,1168.9,496z"/>
		<path fill="#6A6A6A" d="M698.9,458c-6.5-1.2-7.7-4.6-4.2-8.8c5.4-6.5,10.4-13.4,16.9-17.3c16.1-9.2,33-9.2,50.7-1.9
			c13.8,5.8,19.2,18,19.2,31.9c0.8,20,0,40.3,0,59.9c0,3.5,0,7.7,0,11.1c0.8,10,4.2,12.3,13.4,10c1.2,0,3.5,0.8,4.6,1.2
			c0.8,0.8,0.8,3.1,0,4.2c-11.5,18.8-39.2,20-46.5,1.9c-11.1,10-23.8,13.8-38.4,12.7c-18-1.9-29.6-11.1-32.6-27.3
			c-3.5-20,4.2-35.7,21.1-42.6c11.5-4.6,23.8-8.1,36.1-12.7c4.6-1.9,11.5-3.5,12.3-6.9c2.3-8.1,0.8-16.9-5.4-23.4
			c-10-11.1-28.4-11.1-40.3-0.8C703.5,452.6,701.2,454.9,698.9,458z M751.9,492.5c-11.5,4.6-21.5,8.1-30.7,13.4
			c-12.7,7.7-13.4,29.6-1.2,36.1c6.9,4.2,23.8,3.1,29.6-2.3c1.2-1.2,2.3-3.1,2.3-4.6C752.6,522.1,751.9,507.9,751.9,492.5z"/>
		<path fill="#6A6A6A" d="M1051.4,555.1c1.9,5.8-0.8,6.5-5.4,6.5c-22.3,0-43.8,0-68,0c2.3-3.1,3.5-5.8,5.4-5.8
			c10.4-1.9,13.8-8.8,14.6-18c0.8-8.8,0.8-17.3,0.8-26.9c0-21.5,0-42.6,0-65.3c-5.8,0-11.1,0-16.1,0c-2.3-5.8-0.8-8.8,4.2-10
			c10-3.1,13.4-8.8,12.3-19.2c-0.8-7.7,0-15,1.9-22.7c5.8-32.6,29.2-43.8,58.8-41.5c8.1,0.8,16.1,4.6,24.6,7.7
			c4.6,1.9,5.4,5.4,2.3,9.2c-3.1,3.5-5.8,7.7-8.1,11.5c-3.1,4.2-4.6,4.2-8.1-0.8c-3.5-4.6-8.8-10-13.8-12.3
			c-12.7-4.6-24.6,2.3-25.7,15.7c-1.9,14.6-1.9,29.2-2.3,44.9c10.4,0,20,0,29.6,0c0,5.8,0,11.1,0,16.9c-9.2,0-18.8,0-28.4,0
			c-0.8,1.9-0.8,3.1-0.8,4.2c0,28.4,0,57.2,0.8,86c0.8,15.7,4.2,18.8,20,20C1048.7,555.1,1050.2,555.1,1051.4,555.1z"/>
		<path fill="#6A6A6A" d="M622.1,445.3c1.2,30.3,1.2,59.5,3.1,87.9c0.8,11.5,12.3,16.9,25,15c5.4-0.8,10-2.3,16.9-4.6
			c-0.8,3.5-0.8,6.5-2.3,8.1c-12.3,13.8-44.9,16.9-59.5,5.4c-9.2-7.7-12.3-18-12.7-29.2c0-24.6,0-48.4,0-73c0-3.1,0-5.8,0-9.2
			c-5.8,0-11.1,0-19.2,0c2.3-3.5,3.5-5.8,5.4-6.5c15.7-7.7,26.1-20,34.9-34.2c1.9-2.3,4.2-4.2,6.5-6.5c0.8,0.8,1.9,1.2,2.3,1.2
			c0,6.9,0.8,13.8,0,21.1c-0.8,7.3,1.9,9.2,8.8,8.8c11.5-0.8,23.4,0,35.7,0c0,5.4,0,10,0,15.7C652.8,445.3,638.2,445.3,622.1,445.3z
			"/>
		<path fill="#6A6A6A" d="M1285.2,555.1c0,2.3,0,4.2,0,6.5c-23.8,0-47.2,0-70.7,0c-0.8-0.8-1.2-1.2-1.9-1.9c1.9-1.9,3.5-4.2,5.4-4.6
			c8.1-2.3,12.7-6.9,12.7-15.7c0.8-28,0.8-56.4,0.8-84.5c0-10.4-3.1-12.3-17.3-13.8c0-2.3,0-4.6-0.8-6.5c15.7-2.3,30.7-4.6,46.5-6.9
			c0.8,2.3,0.8,5.8,1.2,8.8c8.1-3.1,15.7-7.7,23.8-8.8c8.1-0.8,16.9,1.9,25,3.5c5.8,1.9,6.5,6.5,3.5,11.1c-2.3,4.2-4.6,8.8-6.9,12.7
			c-3.1,5.8-6.5,5.4-10,0.8c-7.7-8.8-17.3-10-28-7.7c-4.6,1.2-6.9,3.5-6.5,8.8c0,24.6,0,48.4,0,73
			C1262.2,550.5,1264.5,553.6,1285.2,555.1z"/>
	</g>
	<g>
		<path fill="#6A6A6A" d="M336,666.5c12.7,0,23.8,0,34.9,0c10.4,0,21.5,0,32.6,0c0.8,2.3,1.9,5.4-4.2,6.5
			c-9.2,1.9-12.7,6.5-13.8,16.1c-0.8,8.1-0.8,16.1-0.8,24.6c0,25.7,0,51.1,0.8,76.8c0,5.8,0.8,12.3,1.9,18
			c3.1,16.9,12.3,26.9,29.2,29.2c10,1.2,21.1,1.2,30.7,0c17.3-3.1,28-14.6,28.4-36.1c1.2-38,0.8-76.4,0.8-114
			c0-8.1-5.4-11.5-12.3-13.8c-2.3-0.8-4.2-3.5-5.8-5.4c0.8-0.8,1.2-1.2,1.2-1.9c20,0,39.6,0,60.7,0c0.8,3.1,2.3,6.5-4.2,6.9
			c-8.8,1.2-13.4,6.9-13.4,15.7c-0.8,25.7-0.8,51.8-1.2,77.6c0,12.7-0.8,25.7-1.9,38.4c-3.1,26.1-18,42.6-44.2,48.4
			c-20.4,4.6-40.3,4.6-60.7-1.2c-23.8-6.5-38-23.4-39.2-47.6c-1.2-18.8-1.2-36.9-1.2-55.3c0-19.2,0-38-0.8-57.2
			c0-11.5-2.3-13.8-13.4-18C339.1,671.5,337.9,668.8,336,666.5z"/>
		<path fill="#6A6A6A" d="M606.7,850.8c1.9-1.9,3.5-4.2,5.4-4.6c8.8-1.9,12.3-7.7,12.7-15.7c0.8-23.8,1.2-47.2,0-71
			c-0.8-16.1-10.4-23.8-26.9-24.6c-1.9,0-3.5,0-5.4,0c-19.2,1.9-20.4,3.1-20.4,22.3c0,22.7,0,44.9,0,67.6c0,10.4,1.2,20.4,14.6,22.3
			c1.2,0,2.3,3.1,4.2,5.8c-23.4,0-44.9,0-69.1,0c3.1-3.1,4.6-5.8,6.5-5.8c8.8-1.9,13.4-7.7,13.4-15.7c0.8-28,0.8-56.1,0.8-83.7
			c0-10.4-3.1-12.3-12.7-13.8c-2.3-0.8-3.5-3.5-6.5-5.8c17.3-3.1,31.9-5.4,48.4-8.1c0,0.8,0.8,2.3,1.2,3.5c0,1.9,0,3.1,0.8,4.2
			c10.4-3.1,20-7.7,30.3-9.2c7.7-1.2,16.1-0.8,23.8,1.2c16.9,4.2,28,16.9,28.4,34.2c1.2,20.4,0.8,41.5,1.2,61.8
			c0,5.8,0,11.5,0.8,17.3c0.8,7.7,4.2,12.7,12.3,13.8c2.3,0.8,4.2,3.1,5.8,4.2c-0.8,0.8-0.8,1.2-1.2,1.9c-21.5,0-43,0-64.5,0
			C607.9,852.4,607.5,851.6,606.7,850.8z"/>
		<path fill="#6A6A6A" d="M1440.8,719.9c21.5,0,40.7,0,60.7,0c1.2,4.2,1.2,5.8-4.2,7.7c-8.1,2.3-10.4,6.5-7.7,14.6
			c9.2,25,18.8,49.9,28.4,76.8c1.2-3.1,2.3-5.4,3.1-6.9c7.7-21.5,14.6-43,22.3-65.3c4.6-13.8,3.5-16.1-11.1-20.4c0-2.3,0-4.2,0-6.5
			c16.9,0,33,0,51.8,0c-1.2,2.3-1.9,6.5-3.5,6.9c-8.8,3.1-11.5,10-14.6,16.9c-16.9,44.9-33.8,90.2-50.7,135.2
			c-3.5,9.2-6.9,18.8-12.3,26.9c-13.4,21.5-46.5,28.4-68,15c-5.8-3.5-7.7-6.9-2.3-12.3c1.2-1.2,2.3-3.1,3.5-4.2
			c6.5-8.1,6.5-8.1,13.4-1.2c8.8,8.8,26.1,8.1,33-3.1c8.1-12.7,13.4-27.3,20-41.5c0.8-1.9,0-4.2-1.2-5.8c-15-38-29.6-76.4-44.9-114
			c-2.3-5.8-5.4-10.4-11.5-12.3C1443.1,726.4,1441.9,722.9,1440.8,719.9z"/>
		<path fill="#6A6A6A" d="M928.9,779.8c-1.9,39.2,21.1,69.9,76.4,48.4c5.8,4.6,3.1,8.1-1.2,11.5c-21.5,16.9-46.1,18.8-71,10
			c-23.4-8.8-31.9-28.4-33.8-51.8c-1.9-19.2,1.9-37.2,11.5-54.1c15.7-25.7,51.8-35.7,77.6-20c6.9,4.2,12.7,11.1,16.9,17.3
			c6.5,10,7.7,25,5.4,39.2c-13.4,0-27.3,0-40.7,0C956.2,779.8,942.7,779.8,928.9,779.8z M929.3,766c15.7,0,31.9,0,48.4,0
			c1.2,0,3.5-1.9,3.5-3.1c3.1-11.1-6.5-26.1-17.3-29.6C943.5,726.8,928.1,741.4,929.3,766z"/>
		<path fill="#6A6A6A" d="M756.5,719.9c21.1,0,40.7,0,60.7,0c0.8,3.1,2.3,5.8-3.5,7.7c-9.2,2.3-11.1,6.5-7.7,16.9
			c5.8,16.9,12.3,33,18.8,49.5c2.3,5.4,4.2,11.1,6.9,18.8c2.3-5.8,4.2-10,5.4-13.8c6.9-17.3,14.6-34.9,21.5-53
			c4.6-11.5,3.5-13.4-8.1-18.8c-1.9-0.8-2.3-4.2-4.6-6.9c18.8,0,35.7,0,52.2,0c0,1.9,0,4.2,0,5.8c0,0-0.8,0.8-1.2,1.2
			c-8.8,1.9-12.7,7.7-16.1,15c-15.7,34.9-30.7,69.9-46.5,104.8c-1.2,2.3-3.1,5.8-5.8,6.5c-9.2,3.5-10.4,3.1-13.8-6.9
			c-13.8-34.2-27.3-69.1-41.5-103.7c-3.1-6.9-5.4-14.6-13.8-16.1C758.4,726.4,757.6,722.9,756.5,719.9z"/>
		<path fill="#6A6A6A" d="M1226.5,753.3c-6.5,2.3-8.1,0.8-9.2-4.6c-4.2-15.7-27.3-23.4-40.3-13.4c-7.7,5.8-7.7,18.8,0.8,25
			c5.8,4.6,12.7,8.1,19.2,12.3c4.6,3.1,8.8,5.4,13.4,8.1c16.1,10.4,22.7,23.4,20,40.7c-3.1,17.3-12.7,27.3-32.6,31.5
			c-18,3.5-36.1,2.3-54.9-4.2c0-11.5,0-22.7,0-34.2c1.9,0,4.6,0,6.9,0c4.6,22.3,17.3,30.3,39.6,25c6.9-1.9,11.5-5.4,13.4-12.3
			c1.9-7.7,0.8-14.6-5.8-18.8c-10-6.9-20.4-13.4-30.7-20c-12.3-7.7-20.4-18-20-33c0-20.4,11.5-34.9,31.9-36.1
			c14.6-1.2,29.2,0.8,43.8,1.2c1.9,0,4.2,3.1,4.6,4.6C1226.5,734.1,1226.5,743.3,1226.5,753.3z"/>
		<path fill="#6A6A6A" d="M1380.1,690.3c0,10,0,19.2,0,29.6c15,0,29.6,0,44.9,0c0,5.8,0,10.4,0,16.9c-14.6,0-29.2,0-44.9,0
			c0,11.1,0,21.1,0,31.5c0,14.6,0,29.6,0.8,44.2c0.8,23.8,13.8,33,36.9,25c1.9-0.8,3.5-1.2,7.7-3.1c-1.9,4.6-1.9,7.7-3.5,9.2
			c-12.7,13.8-45.3,16.1-59.9,4.2c-11.1-9.2-11.5-22.3-11.5-34.9c0-22.3,0.8-44.2,0.8-66.4c0-3.1,0-5.8,0-9.2c-6.5,0-11.5,0-17.3,0
			c0-8.8,8.1-7.7,11.5-11.1c4.2-4.2,9.2-7.7,13.4-11.5c4.2-4.2,6.9-9.2,10.4-13.4C1371.3,696.8,1371.3,688.4,1380.1,690.3z"/>
		<path fill="#6A6A6A" d="M1099.4,849.3c-2.3,1.2-4.2,3.5-6.5,3.5c-22.3,0-43.8,0-68.7,0c2.3-3.1,3.5-5.8,5.4-6.5
			c11.1-4.2,13.8-6.9,14.6-18.8c0.8-26.9,0.8-53.8,0-80.3c0-10-2.3-12.3-12.7-14.6c-1.9-0.8-3.5-3.1-5.4-4.2
			c1.2-1.2,3.1-3.5,4.2-4.2c13.8-1.9,27.3-3.5,42.6-5.4c0,2.3,0.8,5.8,1.2,8.8c7.7-3.1,15-7.7,23.4-8.8c8.1-0.8,17.3,1.2,25.7,3.5
			c5.4,1.2,6.9,5.8,3.5,11.1c-2.3,4.2-4.6,8.1-6.9,12.3c-3.5,6.5-5.8,6.9-11.1,1.2c-7.7-8.1-20-11.1-29.2-6.5
			c-2.3,1.2-4.6,4.6-4.6,6.5c0,26.1,0,52.2,0.8,78.7c0.8,15,3.1,17.3,18.8,19.2c1.2,0,2.3,0,4.2,0.8
			C1098.2,847.4,1099,848.1,1099.4,849.3z"/>
		<path fill="#6A6A6A" d="M1254.5,731c0-2.3,0-4.6,0-5.4c14.6-3.1,28.4-5.8,42.6-8.1c6.5-1.2,5.4,3.1,5.4,6.5
			c-0.8,23.8-0.8,47.6-1.2,71.8c0,11.5,0.8,23.4,0.8,34.9c0,8.8,4.6,13.8,13.4,15c1.9,0.8,3.5,3.1,5.4,4.2c-0.8,0.8-1.2,1.2-1.2,1.9
			c-22.3,0-44.2,0-66.4,0c-0.8-0.8-1.2-1.2-1.9-1.9c1.9-1.9,3.1-4.2,5.4-4.6c11.1-3.1,14.6-5.8,14.6-16.9c0.8-28,0.8-56.4,0-84.5
			C1271.4,735.2,1268.4,733.3,1254.5,731z"/>
		<path fill="#6A6A6A" d="M751.1,852.7c-22.3,0-44.2,0-66.4,0c-0.8-0.8-1.2-1.2-1.9-1.9c1.9-1.9,3.1-4.2,5.4-4.6
			c10.4-3.1,14.6-5.8,14.6-16.9c0.8-28,0.8-56.4,0-84.5c0-9.2-3.1-11.5-16.1-13.4c0-0.8-0.8-1.2-0.8-2.3c0-1.9,0-3.1,0-3.1
			c14.6-3.1,28.4-5.8,42.6-8.8c5.8-1.2,5.4,2.3,5.4,5.8c-0.8,30.3-0.8,60.7-1.2,91c0,5.8,0.8,11.5,0.8,16.9c0,8.8,5.4,13.8,13.8,15
			c1.9,0.8,3.5,3.1,5.4,4.2C752.3,850.8,751.9,851.6,751.1,852.7z"/>
		<path fill="#6A6A6A" d="M1286,660c10.4,0,17.3,6.9,16.9,16.9c0,10-7.7,16.9-17.3,16.9c-10.4,0-17.3-6.9-17.3-16.9
			C1268,666.5,1275.3,660,1286,660z"/>
		<path fill="#6A6A6A" d="M700,676.5c0-10.4,7.7-16.9,18.8-16.9c10.4,0,16.9,6.5,16.9,16.1c0,10.4-7.7,17.3-18,17.3
			C706.6,693.8,699.3,686.8,700,676.5z"/>
	</g>
</g>
</svg>
