<?xml version="1.0" encoding="utf-8"?>
<!-- Generator: Adobe Illustrator 18.0.0, SVG Export Plug-In . SVG Version: 6.00 Build 0)  -->
<!DOCTYPE svg PUBLIC "-//W3C//DTD SVG 1.1//EN" "http://www.w3.org/Graphics/SVG/1.1/DTD/svg11.dtd">
<svg version="1.1" id="Layer_1" xmlns="http://www.w3.org/2000/svg" xmlns:xlink="http://www.w3.org/1999/xlink" x="0px" y="0px"
	 viewBox="0 0 500 200" enable-background="new 0 0 500 200" xml:space="preserve">
<g id="Stanford">
	<path fill="#353535" d="M215.8,88.5c0-2.9,0-5.7,0-8.5c0-1.2-0.6-1.9-1.9-2c-0.3,0-0.6-0.4-0.9-0.7c0.3-0.2,0.7-0.5,1-0.5
		c2.3-0.4,4.7-0.7,7.2-1.1c0,0.7-0.1,1.4-0.1,2.1c0,9.4-0.1,18.8-0.1,28.2c0,0.5,0.1,1,0.1,1.5c0,1.3,0.8,2,2,2.1
		c0.9,0.1,1.1,0.4,0.9,1.1c-2.5,0.4-4.9,0.9-7.3,1.2c-1.4,0.2-0.6-1.1-1-1.7c-0.2,0.1-0.5,0.2-0.8,0.3c-5.3,3.2-14.6,1.7-15.7-7.8
		c-0.6-5.6,1.3-11.3,7-13.6c2.8-1.1,5.8-1,8.7-0.6C215.3,88.4,215.5,88.5,215.8,88.5z M215.9,100.1c0-2.2,0-4.5,0-6.7
		c0-0.5-0.2-1.1-0.5-1.4c-3-2.4-8.2-1.1-9.7,2.4c-1.1,2.8-1.3,5.7-0.6,8.7c1.1,4.5,5.3,6.7,9.7,5.2c0.8-0.3,1.2-0.7,1.2-1.6
		C215.8,104.5,215.9,102.3,215.9,100.1z"/>
	<path fill="#353535" d="M235.8,79.5c2.2,0,4.1,0,6,0c1.8,0,3.7,0,5.6,0c0.1,0.4,0.3,0.9-0.7,1.1c-1.6,0.3-2.2,1.1-2.4,2.8
		c-0.1,1.4-0.1,2.8-0.1,4.2c0,4.4,0,8.8,0.1,13.2c0,1,0.1,2.1,0.3,3.1c0.5,2.9,2.1,4.6,5,5c1.7,0.2,3.6,0.2,5.3,0
		c3-0.5,4.8-2.5,4.9-6.2c0.2-6.5,0.1-13.1,0.1-19.6c0-1.4-0.9-2-2.1-2.4c-0.4-0.1-0.7-0.6-1-0.9c0.1-0.1,0.2-0.2,0.2-0.3
		c3.4,0,6.8,0,10.4,0c0.1,0.5,0.4,1.1-0.7,1.2c-1.5,0.2-2.3,1.2-2.3,2.7c-0.1,4.4-0.1,8.9-0.2,13.3c0,2.2-0.1,4.4-0.3,6.6
		c-0.5,4.5-3.1,7.3-7.6,8.3c-3.5,0.8-6.9,0.8-10.4-0.2c-4.1-1.1-6.5-4-6.7-8.2c-0.2-3.2-0.2-6.3-0.2-9.5c0-3.3,0-6.5-0.1-9.8
		c0-2-0.4-2.4-2.3-3.1C236.3,80.4,236.1,79.9,235.8,79.5z"/>
	<path fill="#353535" d="M123.4,111.5c-4.1,0-7.8,0-11.9,0c0.5-0.5,0.7-1,1-1c1.5-0.3,2.3-1.2,2.3-2.7c0.1-4.8,0.1-9.7,0.1-14.5
		c0-1.4-0.7-2.2-2.2-2.3c-0.3,0-0.7-0.5-1-0.8c0.1-0.1,0.2-0.2,0.2-0.3c1.6-0.2,3.3-0.4,4.9-0.6c0.4-0.1,0.9-0.2,1.3-0.3
		c1.8-0.6,1.8-0.6,2,1c1.7-0.5,3.4-1.3,5.1-1.5c1.5-0.2,3.2,0,4.7,0.4c2.7,0.8,4.1,3,4.3,5.7c0.2,3.5,0.2,7.1,0.2,10.6
		c0,0.9,0,1.7,0.1,2.5c0.1,1.8,0.5,2.3,2.2,2.8c0.3,0.1,0.6,0.5,0.9,0.7c-0.1,0.1-0.1,0.2-0.2,0.3c-3.7,0-7.4,0-11.5,0
		c0.5-0.5,0.7-1,0.9-1c1.6-0.3,2.3-1.4,2.3-2.8c0.1-4,0.1-8,0-11.9c-0.1-2.9-1.8-4.3-4.8-4.3c-0.3,0-0.5,0-0.8,0
		c-3.3,0.3-3.5,0.5-3.5,3.8c0,3.9,0,7.9,0,11.8c0,1.7,0.3,3.2,2.5,3.5C122.9,110.5,123.1,111,123.4,111.5z"/>
	<path fill="#353535" d="M282.3,111.2c0.3-0.3,0.6-0.7,0.9-0.8c1.5-0.3,2.1-1.3,2.2-2.7c0.1-4.1,0.2-8.1,0-12.2
		c-0.1-2.8-1.8-4.1-4.6-4.2c-0.3,0-0.6,0-0.9,0c-3.3,0.3-3.5,0.5-3.5,3.8c0,3.9,0,7.7,0,11.6c0,1.8,0.2,3.5,2.5,3.8
		c0.2,0,0.4,0.5,0.7,1c-4,0-7.7,0-11.9,0c0.5-0.5,0.8-1,1.1-1c1.5-0.3,2.3-1.3,2.3-2.7c0.1-4.8,0.1-9.6,0.1-14.4
		c0-1.8-0.5-2.1-2.2-2.4c-0.4-0.1-0.6-0.6-1.1-1c3-0.5,5.5-0.9,8.3-1.4c0,0.1,0.1,0.4,0.2,0.6c0,0.3,0,0.5,0.1,0.7
		c1.8-0.5,3.4-1.3,5.2-1.6c1.3-0.2,2.8-0.1,4.1,0.2c2.9,0.7,4.8,2.9,4.9,5.9c0.2,3.5,0.1,7.1,0.2,10.6c0,1,0,2,0.1,3
		c0.1,1.3,0.7,2.2,2.1,2.4c0.4,0.1,0.7,0.5,1,0.7c-0.1,0.1-0.1,0.2-0.2,0.3c-3.7,0-7.4,0-11.1,0
		C282.5,111.4,282.4,111.3,282.3,111.2z"/>
	<path fill="#353535" d="M425.5,88.7c3.7,0,7,0,10.4,0c0.2,0.7,0.2,1-0.7,1.3c-1.4,0.4-1.8,1.1-1.3,2.5c1.6,4.3,3.2,8.6,4.9,13.2
		c0.2-0.5,0.4-0.9,0.5-1.2c1.3-3.7,2.5-7.4,3.8-11.2c0.8-2.4,0.6-2.8-1.9-3.5c0-0.4,0-0.7,0-1.1c2.9,0,5.7,0,8.9,0
		c-0.2,0.4-0.3,1.1-0.6,1.2c-1.5,0.5-2,1.7-2.5,2.9c-2.9,7.7-5.8,15.5-8.7,23.2c-0.6,1.6-1.2,3.2-2.1,4.6c-2.3,3.7-8,4.9-11.7,2.6
		c-1-0.6-1.3-1.2-0.4-2.1c0.2-0.2,0.4-0.5,0.6-0.7c1.1-1.4,1.1-1.4,2.3-0.2c1.5,1.5,4.5,1.4,5.7-0.5c1.4-2.2,2.3-4.7,3.4-7.1
		c0.1-0.3,0-0.7-0.2-1c-2.6-6.5-5.1-13.1-7.7-19.6c-0.4-1-0.9-1.8-2-2.1C425.9,89.8,425.7,89.2,425.5,88.7z"/>
	<path fill="#353535" d="M50,110.6c0-2.2,0-4.4,0-6.6c0.3,0,0.7,0,1.2,0c0.1,2.1,1,3.8,3.1,4.4c2.7,0.8,5.5,1,8-0.7
		c2.3-1.6,2.4-5.7,0-7.8c-1.5-1.3-3.2-2.4-4.9-3.6c-1.3-0.9-2.7-1.8-3.9-2.8c-2.8-2.3-3.5-5.4-2.6-8.8c0.8-3.2,3.2-5,6.3-5.7
		c3.7-0.8,7.4-0.3,11.1,0.2c0,2.2,0,4.3,0,6.5c-0.6,0.3-1,0.3-1.1-0.7c-0.2-1.9-1.3-3.1-3.1-3.3c-1.7-0.2-3.4-0.3-5-0.1
		c-1.6,0.1-3,1-3.4,2.7c-0.5,1.8-0.4,3.6,1.2,4.9c1.6,1.3,3.4,2.5,5.1,3.7c1.4,1,2.9,2,4.3,3c4.4,3.4,4.2,12.9-3,15
		C58.7,112.2,54.4,111.9,50,110.6z"/>
	<path fill="#353535" d="M155.5,100.3c0.2-4.5,1.5-8.7,6-10.9c3.7-1.8,7.6-1.8,11.3-0.1c3,1.4,4.6,3.9,5.2,7.1
		c0.9,4.7,0.4,9.1-3.1,12.6c-3.7,3.6-8.3,3.8-12.9,2.2c-4.3-1.5-6-5.1-6.3-9.4C155.6,101.3,155.6,100.8,155.5,100.3z M172.9,100.2
		C173,100.1,172.8,100.2,172.9,100.2c-0.1-2.3-0.5-4.6-1.5-6.6c-1.8-3.8-7-4-8.9-0.3c-2.4,4.5-2.2,9.2,0.2,13.6
		c1.8,3.4,6.5,3.2,8.6,0C172.6,104.9,172.9,102.6,172.9,100.2z"/>
	<path fill="#353535" d="M92.2,93.7c-1.1-0.2-1.3-0.8-0.7-1.5c0.9-1.1,1.8-2.3,2.9-3c2.8-1.6,5.7-1.6,8.7-0.3c2.4,1,3.3,3.1,3.3,5.5
		c0.1,3.4,0,6.9,0,10.3c0,0.6,0,1.3,0,1.9c0.1,1.7,0.7,2.1,2.3,1.7c0.2,0,0.6,0.1,0.8,0.2c0.1,0.1,0.1,0.5,0,0.7
		c-2,3.2-6.7,3.4-8,0.3c-1.9,1.7-4.1,2.4-6.6,2.2c-3.1-0.3-5.1-1.9-5.6-4.7c-0.6-3.4,0.7-6.1,3.6-7.3c2-0.8,4.1-1.4,6.2-2.2
		c0.8-0.3,2-0.6,2.1-1.2c0.4-1.4,0.1-2.9-0.9-4c-1.7-1.9-4.9-1.9-6.9-0.1C93,92.8,92.6,93.2,92.2,93.7z M101.3,99.6
		c-2,0.8-3.7,1.4-5.3,2.3c-2.2,1.3-2.3,5.1-0.2,6.2c1.2,0.7,4.1,0.5,5.1-0.4c0.2-0.2,0.4-0.5,0.4-0.8
		C101.4,104.7,101.3,102.3,101.3,99.6z"/>
	<path fill="#353535" d="M152.7,110.4c0.3,1-0.1,1.1-0.9,1.1c-3.8,0-7.5,0-11.7,0c0.4-0.5,0.6-1,0.9-1c1.8-0.3,2.4-1.5,2.5-3.1
		c0.1-1.5,0.1-3,0.1-4.6c0-3.7,0-7.3,0-11.2c-1,0-1.9,0-2.8,0c-0.4-1-0.1-1.5,0.7-1.7c1.7-0.5,2.3-1.5,2.1-3.3
		c-0.1-1.3,0-2.6,0.3-3.9c1-5.6,5-7.5,10.1-7.1c1.4,0.1,2.8,0.8,4.2,1.3c0.8,0.3,0.9,0.9,0.4,1.6c-0.5,0.6-1,1.3-1.4,2
		c-0.5,0.7-0.8,0.7-1.4-0.1c-0.6-0.8-1.5-1.7-2.4-2.1c-2.2-0.8-4.2,0.4-4.4,2.7c-0.3,2.5-0.3,5-0.4,7.7c1.8,0,3.4,0,5.1,0
		c0,1,0,1.9,0,2.9c-1.6,0-3.2,0-4.9,0c-0.1,0.3-0.1,0.5-0.1,0.7c0,4.9,0,9.8,0.1,14.8c0.1,2.7,0.7,3.2,3.4,3.4
		C152.3,110.4,152.5,110.4,152.7,110.4z"/>
	<path fill="#353535" d="M337.6,99c-0.3,6.7,3.6,12,13.1,8.3c1,0.8,0.5,1.4-0.2,2c-3.7,2.9-7.9,3.2-12.2,1.7c-4-1.5-5.5-4.9-5.8-8.9
		c-0.3-3.3,0.3-6.4,2-9.3c2.7-4.4,8.9-6.1,13.3-3.4c1.2,0.7,2.2,1.9,2.9,3c1.1,1.7,1.3,4.3,0.9,6.7c-2.3,0-4.7,0-7,0
		C342.3,99,340,99,337.6,99z M337.7,96.6c2.7,0,5.5,0,8.3,0c0.2,0,0.6-0.3,0.6-0.5c0.5-1.9-1.1-4.5-3-5.1
		C340.1,89.9,337.5,92.4,337.7,96.6z"/>
	<path fill="#353535" d="M308,88.7c3.6,0,7,0,10.4,0c0.1,0.5,0.4,1-0.6,1.3c-1.6,0.4-1.9,1.1-1.3,2.9c1,2.9,2.1,5.7,3.2,8.5
		c0.4,0.9,0.7,1.9,1.2,3.2c0.4-1,0.7-1.7,0.9-2.4c1.2-3,2.5-6,3.7-9.1c0.8-2,0.6-2.3-1.4-3.2c-0.3-0.1-0.4-0.7-0.8-1.2
		c3.2,0,6.1,0,9,0c0,0.3,0,0.7,0,1c0,0-0.1,0.1-0.2,0.2c-1.5,0.3-2.2,1.3-2.8,2.6c-2.7,6-5.3,12-8,18c-0.2,0.4-0.5,1-1,1.1
		c-1.6,0.6-1.8,0.5-2.4-1.2c-2.4-5.9-4.7-11.9-7.1-17.8c-0.5-1.2-0.9-2.5-2.4-2.8C308.3,89.8,308.2,89.2,308,88.7z"/>
	<path fill="#353535" d="M388.7,94.4c-1.1,0.4-1.4,0.1-1.6-0.8c-0.7-2.7-4.7-4-6.9-2.3c-1.3,1-1.3,3.2,0.1,4.3
		c1,0.8,2.2,1.4,3.3,2.1c0.8,0.5,1.5,0.9,2.3,1.4c2.8,1.8,3.9,4,3.4,7s-2.2,4.7-5.6,5.4c-3.1,0.6-6.2,0.4-9.4-0.7c0-2,0-3.9,0-5.9
		c0.3,0,0.8,0,1.2,0c0.8,3.8,3,5.2,6.8,4.3c1.2-0.3,2-0.9,2.3-2.1c0.3-1.3,0.1-2.5-1-3.2c-1.7-1.2-3.5-2.3-5.3-3.4
		c-2.1-1.3-3.5-3.1-3.4-5.7c0-3.5,2-6,5.5-6.2c2.5-0.2,5,0.1,7.5,0.2c0.3,0,0.7,0.5,0.8,0.8C388.7,91.1,388.7,92.7,388.7,94.4z"/>
	<path fill="#353535" d="M415.1,83.6c0,1.7,0,3.3,0,5.1c2.6,0,5.1,0,7.7,0c0,1,0,1.8,0,2.9c-2.5,0-5,0-7.7,0c0,1.9,0,3.6,0,5.4
		c0,2.5,0,5.1,0.1,7.6c0.1,4.1,2.4,5.7,6.3,4.3c0.3-0.1,0.6-0.2,1.3-0.5c-0.3,0.8-0.3,1.3-0.6,1.6c-2.2,2.4-7.8,2.8-10.3,0.7
		c-1.9-1.6-2-3.8-2-6c0-3.8,0.1-7.6,0.1-11.4c0-0.5,0-1,0-1.6c-1.1,0-2,0-3,0c0-1.5,1.4-1.3,2-1.9c0.7-0.7,1.6-1.3,2.3-2
		c0.7-0.7,1.2-1.6,1.8-2.3C413.6,84.7,413.6,83.3,415.1,83.6z"/>
	<path fill="#353535" d="M79,91.5c0.2,5.2,0.2,10.2,0.5,15.1c0.1,2,2.1,2.9,4.3,2.6c0.9-0.1,1.7-0.4,2.9-0.8
		c-0.1,0.6-0.1,1.1-0.4,1.4c-2.1,2.4-7.7,2.9-10.2,0.9c-1.6-1.3-2.1-3.1-2.2-5c0-4.2,0-8.3,0-12.5c0-0.5,0-1,0-1.6c-1,0-1.9,0-3.3,0
		c0.4-0.6,0.6-1,0.9-1.1c2.7-1.3,4.5-3.4,6-5.9c0.3-0.4,0.7-0.7,1.1-1.1c0.1,0.1,0.3,0.2,0.4,0.2c0,1.2,0.1,2.4,0,3.6
		s0.3,1.6,1.5,1.5c2-0.1,4,0,6.1,0c0,0.9,0,1.7,0,2.7C84.3,91.5,81.8,91.5,79,91.5z"/>
	<path fill="#353535" d="M366.9,110.9c-0.4,0.2-0.7,0.6-1.1,0.6c-3.8,0-7.5,0-11.8,0c0.4-0.5,0.6-1,0.9-1.1c1.9-0.7,2.4-1.2,2.5-3.2
		c0.1-4.6,0.1-9.2,0-13.8c0-1.7-0.4-2.1-2.2-2.5c-0.3-0.1-0.6-0.5-0.9-0.7c0.2-0.2,0.5-0.6,0.7-0.7c2.4-0.3,4.7-0.6,7.3-0.9
		c0,0.4,0.1,1,0.2,1.5c1.3-0.5,2.6-1.3,4-1.5c1.4-0.1,3,0.2,4.4,0.6c0.9,0.2,1.2,1,0.6,1.9c-0.4,0.7-0.8,1.4-1.2,2.1
		c-0.6,1.1-1,1.2-1.9,0.2c-1.3-1.4-3.4-1.9-5-1.1c-0.4,0.2-0.8,0.8-0.8,1.1c0,4.5,0,9,0.1,13.5c0.1,2.6,0.5,3,3.2,3.3
		c0.2,0,0.4,0,0.7,0.1C366.7,110.6,366.8,110.7,366.9,110.9z"/>
	<path fill="#353535" d="M192.9,110.4c0,0.4,0,0.7,0,1.1c-4.1,0-8.1,0-12.1,0c-0.1-0.1-0.2-0.2-0.3-0.3c0.3-0.3,0.6-0.7,0.9-0.8
		c1.4-0.4,2.2-1.2,2.2-2.7c0.1-4.8,0.1-9.7,0.1-14.5c0-1.8-0.5-2.1-3-2.4c0-0.4,0-0.8-0.1-1.1c2.7-0.4,5.3-0.8,8-1.2
		c0.1,0.4,0.1,1,0.2,1.5c1.4-0.5,2.7-1.3,4.1-1.5c1.4-0.1,2.9,0.3,4.3,0.6c1,0.3,1.1,1.1,0.6,1.9c-0.4,0.7-0.8,1.5-1.2,2.2
		c-0.5,1-1.1,0.9-1.7,0.1c-1.3-1.5-3-1.7-4.8-1.3c-0.8,0.2-1.2,0.6-1.1,1.5c0,4.2,0,8.3,0,12.5C188.9,109.6,189.3,110.1,192.9,110.4
		z"/>
	<path fill="#353535" d="M393.5,90.6c0-0.4,0-0.8,0-0.9c2.5-0.5,4.9-1,7.3-1.4c1.1-0.2,0.9,0.5,0.9,1.1c-0.1,4.1-0.1,8.2-0.2,12.3
		c0,2,0.1,4,0.1,6c0,1.5,0.8,2.4,2.3,2.6c0.3,0.1,0.6,0.5,0.9,0.7c-0.1,0.1-0.2,0.2-0.2,0.3c-3.8,0-7.6,0-11.4,0
		c-0.1-0.1-0.2-0.2-0.3-0.3c0.3-0.3,0.5-0.7,0.9-0.8c1.9-0.5,2.5-1,2.5-2.9c0.1-4.8,0.1-9.7,0-14.5C396.4,91.3,395.9,91,393.5,90.6z
		"/>
	<path fill="#353535" d="M307.1,111.5c-3.8,0-7.6,0-11.4,0c-0.1-0.1-0.2-0.2-0.3-0.3c0.3-0.3,0.5-0.7,0.9-0.8c1.8-0.5,2.5-1,2.5-2.9
		c0.1-4.8,0.1-9.7,0-14.5c0-1.6-0.5-2-2.8-2.3c0-0.1-0.1-0.2-0.1-0.4c0-0.3,0-0.5,0-0.5c2.5-0.5,4.9-1,7.3-1.5c1-0.2,0.9,0.4,0.9,1
		c-0.1,5.2-0.1,10.4-0.2,15.6c0,1,0.1,2,0.1,2.9c0,1.5,0.9,2.4,2.4,2.6c0.3,0.1,0.6,0.5,0.9,0.7
		C307.3,111.2,307.2,111.3,307.1,111.5z"/>
	<path fill="#353535" d="M398.9,78.4c1.8,0,3,1.2,2.9,2.9c0,1.7-1.3,2.9-3,2.9c-1.8,0-3-1.2-3-2.9C395.8,79.5,397.1,78.4,398.9,78.4
		z"/>
	<path fill="#353535" d="M298.3,81.2c0-1.8,1.3-2.9,3.2-2.9c1.8,0,2.9,1.1,2.9,2.8c0,1.8-1.3,3-3.1,3
		C299.4,84.2,298.2,83,298.3,81.2z"/>
</g>
</svg>
