<?xml version="1.0" encoding="utf-8"?>
<!-- Generator: Adobe Illustrator 18.0.0, SVG Export Plug-In . SVG Version: 6.00 Build 0)  -->
<!DOCTYPE svg PUBLIC "-//W3C//DTD SVG 1.1//EN" "http://www.w3.org/Graphics/SVG/1.1/DTD/svg11.dtd">
<svg version="1.1" id="Layer_1" xmlns="http://www.w3.org/2000/svg" xmlns:xlink="http://www.w3.org/1999/xlink" x="0px" y="0px"
	 viewBox="0 0 500 200" enable-background="new 0 0 500 200" xml:space="preserve">
<g>
	<g>
		<path fill="#353535" d="M369.5,44.7c0-4.4,0-8.6,0-12.9c0-1.8-0.9-2.9-2.9-3c-0.5,0-0.9-0.6-1.4-1.1c0.5-0.3,1.1-0.8,1.5-0.8
			c3.5-0.6,7.1-1.1,10.9-1.7c0,1.1-0.2,2.1-0.2,3.2c0,14.3-0.2,28.5-0.2,42.8c0,0.8,0.2,1.5,0.2,2.3c0,2,1.2,3,3,3.2
			c1.4,0.2,1.7,0.6,1.4,1.7c-3.8,0.6-7.4,1.4-11.1,1.8c-2.1,0.3-0.9-1.7-1.5-2.6c-0.3,0.2-0.8,0.3-1.2,0.5
			c-8,4.9-22.1,2.6-23.8-11.8c-0.9-8.5,2-17.1,10.6-20.6c4.2-1.7,8.8-1.5,13.2-0.9C368.7,44.6,369,44.7,369.5,44.7z M369.6,62.3
			c0-3.3,0-6.8,0-10.2c0-0.8-0.3-1.7-0.8-2.1c-4.5-3.6-12.4-1.7-14.7,3.6c-1.7,4.2-2,8.6-0.9,13.2c1.7,6.8,8,10.2,14.7,7.9
			c1.2-0.5,1.8-1.1,1.8-2.4C369.5,69,369.6,65.6,369.6,62.3z"/>
		<path fill="#353535" d="M229.3,79.6c-6.2,0-11.8,0-18,0c0.8-0.8,1.1-1.5,1.5-1.5c2.3-0.5,3.5-1.8,3.5-4.1c0.2-7.3,0.2-14.7,0.2-22
			c0-2.1-1.1-3.3-3.3-3.5c-0.5,0-1.1-0.8-1.5-1.2c0.2-0.2,0.3-0.3,0.3-0.5c2.4-0.3,5-0.6,7.4-0.9c0.6-0.2,1.4-0.3,2-0.5
			c2.7-0.9,2.7-0.9,3,1.5c2.6-0.8,5.2-2,7.7-2.3c2.3-0.3,4.9,0,7.1,0.6c4.1,1.2,6.2,4.5,6.5,8.6C246,59.3,246,64.7,246,70
			c0,1.4,0,2.6,0.2,3.8c0.2,2.7,0.8,3.5,3.3,4.2c0.5,0.2,0.9,0.8,1.4,1.1c-0.2,0.2-0.2,0.3-0.3,0.5c-5.6,0-11.2,0-17.4,0
			c0.8-0.8,1.1-1.5,1.4-1.5c2.4-0.5,3.5-2.1,3.5-4.2c0.2-6.1,0.2-12.1,0-18c-0.2-4.4-2.7-6.5-7.3-6.5c-0.5,0-0.8,0-1.2,0
			c-5,0.5-5.3,0.8-5.3,5.8c0,5.9,0,12,0,17.9c0,2.6,0.5,4.9,3.8,5.3C228.6,78.1,228.9,78.8,229.3,79.6z"/>
		<path fill="#353535" d="M118,78.2c0-3.3,0-6.7,0-10c0.5,0,1.1,0,1.8,0c0.2,3.2,1.5,5.8,4.7,6.7c4.1,1.2,8.3,1.5,12.1-1.1
			c3.5-2.4,3.6-8.6,0-11.8c-2.3-2-4.9-3.6-7.4-5.5c-2-1.4-4.1-2.7-5.9-4.2c-4.2-3.5-5.3-8.2-3.9-13.3c1.2-4.9,4.9-7.6,9.6-8.6
			c5.6-1.2,11.2-0.5,16.8,0.3c0,3.3,0,6.5,0,9.9c-0.9,0.5-1.5,0.5-1.7-1.1c-0.3-2.9-2-4.7-4.7-5c-2.6-0.3-5.2-0.5-7.6-0.2
			c-2.4,0.2-4.5,1.5-5.2,4.1c-0.8,2.7-0.6,5.5,1.8,7.4c2.4,2,5.2,3.8,7.7,5.6c2.1,1.5,4.4,3,6.5,4.5c6.7,5.2,6.4,19.6-4.5,22.7
			C131.2,80.7,124.7,80.2,118,78.2z"/>
		<path fill="#353535" d="M278,62.6c0.3-6.8,2.3-13.2,9.1-16.5c5.6-2.7,11.5-2.7,17.1-0.2c4.5,2.1,7,5.9,7.9,10.8
			c1.4,7.1,0.6,13.8-4.7,19.1c-5.6,5.5-12.6,5.8-19.6,3.3c-6.5-2.3-9.1-7.7-9.6-14.3C278.2,64.1,278.2,63.4,278,62.6z M304.4,62.5
			C304.5,62.3,304.2,62.5,304.4,62.5c-0.2-3.5-0.8-7-2.3-10c-2.7-5.8-10.6-6.1-13.5-0.5c-3.6,6.8-3.3,14,0.3,20.6
			c2.7,5.2,9.9,4.9,13,0C303.9,69.6,304.4,66.1,304.4,62.5z"/>
		<path fill="#353535" d="M182,52.6c-1.7-0.3-2-1.2-1.1-2.3c1.4-1.7,2.7-3.5,4.4-4.5c4.2-2.4,8.6-2.4,13.2-0.5c3.6,1.5,5,4.7,5,8.3
			c0.2,5.2,0,10.5,0,15.6c0,0.9,0,2,0,2.9c0.2,2.6,1.1,3.2,3.5,2.6c0.3,0,0.9,0.2,1.2,0.3c0.2,0.2,0.2,0.8,0,1.1
			c-3,4.9-10.2,5.2-12.1,0.5c-2.9,2.6-6.2,3.6-10,3.3c-4.7-0.5-7.7-2.9-8.5-7.1c-0.9-5.2,1.1-9.3,5.5-11.1c3-1.2,6.2-2.1,9.4-3.3
			c1.2-0.5,3-0.9,3.2-1.8c0.6-2.1,0.2-4.4-1.4-6.1c-2.6-2.9-7.4-2.9-10.5-0.2C183.2,51.2,182.6,51.8,182,52.6z M195.8,61.6
			c-3,1.2-5.6,2.1-8,3.5c-3.3,2-3.5,7.7-0.3,9.4c1.8,1.1,6.2,0.8,7.7-0.6c0.3-0.3,0.6-0.8,0.6-1.2C196,69.3,195.8,65.6,195.8,61.6z"
			/>
		<path fill="#353535" d="M273.8,77.9c0.5,1.5-0.2,1.7-1.4,1.7c-5.8,0-11.4,0-17.7,0c0.6-0.8,0.9-1.5,1.4-1.5
			c2.7-0.5,3.6-2.3,3.8-4.7c0.2-2.3,0.2-4.5,0.2-7c0-5.6,0-11.1,0-17c-1.5,0-2.9,0-4.2,0c-0.6-1.5-0.2-2.3,1.1-2.6
			c2.6-0.8,3.5-2.3,3.2-5c-0.2-2,0-3.9,0.5-5.9c1.5-8.5,7.6-11.4,15.3-10.8c2.1,0.2,4.2,1.2,6.4,2c1.2,0.5,1.4,1.4,0.6,2.4
			c-0.8,0.9-1.5,2-2.1,3c-0.8,1.1-1.2,1.1-2.1-0.2c-0.9-1.2-2.3-2.6-3.6-3.2c-3.3-1.2-6.4,0.6-6.7,4.1c-0.5,3.8-0.5,7.6-0.6,11.7
			c2.7,0,5.2,0,7.7,0c0,1.5,0,2.9,0,4.4c-2.4,0-4.9,0-7.4,0c-0.2,0.5-0.2,0.8-0.2,1.1c0,7.4,0,14.9,0.2,22.4
			c0.2,4.1,1.1,4.9,5.2,5.2C273.1,77.9,273.5,77.9,273.8,77.9z"/>
		<path fill="#353535" d="M162,49.3c0.3,7.9,0.3,15.5,0.8,22.9c0.2,3,3.2,4.4,6.5,3.9c1.4-0.2,2.6-0.6,4.4-1.2
			c-0.2,0.9-0.2,1.7-0.6,2.1c-3.2,3.6-11.7,4.4-15.5,1.4c-2.4-2-3.2-4.7-3.3-7.6c0-6.4,0-12.6,0-19c0-0.8,0-1.5,0-2.4
			c-1.5,0-2.9,0-5,0c0.6-0.9,0.9-1.5,1.4-1.7c4.1-2,6.8-5.2,9.1-8.9c0.5-0.6,1.1-1.1,1.7-1.7c0.2,0.2,0.5,0.3,0.6,0.3
			c0,1.8,0.2,3.6,0,5.5s0.5,2.4,2.3,2.3c3-0.2,6.1,0,9.3,0c0,1.4,0,2.6,0,4.1C170,49.3,166.2,49.3,162,49.3z"/>
		<path fill="#353535" d="M334.7,77.9c0,0.6,0,1.1,0,1.7c-6.2,0-12.3,0-18.4,0c-0.2-0.2-0.3-0.3-0.5-0.5c0.5-0.5,0.9-1.1,1.4-1.2
			c2.1-0.6,3.3-1.8,3.3-4.1c0.2-7.3,0.2-14.7,0.2-22c0-2.7-0.8-3.2-4.5-3.6c0-0.6,0-1.2-0.2-1.7c4.1-0.6,8-1.2,12.1-1.8
			c0.2,0.6,0.2,1.5,0.3,2.3c2.1-0.8,4.1-2,6.2-2.3c2.1-0.2,4.4,0.5,6.5,0.9c1.5,0.5,1.7,1.7,0.9,2.9c-0.6,1.1-1.2,2.3-1.8,3.3
			c-0.8,1.5-1.7,1.4-2.6,0.2c-2-2.3-4.5-2.6-7.3-2c-1.2,0.3-1.8,0.9-1.7,2.3c0,6.4,0,12.6,0,19C328.7,76.7,329.3,77.5,334.7,77.9z"
			/>
	</g>
	<g>
		<path fill="#353535" d="M87.5,106.9c3.3,0,6.2,0,9.1,0c2.7,0,5.6,0,8.5,0c0.2,0.6,0.5,1.4-1.1,1.7c-2.4,0.5-3.3,1.7-3.6,4.2
			c-0.2,2.1-0.2,4.2-0.2,6.4c0,6.7,0,13.3,0.2,20c0,1.5,0.2,3.2,0.5,4.7c0.8,4.4,3.2,7,7.6,7.6c2.6,0.3,5.5,0.3,8,0
			c4.5-0.8,7.3-3.8,7.4-9.4c0.3-9.9,0.2-19.9,0.2-29.7c0-2.1-1.4-3-3.2-3.6c-0.6-0.2-1.1-0.9-1.5-1.4c0.2-0.2,0.3-0.3,0.3-0.5
			c5.2,0,10.3,0,15.8,0c0.2,0.8,0.6,1.7-1.1,1.8c-2.3,0.3-3.5,1.8-3.5,4.1c-0.2,6.7-0.2,13.5-0.3,20.2c0,3.3-0.2,6.7-0.5,10
			c-0.8,6.8-4.7,11.1-11.5,12.6c-5.3,1.2-10.5,1.2-15.8-0.3c-6.2-1.7-9.9-6.1-10.2-12.4c-0.3-4.9-0.3-9.6-0.3-14.4
			c0-5,0-9.9-0.2-14.9c0-3-0.6-3.6-3.5-4.7C88.3,108.2,88,107.5,87.5,106.9z"/>
		<path fill="#353535" d="M158,154.9c0.5-0.5,0.9-1.1,1.4-1.2c2.3-0.5,3.2-2,3.3-4.1c0.2-6.2,0.3-12.3,0-18.5
			c-0.2-4.2-2.7-6.2-7-6.4c-0.5,0-0.9,0-1.4,0c-5,0.5-5.3,0.8-5.3,5.8c0,5.9,0,11.7,0,17.6c0,2.7,0.3,5.3,3.8,5.8
			c0.3,0,0.6,0.8,1.1,1.5c-6.1,0-11.7,0-18,0c0.8-0.8,1.2-1.5,1.7-1.5c2.3-0.5,3.5-2,3.5-4.1c0.2-7.3,0.2-14.6,0.2-21.8
			c0-2.7-0.8-3.2-3.3-3.6c-0.6-0.2-0.9-0.9-1.7-1.5c4.5-0.8,8.3-1.4,12.6-2.1c0,0.2,0.2,0.6,0.3,0.9c0,0.5,0,0.8,0.2,1.1
			c2.7-0.8,5.2-2,7.9-2.4c2-0.3,4.2-0.2,6.2,0.3c4.4,1.1,7.3,4.4,7.4,8.9c0.3,5.3,0.2,10.8,0.3,16.1c0,1.5,0,3,0.2,4.5
			c0.2,2,1.1,3.3,3.2,3.6c0.6,0.2,1.1,0.8,1.5,1.1c-0.2,0.2-0.2,0.3-0.3,0.5c-5.6,0-11.2,0-16.8,0
			C158.3,155.3,158.2,155.1,158,154.9z"/>
		<path fill="#353535" d="M375.2,120.8c5.6,0,10.6,0,15.8,0c0.3,1.1,0.3,1.5-1.1,2c-2.1,0.6-2.7,1.7-2,3.8c2.4,6.5,4.9,13,7.4,20
			c0.3-0.8,0.6-1.4,0.8-1.8c2-5.6,3.8-11.2,5.8-17c1.2-3.6,0.9-4.2-2.9-5.3c0-0.6,0-1.1,0-1.7c4.4,0,8.6,0,13.5,0
			c-0.3,0.6-0.5,1.7-0.9,1.8c-2.3,0.8-3,2.6-3.8,4.4c-4.4,11.7-8.8,23.5-13.2,35.2c-0.9,2.4-1.8,4.9-3.2,7
			c-3.5,5.6-12.1,7.4-17.7,3.9c-1.5-0.9-2-1.8-0.6-3.2c0.3-0.3,0.6-0.8,0.9-1.1c1.7-2.1,1.7-2.1,3.5-0.3c2.3,2.3,6.8,2.1,8.6-0.8
			c2.1-3.3,3.5-7.1,5.2-10.8c0.2-0.5,0-1.1-0.3-1.5c-3.9-9.9-7.7-19.9-11.7-29.7c-0.6-1.5-1.4-2.7-3-3.2
			C375.8,122.5,375.5,121.6,375.2,120.8z"/>
		<path fill="#353535" d="M241.9,136.4c-0.5,10.2,5.5,18.2,19.9,12.6c1.5,1.2,0.8,2.1-0.3,3c-5.6,4.4-12,4.9-18.5,2.6
			c-6.1-2.3-8.3-7.4-8.8-13.5c-0.5-5,0.5-9.7,3-14.1c4.1-6.7,13.5-9.3,20.2-5.2c1.8,1.1,3.3,2.9,4.4,4.5c1.7,2.6,2,6.5,1.4,10.2
			c-3.5,0-7.1,0-10.6,0C249,136.4,245.5,136.4,241.9,136.4z M242,132.8c4.1,0,8.3,0,12.6,0c0.3,0,0.9-0.5,0.9-0.8
			c0.8-2.9-1.7-6.8-4.5-7.7C245.7,122.6,241.7,126.4,242,132.8z"/>
		<path fill="#353535" d="M197,120.8c5.5,0,10.6,0,15.8,0c0.2,0.8,0.6,1.5-0.9,2c-2.4,0.6-2.9,1.7-2,4.4c1.5,4.4,3.2,8.6,4.9,12.9
			c0.6,1.4,1.1,2.9,1.8,4.9c0.6-1.5,1.1-2.6,1.4-3.6c1.8-4.5,3.8-9.1,5.6-13.8c1.2-3,0.9-3.5-2.1-4.9c-0.5-0.2-0.6-1.1-1.2-1.8
			c4.9,0,9.3,0,13.6,0c0,0.5,0,1.1,0,1.5c0,0-0.2,0.2-0.3,0.3c-2.3,0.5-3.3,2-4.2,3.9c-4.1,9.1-8,18.2-12.1,27.3
			c-0.3,0.6-0.8,1.5-1.5,1.7c-2.4,0.9-2.7,0.8-3.6-1.8c-3.6-8.9-7.1-18-10.8-27c-0.8-1.8-1.4-3.8-3.6-4.2
			C197.5,122.5,197.3,121.6,197,120.8z"/>
		<path fill="#353535" d="M319.4,129.5c-1.7,0.6-2.1,0.2-2.4-1.2c-1.1-4.1-7.1-6.1-10.5-3.5c-2,1.5-2,4.9,0.2,6.5
			c1.5,1.2,3.3,2.1,5,3.2c1.2,0.8,2.3,1.4,3.5,2.1c4.2,2.7,5.9,6.1,5.2,10.6c-0.8,4.5-3.3,7.1-8.5,8.2c-4.7,0.9-9.4,0.6-14.3-1.1
			c0-3,0-5.9,0-8.9c0.5,0,1.2,0,1.8,0c1.2,5.8,4.5,7.9,10.3,6.5c1.8-0.5,3-1.4,3.5-3.2c0.5-2,0.2-3.8-1.5-4.9
			c-2.6-1.8-5.3-3.5-8-5.2c-3.2-2-5.3-4.7-5.2-8.6c0-5.3,3-9.1,8.3-9.4c3.8-0.3,7.6,0.2,11.4,0.3c0.5,0,1.1,0.8,1.2,1.2
			C319.4,124.5,319.4,126.9,319.4,129.5z"/>
		<path fill="#353535" d="M359.4,113.1c0,2.6,0,5,0,7.7c3.9,0,7.7,0,11.7,0c0,1.5,0,2.7,0,4.4c-3.8,0-7.6,0-11.7,0
			c0,2.9,0,5.5,0,8.2c0,3.8,0,7.7,0.2,11.5c0.2,6.2,3.6,8.6,9.6,6.5c0.5-0.2,0.9-0.3,2-0.8c-0.5,1.2-0.5,2-0.9,2.4
			c-3.3,3.6-11.8,4.2-15.6,1.1c-2.9-2.4-3-5.8-3-9.1c0-5.8,0.2-11.5,0.2-17.3c0-0.8,0-1.5,0-2.4c-1.7,0-3,0-4.5,0c0-2.3,2.1-2,3-2.9
			c1.1-1.1,2.4-2,3.5-3c1.1-1.1,1.8-2.4,2.7-3.5C357.1,114.8,357.1,112.6,359.4,113.1z"/>
		<path fill="#353535" d="M286.3,154.5c-0.6,0.3-1.1,0.9-1.7,0.9c-5.8,0-11.4,0-17.9,0c0.6-0.8,0.9-1.5,1.4-1.7
			c2.9-1.1,3.6-1.8,3.8-4.9c0.2-7,0.2-14,0-20.9c0-2.6-0.6-3.2-3.3-3.8c-0.5-0.2-0.9-0.8-1.4-1.1c0.3-0.3,0.8-0.9,1.1-1.1
			c3.6-0.5,7.1-0.9,11.1-1.4c0,0.6,0.2,1.5,0.3,2.3c2-0.8,3.9-2,6.1-2.3c2.1-0.2,4.5,0.3,6.7,0.9c1.4,0.3,1.8,1.5,0.9,2.9
			c-0.6,1.1-1.2,2.1-1.8,3.2c-0.9,1.7-1.5,1.8-2.9,0.3c-2-2.1-5.2-2.9-7.6-1.7c-0.6,0.3-1.2,1.2-1.2,1.7c0,6.8,0,13.6,0.2,20.5
			c0.2,3.9,0.8,4.5,4.9,5c0.3,0,0.6,0,1.1,0.2C286,154,286.2,154.2,286.3,154.5z"/>
		<path fill="#353535" d="M326.7,123.7c0-0.6,0-1.2,0-1.4c3.8-0.8,7.4-1.5,11.1-2.1c1.7-0.3,1.4,0.8,1.4,1.7
			c-0.2,6.2-0.2,12.4-0.3,18.7c0,3,0.2,6.1,0.2,9.1c0,2.3,1.2,3.6,3.5,3.9c0.5,0.2,0.9,0.8,1.4,1.1c-0.2,0.2-0.3,0.3-0.3,0.5
			c-5.8,0-11.5,0-17.3,0c-0.2-0.2-0.3-0.3-0.5-0.5c0.5-0.5,0.8-1.1,1.4-1.2c2.9-0.8,3.8-1.5,3.8-4.4c0.2-7.3,0.2-14.7,0-22
			C331.1,124.8,330.3,124.3,326.7,123.7z"/>
		<path fill="#353535" d="M195.6,155.4c-5.8,0-11.5,0-17.3,0c-0.2-0.2-0.3-0.3-0.5-0.5c0.5-0.5,0.8-1.1,1.4-1.2
			c2.7-0.8,3.8-1.5,3.8-4.4c0.2-7.3,0.2-14.7,0-22c0-2.4-0.8-3-4.2-3.5c0-0.2-0.2-0.3-0.2-0.6c0-0.5,0-0.8,0-0.8
			c3.8-0.8,7.4-1.5,11.1-2.3c1.5-0.3,1.4,0.6,1.4,1.5c-0.2,7.9-0.2,15.8-0.3,23.7c0,1.5,0.2,3,0.2,4.4c0,2.3,1.4,3.6,3.6,3.9
			c0.5,0.2,0.9,0.8,1.4,1.1C195.9,154.9,195.8,155.1,195.6,155.4z"/>
		<path fill="#353535" d="M334.9,105.2c2.7,0,4.5,1.8,4.4,4.4c0,2.6-2,4.4-4.5,4.4c-2.7,0-4.5-1.8-4.5-4.4
			C330.2,106.9,332.1,105.2,334.9,105.2z"/>
		<path fill="#353535" d="M182.3,109.5c0-2.7,2-4.4,4.9-4.4c2.7,0,4.4,1.7,4.4,4.2c0,2.7-2,4.5-4.7,4.5
			C184,114,182.1,112.2,182.3,109.5z"/>
	</g>
</g>
</svg>
