<?xml version="1.0" encoding="utf-8"?>
<!-- Generator: Adobe Illustrator 18.1.1, SVG Export Plug-In . SVG Version: 6.00 Build 0)  -->
<svg version="1.1" id="Layer_1" xmlns="http://www.w3.org/2000/svg" xmlns:xlink="http://www.w3.org/1999/xlink" x="0px" y="0px"
	 viewBox="73.2 1362.5 1920 956.3" enable-background="new 73.2 1362.5 1920 956.3" xml:space="preserve">
<polygon fill="#F2F2F2" points="877.1,1566.5 872.6,1563.1 832.2,1563.1 809,1570.8 819.9,1578 819.9,1578 827.2,1583 849.2,1597.8 
	873.5,1583.7 869,1572.1 "/>
<polygon fill="#6A6A6A" points="1103.6,1633.4 1087.5,1570.1 1076.4,1552.2 1067.3,1556.9 1070.2,1569.4 1057.5,1589.8 
	1042.3,1599.6 1042.3,1599.6 1045.3,1636.6 1042.6,1653.2 1029.8,1727.8 1028.7,1734.4 1031.9,1730.3 1036.9,1726.5 1045.5,1719.4 
	1045.5,1719.4 1045.5,1719.4 1045.5,1719.4 1064.1,1711.3 1070,1702.4 1081.8,1693.3 1081.8,1693.3 1086.4,1690.6 1110.4,1683.3 "/>
<polygon fill="#F2F2F2" points="1047.3,1582.6 1042.1,1595.5 1043.7,1615.5 1043.7,1615.5 1042.3,1599.6 1042.3,1599.6 
	1057.5,1589.8 1070.2,1569.4 1067.3,1556.9 1076.4,1552.2 1076.4,1552.2 1076.4,1552.2 1051.4,1537.2 1045.1,1537 1029.2,1539.7 
	1051.6,1561.9 "/>
<polygon fill="#F2F2F2" points="1118.8,1680.8 1086.4,1690.6 1081.8,1693.3 1074.3,1699.2 1099.7,1701.3 1123.6,1703.3 
	1153.1,1690.4 1147.6,1683.3 "/>
<path fill="#BBBBBC" d="M1123.6,1703.3l-24.1-1.8l-25.4-2l7.5-5.9l0,0l0,0l-11.8,9.1l-5.9,8.6l-18.8,8.2l19.5,0.9l53.1,7.3l0,0
	C1118.1,1727.6,1123.6,1703.3,1123.6,1703.3z"/>
<path fill="#F2F2F2" d="M1045.5,1719.4L1045.5,1719.4L1045.5,1719.4L1045.5,1719.4l-8.6,7l-5,4.1l25.9,1.4l42.9,6.6
	c0.2,0,0.5-0.2,0.7,0l16.8-10.7l-53.1-7.5L1045.5,1719.4z"/>
<path fill="#6A6A6A" d="M971.3,1799.1c10.9,0,21.8-0.2,32.9-0.2l15.2-44.5l-27.7-32.7l-3.6-5.2l-8.9,6.6l-0.5,0.7l-5.4,8.2l-0.5,0.7
	l-2.7,4.3l-7.3,11.3l8.2,42.2L971.3,1799.1z"/>
<path fill="#BBBBBC" d="M1101.3,1738.3c-0.2,0-0.5,0-0.7,0l-42.9-6.6l-25.9-1.4l0,0l-15.9,20.2l3.2,3.9l-15.2,44.5
	c-0.5,0,18.4,0,28.4,0c18.6,0,37.2,0.2,55.6,0.2c-1.1,0-2,0-3.2,0l2.7-33.1C1087.7,1765.9,1093.6,1737.8,1101.3,1738.3z"/>
<polygon fill="#F2F2F2" points="955.6,1714.7 910.9,1711.9 906.6,1711.7 905.3,1712.6 877.6,1731.9 913.7,1730.1 918.9,1729.9 
	955.6,1745.3 962.7,1748.2 969.9,1736.7 972.4,1732.8 973.1,1731.9 978.6,1723.7 979,1723.1 987.9,1716.5 "/>
<path fill="#BBBBBC" d="M1250.4,1802.9l-0.2-3.2l-0.7-79.9l4.1-34.7l-6.4-44.5l-4.8-17.2l-5.4-11.8h-21.6l-7.5-23.8h-26.3h-15.9
	l-4.1,17.2l-5.4,33.4l-2.7,47.4l-3.4,28.4l-3,48.6l-2.3,24.1l-1.8,12.9C1179.6,1800.7,1215.5,1801.6,1250.4,1802.9z"/>
<path fill="#6A6A6A" d="M1143.1,1800l1.8-12.9l2.3-24.1l3-48.6l3-23.8l-29.5,12.9l-5.4,24.3l-16.8,10.7
	c-7.7-0.5-13.6,27.9-13.6,27.9l-2.7,33.1C1107.7,1799.3,1146,1800,1143.1,1800z"/>
<path fill="#6A6A6A" d="M1247.5,1640.7l6.4,44.5l-4.1,34.7l0.7,79.9l0.2,3.2c0,0,0,0-0.2,0c21.6,0.9,42.9,1.8,63.8,2.7l-10.9-91.5
	l-10.7-94.2l-4.1-8.4l-30.6-4.8l-20.9,4.8l5.4,11.8L1247.5,1640.7z"/>
<polygon fill="#F2F2F2" points="1288.3,1611.6 1288.3,1611.6 1259.3,1576.9 1226.6,1569.2 1212.1,1569.2 1195.5,1576.9 
	1183.7,1576.9 1165.5,1587.8 1181.4,1587.8 1208,1587.8 1215.5,1611.6 1237,1611.6 1257.9,1606.9 "/>
<path fill="#BBBBBC" d="M971.3,1799.1l-0.5-8.6l-8.2-42.2l-7.3-3l-36.5-15.4l-5.4,0.2l-35.9,1.6l-11.8,69.4
	C900.3,1800.2,935.4,1799.5,971.3,1799.1z"/>
<polygon fill="#BBBBBC" points="1051.6,1561.9 1028.9,1539.5 1021.9,1540.4 974.5,1585.3 964.9,1646.6 955,1682.9 947.5,1714.2 
	955.6,1714.7 987.9,1716.5 987.9,1716.5 987.9,1716.5 991.7,1721.7 1016,1750.7 1028.7,1734.4 1029.8,1727.8 1042.6,1653.2 
	1045.3,1636.6 1042.1,1595.5 1047.3,1582.6 "/>
<path fill="#6A6A6A" d="M866,1801.1l11.8-69.4l27.5-19.1l1.4-0.9l4.3,0.2l7,0.5l-7-89.2l-23.6-49.2l-10.2-7.7l-6.6,4.5l-3,2
	l5.9,10.7l-24.3,14.3l0.5,13.8l-5.9,190.2C852.8,1801.6,867.8,1801.1,866,1801.1z"/>
<path fill="#BBBBBC" d="M843.8,1801.8l5.9-190.2l-0.5-13.8l-40.2-27.2l-21.1,7.3l-13.8,28.6l-6.8,103l-20,76.5v20
	C778.6,1804.3,810.9,1802.9,843.8,1801.8z"/>
<g class="fill-path">
<path fill="#6A6A6A" d="M679.5,2032.6c-9.3,0.5-18.4,0.9-27.7,1.4c-12-13.2-24.1-26.3-35.9-39.3c-7.5,0.5-15,0.9-22.5,1.4
	c0,13.8,0,27.5,0,41.3c-7.7,0.5-15.4,0.9-23.1,1.4c0-41.3,0-82.4,0-123.7c19.5-1.1,39-2.3,58.8-3.2c29-1.4,44.5,17.2,44.5,38.6
	c0,17-7.7,34.5-31.1,40.4c12.5,13.4,25,26.8,37.4,40.2C679.5,2031.7,679.5,2032.1,679.5,2032.6z M593.5,1935.7c0,13.2,0,26.3,0,39.5
	c11.8-0.7,23.6-1.4,35.4-2c14.8-0.9,21.1-10.9,21.1-20.9c0-10-6.6-19.5-21.1-18.6C617.3,1934.1,605.3,1934.8,593.5,1935.7z"/>
<path fill="#6A6A6A" d="M839.2,1965.6c-0.5,32-20,64.2-63.3,65.8c-43.3,1.6-63.5-28.6-63.5-61.3c0-32.5,20.9-66,63.5-67.6
	C818.3,1901.4,839.5,1933.4,839.2,1965.6z M735.3,1969.7c0.5,20.2,11.6,41.5,40.6,40.4c29-0.9,39.9-23.1,40.4-43.3
	c0.5-20.9-11.3-43.8-40.4-42.9C746.6,1925,734.8,1949.1,735.3,1969.7z"/>
<path fill="#6A6A6A" d="M987.4,2008.8c-12.7,12.7-29,18.6-47,18.8c-45.8,0.7-65.4-30.4-65.4-62.6c-0.2-32.2,20.9-65.6,65.4-66.3
	c16.8-0.2,32.7,5.9,45.4,18.4c-5.2,5-10.4,10-15.4,15.2c-8.2-7.9-19.1-11.3-29.7-11.3c-29.7,0.5-42.7,22.9-42.4,43.6
	c0.2,20.4,12,41.5,42.4,41.1c10.7-0.2,22.9-4.8,31.1-12.9C977,1998.1,982.2,2003.5,987.4,2008.8z"/>
<path fill="#6A6A6A" d="M1133.3,1902.1c-18.4,19.5-36.5,39-54.9,58.5c19.7,20.9,39.7,41.8,59.5,62.9c0,0.5,0,0.9,0,1.4
	c-9.5-0.2-19.1-0.2-28.8-0.5c-17.2-18.4-34.5-36.8-51.7-54.9c0,18.2,0,36.5,0,54.7c-7.7,0-15.4,0-23.4,0c0-41.1,0-82.4,0-123.4
	c7.7,0,15.4,0,23.4,0c0,17.5,0,34.7,0,52.2c15.7-17.2,31.3-34.7,47-52c9.8,0,19.3,0.2,29,0.2
	C1133.3,1901.6,1133.3,1901.9,1133.3,1902.1z"/>
<path fill="#6A6A6A" d="M1206.2,1902.8c0,34,0,67.9,0,101.9c21.1,0.5,42.4,1.1,63.5,1.8c0,7.3,0,14.3,0,21.6
	c-28.8-0.9-57.9-1.6-86.7-2.3c0-41.1,0-82.4,0-123.4C1190.7,1902.6,1198.5,1902.6,1206.2,1902.8z"/>
<path fill="#6A6A6A" d="M1317.4,2029.6c0-41.1,0-82.4,0-123.4c7.7,0.2,15.4,0.7,23.1,0.9c0,41.1,0,82.4,0,123.4
	C1332.8,2030.3,1325.1,2030.1,1317.4,2029.6z"/>
<path fill="#6A6A6A" d="M1473,1913.7c7.7,0.5,15.4,0.9,23.1,1.4c0,41.3,0,82.4,0,123.7c-4.8-0.2-9.5-0.7-14.5-0.9v0.2
	c-21.6-29-43.1-58.1-64.9-87.1c0,27.7,0,55.6,0,83.3c-7.7-0.5-15.4-0.9-23.4-1.1c0-41.1,0-82.4,0-123.4c6.4,0.2,12.5,0.7,18.8,0.9
	c20.2,26.6,40.4,53.1,60.4,79.9C1473,1965,1473,1939.3,1473,1913.7z"/>
<path fill="#6A6A6A" d="M785.7,2137c-4.3,4.5-10,6.8-16.1,7.3c-15.7,0.9-22.5-9.5-22.5-20.7c0-11.1,7.3-22.9,22.5-23.8
	c5.7-0.2,11.1,1.6,15.7,5.7c-1.8,1.8-3.6,3.6-5.4,5.4c-2.7-2.5-6.6-3.6-10.2-3.4c-10.2,0.7-14.8,8.6-14.5,15.7
	c0,7,4.1,14.1,14.5,13.6c3.6-0.2,7.9-2,10.7-5C781.8,2133.6,783.6,2135.2,785.7,2137z"/>
<path fill="#6A6A6A" d="M841,2131.5c-7.5,0.2-14.8,0.7-22.2,0.9c-1.1,2.7-2.5,5.4-3.6,8.2c-3,0.2-5.7,0.2-8.6,0.5
	c6.4-14.5,12.7-29,19.1-43.3c3-0.2,5.9-0.2,8.9-0.5c6.4,13.8,12.7,27.7,19.1,41.8c-3,0.2-5.9,0.2-8.9,0.5
	C843.3,2137,842.2,2134.2,841,2131.5z M829.9,2106.6c-2.7,6.1-5.2,12.3-7.9,18.4c5.2-0.2,10.4-0.5,15.9-0.7
	C835.1,2118.4,832.6,2112.5,829.9,2106.6z"/>
<path fill="#6A6A6A" d="M886.9,2095.4c0,11.8,0,23.4,0,35.2c7.3-0.2,14.5-0.5,21.8-0.7c0,2.5,0,5,0,7.5c-10,0.2-20,0.7-30,0.9
	c0-14.1,0-28.4,0-42.4C881.7,2095.7,884.4,2095.4,886.9,2095.4z"/>
<path fill="#6A6A6A" d="M937.9,2136.5c0-14.1,0-28.4,0-42.4c2.7,0,5.2,0,7.9-0.2c0,14.1,0,28.4,0,42.4
	C943.4,2136.5,940.7,2136.5,937.9,2136.5z"/>
<path fill="#6A6A6A" d="M979.9,2135.8c0-14.1,0-28.4,0-42.4c10.2-0.2,20.4-0.2,30.6-0.2c0,2.5,0,5.2,0,7.7c-7.5,0-15,0-22.5,0.2
	c0,3.9,0,7.7,0,11.6c7,0,14.3-0.2,21.3-0.2c0,2.5,0,5,0,7.5c-7,0-14.3,0-21.3,0.2c0,5.2,0,10.4,0,15.7
	C985.4,2135.8,982.6,2135.8,979.9,2135.8z"/>
<path fill="#6A6A6A" d="M1078.4,2115c-0.2,10.9-6.8,21.8-21.8,21.8s-21.8-10.9-21.8-22s7.3-22.5,21.8-22.2
	C1071.1,2092.5,1078.4,2103.8,1078.4,2115z M1042.6,2114.7c0.2,7,3.9,14.5,14.1,14.5c10,0,13.8-7.5,13.8-14.5
	c0.2-7.3-3.9-15.2-13.8-15.2C1046.6,2099.5,1042.3,2107.7,1042.6,2114.7z"/>
<path fill="#6A6A6A" d="M1141.3,2137c-3.2,0-6.4-0.2-9.5-0.2c-4.1-4.8-8.2-9.5-12.5-14.5c-2.5,0-5.2,0-7.7-0.2c0,4.8,0,9.5,0,14.3
	c-2.7,0-5.4,0-7.9-0.2c0-14.1,0-28.4,0-42.4c6.8,0,13.4,0.2,20.2,0.5c10,0.2,15.2,7,15.2,14.5c0,5.9-2.7,11.6-10.7,13.2
	c4.3,5,8.6,9.8,12.9,14.8C1141.3,2136.5,1141.3,2136.7,1141.3,2137z M1111.8,2101.3c0,4.5,0,9.1,0,13.6c4.1,0,8.2,0.2,12.3,0.2
	c5,0,7.3-3.2,7.3-6.6c0-3.4-2.3-6.8-7.3-7C1119.7,2101.3,1115.6,2101.3,1111.8,2101.3z"/>
<path fill="#6A6A6A" d="M1196.6,2096.1c2.7,0,5.4,0.2,7.9,0.2c0,14.1,0,28.4,0,42.4c-1.6,0-3.4-0.2-5-0.2l0,0
	c-7.5-9.8-15-19.7-22.2-29.5c0,9.5,0,19.1,0,28.6c-2.7,0-5.4-0.2-7.9-0.2c0-14.1,0-28.4,0-42.4c2.3,0,4.3,0.2,6.6,0.2
	c7,9.1,13.8,17.9,20.9,27C1196.6,2113.6,1196.6,2104.7,1196.6,2096.1z"/>
<path fill="#6A6A6A" d="M1237.3,2140.1c0-14.1,0-28.4,0-42.4c2.7,0.2,5.2,0.2,7.9,0.5c0,14.1,0,28.4,0,42.4
	C1242.5,2140.4,1240,2140.4,1237.3,2140.1z"/>
<path fill="#6A6A6A" d="M1305.3,2135.8c-7.5-0.5-14.8-0.9-22.2-1.4c-1.1,2.5-2.5,5.2-3.6,7.7c-2.9-0.2-5.7-0.2-8.6-0.5
	c6.4-13.8,12.7-27.7,19.1-41.5c3,0.2,5.9,0.2,8.6,0.5c6.4,14.5,12.7,29,19.1,43.6c-2.9-0.2-5.9-0.5-8.6-0.5
	C1307.8,2141.3,1306.5,2138.6,1305.3,2135.8z M1294.2,2109.5c-2.7,5.9-5.2,11.8-7.9,17.7c5.2,0.2,10.4,0.7,15.7,0.9
	C1299.4,2122,1296.9,2115.9,1294.2,2109.5z"/>
</g>
</svg>
