<?xml version="1.0" encoding="utf-8"?>
<!-- Generator: Adobe Illustrator 18.0.0, SVG Export Plug-In . SVG Version: 6.00 Build 0)  -->
<!DOCTYPE svg PUBLIC "-//W3C//DTD SVG 1.1//EN" "http://www.w3.org/Graphics/SVG/1.1/DTD/svg11.dtd">
<svg version="1.1" id="Layer_1" xmlns="http://www.w3.org/2000/svg" xmlns:xlink="http://www.w3.org/1999/xlink" x="0px" y="0px"
	 viewBox="0 0 500 200" enable-background="new 0 0 500 200" xml:space="preserve">
<g>
	<path fill="#353535" d="M62.7,134.9c-7.5-0.7-12.7-5-12.7-12.5V77.6c-0.1-6.6,3.7-11.5,12.5-12.5c5.1-0.3,91.4-5.7,187.5-6.2
		c96.1,0.5,182.4,5.9,187.5,6.2c8.8,1,12.6,5.9,12.5,12.5v44.8c0.1,7.5-5.2,11.8-12.7,12.5c-5.1,0.3-91.2,5.7-187.3,6.2
		C153.9,140.6,67.8,135.2,62.7,134.9L62.7,134.9z"/>
	<path fill="#FFFFFF" d="M64.3,133.1c5.1,0.3,89.5,5.7,185.7,6.2c96.1-0.5,180.6-5.9,185.7-6.2c10.1-1.1,12.5-5.6,12.5-12.5V79.4
		c0-6.9-2.4-11.4-12.5-12.5c-5.1-0.3-89.5-5.7-185.7-6.2c-96.1,0.5-180.6,5.9-185.7,6.2C54.2,68,51.8,72.5,51.8,79.4v41.2
		C51.8,127.5,54.2,132,64.3,133.1L64.3,133.1z"/>
	<path fill="#353535" d="M415.3,105.7c-0.1-3.1-6.5-4.6-14.3-4.4s-14,2.1-13.9,5.2s6.5,4.5,14.3,4.3
		C409.2,110.5,415.4,108.7,415.3,105.7L415.3,105.7z M426.6,84.2c1,0-5.1,8.5-5.1,8.5s-6.7-3.8-17.6-3.5
		c-11.7,0.3-20.7,3.4-20.6,9.7c6.5-3,12.8-4.2,21.2-4.4c13.4-0.4,27.6,3.2,27.9,11c0.4,8.3-16.1,12-29.8,12.4
		c-21.6,0.6-36.9-4.3-37.4-16.1C364.7,91,381.5,83.5,401.9,83c8.1-0.2,13.6,0.1,17.5,0.5C423.2,83.8,425.4,84.2,426.6,84.2
		L426.6,84.2z"/>
	<path fill="#353535" d="M133.9,118.2v-9.7l-17.7,2.7H98V83.4H75.5v34.8h40.7H133.9L133.9,118.2z M141.4,90.4h9.9v20.8h-9.9l-1,7
		h10.9h22.5h11l-1-7h-10V90.4h10l1-7h-11h-22.5h-10.9L141.4,90.4L141.4,90.4z M252.1,119.9l7-1.7V83.4h-21v19.1l-39.5-20.6l-6.8,1.6
		v34.8h21V99.8L252.1,119.9L252.1,119.9z M328.5,111.3h-37.8V104H326v-7h-35.2v-6.5h37.1l-1.5-7h-58.1V97v7v14.3h59.4L328.5,111.3
		L328.5,111.3z M342.2,133.1c-27.5,0.9-59.1,1.7-92.2,1.9c-95.7-0.5-175.9-5.9-181-6.2c-10.2-0.9-12.5-1.6-12.5-12.5V83.8
		c-0.1-8.1,0.5-12,12.5-12.5c5.1-0.3,85.3-5.7,181-6.2c33.2,0.2,64.9,0.9,92.4,1.9C350.3,88.1,349.5,111.9,342.2,133.1L342.2,133.1z
		"/>
</g>
</svg>
