<?xml version="1.0" encoding="utf-8"?>
<!-- Generator: Adobe Illustrator 18.0.0, SVG Export Plug-In . SVG Version: 6.00 Build 0)  -->
<!DOCTYPE svg PUBLIC "-//W3C//DTD SVG 1.1//EN" "http://www.w3.org/Graphics/SVG/1.1/DTD/svg11.dtd">
<svg version="1.1" id="Layer_1" xmlns="http://www.w3.org/2000/svg" xmlns:xlink="http://www.w3.org/1999/xlink" x="0px" y="0px"
	 viewBox="0 0 500 200" enable-background="new 0 0 500 200" xml:space="preserve">
<g>
	<path fill="#353535" d="M437.5,65.1c-5.1-0.3-91.3-5.7-187.5-6.2c-96.1,0.5-182.4,5.9-187.5,6.2c-8.8,1-12.6,5.9-12.5,12.5v44.8
		c-0.1,7.5,5.2,11.8,12.7,12.5c5.1,0.3,91.2,5.7,187.3,6.2c96.1-0.5,182.2-5.9,187.3-6.2c7.5-0.7,12.7-5,12.7-12.5V77.6
		C450.1,71,446.3,66.1,437.5,65.1z M448.2,120.6c0,6.9-2.4,11.4-12.5,12.5c-5.1,0.3-89.5,5.7-185.7,6.2
		c-96.1-0.5-180.6-5.9-185.7-6.2c-10.1-1.1-12.5-5.6-12.5-12.5V79.4c0-6.9,2.4-11.4,12.5-12.5c5.1-0.3,89.5-5.7,185.7-6.2
		c96.1,0.5,180.6,5.9,185.7,6.2c10.1,1.1,12.5,5.6,12.5,12.5V120.6z"/>
	<g>
		<path fill="#353535" d="M404.5,94.5c-8.5,0.2-14.7,1.4-21.2,4.4c-0.2-6.3,8.9-9.4,20.6-9.7c10.9-0.3,17.6,3.5,17.6,3.5
			s6.1-8.5,5.1-8.5c-1.2,0-3.4-0.4-7.2-0.8c-3.9-0.4-9.4-0.7-17.5-0.5c-20.4,0.5-37.2,8.1-36.7,18.8c0.5,11.8,15.8,16.7,37.4,16.1
			c13.7-0.4,30.2-4,29.8-12.4C432.1,97.7,417.9,94.2,404.5,94.5z M401.4,110.7c-7.8,0.2-14.2-1.3-14.3-4.3c-0.1-3.1,6.1-5,13.9-5.2
			c7.8-0.2,14.2,1.4,14.3,4.4C415.4,108.7,409.2,110.5,401.4,110.7z"/>
		<path fill="#353535" d="M250,65.1c-95.7,0.5-175.9,5.9-181,6.2C57,71.8,56.4,75.6,56.5,83.8v32.5c0,10.9,2.3,11.6,12.5,12.5
			c5.1,0.3,85.3,5.7,181,6.2c33.1-0.2,64.7-0.9,92.2-1.9c7.4-21.2,8.1-45,0.3-66.2C314.9,66,283.2,65.2,250,65.1z M133.9,118.2
			h-17.7H75.5V83.4H98v27.9h18.2l17.7-2.7V118.2z M183.8,111.2l1,7h-11h-22.5h-10.9l1-7h9.9V90.4h-9.9l-1-7h10.9h22.5h11l-1,7h-10
			v20.8H183.8z M259.1,118.2l-7,1.7l-39.4-20.1v18.4h-21V83.4l6.8-1.6l39.5,20.6V83.4h21V118.2z M327.6,118.2h-59.4l0-14.3v-7
			l0-13.5h58.1l1.5,7h-37.1v6.5H326v7h-35.2v7.3h37.8L327.6,118.2z"/>
	</g>
</g>
</svg>
