<?xml version="1.0" encoding="utf-8"?>
<!-- Generator: Adobe Illustrator 18.1.1, SVG Export Plug-In . SVG Version: 6.00 Build 0)  -->
<svg version="1.1" id="Layer_1" xmlns="http://www.w3.org/2000/svg" xmlns:xlink="http://www.w3.org/1999/xlink" x="0px" y="0px"
	 viewBox="0 160 1920 960" enable-background="new 0 160 1920 960" xml:space="preserve">
<g>
	<path fill="#6A6A6A" d="M1680,506c-19.6-1.2-350.6-21.9-720-23.8c-369,1.9-700.4,22.7-720,23.8c-33.8,3.8-48.4,22.7-48,48v172
		c-0.4,28.8,20,45.3,48.8,48c19.6,1.2,350.2,21.9,719.2,23.8c369-1.9,699.6-22.7,719.2-23.8c28.8-2.7,48.8-19.2,48.8-48V554
		C1728.4,528.6,1713.8,509.8,1680,506z M1721.1,719.1c0,26.5-9.2,43.8-48,48c-19.6,1.2-343.7,21.9-713.1,23.8
		c-369-1.9-693.5-22.7-713.1-23.8c-38.8-4.2-48-21.5-48-48V560.9c0-26.5,9.2-43.8,48-48c19.6-1.2,343.7-21.9,713.1-23.8
		c369,1.9,693.5,22.7,713.1,23.8c38.8,4.2,48,21.5,48,48V719.1z"/>
	<g>
		<path fill="#6A6A6A" d="M1553.3,618.9c-32.6,0.8-56.4,5.4-81.4,16.9c-0.8-24.2,34.2-36.1,79.1-37.2c41.9-1.2,67.6,13.4,67.6,13.4
			s23.4-32.6,19.6-32.6c-4.6,0-13.1-1.5-27.6-3.1c-15-1.5-36.1-2.7-67.2-1.9c-78.3,1.9-142.8,31.1-140.9,72.2
			c1.9,45.3,60.7,64.1,143.6,61.8c52.6-1.5,116-15.4,114.4-47.6C1659.3,631.2,1604.7,617.7,1553.3,618.9z M1541.4,681.1
			c-30,0.8-54.5-5-54.9-16.5c-0.4-11.9,23.4-19.2,53.4-20s54.5,5.4,54.9,16.9C1595.1,673.4,1571.3,680.3,1541.4,681.1z"/>
		<path fill="#6A6A6A" d="M960,506c-367.5,1.9-675.5,22.7-695,23.8c-46.1,1.9-48.4,16.5-48,48v124.8c0,41.9,8.8,44.5,48,48
			c19.6,1.2,327.6,21.9,695,23.8c127.1-0.8,248.4-3.5,354-7.3c28.4-81.4,31.1-172.8,1.2-254.2C1209.2,509.4,1087.5,506.4,960,506z
			 M514.2,709.9h-68H289.9V576.3h86.4v107.1h69.9l68-10.4V709.9z M705.8,683l3.8,26.9h-42.2H581h-41.9L543,683h38v-79.9h-38
			l-3.8-26.9H581h86.4h42.2l-3.8,26.9h-38.4V683H705.8z M994.9,709.9l-26.9,6.5l-151.3-77.2v70.7h-80.6V576.3l26.1-6.1l151.7,79.1
			v-73h80.6v133.6H994.9z M1258,709.9h-228.1V655v-26.9v-51.8H1253l5.8,26.9h-142.5v25h135.6V655h-135.2v28h145.2L1258,709.9z"/>
	</g>
</g>
</svg>
