<?xml version="1.0" encoding="utf-8"?>
<!-- Generator: Adobe Illustrator 18.1.1, SVG Export Plug-In . SVG Version: 6.00 Build 0)  -->
<svg class="fill-path" version="1.1" id="Layer_1" xmlns="http://www.w3.org/2000/svg" xmlns:xlink="http://www.w3.org/1999/xlink" x="0px" y="0px"
	 viewBox="0 481.9 1920 956.3" enable-background="new 0 481.9 1920 956.3" xml:space="preserve">
<path fill="#6A6A6A" d="M286.1,1067.3v2.3c-2.3,0-5,0.4-5,3.1c0,3.8,12.7,39.2,14.2,46.8h0.4c1.9-8.1,16.9-43,16.9-46.8
	c0-2.7-2.7-3.1-5-3.1v-2.3h38v2.3c-2.3,0-5,0.4-5,3.1c0,2.3,15.4,41.5,17.3,46.8h0.4c1.5-8.1,14.2-42.2,14.2-46.8
	c0-2.7-2.7-3.1-5-3.1v-2.3h31.1v2.3c-3.8,0.4-4.2,2.3-5,5c-2.3,7.3-22.7,68-22.7,69.9c0,1.5,1.9,1.9,5,2.3v2.3h-39.6v-2.3
	c3.8-0.4,5.4-0.8,5.4-2.3c0-3.8-15-40.7-16.5-46.5h-0.4c-1.5,5.8-16.1,43-16.1,46.5c0,1.5,2.3,1.9,4.6,2.3v2.3h-38.8v-2.3
	c3.1-0.4,5-0.8,5-2.3c0-2.7-22.3-69.5-23.4-72.6c-0.4-2.3-1.9-2.3-3.1-2.3v-2.3L286.1,1067.3L286.1,1067.3z"/>
<path fill="#6A6A6A" d="M450.4,1067.3v2.3c-3.8,0-5.8,0.8-5.8,3.1v70.7c0,2.7,2.3,3.1,5.8,3.1v2.3h-36.9v-2.3
	c3.8-0.4,5.8-0.8,5.8-3.1v-70.7c0-2.7-2.3-3.1-5.8-3.1v-2.3H450.4z"/>
<path fill="#6A6A6A" d="M481.9,1072.7c0-2.7-2.3-3.1-5-3.1v-2.3h34.6v2.3c-2.7,0-5,0.8-5,3.1v57.6h51.1c1.5,0,3.1-0.8,3.1-4.6h2.3
	v28.4h-2.3c0-3.8-1.9-4.6-3.1-4.6h-81v-2.3c2.7-0.4,5-0.8,5-3.1v-71h0.4L481.9,1072.7L481.9,1072.7z"/>
<path fill="#6A6A6A" d="M585.6,1072.7c0-2.7-2.3-3.1-5-3.1v-2.3h34.6v2.3c-2.7,0-5,0.8-5,3.1v57.6h51.1c1.5,0,3.1-0.8,3.1-4.6h2.3
	v28.4h-2.3c0-3.8-1.9-4.6-3.1-4.6h-80.6v-2.3c2.7-0.4,5-0.8,5-3.1L585.6,1072.7L585.6,1072.7z"/>
<path fill="#6A6A6A" d="M722.3,1067.3v2.3c-3.8,0-5.8,0.8-5.8,3.1v70.7c0,2.7,2.3,3.1,5.8,3.1v2.3h-36.9v-2.3
	c3.8-0.4,5.8-0.8,5.8-3.1v-70.7c0-2.7-2.3-3.1-5.8-3.1v-2.3H722.3z"/>
<path fill="#6A6A6A" d="M779.1,1119.2l15.4-33l15.4,33H779.1z M850.6,1149.5v-2.3c-1.5,0-3.1-0.4-3.8-1.9
	c-8.1-19.2-34.2-71.8-34.2-73.7c0-1.5,0.4-1.9,2.3-1.9v-2.3h-38.8v2.3c1.9,0,2.3,0.4,2.3,1.9c0,2.7-17.3,38.8-32.3,73.7
	c-0.4,1.5-2.3,1.9-3.8,1.9v2.3h27.6v-2.3c-0.8,0-2.3,0-2.3-1.9c0-2.3,4.2-9.2,5.4-12.7h43.4c1.5,3.1,5.4,10.4,5.4,12.7
	c0,1.9-1.9,1.9-2.3,1.9v2.3C819.8,1149.5,850.6,1149.5,850.6,1149.5z"/>
<path fill="#6A6A6A" d="M897.4,1143.4c0,2.7,2.3,3.1,5,3.1v2.3h-29.2v-2.3c1.9,0,4.2-0.8,4.2-3.1v-70.7c0-2.7-2.3-3.1-4.2-3.1v-2.3
	h40.7v2.3c-1.9,0-3.8,0.4-3.8,1.5c0,1.9,13.8,28.8,15,32.3c5.8-12.3,16.5-30,16.5-32.3c0-0.8-1.9-1.5-3.8-1.5v-2.3h40.7v2.3
	c-1.9,0-4.2,0.8-4.2,3.1v70.7c0,2.7,2.3,3.1,4.2,3.1v2.3h-31.1v-2.3c2.7,0,5-0.8,5-3.1v-53l0,0l-27.6,53.8l-26.9-53.8h-0.4v53H897.4
	z"/>
<path fill="#6A6A6A" d="M1060.2,1121.5l2.3,0.8v2.3c0.4,3.8,6.5,6.5,17.3,6.5c8.8,0,13.1-2.3,13.1-11.1v-47.6c0-2.7-2.3-3.1-4.2-3.1
	v-1.9h33v2.3c-1.5,0-3.8,0.8-3.8,3.1v49c0,21.9-15,27.6-36.5,27.6c-10,0-22.7-3.8-24.2-3.8c-0.8,0-1.9,0.8-3.1,1.9l-1.9-0.8
	L1060.2,1121.5z"/>
<path fill="#6A6A6A" d="M1224.6,1133c2.3,0,4.2-1.5,5-4.6h2.3v25h-1.9c-1.5-3.1-2.3-4.2-5-4.2h-83.3v-2.4c2.7-0.4,5.4-0.8,5.4-3.1
	v-71c0-2.7-2.7-3.1-5.4-3.1v-2.3h84.9c1.5,0,3.1-0.8,3.1-4.2h2.3v25h-2.3c0-3.8-1.9-4.6-3.1-4.6h-54.1v15h34.9
	c1.5,0,3.1-0.8,3.1-4.2h2.3v24.2h-2.7c0-3.8-1.9-4.2-3.1-4.2h-35v18.4C1171.6,1133,1224.6,1133,1224.6,1133z"/>
<path fill="#6A6A6A" d="M1262.2,1120.7l2.3,1.5c0,0.4,0,0.8,0,1.9c0,5,21.5,9.6,36.5,9.6c4.6,0,16.9-0.8,16.9-7.7
	c0-14.6-61.1-0.4-61.1-31.5c0-11.9,11.1-27.6,41.5-27.6c17.7,0,33,5,36.9,5c1.9,0,3.1-1.5,4.2-2.3l1.9,0.8l-11.5,23.4l-2.3-0.8
	c0-0.4,0-1.5,0-2.3c0-1.9-13.1-6.9-25.7-6.9c-4.6,0-21.5,0-21.5,8.1c0,13.1,60.7-0.4,60.7,31.9c0,14.6-12.3,27.3-41.1,27.3
	c-17.7,0-38.8-6.9-40.3-6.9c-1.9,0-2.7,1.5-4.2,2.7l-2.3-0.4L1262.2,1120.7z"/>
<path fill="#6A6A6A" d="M1365.5,1120.7l2.3,1.5c0,0.4-0.4,0.8-0.4,1.9c0,5,21.5,9.6,36.5,9.6c4.6,0,16.9-0.8,16.9-7.7
	c0-14.6-60.7-0.4-60.7-31.5c0-11.9,11.1-27.6,41.1-27.6c17.7,0,33,5,36.9,5c2.3,0,3.1-1.5,4.2-2.3l2.3,0.8l-11.1,23.4l-2.7-0.8
	c0-0.4,0.4-1.5,0.4-2.3c0-1.9-13.1-6.9-25.7-6.9c-4.6,0-21.5,0-21.5,8.1c0,13.1,60.7-0.4,60.7,31.9c0,14.6-12.3,27.3-41.1,27.3
	c-17.7,0-38.8-6.9-40.3-6.9c-1.9,0-3.1,1.5-4.2,2.7l-1.9-0.4L1365.5,1120.7z"/>
<path fill="#6A6A6A" d="M1469.6,1072.7c0-2.7-2.3-3.1-5.4-3.1v-2.3h33.8v2.3c-1.5,0-3.1,0.8-3.1,3.1v45.3c0,9.6,7.7,13.1,18.8,13.1
	s18.8-3.8,18.8-13.1v-45.3c0-2.7-1.9-3.1-3.1-3.1v-2.3h33.4v2.3c-3.1,0-5.4,0.8-5.4,3.1v41.1c0,19.6-11.1,36.5-43.8,36.5
	c-33,0-43.4-16.9-43.4-36.5L1469.6,1072.7L1469.6,1072.7z"/>
<path fill="#6A6A6A" d="M1609.7,1082.7h19.2c9.2,0,13.1,3.1,13.1,11.1c0,8.1-4.6,11.1-14.6,11.1h-17.7V1082.7z M1585.2,1143.4
	c0,2.7-2.3,3.1-3.1,3.1v2.3h32.3v-2.3c-1.9,0-4.2-0.8-4.2-3.1v-22.7h21.1c18.4,0,35.7-5,35.7-26.5s-16.9-26.9-35.7-26.9h-48.8v2.3
	c0.8,0,3.1,0.8,3.1,3.1v70.7H1585.2L1585.2,1143.4z"/>
<path fill="#6A6A6A" d="M438.1,1206.3v1.9c-1.5,0-2.7,0.8-2.7,3.8v34.9c0,7.3,5,11.5,14.6,11.5s14.6-4.6,14.6-11.5V1212
	c0-2.7-1.5-3.8-2.7-3.8v-1.9h19.2v1.9c-1.5,0-2.7,0.8-2.7,3.8v33.4c0,16.1-10.4,22.7-28.8,22.7s-28.8-6.9-28.8-22.7V1212
	c0-2.7-1.5-3.8-2.7-3.8v-1.9C417.8,1206.3,438.1,1206.3,438.1,1206.3z"/>
<path fill="#6A6A6A" d="M545.7,1267.8v-2c1.9,0,3.8-0.8,3.8-3.8v-50.3c0-2.7-1.5-3.8-3.8-3.8v-1.9h23.4v1.9
	c-1.5,0.4-2.3,0.8-2.3,1.9c0,1.5,2.3,4.6,3.8,5.8l22.7,31.5h0.4v-35.7c0-2.7-1.5-3.8-3.1-3.8v-1.9h18.8v1.9c-1.9,0-3.1,0.8-3.1,3.8
	v50.3c0,2.7,1.5,3.8,3.1,3.8v1.9h-20v-1.9c0.8,0,1.9-0.8,1.9-1.5c0-0.8-0.4-1.9-1.9-3.1l-26.9-35.7h-0.4v36.9c0,2.7,1.5,3.8,3.8,3.8
	v1.9h-19.6l0,0L545.7,1267.8L545.7,1267.8z"/>
<path fill="#6A6A6A" d="M676.6,1267.8v-2c1.9,0,3.1-0.8,3.1-3.8v-50.3c0-2.7-1.5-3.8-3.1-3.8v-1.9h21.1v1.9c-2.3,0-3.1,0.8-3.1,3.8
	v50.3c0,2.7,1.5,3.8,3.1,3.8v1.9L676.6,1267.8L676.6,1267.8z"/>
<path fill="#6A6A6A" d="M759.6,1206.3h21.1v1.9c-1.9,0.4-2.7,0.8-2.7,2.3c0,0.8,0.8,3.1,1.5,4.2l13.1,37.2l0,0l13.8-36.5
	c0.4-1.9,1.5-3.8,1.5-5c0-1.5-0.4-1.9-2.7-1.9v-1.9h19.2v1.9c-2.7,0-3.8,1.9-4.6,3.8l-17.7,46.1c-0.8,1.9-1.9,4.2-1.9,5.4
	c0,0.8,0.4,1.9,1.9,1.9v1.9h-19.6v-1.8c0.8,0,1.5-1.5,1.5-1.9c0-0.8-0.4-2.3-1.9-5l-17.7-46.1c-0.8-2.7-2.3-3.1-4.6-3.8v-2.7H759.6z
	"/>
<path fill="#6A6A6A" d="M887.4,1212.1c0-2.7-1.5-3.8-2.7-3.8v-1.9h46.5c2.7,0,3.8-0.8,4.2-2.7h2.3v16.1h-2.3
	c-0.4-2.7-1.5-3.8-4.2-3.8h-29.6v15h17.7c2.7,0,3.8-0.4,4.2-3.1h2.3v16.1h-2.3c-0.4-2.3-1.5-3.1-4.2-3.1h-17.7v16.9h29.6
	c2.7,0,3.8-0.8,4.2-3.1h2.3v15.4h-2.3c-0.4-1.9-1.5-2.7-4.2-2.7h-46.5v-1.9c1.5,0,2.7-0.8,2.7-3.8V1212.1z"/>
<path fill="#6A6A6A" d="M1019.9,1215.5h14.2c11.9,0,16.1,2.7,16.1,9.2c0,6.9-4.2,9.2-16.1,9.2h-14.2L1019.9,1215.5L1019.9,1215.5z
	 M1023,1267.8v-2c-1.5,0-2.7-0.8-2.7-3.8v-18.8h12.3l12.3,17.7c1.5,1.5,1.5,2.3,1.5,3.1c0,0.8-0.8,0.8-1.9,0.8v1.9h19.2v-1.9
	c-1.9-0.4-2.3-1.5-4.6-4.2l-13.1-19.2c9.6-0.8,17.3-8.8,17.3-16.9c0-11.1-7.3-18.8-24.2-18.8H1003v1.9c1.5,0,2.7,0.8,2.7,3.8v50.3
	c0,2.7-1.5,3.8-2.7,3.8v1.9C1003,1267.8,1023,1267.8,1023,1267.8z"/>
<path fill="#6A6A6A" d="M1175,1223.6l-1.9-0.4c0-4.6-7.7-8.1-19.2-8.1c-8.8,0-13.1,3.1-13.1,8.1c0,12.7,41.9,3.1,41.9,28.4
	c0,10.4-11.5,17.3-25,17.3c-16.9,0-23.4-5.8-26.9-5.8c-1.5,0-1.5,0.8-2.3,1.5l-1.9-0.4l8.8-15l2.3,0.8c0,0.4-0.4,1.5-0.4,1.9
	c0,4.2,11.1,8.1,21.1,8.1c9.2,0,14.2-3.1,14.2-9.2c0-11.5-41.9-2.7-41.9-26.5c0-10.4,9.2-17.7,26.1-17.7c11.1,0,22.3,5,23.8,5
	c0.8,0,1.9-0.4,2.7-0.8l1.5,0.4L1175,1223.6z"/>
<path fill="#6A6A6A" d="M1251.1,1267.8v-2c1.9,0,3.1-0.8,3.1-3.8v-50.3c0-2.7-1.5-3.8-3.1-3.8v-1.9h20.4v1.9c-2.3,0-3.1,0.8-3.1,3.8
	v50.3c0,2.7,1.5,3.8,3.1,3.8v1.9C1271.8,1267.8,1251.1,1267.8,1251.1,1267.8z"/>
<path fill="#6A6A6A" d="M1334.4,1218.6V1204h2.3c0.4,1.5,1.5,2.7,4.2,2.7h41.9c2.7,0,3.8-1.5,4.2-2.7h2.3v15h-2.3
	c-0.4-1.9-1.5-2.7-4.2-2.7h-14.2v45.7c0,2.7,1.5,3.8,2.3,3.8v1.9h-18.8v-1.9c0.8,0,2.7-0.8,2.7-3.8v-45.7h-14.2
	c-2.7,0-3.8,0.8-4.2,2.7h-2.3v-0.4H1334.4z"/>
<path fill="#6A6A6A" d="M1467.3,1267.8v-2c0.8,0,2.7-0.8,2.7-3.8v-22.7l-17.7-26.1c-2.3-3.8-2.7-4.2-6.5-4.2v-1.9h21.5v1.9
	c-0.8,0-2.3,0.4-2.3,1.5c0,0.8,0.8,2.7,1.9,3.8l11.1,16.5l10-16.5c0.8-1.5,1.9-3.1,1.9-4.2c0-0.8-0.8-0.8-2.3-0.8v-1.9h19.6v1.9
	c-3.1,0-3.8,1.5-5.8,4.6l-16.9,25.7v23.4c0,2.7,1.5,3.8,1.9,3.8v1.9h-18.8v-0.9H1467.3z"/>
<polygon fill="#6A6A6A" points="934.3,939.8 971.1,940.2 1008,649.9 799.5,714 801,727.9 938.1,687.2 "/>
<polygon fill="#6A6A6A" points="857.5,940.2 857.1,794.7 915.5,777.4 917.4,745.1 829.1,771.3 844.8,940.2 "/>
<polygon fill="#6A6A6A" points="1033.7,1005.5 769.5,1005.5 765.7,1013.9 1037.6,1013.9 "/>
<polygon fill="#6A6A6A" points="1002.6,985.5 999.9,978.2 803.3,978.2 800.3,985.5 "/>
<polygon fill="#6A6A6A" points="973.4,962.9 971.5,957.1 831.7,957.1 830.2,962.9 "/>
<polygon fill="#6A6A6A" points="1033.7,1005.5 769.5,1005.5 765.7,1013.9 1037.6,1013.9 "/>
<polygon fill="#6A6A6A" points="1002.6,985.5 999.9,978.2 803.3,978.2 800.3,985.5 "/>
<polygon fill="#6A6A6A" points="973.4,962.9 971.5,957.1 831.7,957.1 830.2,962.9 "/>
<path fill="#6A6A6A" d="M885.9,933.7c0.4,0.4,0.8,1.5,1.5,1.9c-11.5-25.7,49.2-42.2,17.3-93.7C920.1,866.1,862.1,880.7,885.9,933.7"
	/>
<path fill="#6A6A6A" d="M882.4,885.3c0,0.4,0.4,0.8,0.8,0.8c-7.3-16.1,31.1-26.9,11.1-58.8C903.9,842.7,867.5,851.9,882.4,885.3"/>
</svg>
