<?xml version="1.0" encoding="utf-8"?>
<!-- Generator: Adobe Illustrator 18.0.0, SVG Export Plug-In . SVG Version: 6.00 Build 0)  -->
<!DOCTYPE svg PUBLIC "-//W3C//DTD SVG 1.1//EN" "http://www.w3.org/Graphics/SVG/1.1/DTD/svg11.dtd">
<svg version="1.1" id="Layer_1" xmlns="http://www.w3.org/2000/svg" xmlns:xlink="http://www.w3.org/1999/xlink" x="0px" y="0px"
	 viewBox="0 0 500 200" enable-background="new 0 0 500 200" xml:space="preserve">
<g>
	<path fill="#353535" d="M181.1,113.9c-4.9,0-8.2,2.5-10.1,6V95h-4.4v45.8h4.4l-0.1-5.6c1.8,3.6,5.5,6.1,10.1,6.1
		c7.2,0,12.7-5.8,12.7-13.7C193.8,119.7,188.3,113.9,181.1,113.9z M180.2,137.4c-5.6,0-9.3-4.1-9.3-9.8c0-5.6,3.7-9.7,9.3-9.7
		c5.5,0,9.1,4.1,9.1,9.7C189.3,133.2,185.7,137.4,180.2,137.4z"/>
	<path fill="#353535" d="M212.3,113.9c-7.9,0-13.9,6-13.9,13.7c0,7.7,6.1,13.6,13.9,13.6c7.8,0,13.8-6,13.8-13.6
		C226.1,119.9,220.1,113.9,212.3,113.9z M212.3,137.4c-5.6,0-9.4-4.2-9.4-9.8c0-5.6,3.8-9.8,9.4-9.8c5.6,0,9.3,4.2,9.3,9.8
		C221.6,133.2,217.8,137.4,212.3,137.4z"/>
	<path fill="#353535" d="M244.5,113.9c-7.9,0-13.9,6-13.9,13.7c0,7.7,6.1,13.6,13.9,13.6c7.8,0,13.8-6,13.8-13.6
		C258.3,119.9,252.3,113.9,244.5,113.9z M244.5,137.4c-5.6,0-9.4-4.2-9.4-9.8c0-5.6,3.8-9.8,9.4-9.8c5.6,0,9.3,4.2,9.3,9.8
		C253.8,133.2,250.1,137.4,244.5,137.4z"/>
	<path fill="#353535" d="M286.2,114.5h-5.1L268.6,128c0.2-1.1,0.3-2.4,0.3-3.7V95h-4.4v45.8h4.4v-8l4.1-4.3l9.5,12.3h5.3l-11.7-15.2
		L286.2,114.5z"/>
	<rect x="293.5" y="95" fill="#353535" width="4.4" height="45.8"/>
	<path fill="#353535" d="M318.1,113.9c-5,0-8.4,2-10.7,5.1l2.7,2.5c1.6-2.2,4-3.8,7.7-3.8c3.9,0,6.1,2,6.1,7v0.6h-8.2
		c-5.5,0-10,2.5-10,7.9c0,5.5,4.1,8,9.6,8c4.2,0,6.9-1.8,8.7-4.4l-0.2,3.9h4.4v-16.1C328.4,117.3,323.9,113.9,318.1,113.9z
		 M323.9,132c0,3.4-3.4,5.6-7.5,5.6c-4.1,0-6.3-1.6-6.3-4.6c0-3.2,2.6-4.4,6-4.4h7.9V132z"/>
	<path fill="#353535" d="M354.7,128.9c0,5.1-3.2,8.3-8.2,8.3c-4.3,0-6.5-2.5-6.5-7.1v-15.7h-4.4v16.1c0,6.7,4,10.7,9.8,10.7
		c4.2,0,7.7-2.2,9.4-5.9l-0.1,5.3h4.4v-26.2h-4.4V128.9z"/>
	<path fill="#353535" d="M380.7,113.9c-4.2,0-7.7,2.2-9.4,6l0.1-5.4H367v26.2h4.4v-14.5c0-5.2,3.3-8.3,8.2-8.3
		c4.4,0,6.5,2.7,6.5,7.3v15.5h4.4v-16C390.5,117.9,386.6,113.9,380.7,113.9z"/>
	<path fill="#353535" d="M409.4,137.4c-5.6,0-9.1-4.2-9.1-9.8c0-5.6,3.5-9.8,9.1-9.8c3.3,0,5.6,1.3,7.2,3.4l3.2-2.6
		c-2.4-2.9-5.6-4.7-10.3-4.7c-7.7,0-13.6,6-13.6,13.7c0,7.7,5.9,13.6,13.6,13.6c4.9,0,8.1-1.7,10.6-4.7l-3-2.6
		C415.3,135.9,413,137.4,409.4,137.4z"/>
	<path fill="#353535" d="M440.2,113.9c-4.2,0-7.7,2.2-9.3,5.7V95h-4.4v45.8h4.4v-14.5c0-5.2,3.3-8.3,8.2-8.3c4.4,0,6.5,2.7,6.5,7.3
		v15.5h4.4v-16C450,117.9,446,113.9,440.2,113.9z"/>
	<polygon fill="#353535" points="150.8,66.9 146.7,66.7 148.3,69.1 148.3,69.1 148.3,69.1 145.8,75 144.9,73.6 142.9,74.9 
		145.2,68.7 145.2,68.7 143.9,66.6 139.1,66.4 130.2,58.8 127,59.6 125.8,58.7 118.3,77.9 131.2,87.1 131.2,87.1 131.3,87.1 
		131.3,87.1 131.3,87.1 146.7,89 154.2,69.8 152.7,69.6 	"/>
	<path fill="#353535" d="M108.3,119.2c3.4-3.4,6.8-7,9.8-10.8c2-2.5,3.9-5.2,5.7-7.9c2.2-3.5,4.2-7,5.7-10.7
		c-1.9,3.2-4.4,6.8-7.4,10.5c-0.1,0.1-0.2,0.2-0.3,0.4l-0.1-0.4c-1.4-4.8-4.2-9.1-8-12.4c-4.8-4.1-10.9-6.4-17.2-6.4
		c-9.4,0-18,5-22.6,13c-0.2,0-0.5,0-0.7,0c-11,0-20.2,7.7-22.6,17.9c-0.4,1.7-0.6,3.5-0.6,5.3c0,11.7,8.8,21.5,20.1,23
		c-0.1,0-0.1,0.1-0.2,0.1c0.8,0.1,2.5,0.1,3.4,0.1h6.4c3.6-2,7.8-4.6,12.3-7.9C97.2,129.1,102.9,124.5,108.3,119.2z M73.5,133
		c-8.4,0-15.4-6.6-15.6-15c0-1.5,0.1-2.9,0.5-4.2c1.7-6.6,7.7-11.5,14.8-11.5c0.8,0,1.6,0.1,2.4,0.2l3,0.5l1.2-2.7
		c3-6.6,9.5-10.9,16.7-10.9c9,0,16.8,6.7,18.1,15.5l0.5,3.4c-3.3,3.6-7.1,7.2-11.1,10.7c-5.9,5.1-12.5,10-18.9,14H73.5z"/>
	<path fill="#353535" d="M127.2,101.3c0.2-0.4,0.3-0.7,0.5-1.1c1.6-3.6,3-7.3,4-11.1c-1.3,3.3-3.1,7-5.4,10.8c-1.4,2.5-3,5-4.8,7.5
		c-2.7,3.9-5.7,7.9-8.9,11.7c-4.4,5.2-9.2,10.1-14.2,14.4c-3.2,2.8-6.6,5.2-9.9,7.3h1.4h4.1h27l1.5-0.1l0.2,0
		c10.5-1,18.3-9.7,18.3-20.2c0-0.9-0.1-1.9-0.2-2.8C139.8,110.1,134.4,103.7,127.2,101.3z M122,132.9l-1.2,0.1h-17
		c4.1-3.9,8.4-8.5,12.4-13.8c2.5-3.4,5-7,7.2-10.8c4.9,1.1,8.7,5.1,9.5,10.1c0.1,0.7,0.2,1.3,0.2,2C133.1,127,128.4,132.3,122,132.9
		z"/>
</g>
</svg>
