<?xml version="1.0" encoding="utf-8"?>
<!-- Generator: Adobe Illustrator 18.1.1, SVG Export Plug-In . SVG Version: 6.00 Build 0)  -->
<svg version="1.1" id="Layer_1" xmlns="http://www.w3.org/2000/svg" xmlns:xlink="http://www.w3.org/1999/xlink" x="0px" y="0px"
	 viewBox="0 160 1920 960" enable-background="new 0 160 1920 960" xml:space="preserve">
<g>
	<path fill="#6A6A6A" d="M695.4,693.4c-18.8,0-31.5,9.6-38.8,23v-95.6h-16.9v175.9h16.9l-0.4-21.5c6.9,13.8,21.1,23.4,38.8,23.4
		c27.6,0,48.8-22.3,48.8-52.6C744.2,715.6,723.1,693.4,695.4,693.4z M692,783.6c-21.5,0-35.7-15.7-35.7-37.6
		c0-21.5,14.2-37.2,35.7-37.2c21.1,0,34.9,15.7,34.9,37.2C726.9,767.5,713.1,783.6,692,783.6z"/>
	<path fill="#6A6A6A" d="M815.2,693.4c-30.3,0-53.4,23-53.4,52.6s23.4,52.2,53.4,52.2c30,0,53-23,53-52.2
		C868.2,716.4,845.2,693.4,815.2,693.4z M815.2,783.6c-21.5,0-36.1-16.1-36.1-37.6c0-21.5,14.6-37.6,36.1-37.6
		c21.5,0,35.7,16.1,35.7,37.6S836.4,783.6,815.2,783.6z"/>
	<path fill="#6A6A6A" d="M938.9,693.4c-30.3,0-53.4,23-53.4,52.6s23.4,52.2,53.4,52.2s53-23,53-52.2
		C991.9,716.4,968.8,693.4,938.9,693.4z M938.9,783.6c-21.5,0-36.1-16.1-36.1-37.6c0-21.5,14.6-37.6,36.1-37.6s35.7,16.1,35.7,37.6
		S960.4,783.6,938.9,783.6z"/>
	<path fill="#6A6A6A" d="M1099,695.7h-19.6l-48,51.8c0.8-4.2,1.2-9.2,1.2-14.2V620.8h-16.9v175.9h16.9V766l15.7-16.5l36.5,47.2h20.4
		l-44.9-58.4L1099,695.7z"/>
	<rect x="1127" y="620.8" fill="#6A6A6A" width="16.9" height="175.9"/>
	<path fill="#6A6A6A" d="M1221.5,693.4c-19.2,0-32.3,7.7-41.1,19.6l10.4,9.6c6.1-8.4,15.4-14.6,29.6-14.6c15,0,23.4,7.7,23.4,26.9
		v2.3h-31.5c-21.1,0-38.4,9.6-38.4,30.3c0,21.1,15.7,30.7,36.9,30.7c16.1,0,26.5-6.9,33.4-16.9l-0.8,15h16.9v-61.8
		C1261.1,706.4,1243.8,693.4,1221.5,693.4z M1243.8,762.9c0,13.1-13.1,21.5-28.8,21.5s-24.2-6.1-24.2-17.7c0-12.3,10-16.9,23-16.9
		h30.3v13.1H1243.8z"/>
	<path fill="#6A6A6A" d="M1362,751c0,19.6-12.3,31.9-31.5,31.9c-16.5,0-25-9.6-25-27.3v-60.3h-16.9v61.8c0,25.7,15.4,41.1,37.6,41.1
		c16.1,0,29.6-8.4,36.1-22.7l-0.4,20.4h16.9V695.3H1362L1362,751L1362,751z"/>
	<path fill="#6A6A6A" d="M1461.9,693.4c-16.1,0-29.6,8.4-36.1,23l0.4-20.7h-16.9v100.6h16.9v-55.7c0-20,12.7-31.9,31.5-31.9
		c16.9,0,25,10.4,25,28v59.5h16.9v-61.4C1499.5,708.7,1484.5,693.4,1461.9,693.4z"/>
	<path fill="#6A6A6A" d="M1572.1,783.6c-21.5,0-34.9-16.1-34.9-37.6c0-21.5,13.4-37.6,34.9-37.6c12.7,0,21.5,5,27.6,13.1l12.3-10
		c-9.2-11.1-21.5-18-39.6-18c-29.6,0-52.2,23-52.2,52.6s22.7,52.2,52.2,52.2c18.8,0,31.1-6.5,40.7-18l-11.5-10
		C1594.8,777.9,1585.9,783.6,1572.1,783.6z"/>
	<path fill="#6A6A6A" d="M1690.4,693.4c-16.1,0-29.6,8.4-35.7,21.9v-94.5h-16.9v175.9h16.9V741c0-20,12.7-31.9,31.5-31.9
		c16.9,0,25,10.4,25,28v59.5h16.9v-61.4C1728,708.7,1712.6,693.4,1690.4,693.4z"/>
	<polygon fill="#6A6A6A" points="579.1,512.9 563.3,512.1 569.5,521.3 569.5,521.3 569.5,521.3 559.9,544 556.4,538.6 548.7,543.6 
		557.6,519.8 557.6,519.8 552.6,511.7 534.1,511 500,481.8 487.7,484.9 483.1,481.4 454.3,555.1 503.8,590.5 503.8,590.5 
		504.2,590.5 504.2,590.5 504.2,590.5 563.3,597.8 592.1,524 586.4,523.3 	"/>
	<path fill="#6A6A6A" d="M415.9,713.7c13.1-13.1,26.1-26.9,37.6-41.5c7.7-9.6,15-20,21.9-30.3c8.4-13.4,16.1-26.9,21.9-41.1
		c-7.3,12.3-16.9,26.1-28.4,40.3c-0.4,0.4-0.8,0.8-1.2,1.5l-0.4-1.5c-5.4-18.4-16.1-34.9-30.7-47.6c-18.4-15.7-41.9-24.6-66-24.6
		c-36.1,0-69.1,19.2-86.8,49.9c-0.8,0-1.9,0-2.7,0c-42.2,0-77.6,29.6-86.8,68.7c-1.5,6.5-2.3,13.4-2.3,20.4
		c0,44.9,33.8,82.6,77.2,88.3c-0.4,0-0.4,0.4-0.8,0.4c3.1,0.4,9.6,0.4,13.1,0.4H306c13.8-7.7,30-17.7,47.2-30.3
		C373.2,751.7,395.1,734.1,415.9,713.7z M282.2,766.7c-32.3,0-59.1-25.3-59.9-57.6c0-5.8,0.4-11.1,1.9-16.1
		c6.5-25.3,29.6-44.2,56.8-44.2c3.1,0,6.1,0.4,9.2,0.8l11.5,1.9l4.6-10.4c11.5-25.3,36.5-41.9,64.1-41.9c34.6,0,64.5,25.7,69.5,59.5
		l1.9,13.1c-12.7,13.8-27.3,27.6-42.6,41.1c-22.7,19.6-48,38.4-72.6,53.8H282.2z"/>
	<path fill="#6A6A6A" d="M488.4,645c0.8-1.5,1.2-2.7,1.9-4.2c6.1-13.8,11.5-28,15.4-42.6c-5,12.7-11.9,26.9-20.7,41.5
		c-5.4,9.6-11.5,19.2-18.4,28.8c-10.4,15-21.9,30.3-34.2,44.9c-16.9,20-35.3,38.8-54.5,55.3c-12.3,10.8-25.3,20-38,28h5.4H361h103.7
		l5.8-0.4h0.8c40.3-3.8,70.3-37.2,70.3-77.6c0-3.5-0.4-7.3-0.8-10.8C536.8,678.8,516.1,654.2,488.4,645z M468.5,766.3l-4.6,0.4
		h-65.3c15.7-15,32.3-32.6,47.6-53c9.6-13.1,19.2-26.9,27.6-41.5c18.8,4.2,33.4,19.6,36.5,38.8c0.4,2.7,0.8,5,0.8,7.7
		C511.1,743.7,493.1,764,468.5,766.3z"/>
</g>
</svg>
