<?xml version="1.0" encoding="utf-8"?>
<!-- Generator: Adobe Illustrator 18.1.1, SVG Export Plug-In . SVG Version: 6.00 Build 0)  -->
<svg class="fill-path" version="1.1" id="Layer_1" xmlns="http://www.w3.org/2000/svg" xmlns:xlink="http://www.w3.org/1999/xlink" x="0px" y="0px"
	 viewBox="73.2 1362.5 1920 956.3" enable-background="new 73.2 1362.5 1920 956.3" xml:space="preserve">
<path fill="none" stroke="#6A6A6A" stroke-width="5" stroke-miterlimit="10" d="M481.2,1634.8c113.7,0,205.8,92.2,205.8,205.8
	s-92.2,205.8-205.8,205.8s-205.8-92.1-205.8-205.8C275.5,1726.9,367.7,1634.8,481.2,1634.8z"/>
<path style="fill:#6A6A6A !important" id="dark_5_" fill="#6A6A6A" d="M431.4,1846.7h-21.5v21.1h22.7c9.2,0,15-3.5,15-10.8v-0.4
	C447.1,1850.6,442.2,1846.7,431.4,1846.7z"/>
<path style="fill:#6A6A6A !important" id="dark_4_" fill="#6A6A6A" d="M442.9,1824.9L442.9,1824.9c0-6.1-5-10-13.4-10h-19.6v20.4h18.4
	C437.2,1835.2,442.9,1831.8,442.9,1824.9z"/>
<path style="fill:#6A6A6A !important" id="dark_3_" fill="#6A6A6A" d="M604.5,1869.8h57.2c1.2-6.9,1.9-13.8,2.3-20.7H605v20.7H604.5z"/>
<path style="fill:#6A6A6A !important" id="dark_2_" fill="#6A6A6A" d="M604.5,1901.7v20h40.3c3.1-6.5,6.1-13.1,8.4-20H604.5z"/>
<path style="fill:#6A6A6A !important" id="round" fill="#6A6A6A" d="M591,1966.9v-77.2h66c0.8-2.7,1.5-5,1.9-7.7h-68.4v-77.2H660c-16.5-83.7-90.6-146.7-178.9-146.7
	c-101,0-182.8,81.8-182.8,182.8s81.8,182.8,182.8,182.8c51.8,0,98.7-21.5,131.7-56.4h-21.9v-0.4H591z M450.6,1966.9h-54.1v-77.2
	h13.4v64.9h40.7V1966.9z M460.6,1858.6c0,13.8-11.5,21.1-28.4,21.1h-35.7v-77.1h34.6c8.8,0,15.7,2.3,20.4,6.9
	c3.5,3.5,5.4,7.7,5.4,12.7v0.4c0,9.2-5.4,14.2-11.1,17.3C454.4,1842.9,460.6,1847.9,460.6,1858.6L460.6,1858.6z M488.2,1966.9h-13.4
	v-77.2h13.4V1966.9z M488.2,1879.8h-13.4v-77.2h13.4V1879.8z M578.8,1902H524v21.1h54.9v12.3H524v31.5h-13.5v-77.2h68.4V1902z
	 M562.2,1879.8l-26.5-34.9l-11.9,12.3v22.3h-13.4v-76.9h13.4v38.8l36.9-38.8h16.5l-32.3,33l33.4,44.2H562.2z"/>
<path style="fill:#6A6A6A !important" id="dark_1_" fill="#6A6A6A" d="M604.5,1816.8v20h59.1c0-6.9-0.8-13.4-1.5-20H604.5z"/>
<path style="fill:#6A6A6A !important" id="dark" fill="#6A6A6A" d="M604.5,1954.6h19.2c5.4-6.5,10-13.4,14.6-20.7h-33.8V1954.6z"/>
<path fill="#6A6A6A" d="M826.2,1810.6h-26.5v-18.4h74.8v18.4H848v78.3H826L826.2,1810.6L826.2,1810.6z"/>
<path fill="#6A6A6A" d="M889.5,1792.2h21.9v37.2h33.4v-37.2h21.9v96.8h-21.9v-40.3h-33.4v40.3h-21.9V1792.2z"/>
<path fill="#6A6A6A" d="M989,1792.2h60.7v18.4h-38.8v19.6h33v18h-33v22.4h40.3v18.4H989V1792.2z"/>
<path fill="#6A6A6A" d="M1100.7,1792.2h21.9v37.2h33.4v-37.2h21.9v96.8h-21.9v-40.3h-33.4v40.3h-21.9L1100.7,1792.2L1100.7,1792.2z"
	/>
<path fill="#6A6A6A" d="M1200.1,1792.2h21.9v54.1c0,18.8,5.8,25.3,16.9,25.3c10.8,0,17.3-6.5,17.3-25.3v-54.1h21.1v51.8
	c0,32.6-13.1,46.5-38.4,46.5s-38.4-14.2-38.4-46.5v-51.8H1200.1z"/>
<path fill="#6A6A6A" d="M1298.8,1792.2h33c20.4,0,35.7,5.4,35.7,24.2c0,8.4-5,18-16.1,20.7v0.8c13.8,2.7,21.1,9.6,21.1,22.7
	c0,19.6-16.5,28.4-37.6,28.4h-35.7v-96.8H1298.8L1298.8,1792.2z M1330.6,1831.4c10.8,0,15.4-4.6,15.4-11.9s-5-10.4-15-10.4h-10.4
	v22.3H1330.6L1330.6,1831.4z M1332.9,1872.1c11.9,0,18-4.6,18-13.1c0-8.4-6.1-12.3-18-12.3h-12.3v25.3L1332.9,1872.1L1332.9,1872.1z
	"/>
<path fill="#6A6A6A" d="M1419,1792.2h33c20.4,0,35.7,5.4,35.7,24.2c0,8.4-5,18-16.1,20.7v0.8c13.8,2.7,21.1,9.6,21.1,22.7
	c0,19.6-16.5,28.4-37.6,28.4h-35.7v-96.8H1419L1419,1792.2z M1451.2,1831.4c10.8,0,15.4-4.6,15.4-11.9s-5-10.4-15-10.4h-10.4v22.3
	H1451.2L1451.2,1831.4z M1453.1,1872.1c11.9,0,18-4.6,18-13.1c0-8.4-6.1-12.3-18-12.3h-12.3v25.3L1453.1,1872.1L1453.1,1872.1z"/>
<path fill="#6A6A6A" d="M1508.4,1792.2h21.9v96.8h-21.9V1792.2z"/>
<path fill="#6A6A6A" d="M1553,1792.2h21.9v39.6h0.4l28.8-39.6h23.8l-29.2,38.4l34.6,58h-24.2l-23.4-40.7l-11.1,15v26.1h-21.9v-96.8
	H1553z"/>
<path fill="#6A6A6A" d="M1644,1792.2h60.7v18.4h-38.8v19.6h33v18h-33v22.4h40.3v18.4H1644V1792.2L1644,1792.2z"/>
<path fill="#6A6A6A" d="M1731.1,1861.7c6.9,5.8,15.7,10,23.8,10c9.2,0,13.4-3.5,13.4-9.2c0-6.1-5.4-8.1-13.8-11.5l-12.3-5.4
	c-10-3.8-19.6-12.3-19.6-26.5c0-16.1,14.2-28.8,34.6-28.8c11.1,0,22.7,4.6,31.1,12.7l-11.1,13.8c-6.5-5-12.3-7.7-20.4-7.7
	c-7.3,0-12.3,3.1-12.3,8.8c0,5.7,6.5,8.1,15,11.5l12.3,5c11.5,4.6,19.2,12.7,19.2,26.1c0,16.1-13.4,30-36.5,30
	c-12.7,0-26.1-4.6-35.7-13.8L1731.1,1861.7z"/>
</svg>
