<?xml version="1.0" encoding="utf-8"?>
<!-- Generator: Adobe Illustrator 18.0.0, SVG Export Plug-In . SVG Version: 6.00 Build 0)  -->
<!DOCTYPE svg PUBLIC "-//W3C//DTD SVG 1.1//EN" "http://www.w3.org/Graphics/SVG/1.1/DTD/svg11.dtd">
<svg version="1.1" id="Layer_1" xmlns="http://www.w3.org/2000/svg" xmlns:xlink="http://www.w3.org/1999/xlink" x="0px" y="0px"
	 viewBox="0 0 500 200" enable-background="new 0 0 500 200" xml:space="preserve">
<g>
	<path fill="#353535" d="M86.7,136.1V67h14.7v57h28v12.1H86.7z"/>
	<path fill="#353535" d="M139.6,69.6c0-4.7,2.6-7,7.8-7s7.8,2.3,7.8,7c0,2.2-0.7,4-2,5.2s-3.3,1.9-5.9,1.9
		C142.3,76.7,139.6,74.3,139.6,69.6z M154.7,136.1h-14.4V83.3h14.4V136.1z"/>
	<path fill="#353535" d="M206.7,120.4c0,5.4-1.9,9.6-5.7,12.4s-9.4,4.3-16.9,4.3c-3.8,0-7.1-0.3-9.8-0.8s-5.2-1.3-7.6-2.3v-11.9
		c2.7,1.3,5.7,2.3,9.1,3.2c3.4,0.9,6.3,1.3,8.9,1.3c5.2,0,7.8-1.5,7.8-4.5c0-1.1-0.3-2.1-1-2.8c-0.7-0.7-1.9-1.5-3.6-2.4
		s-4-1.9-6.8-3.1c-4.1-1.7-7.1-3.3-9-4.7c-1.9-1.4-3.3-3.1-4.2-5s-1.3-4.2-1.3-6.9c0-4.7,1.8-8.3,5.5-10.9c3.6-2.6,8.8-3.9,15.5-3.9
		c6.4,0,12.6,1.4,18.6,4.2L201.8,97c-2.6-1.1-5.1-2.1-7.4-2.8c-2.3-0.7-4.6-1.1-7-1.1c-4.3,0-6.4,1.2-6.4,3.5c0,1.3,0.7,2.4,2.1,3.4
		c1.4,0.9,4.4,2.3,9,4.2c4.1,1.7,7.2,3.2,9.1,4.7c1.9,1.5,3.3,3.1,4.3,5C206.2,115.6,206.7,117.8,206.7,120.4z"/>
	<path fill="#353535" d="M240.2,125.6c2.5,0,5.5-0.6,9.1-1.7v10.7c-3.6,1.6-8,2.4-13.2,2.4c-5.8,0-10-1.5-12.6-4.4
		s-3.9-7.3-3.9-13.1V94.1h-6.9V88l7.9-4.8l4.2-11.2h9.2v11.3h14.8v10.8H234v25.5c0,2,0.6,3.6,1.7,4.5
		C236.8,125.1,238.3,125.6,240.2,125.6z"/>
	<path fill="#353535" d="M296.9,120.4c0,5.4-1.9,9.6-5.7,12.4c-3.8,2.8-9.4,4.3-16.9,4.3c-3.8,0-7.1-0.3-9.8-0.8
		c-2.7-0.5-5.2-1.3-7.6-2.3v-11.9c2.7,1.3,5.7,2.3,9.1,3.2c3.4,0.9,6.3,1.3,8.9,1.3c5.2,0,7.8-1.5,7.8-4.5c0-1.1-0.3-2.1-1-2.8
		c-0.7-0.7-1.9-1.5-3.6-2.4s-4-1.9-6.8-3.1c-4.1-1.7-7.1-3.3-9-4.7c-1.9-1.4-3.3-3.1-4.2-5c-0.9-1.9-1.3-4.2-1.3-6.9
		c0-4.7,1.8-8.3,5.5-10.9c3.6-2.6,8.8-3.9,15.5-3.9c6.4,0,12.6,1.4,18.6,4.2L292.1,97c-2.6-1.1-5.1-2.1-7.4-2.8
		c-2.3-0.7-4.6-1.1-7-1.1c-4.3,0-6.4,1.2-6.4,3.5c0,1.3,0.7,2.4,2.1,3.4c1.4,0.9,4.4,2.3,9,4.2c4.1,1.7,7.2,3.2,9.1,4.7
		s3.3,3.1,4.3,5C296.4,115.6,296.9,117.8,296.9,120.4z"/>
	<path fill="#353535" d="M306.1,129.4c0-2.6,0.7-4.6,2.1-6s3.5-2,6.2-2c2.6,0,4.6,0.7,6.1,2.1c1.4,1.4,2.2,3.4,2.2,6
		c0,2.5-0.7,4.5-2.2,5.9s-3.5,2.2-6.1,2.2s-4.7-0.7-6.1-2.1C306.8,133.9,306.1,131.9,306.1,129.4z"/>
	<path fill="#353535" d="M335.1,69.6c0-4.7,2.6-7,7.8-7c5.2,0,7.8,2.3,7.8,7c0,2.2-0.7,4-2,5.2s-3.3,1.9-5.9,1.9
		C337.7,76.7,335.1,74.3,335.1,69.6z M350.1,136.1h-14.4V83.3h14.4V136.1z"/>
	<path fill="#353535" d="M413.3,109.6c0,8.6-2.3,15.3-6.8,20.2c-4.5,4.9-10.9,7.3-19,7.3c-5.1,0-9.6-1.1-13.4-3.3
		c-3.9-2.2-6.9-5.4-8.9-9.6c-2.1-4.2-3.1-9-3.1-14.6c0-8.6,2.3-15.4,6.8-20.1c4.5-4.8,10.8-7.2,19-7.2c5.1,0,9.6,1.1,13.4,3.3
		c3.9,2.2,6.9,5.4,8.9,9.5C412.3,99.2,413.3,104.1,413.3,109.6z M376.8,109.6c0,5.2,0.9,9.2,2.6,11.9c1.7,2.7,4.5,4,8.4,4
		c3.8,0,6.6-1.3,8.3-4c1.7-2.7,2.5-6.6,2.5-11.9c0-5.2-0.9-9.2-2.6-11.8s-4.5-3.9-8.4-3.9c-3.8,0-6.6,1.3-8.3,3.9
		S376.8,104.4,376.8,109.6z"/>
</g>
</svg>
