<?xml version="1.0" encoding="utf-8"?>
<!-- Generator: Adobe Illustrator 18.0.0, SVG Export Plug-In . SVG Version: 6.00 Build 0)  -->
<!DOCTYPE svg PUBLIC "-//W3C//DTD SVG 1.1//EN" "http://www.w3.org/Graphics/SVG/1.1/DTD/svg11.dtd">
<svg version="1.1" id="Layer_1" xmlns="http://www.w3.org/2000/svg" xmlns:xlink="http://www.w3.org/1999/xlink" x="0px" y="0px"
	 viewBox="0 0 500 200" enable-background="new 0 0 500 200" xml:space="preserve">
<g>
	<path fill="#353535" d="M147.5,78.3v0.5c-0.5,0-1.1,0.1-1.1,0.7c0,0.8,2.8,8.6,3.1,10.3h0.1c0.4-1.8,3.7-9.4,3.7-10.3
		c0-0.6-0.6-0.7-1.1-0.7v-0.5h8.3v0.5c-0.5,0-1.1,0.1-1.1,0.7c0,0.5,3.4,9.1,3.8,10.3h0.1c0.3-1.8,3.1-9.3,3.1-10.3
		c0-0.6-0.6-0.7-1.1-0.7v-0.5h6.8v0.5c-0.8,0.1-0.9,0.5-1.1,1.1c-0.5,1.6-5,14.9-5,15.3c0,0.3,0.4,0.4,1.1,0.5v0.5h-8.6v-0.5
		c0.8-0.1,1.2-0.2,1.2-0.5c0-0.8-3.3-8.9-3.6-10.2H156c-0.3,1.3-3.5,9.4-3.5,10.2c0,0.3,0.5,0.4,1,0.5v0.5H145v-0.5
		c0.7-0.1,1.1-0.2,1.1-0.5c0-0.6-4.9-15.2-5.1-15.9c-0.1-0.5-0.4-0.5-0.7-0.5v-0.5H147.5z"/>
	<path fill="#353535" d="M183.5,78.3v0.5c-0.8,0-1.3,0.2-1.3,0.7V95c0,0.6,0.5,0.7,1.3,0.7v0.5h-8.1v-0.5c0.8-0.1,1.3-0.2,1.3-0.7
		V79.5c0-0.6-0.5-0.7-1.3-0.7v-0.5H183.5z"/>
	<path fill="#353535" d="M190.4,79.5c0-0.6-0.5-0.7-1.1-0.7v-0.5h7.6v0.5c-0.6,0-1.1,0.2-1.1,0.7v12.6h11.2c0.3,0,0.7-0.2,0.7-1h0.5
		v6.2h-0.5c0-0.8-0.4-1-0.7-1h-17.8v-0.5c0.6-0.1,1.1-0.2,1.1-0.7V79.5z"/>
	<path fill="#353535" d="M213.1,79.5c0-0.6-0.5-0.7-1.1-0.7v-0.5h7.6v0.5c-0.6,0-1.1,0.2-1.1,0.7v12.6h11.2c0.3,0,0.7-0.2,0.7-1h0.5
		v6.2h-0.5c0-0.8-0.4-1-0.7-1H212v-0.5c0.6-0.1,1.1-0.2,1.1-0.7V79.5z"/>
	<path fill="#353535" d="M243.1,78.3v0.5c-0.8,0-1.3,0.2-1.3,0.7V95c0,0.6,0.5,0.7,1.3,0.7v0.5h-8.1v-0.5c0.8-0.1,1.3-0.2,1.3-0.7
		V79.5c0-0.6-0.5-0.7-1.3-0.7v-0.5H243.1z"/>
	<path fill="#353535" d="M255.6,89.7l3.4-7.2l3.4,7.2H255.6z M271.2,96.3v-0.5c-0.3,0-0.7-0.1-0.8-0.4c-1.8-4.2-7.5-15.7-7.5-16.2
		c0-0.3,0.1-0.4,0.5-0.4v-0.5h-8.5v0.5c0.4,0,0.5,0.1,0.5,0.4c0,0.6-3.8,8.5-7.1,16.2c-0.1,0.3-0.5,0.4-0.8,0.4v0.5h6.1v-0.5
		c-0.2,0-0.5,0-0.5-0.4c0-0.5,0.9-2,1.2-2.8h9.5c0.3,0.7,1.2,2.3,1.2,2.8c0,0.4-0.4,0.4-0.5,0.4v0.5H271.2z"/>
	<path fill="#353535" d="M281.5,95c0,0.6,0.5,0.7,1.1,0.7v0.5h-6.4v-0.5c0.4,0,0.9-0.2,0.9-0.7V79.5c0-0.6-0.5-0.7-0.9-0.7v-0.5h8.9
		v0.5c-0.4,0-0.8,0.1-0.8,0.3c0,0.4,3,6.3,3.3,7.1c1.3-2.7,3.6-6.6,3.6-7.1c0-0.2-0.4-0.3-0.8-0.3v-0.5h8.9v0.5
		c-0.4,0-0.9,0.2-0.9,0.7V95c0,0.6,0.5,0.7,0.9,0.7v0.5h-6.8v-0.5c0.6,0,1.1-0.2,1.1-0.7V83.4h-0.1l-6.1,11.8l-5.9-11.8h-0.1V95z"/>
	<path fill="#353535" d="M317.2,90.2l0.5,0.2v0.5c0.1,0.8,1.4,1.4,3.8,1.4c1.9,0,2.9-0.5,2.9-2.4V79.5c0-0.6-0.5-0.7-0.9-0.7v-0.5
		h7.2v0.5c-0.3,0-0.8,0.2-0.8,0.7v10.8c0,4.8-3.3,6.1-8,6.1c-2.2,0-5-0.8-5.3-0.8c-0.2,0-0.4,0.2-0.7,0.4l-0.4-0.2L317.2,90.2z"/>
	<path fill="#353535" d="M353.2,92.7c0.5,0,0.9-0.3,1.1-1h0.5v5.5h-0.4c-0.3-0.7-0.5-0.9-1.1-0.9H335v-0.5c0.6-0.1,1.2-0.2,1.2-0.7
		V79.5c0-0.6-0.6-0.7-1.2-0.7v-0.5h18.6c0.3,0,0.7-0.2,0.7-0.9h0.5v5.5h-0.5c0-0.8-0.4-1-0.7-1h-11.9v3.3h7.7c0.3,0,0.7-0.2,0.7-0.9
		h0.5v5.3H350c0-0.8-0.4-0.9-0.7-0.9h-7.7v4H353.2z"/>
	<path fill="#353535" d="M361.4,90l0.5,0.3c0,0.1,0,0.2,0,0.4c0,1.1,4.7,2.1,8,2.1c1,0,3.7-0.2,3.7-1.7c0-3.2-13.4-0.1-13.4-6.9
		c0-2.6,2.4-6.1,9.1-6.1c3.9,0,7.2,1.1,8.1,1.1c0.4,0,0.7-0.3,0.9-0.5l0.4,0.2l-2.5,5.1l-0.5-0.2c0-0.1,0-0.3,0-0.5
		c0-0.4-2.9-1.5-5.6-1.5c-1,0-4.7,0-4.7,1.8c0,2.9,13.3-0.1,13.3,7c0,3.2-2.7,6-9,6c-3.9,0-8.5-1.5-8.8-1.5c-0.4,0-0.6,0.3-0.9,0.6
		l-0.5-0.1L361.4,90z"/>
	<path fill="#353535" d="M384.1,90l0.5,0.3c0,0.1-0.1,0.2-0.1,0.4c0,1.1,4.7,2.1,8,2.1c1,0,3.7-0.2,3.7-1.7c0-3.2-13.3-0.1-13.3-6.9
		c0-2.6,2.4-6.1,9-6.1c3.9,0,7.2,1.1,8.1,1.1c0.5,0,0.7-0.3,0.9-0.5l0.5,0.2l-2.4,5.1l-0.6-0.2c0-0.1,0.1-0.3,0.1-0.5
		c0-0.4-2.9-1.5-5.6-1.5c-1,0-4.7,0-4.7,1.8c0,2.9,13.3-0.1,13.3,7c0,3.2-2.7,6-9,6c-3.9,0-8.5-1.5-8.8-1.5c-0.4,0-0.7,0.3-0.9,0.6
		l-0.4-0.1L384.1,90z"/>
	<path fill="#353535" d="M406.9,79.5c0-0.6-0.5-0.7-1.2-0.7v-0.5h7.4v0.5c-0.3,0-0.7,0.2-0.7,0.7v9.9c0,2.1,1.7,2.9,4.1,2.9
		c2.4,0,4.1-0.8,4.1-2.9v-9.9c0-0.6-0.4-0.7-0.7-0.7v-0.5h7.3v0.5c-0.7,0-1.2,0.2-1.2,0.7v9c0,4.3-2.4,8-9.6,8c-7.2,0-9.5-3.7-9.5-8
		V79.5z"/>
	<path fill="#353535" d="M437.6,81.7h4.2c2,0,2.9,0.7,2.9,2.4c0,1.8-1,2.4-3.2,2.4h-3.9V81.7z M432.2,95c0,0.6-0.5,0.7-0.7,0.7v0.5
		h7.1v-0.5c-0.4,0-0.9-0.2-0.9-0.7V90h4.6c4,0,7.8-1.1,7.8-5.8c0-4.7-3.7-5.9-7.8-5.9h-10.7v0.5c0.2,0,0.7,0.2,0.7,0.7V95z"/>
	<path fill="#353535" d="M180.8,108.8v0.4c-0.3,0-0.6,0.2-0.6,0.8v7.7c0,1.6,1.1,2.5,3.2,2.5c2.1,0,3.2-1,3.2-2.5V110
		c0-0.6-0.3-0.8-0.6-0.8v-0.4h4.2v0.4c-0.3,0-0.6,0.2-0.6,0.8v7.3c0,3.5-2.3,5-6.3,5c-4,0-6.3-1.5-6.3-5V110c0-0.6-0.3-0.8-0.6-0.8
		v-0.4H180.8z"/>
	<path fill="#353535" d="M204.4,122.2v-0.4c0.4,0,0.8-0.2,0.8-0.8V110c0-0.6-0.3-0.8-0.8-0.8v-0.4h5.1v0.4c-0.3,0.1-0.5,0.2-0.5,0.4
		c0,0.3,0.5,1,0.8,1.3l5,6.9h0.1V110c0-0.6-0.3-0.8-0.7-0.8v-0.4h4.1v0.4c-0.4,0-0.7,0.2-0.7,0.8V121c0,0.6,0.3,0.8,0.7,0.8v0.4
		h-4.4v-0.4c0.2,0,0.4-0.2,0.4-0.3c0-0.2-0.1-0.4-0.4-0.7l-5.9-7.8h-0.1v8.1c0,0.6,0.3,0.8,0.8,0.8v0.4H204.4z"/>
	<path fill="#353535" d="M233.1,122.2v-0.4c0.4,0,0.7-0.2,0.7-0.8V110c0-0.6-0.3-0.8-0.7-0.8v-0.4h4.6v0.4c-0.5,0-0.7,0.2-0.7,0.8
		V121c0,0.6,0.3,0.8,0.7,0.8v0.4H233.1z"/>
	<path fill="#353535" d="M251.3,108.8h4.6v0.4c-0.4,0.1-0.6,0.2-0.6,0.5c0,0.2,0.2,0.7,0.3,0.9l2.9,8.2h0l3-8
		c0.1-0.4,0.3-0.8,0.3-1.1c0-0.3-0.1-0.4-0.6-0.4v-0.4h4.2v0.4c-0.6,0-0.8,0.4-1,0.8l-3.9,10.1c-0.2,0.4-0.4,0.9-0.4,1.2
		c0,0.2,0.1,0.4,0.4,0.4v0.4h-4.3v-0.4c0.2,0,0.3-0.3,0.3-0.4c0-0.2-0.1-0.5-0.4-1.1l-3.9-10.1c-0.2-0.6-0.5-0.7-1-0.8V108.8z"/>
	<path fill="#353535" d="M279.3,110c0-0.6-0.3-0.8-0.6-0.8v-0.4h10.2c0.6,0,0.8-0.2,0.9-0.6h0.5v3.5h-0.5c-0.1-0.6-0.3-0.8-0.9-0.8
		h-6.5v3.3h3.9c0.6,0,0.8-0.1,0.9-0.7h0.5v3.5h-0.5c-0.1-0.5-0.3-0.7-0.9-0.7h-3.9v3.7h6.5c0.6,0,0.8-0.2,0.9-0.7h0.5v3.4h-0.5
		c-0.1-0.4-0.3-0.6-0.9-0.6h-10.2v-0.4c0.3,0,0.6-0.2,0.6-0.8V110z"/>
	<path fill="#353535" d="M308.3,110.8h3.1c2.6,0,3.5,0.6,3.5,2c0,1.5-0.9,2-3.5,2h-3.1V110.8z M309,122.2v-0.4
		c-0.3,0-0.6-0.2-0.6-0.8v-4.1h2.7l2.7,3.9c0.3,0.3,0.3,0.5,0.3,0.7c0,0.2-0.2,0.2-0.4,0.2v0.4h4.2v-0.4c-0.4-0.1-0.5-0.3-1-0.9
		l-2.9-4.2c2.1-0.2,3.8-1.9,3.8-3.7c0-2.4-1.6-4.1-5.3-4.1h-7.9v0.4c0.3,0,0.6,0.2,0.6,0.8V121c0,0.6-0.3,0.8-0.6,0.8v0.4H309z"/>
	<path fill="#353535" d="M342.3,112.6l-0.4-0.1c0-1-1.7-1.8-4.2-1.8c-1.9,0-2.9,0.7-2.9,1.8c0,2.8,9.2,0.7,9.2,6.2
		c0,2.3-2.5,3.8-5.5,3.8c-3.7,0-5.1-1.3-5.9-1.3c-0.3,0-0.3,0.2-0.5,0.3l-0.4-0.1l1.9-3.3l0.5,0.2c0,0.1-0.1,0.3-0.1,0.4
		c0,0.9,2.4,1.8,4.6,1.8c2,0,3.1-0.7,3.1-2c0-2.5-9.2-0.6-9.2-5.8c0-2.3,2-3.9,5.7-3.9c2.4,0,4.9,1.1,5.2,1.1c0.2,0,0.4-0.1,0.6-0.2
		l0.3,0.1L342.3,112.6z"/>
	<path fill="#353535" d="M359,122.2v-0.4c0.4,0,0.7-0.2,0.7-0.8V110c0-0.6-0.3-0.8-0.7-0.8v-0.4h4.5v0.4c-0.5,0-0.7,0.2-0.7,0.8V121
		c0,0.6,0.3,0.8,0.7,0.8v0.4H359z"/>
	<path fill="#353535" d="M377.3,111.5v-3.2h0.5c0.1,0.3,0.3,0.6,0.9,0.6h9.2c0.6,0,0.8-0.3,0.9-0.6h0.5v3.3h-0.5
		c-0.1-0.4-0.3-0.6-0.9-0.6h-3.1v10c0,0.6,0.3,0.8,0.5,0.8v0.4h-4.1v-0.4c0.2,0,0.6-0.2,0.6-0.8v-10h-3.1c-0.6,0-0.8,0.2-0.9,0.6
		H377.3z"/>
	<path fill="#353535" d="M406.4,122.2v-0.4c0.2,0,0.6-0.2,0.6-0.8v-5l-3.9-5.7c-0.5-0.8-0.6-0.9-1.4-0.9v-0.4h4.7v0.4
		c-0.2,0-0.5,0.1-0.5,0.3c0,0.2,0.2,0.6,0.4,0.8l2.4,3.6l2.2-3.6c0.2-0.3,0.4-0.7,0.4-0.9c0-0.2-0.2-0.2-0.5-0.2v-0.4h4.3v0.4
		c-0.7,0-0.8,0.3-1.3,1l-3.7,5.6v5.1c0,0.6,0.3,0.8,0.4,0.8v0.4H406.4z"/>
	<polygon fill="#353535" points="86.9,123.7 95,123.8 103.1,60.1 57.4,74.2 57.7,77.2 87.8,68.3 	"/>
	<polygon fill="#353535" points="70.1,123.8 70,91.9 82.8,88.1 83.2,81 63.9,86.7 67.3,123.8 	"/>
	<polygon fill="#353535" points="108.7,138.1 50.8,138.1 50,139.9 109.6,139.9 	"/>
	<polygon fill="#353535" points="101.9,133.7 101.3,132.1 58.2,132.1 57.6,133.7 	"/>
	<polygon fill="#353535" points="95.5,128.7 95.1,127.5 64.5,127.5 64.1,128.7 	"/>
	<polygon fill="#353535" points="108.7,138.1 50.8,138.1 50,139.9 109.6,139.9 	"/>
	<polygon fill="#353535" points="101.9,133.7 101.3,132.1 58.2,132.1 57.6,133.7 	"/>
	<polygon fill="#353535" points="95.5,128.7 95.1,127.5 64.5,127.5 64.1,128.7 	"/>
	<path fill="#353535" d="M76.3,122.3c0.1,0.1,0.2,0.3,0.3,0.4c-2.5-5.6,10.8-9.3,3.8-20.5C83.8,107.5,71.1,110.7,76.3,122.3"/>
	<path fill="#353535" d="M75.6,111.7c0,0.1,0.1,0.2,0.2,0.2c-1.6-3.5,6.8-5.9,2.4-12.9C80.3,102.4,72.3,104.4,75.6,111.7"/>
</g>
</svg>
