<?xml version="1.0" encoding="utf-8"?>
<!-- Generator: Adobe Illustrator 18.0.0, SVG Export Plug-In . SVG Version: 6.00 Build 0)  -->
<!DOCTYPE svg PUBLIC "-//W3C//DTD SVG 1.1//EN" "http://www.w3.org/Graphics/SVG/1.1/DTD/svg11.dtd">
<svg version="1.1" id="Layer_1" xmlns="http://www.w3.org/2000/svg" xmlns:xlink="http://www.w3.org/1999/xlink" x="0px" y="0px"
	 viewBox="0 0 500 200" enable-background="new 0 0 500 200" xml:space="preserve">
<g>
	<g>
		<path fill="#353535" d="M150.8,99L150.8,99c1.4-2,3.3-3.1,5.8-3.1c0.9,0,1.9,0.2,2.7,0.6l-0.8,6c-0.8-0.6-1.7-0.8-2.7-0.8
			c-4.5,0-5,4-5,7.5v10.3h-6.5V96.6h6.5L150.8,99L150.8,99L150.8,99z"/>
		<path fill="#353535" d="M169.2,87.1c0,2.1-1.7,3.9-3.9,3.9c-2.1,0-3.9-1.7-3.9-3.9c0-2.1,1.7-3.8,3.9-3.8S169.2,85,169.2,87.1z
			 M168.6,119.4h-6.5V96.6h6.5V119.4z"/>
		<path fill="#353535" d="M189.5,103.6c-1.4-1.4-2.8-2.2-4.8-2.2c-3.7,0-5.8,3.4-5.8,6.8c0,3.6,2.3,6.5,6,6.5c1.8,0,3.4-0.9,4.5-2.2
			v6.3c-1.8,1-3.6,1.4-5.6,1.4c-6.7,0-11.5-5.5-11.5-12.1c0-6.8,5-12.2,11.8-12.2c1.8,0,3.7,0.5,5.3,1.4L189.5,103.6L189.5,103.6z"
			/>
		<path fill="#353535" d="M200.5,80.1v18.5h0.1c1.3-1.9,3.6-2.6,5.9-2.6c6.1,0,7.9,4.3,7.9,9.6v13.9h-6.5v-12.1
			c0-2.7,0.1-6.3-3.5-6.3c-3.9,0-3.9,4.3-3.9,7v11.3H194V80.1L200.5,80.1L200.5,80.1z"/>
		<path fill="#353535" d="M241,119.4h-6.4v-2.1h-0.1c-1.4,1.8-3.8,2.8-6.2,2.8c-6.7,0-10.5-6.1-10.5-12.2c0-6,3.9-12,10.4-12
			c2.4,0,4.8,1,6.4,2.9v-2.1h6.4L241,119.4L241,119.4L241,119.4z M235.2,108c0-3.1-2.1-6.4-5.4-6.4c-3.3,0-5.4,3.3-5.4,6.4
			c0,3.1,2,6.4,5.4,6.4C233.1,114.4,235.2,111.1,235.2,108z"/>
		<path fill="#353535" d="M252.6,99L252.6,99c1.4-2,3.3-3.1,5.8-3.1c0.9,0,1.9,0.2,2.7,0.6l-0.8,6c-0.8-0.6-1.7-0.8-2.7-0.8
			c-4.5,0-5,4-5,7.5v10.3h-6.5V96.6h6.5L252.6,99L252.6,99L252.6,99z"/>
		<path fill="#353535" d="M278.7,117.3L278.7,117.3c-1.4,1.9-3.9,2.9-6.2,2.9c-6.7,0-10.5-6.1-10.5-12.2c0-6,3.9-12,10.4-12
			c2.4,0,4.8,1,6.2,2.8h0.1V80.1h6.5v39.3h-6.5L278.7,117.3L278.7,117.3z M279.3,108c0-3.1-2-6.4-5.4-6.4c-3.3,0-5.4,3.3-5.4,6.4
			c0,3.1,2,6.4,5.4,6.4C277.3,114.4,279.3,111.1,279.3,108z"/>
		<path fill="#353535" d="M294.2,109.1c-0.1,5.3,3.6,8.9,8.4,8.9c3.3,0,5.9-2,7.4-4.8l1.7,1c-1.9,3.6-5.3,5.7-9.4,5.7
			c-6.2,0-10.2-5.1-10.2-11c0-5.9,4.1-10.9,10.2-10.9c6.4,0,10.2,5.1,10.1,11.2L294.2,109.1L294.2,109.1z M310.5,107.1
			c-0.5-3.9-3.7-7.3-8-7.3c-4.3,0-7.8,3.4-8.2,7.3H310.5z"/>
		<path fill="#353535" d="M319.5,119.4h-2.1V81.8h2.1V119.4z"/>
		<path fill="#353535" d="M328.6,119.4h-2.1V81.8h2.1V119.4z"/>
		<path fill="#353535" d="M339.3,91.3c0,1-0.8,1.9-1.9,1.9c-1,0-1.9-0.8-1.9-1.9c0-1,0.8-1.9,1.9-1.9
			C338.5,89.5,339.3,90.3,339.3,91.3z M338.4,119.4h-2.1V98.4h2.1V119.4z"/>
		<path fill="#353535" d="M355.1,102.2c-0.7-1.5-2.1-2.4-3.7-2.4c-1.8,0-3.6,1.5-3.6,3.3c0,5.1,10.3,2.6,10.3,10.2
			c0,3.9-3,6.6-6.8,6.6c-3.5,0-6.4-2.1-7.2-5.6l2-0.6c0.8,2.5,2.5,4.3,5.2,4.3c2.6,0,4.7-2.1,4.7-4.7c0-2.6-2-3.4-4.1-4.1
			c-2.9-1.1-6.2-2.3-6.2-5.8c0-3.2,2.7-5.3,5.7-5.3c2.1,0,4.5,1.4,5.4,3.4L355.1,102.2z"/>
		<path fill="#353535" d="M370.1,119.4H366v-17.5h-2.2v-3.8h2.2v-8.2h4.1v8.2h4v3.8h-4V119.4z"/>
		<path fill="#353535" d="M396.3,119.4h-4.1v-3.3h-0.1c-1.6,2.4-4.2,4.1-7.2,4.1c-6.5,0-10.2-5.4-10.2-11.5
			c0-5.8,3.9-11.2,10.1-11.2c3.1,0,5.7,1.6,7.4,4.2h0.1v-3.6h4.1V119.4z M392.5,108.7c0-4.1-2.5-7.7-6.9-7.7c-4.2,0-6.7,3.7-6.7,7.7
			c0,4,2.4,7.7,6.7,7.7C390,116.5,392.5,112.9,392.5,108.7z"/>
		<path fill="#353535" d="M406,119.4h-4.1V79.9h4.1V119.4z"/>
		<path fill="#353535" d="M416.2,106.1l8-8h5.4l-9.1,8.8l10,12.5h-5.3l-7.6-9.7l-1.4,1.4v8.3h-4.1V79.9h4.1L416.2,106.1L416.2,106.1
			z"/>
		<path fill="#353535" d="M440.3,102.9c-0.5-1-1.5-1.9-2.7-1.9c-1.1,0-2.2,0.9-2.2,2.1c0,1.9,2.5,2.7,5,3.8c2.5,1.1,4.9,2.7,4.9,6.1
			c0,4.1-3.4,7.1-7.3,7.1c-3.1,0-6.2-1.8-7.4-4.8l3.5-1.6c0.9,1.6,1.9,2.7,3.9,2.7c1.7,0,3.2-1.2,3.2-3c0-1.1-0.5-1.7-1.5-2.3
			l-4-2.1c-2.4-1.3-4.1-2.5-4.1-5.4c0-3.5,2.8-6.2,6.3-6.2c2.6,0,4.7,1.4,5.8,3.7L440.3,102.9z"/>
	</g>
	<g>
		<path fill="#353535" d="M115.1,127.6V78H54.8v49.6h44.6l22,14.4L115.1,127.6z M79.6,97.4c-1-0.7-1.9-1-2.8-1
			c-2.7,0-4.1,2.1-4.1,6.2v11.3h-5V92.1h0h5V94c0.9-1,1.7-1.6,2.5-2c0.7-0.4,1.6-0.6,2.6-0.6c1.3,0,2.7,0.4,4.1,1.3L79.6,97.4z
			 M101.6,111c-0.7,0.8-1.5,1.5-2.3,2c-0.8,0.5-1.7,0.9-2.7,1.1c-1,0.2-2,0.4-3.1,0.4c-3.2,0-5.8-1-7.8-3.1c-2-2.1-2.9-4.9-2.9-8.3
			c0-3.4,1-6.2,2.9-8.3c1.9-2.1,4.5-3.1,7.6-3.1c3.2,0,5.7,1,7.6,3.1c1.8,2,2.8,4.8,2.8,8.4l0,1.2H87.9c0.1,1.8,0.7,3.2,1.7,4.3
			c1,1,2.3,1.6,4,1.6c1.3,0,2.3-0.3,3.1-0.9c0.8-0.6,1.7-1.7,2.7-3.3l4.2,2.4C103,109.2,102.3,110.2,101.6,111z"/>
		<path fill="#353535" d="M93.2,96c-0.6,0-1.2,0.1-1.7,0.3c-0.5,0.2-1,0.5-1.5,0.8c-0.4,0.3-0.8,0.8-1.1,1.3c-0.3,0.5-0.6,1-0.7,1.7
			h10.1C97.6,97.3,95.9,96,93.2,96z"/>
	</g>
</g>
</svg>
