<?xml version="1.0" encoding="utf-8"?>
<!-- Generator: Adobe Illustrator 18.1.1, SVG Export Plug-In . SVG Version: 6.00 Build 0)  -->
<svg version="1.1" id="Layer_1" xmlns="http://www.w3.org/2000/svg" xmlns:xlink="http://www.w3.org/1999/xlink" x="0px" y="0px"
	 viewBox="0 160 1920 960" enable-background="new 0 160 1920 960" xml:space="preserve">
<g>
	<g>
		<path fill="#6A6A6A" d="M579.1,636.2L579.1,636.2c5.4-7.7,12.7-11.9,22.3-11.9c3.5,0,7.3,0.8,10.4,2.3l-3.1,23
			c-3.1-2.3-6.5-3.1-10.4-3.1c-17.3,0-19.2,15.4-19.2,28.8v39.6h-25v-87.9h25V636.2L579.1,636.2L579.1,636.2z"/>
		<path fill="#6A6A6A" d="M649.7,590.5c0,8.1-6.5,15-15,15c-8.1,0-15-6.5-15-15c0-8.1,6.5-14.6,15-14.6S649.7,582.4,649.7,590.5z
			 M647.4,714.5h-25v-87.6h25V714.5z"/>
		<path fill="#6A6A6A" d="M727.7,653.8c-5.4-5.4-10.8-8.4-18.4-8.4c-14.2,0-22.3,13.1-22.3,26.1c0,13.8,8.8,25,23,25
			c6.9,0,13.1-3.5,17.3-8.4v24.2c-6.9,3.8-13.8,5.4-21.5,5.4c-25.7,0-44.2-21.1-44.2-46.5c0-26.1,19.2-46.8,45.3-46.8
			c6.9,0,14.2,1.9,20.4,5.4L727.7,653.8L727.7,653.8z"/>
		<path fill="#6A6A6A" d="M769.9,563.6v71h0.4c5-7.3,13.8-10,22.7-10c23.4,0,30.3,16.5,30.3,36.9v53.4h-25v-46.5
			c0-10.4,0.4-24.2-13.4-24.2c-15,0-15,16.5-15,26.9v43.4h-25V563.6H769.9L769.9,563.6z"/>
		<path fill="#6A6A6A" d="M925.4,714.5h-24.6v-8.1h-0.4c-5.4,6.9-14.6,10.8-23.8,10.8c-25.7,0-40.3-23.4-40.3-46.8
			c0-23,15-46.1,39.9-46.1c9.2,0,18.4,3.8,24.6,11.1v-8.1h24.6L925.4,714.5L925.4,714.5L925.4,714.5z M903.2,670.7
			c0-11.9-8.1-24.6-20.7-24.6c-12.7,0-20.7,12.7-20.7,24.6s7.7,24.6,20.7,24.6C895.1,695.3,903.2,682.6,903.2,670.7z"/>
		<path fill="#6A6A6A" d="M970,636.2L970,636.2c5.4-7.7,12.7-11.9,22.3-11.9c3.5,0,7.3,0.8,10.4,2.3l-3.1,23
			c-3.1-2.3-6.5-3.1-10.4-3.1c-17.3,0-19.2,15.4-19.2,28.8v39.6h-25v-87.9h25V636.2L970,636.2L970,636.2z"/>
		<path fill="#6A6A6A" d="M1070.2,706.4L1070.2,706.4c-5.4,7.3-15,11.1-23.8,11.1c-25.7,0-40.3-23.4-40.3-46.8
			c0-23,15-46.1,39.9-46.1c9.2,0,18.4,3.8,23.8,10.8h0.4v-71.8h25v150.9h-25V706.4L1070.2,706.4z M1072.5,670.7
			c0-11.9-7.7-24.6-20.7-24.6c-12.7,0-20.7,12.7-20.7,24.6s7.7,24.6,20.7,24.6C1064.8,695.3,1072.5,682.6,1072.5,670.7z"/>
		<path fill="#6A6A6A" d="M1129.7,674.9c-0.4,20.4,13.8,34.2,32.3,34.2c12.7,0,22.7-7.7,28.4-18.4l6.5,3.8
			c-7.3,13.8-20.4,21.9-36.1,21.9c-23.8,0-39.2-19.6-39.2-42.2s15.7-41.9,39.2-41.9c24.6,0,39.2,19.6,38.8,43L1129.7,674.9
			L1129.7,674.9z M1192.3,667.3c-1.9-15-14.2-28-30.7-28s-30,13.1-31.5,28H1192.3z"/>
		<path fill="#6A6A6A" d="M1226.9,714.5h-8.1V570.1h8.1V714.5z"/>
		<path fill="#6A6A6A" d="M1261.8,714.5h-8.1V570.1h8.1V714.5z"/>
		<path fill="#6A6A6A" d="M1302.9,606.6c0,3.8-3.1,7.3-7.3,7.3c-3.8,0-7.3-3.1-7.3-7.3c0-3.8,3.1-7.3,7.3-7.3
			C1299.8,599.7,1302.9,602.8,1302.9,606.6z M1299.5,714.5h-8.1v-80.6h8.1V714.5z"/>
		<path fill="#6A6A6A" d="M1363.6,648.4c-2.7-5.8-8.1-9.2-14.2-9.2c-6.9,0-13.8,5.8-13.8,12.7c0,19.6,39.6,10,39.6,39.2
			c0,15-11.5,25.3-26.1,25.3c-13.4,0-24.6-8.1-27.6-21.5l7.7-2.3c3.1,9.6,9.6,16.5,20,16.5c10,0,18-8.1,18-18
			c0-10-7.7-13.1-15.7-15.7c-11.1-4.2-23.8-8.8-23.8-22.3c0-12.3,10.4-20.4,21.9-20.4c8.1,0,17.3,5.4,20.7,13.1L1363.6,648.4z"/>
		<path fill="#6A6A6A" d="M1421.2,714.5h-15.7v-67.2h-8.4v-14.6h8.4v-31.5h15.7v31.5h15.4v14.6h-15.4V714.5z"/>
		<path fill="#6A6A6A" d="M1521.8,714.5H1506v-12.7h-0.4c-6.1,9.2-16.1,15.7-27.6,15.7c-25,0-39.2-20.7-39.2-44.2
			c0-22.3,15-43,38.8-43c11.9,0,21.9,6.1,28.4,16.1h0.4v-13.8h15.7v81.8H1521.8z M1507.2,673.4c0-15.7-9.6-29.6-26.5-29.6
			c-16.1,0-25.7,14.2-25.7,29.6c0,15.4,9.2,29.6,25.7,29.6C1497.6,703.4,1507.2,689.5,1507.2,673.4z"/>
		<path fill="#6A6A6A" d="M1559,714.5h-15.7V562.8h15.7V714.5z"/>
		<path fill="#6A6A6A" d="M1598.2,663.4l30.7-30.7h20.7l-34.9,33.8l38.4,48h-20.4l-29.2-37.2l-5.4,5.4v31.9h-15.7V562.8h15.7V663.4
			L1598.2,663.4z"/>
		<path fill="#6A6A6A" d="M1690.8,651.1c-1.9-3.8-5.8-7.3-10.4-7.3c-4.2,0-8.4,3.5-8.4,8.1c0,7.3,9.6,10.4,19.2,14.6
			c9.6,4.2,18.8,10.4,18.8,23.4c0,15.7-13.1,27.3-28,27.3c-11.9,0-23.8-6.9-28.4-18.4l13.4-6.1c3.5,6.1,7.3,10.4,15,10.4
			c6.5,0,12.3-4.6,12.3-11.5c0-4.2-1.9-6.5-5.8-8.8l-15.4-8.1c-9.2-5-15.7-9.6-15.7-20.7c0-13.4,10.8-23.8,24.2-23.8
			c10,0,18,5.4,22.3,14.2L1690.8,651.1z"/>
	</g>
	<g>
		<path fill="#6A6A6A" d="M442,746V555.5H210.4V746h171.3l84.5,55.3L442,746z M305.7,630c-3.8-2.7-7.3-3.8-10.8-3.8
			c-10.4,0-15.7,8.1-15.7,23.8v43.4H260v-83.7l0,0h19.2v7.3c3.5-3.8,6.5-6.1,9.6-7.7c2.7-1.5,6.1-2.3,10-2.3c5,0,10.4,1.5,15.7,5
			L305.7,630z M390.1,682.2c-2.7,3.1-5.8,5.8-8.8,7.7c-3.1,1.9-6.5,3.5-10.4,4.2c-3.8,0.8-7.7,1.5-11.9,1.5
			c-12.3,0-22.3-3.8-30-11.9c-7.7-8.1-11.1-18.8-11.1-31.9c0-13.1,3.8-23.8,11.1-31.9c7.3-8.1,17.3-11.9,29.2-11.9
			c12.3,0,21.9,3.8,29.2,11.9c6.9,7.7,10.8,18.4,10.8,32.3v4.6h-60.7c0.4,6.9,2.7,12.3,6.5,16.5c3.8,3.8,8.8,6.1,15.4,6.1
			c5,0,8.8-1.2,11.9-3.5c3.1-2.3,6.5-6.5,10.4-12.7l16.1,9.2C395.5,675.3,392.8,679.2,390.1,682.2z"/>
		<path fill="#6A6A6A" d="M357.9,624.6c-2.3,0-4.6,0.4-6.5,1.2c-1.9,0.8-3.8,1.9-5.8,3.1c-1.5,1.2-3.1,3.1-4.2,5
			c-1.2,1.9-2.3,3.8-2.7,6.5h38.8C374.8,629.6,368.3,624.6,357.9,624.6z"/>
	</g>
</g>
</svg>
