<?xml version="1.0" encoding="utf-8"?>
<!-- Generator: Adobe Illustrator 18.0.0, SVG Export Plug-In . SVG Version: 6.00 Build 0)  -->
<!DOCTYPE svg PUBLIC "-//W3C//DTD SVG 1.1//EN" "http://www.w3.org/Graphics/SVG/1.1/DTD/svg11.dtd">
<svg version="1.1" id="Layer_1" xmlns="http://www.w3.org/2000/svg" xmlns:xlink="http://www.w3.org/1999/xlink" x="0px" y="0px"
	 viewBox="0 0 500 200" enable-background="new 0 0 500 200" xml:space="preserve">
<path fill="#353535" d="M50,85.2h6.7v23.9h11.7v5.6H50V85.2z"/>
<path fill="#353535" d="M73.4,85.2h6.7v29.6h-6.7V85.2z"/>
<path fill="#353535" d="M87,85.2h6.8l7.7,14.7l2.9,6.5h0.2c-0.3-3.1-0.9-7.3-0.9-10.8V85.2h6.3v29.6h-6.8L95.6,100l-2.9-6.4h-0.2
	c0.3,3.3,0.9,7.2,0.9,10.7v10.5H87V85.2z"/>
<path fill="#353535" d="M129.8,84.7c3.7,0,6.8,1.8,8.8,3.9l-3.7,4.1c-1.5-1.4-2.9-2.2-5-2.2c-4.1,0-7.3,3.6-7.3,9.5
	c0,6.1,2.9,9.6,7.2,9.6c2.4,0,4.2-1,5.6-2.6l3.7,4c-2.4,2.9-5.7,4.4-9.4,4.4c-7.7,0-13.9-5.2-13.9-15.1
	C115.7,90.4,122.2,84.7,129.8,84.7z"/>
<path fill="#353535" d="M140.3,99.9c0-9.7,5.5-15.2,13.4-15.2c8,0,13.4,5.6,13.4,15.2c0,9.7-5.4,15.5-13.4,15.5
	C145.8,115.3,140.3,109.5,140.3,99.9z M160.3,99.9c0-5.9-2.5-9.4-6.6-9.4c-4,0-6.6,3.5-6.6,9.4s2.6,9.7,6.6,9.7
	C157.8,109.6,160.3,105.8,160.3,99.9z"/>
<path fill="#353535" d="M172.7,85.2h6.7v23.9H191v5.6h-18.4L172.7,85.2L172.7,85.2z"/>
<path fill="#353535" d="M196.1,85.2h6.8l7.7,14.7l2.9,6.5h0.2c-0.3-3.1-0.9-7.3-0.9-10.8V85.2h6.3v29.6h-6.8l-7.7-14.7l-2.9-6.4
	h-0.2c0.3,3.3,0.9,7.2,0.9,10.7v10.5H196L196.1,85.2L196.1,85.2z"/>
<path fill="#353535" d="M235.6,85.2h10.1c6.2,0,10.9,1.7,10.9,7.3c0,2.6-1.5,5.5-5,6.4v0.2c4.2,0.8,6.4,3,6.4,6.9
	c0,6-5.1,8.7-11.5,8.7h-11V85.2H235.6z M245.4,97.1c3.3,0,4.7-1.4,4.7-3.6s-1.5-3.1-4.6-3.1h-3.2v6.8h3.1V97.1z M246,109.6
	c3.6,0,5.5-1.4,5.5-4s-1.9-3.7-5.5-3.7h-3.7v7.8h3.7V109.6z"/>
<path fill="#353535" d="M279,114.8l-5.7-10.7h-3.6v10.7H263V85.2h10.7c6.3,0,11.4,2.2,11.4,9.2c0,4.4-2.1,7.1-5.3,8.5l6.7,11.8H279
	V114.8z M269.7,98.8h3.4c3.5,0,5.4-1.5,5.4-4.4s-1.9-3.9-5.4-3.9h-3.4V98.8z"/>
<path fill="#353535" d="M290.8,85.2h18.5v5.6h-11.8v5.9h10.1v5.6h-10.1v6.8h12.3v5.6h-19V85.2z"/>
<path fill="#353535" d="M312.7,85.2h6.8l2,13.8c0.4,3.1,0.8,6.2,1.2,9.3h0.2c0.5-3.1,1.1-6.3,1.7-9.3l3.2-13.8h5.7l3.2,13.8
	c0.6,3,1.2,6.2,1.8,9.3h0.2c0.4-3.2,0.8-6.3,1.2-9.3l2-13.8h6.4l-5.3,29.6h-8.4l-2.9-13.4c-0.5-2.3-0.9-4.7-1.2-6.8h-0.2
	c-0.4,2.2-0.7,4.6-1.2,6.8l-2.8,13.4H318L312.7,85.2z"/>
<path fill="#353535" d="M354.3,106.5c2.1,1.8,4.8,3.1,7.3,3.1c2.8,0,4.1-1.1,4.1-2.9c0-1.9-1.7-2.4-4.3-3.5l-3.8-1.6
	c-3.1-1.2-6-3.8-6-8.1c0-4.9,4.4-8.8,10.5-8.8c3.4,0,7,1.4,9.5,3.9l-3.4,4.2c-1.9-1.5-3.8-2.4-6.2-2.4c-2.3,0-3.8,1-3.8,2.7
	c0,1.8,1.9,2.4,4.5,3.5l3.8,1.5c3.6,1.5,5.8,3.9,5.8,8c0,4.9-4.1,9.2-11.1,9.2c-3.9,0-7.9-1.5-11-4.3L354.3,106.5z"/>
<path fill="#353535" d="M382.4,90.8h-8.2v-5.6h22.9v5.6H389v23.9h-6.7V90.8H382.4z"/>
<path fill="#353535" d="M401.8,85.2h18.5v5.6h-11.8v5.9h10.1v5.6h-10.1v6.8h12.3v5.6h-19V85.2z"/>
<path fill="#353535" d="M442.5,114.8l-5.7-10.7h-3.6v10.7h-6.7V85.2h10.7c6.3,0,11.4,2.2,11.4,9.2c0,4.4-2.1,7.1-5.3,8.5l6.7,11.8
	h-7.5V114.8z M433.2,98.8h3.4c3.5,0,5.4-1.5,5.4-4.4s-1.9-3.9-5.4-3.9h-3.4V98.8z"/>
</svg>
