<?xml version="1.0" encoding="utf-8"?>
<!-- Generator: Adobe Illustrator 18.1.1, SVG Export Plug-In . SVG Version: 6.00 Build 0)  -->
<svg version="1.1" id="Layer_1" xmlns="http://www.w3.org/2000/svg" xmlns:xlink="http://www.w3.org/1999/xlink" x="0px" y="0px"
	 viewBox="-0.9 159.5 1921.9 960.9" enable-background="new -0.9 159.5 1921.9 960.9" xml:space="preserve">
<g>
	<polygon fill="#6A6A6A" points="192,544 331.8,544 192,734.5 192,774.4 380.2,774.4 380.2,736 241.5,736 380.2,545.5 380.2,505.6 
		192,505.6 	"/>
	<path fill="#6A6A6A" d="M645.1,550.9l-50.3-45.3h-94.5l-51.1,45.3v70.3L427,640.8l22.3,19.2v68.7L500,774h94.5l50.3-45.3V660
		l22.3-19.2l-22.3-19.6v-70.3H645.1z M606.7,710.7L577.9,736h-61.4l-28.8-25.3V569.7l28.8-25.7h61.4l28.8,25.7V710.7z"/>
	<polygon fill="#6A6A6A" points="1336.3,505.6 1297.9,505.6 1297.9,621.2 1275.6,640.8 1297.9,660.4 1297.9,774.4 1459.2,774.4 
		1459.2,736 1336.3,736 	"/>
	<polygon fill="#6A6A6A" points="788.4,505.6 737.3,550.9 737.3,621.6 715,640.8 737.3,660.7 737.3,729.5 788.4,774.4 882.8,774.4 
		933.1,729.1 933.1,678.4 894.7,678.4 894.7,711.4 866.3,736 804.9,736 775.7,710.7 775.7,569.3 804.9,544 866.3,544 894.7,568.6 
		894.7,605.4 933.1,605.4 933.1,550.9 882.8,505.6 	"/>
	<path fill="#6A6A6A" d="M1086.3,505.6l-44.2,118.3l-32.3,16.9l18.4,20.4l-42.2,113.3h40.7l25-69.1h109.1l25,69.1h40.7l-100.2-268.8
		H1086.3z M1066.4,666.9l39.9-109.1l39.9,109.1H1066.4z"/>
	<path fill="#6A6A6A" d="M1705,621.2v-70.3l-48.8-45.3h-94.5l-48.8,45.3v70.3l-22.3,19.6L1513,660v68.7l48.8,45.3h94.5l48.8-45.3
		V660l22.3-19.2L1705,621.2z M1666.6,710.7l-26.9,25.3h-61.4l-26.9-25.3V569.7l26.9-25.7h61.4l26.9,25.7V710.7z"/>
</g>
</svg>
