<?xml version="1.0" encoding="utf-8"?>
<!-- Generator: Adobe Illustrator 18.0.0, SVG Export Plug-In . SVG Version: 6.00 Build 0)  -->
<!DOCTYPE svg PUBLIC "-//W3C//DTD SVG 1.1//EN" "http://www.w3.org/Graphics/SVG/1.1/DTD/svg11.dtd">
<svg version="1.1" id="Layer_1" xmlns="http://www.w3.org/2000/svg" xmlns:xlink="http://www.w3.org/1999/xlink" x="0px" y="0px"
	 viewBox="0 0 500 200" enable-background="new 0 0 500 200" xml:space="preserve">
<g>
	<polygon fill="#353535" points="50,75 86.4,75 50,124.6 50,135 99,135 99,125 62.9,125 99,75.4 99,65 50,65 	"/>
	<path fill="#353535" d="M168,76.8L154.9,65h-24.6L117,76.8v18.3l-5.8,5.1l5.8,5v17.9l13.2,11.8h24.6l13.1-11.8v-17.9l5.8-5
		l-5.8-5.1V76.8z M158,118.4l-7.5,6.6h-16l-7.5-6.6V81.7l7.5-6.7h16l7.5,6.7V118.4z"/>
	<polygon fill="#353535" points="348,65 338,65 338,95.1 332.2,100.2 338,105.3 338,135 380,135 380,125 348,125 	"/>
	<polygon fill="#353535" points="205.3,65 192,76.8 192,95.2 186.2,100.2 192,105.4 192,123.3 205.3,135 229.9,135 243,123.2 
		243,110 233,110 233,118.6 225.6,125 209.6,125 202,118.4 202,81.6 209.6,75 225.6,75 233,81.4 233,91 243,91 243,76.8 229.9,65 	
		"/>
	<path fill="#353535" d="M282.9,65l-11.5,30.8l-8.4,4.4l4.8,5.3l-11,29.5h10.6l6.5-18h28.4l6.5,18h10.6l-26.1-70H282.9z M277.7,107
		l10.4-28.4l10.4,28.4H277.7z"/>
	<path fill="#353535" d="M444,95.1V76.8L431.3,65h-24.6L394,76.8v18.3l-5.8,5.1l5.8,5v17.9l12.7,11.8h24.6l12.7-11.8v-17.9l5.8-5
		L444,95.1z M434,118.4l-7,6.6h-16l-7-6.6V81.7l7-6.7h16l7,6.7V118.4z"/>
</g>
</svg>
