<?xml version="1.0" encoding="utf-8"?>
<!-- Generator: Adobe Illustrator 18.0.0, SVG Export Plug-In . SVG Version: 6.00 Build 0)  -->
<!DOCTYPE svg PUBLIC "-//W3C//DTD SVG 1.1//EN" "http://www.w3.org/Graphics/SVG/1.1/DTD/svg11.dtd">
<svg version="1.1" id="Layer_1" xmlns="http://www.w3.org/2000/svg" xmlns:xlink="http://www.w3.org/1999/xlink" x="0px" y="0px"
	 viewBox="0 0 500 200" enable-background="new 0 0 500 200" xml:space="preserve">
<path fill="#353535" d="M247,143.2c-21.5,0-44-4-63.9-7.6c-15.9-2.8-29.6-5.3-40.1-5.3c-7.7,0-13,1.3-16.5,4.2
	c-1.7-0.2-3.4-0.2-5-0.2c-10.9,0-18.9,3.3-23.2,5.1c-0.2,0.1-0.4,0.2-0.6,0.2c1.1-10.5,12.8-19.3,18.6-23c0.1,0.4,0.3,0.9,0.6,1.3
	c1.5,2.4,4.5,4.1,7.6,4.1c2.6,0,4.9-1.1,6.4-3.2l0.1-0.1l0.1-0.1c0.9-1.5,1.3-3.1,1.4-4.8v-1l0-0.1c-0.1-1-0.4-2.6-1.5-4.7
	c-0.3-0.5-0.5-0.9-0.8-1.3c-0.8-1.2-0.8-1.4-0.7-1.7l0.8-2.1l-1.9-1.1c-0.3-0.2-1-0.5-2.1-0.5c-0.6,0-1.4,0.1-2.2,0.6
	c-0.3-0.9-0.7-1.7-1.2-2.1c0.5-0.5,1-1.2,1.2-2.1c0.8,0.5,1.6,0.6,2.2,0.6c1.1,0,1.8-0.4,2.1-0.5l1.9-1.1l-0.8-2.1
	c-0.1-0.3,0-0.6,0.7-1.7c0.3-0.4,0.6-0.8,0.8-1.3c1.1-2.1,1.4-3.7,1.5-4.7l0-0.1v-1c-0.1-1.6-0.5-3.2-1.4-4.8l-0.1-0.1l-0.1-0.1
	c-1.5-2.1-3.8-3.2-6.4-3.2c-3.1,0-6.1,1.6-7.6,4.1c-0.3,0.4-0.5,0.9-0.6,1.3c-5.8-3.7-17.5-12.5-18.6-23c0.2,0.1,0.4,0.2,0.6,0.2
	c4.3,1.8,12.2,5.1,23.2,5.1c1.6,0,3.3-0.1,5-0.2c3.5,2.9,8.8,4.2,16.5,4.2c10.5,0,24.2-2.5,40.1-5.3C203,60,225.5,56,247,56h6.1
	c21.5,0,44,4,63.9,7.6c15.9,2.8,29.6,5.3,40.1,5.3c7.7,0,13-1.3,16.5-4.2c1.7,0.1,3.4,0.2,5,0.2c10.9,0,18.9-3.3,23.2-5.1
	c0.2-0.1,0.4-0.2,0.6-0.2c-1.1,10.5-12.8,19.3-18.6,23c-0.1-0.4-0.3-0.9-0.6-1.3c-1.5-2.4-4.5-4.1-7.6-4.1c-2.6,0-4.9,1.1-6.4,3.2
	l-0.1,0.1l-0.1,0.1c-0.9,1.5-1.3,3.1-1.4,4.8l0,1.5l0.1,0.1c0.1,1,0.5,2.4,1.4,4.2c0.3,0.5,0.5,0.9,0.8,1.3c0.8,1.2,0.8,1.4,0.7,1.7
	l-0.8,2.1l1.9,1.1c0.3,0.2,1,0.5,2.1,0.5c0.6,0,1.4-0.1,2.2-0.6c0.3,0.9,0.7,1.7,1.2,2.1c-0.6,0.5-1,1.2-1.2,2.1
	c-0.8-0.5-1.6-0.6-2.2-0.6c-1.1,0-1.8,0.4-2.1,0.5l-1.9,1.1l0.8,2.1c0.1,0.3,0,0.6-0.7,1.7c-0.3,0.4-0.6,0.8-0.8,1.3
	c-1.2,2.3-1.5,4-1.5,4.9v0.9c0.1,1.6,0.5,3.2,1.4,4.8l0.1,0.1l0.1,0.1c1.5,2.1,3.8,3.2,6.4,3.2c3.1,0,6.1-1.6,7.6-4.1
	c0.3-0.4,0.5-0.9,0.6-1.3c5.8,3.7,17.5,12.5,18.6,23c-0.2-0.1-0.4-0.2-0.6-0.2c-4.3-1.8-12.2-5.1-23.2-5.1c-1.6,0-3.3,0.1-5,0.2
	c-3.5-2.9-8.8-4.2-16.5-4.2c-10.5,0-24.2,2.5-40.1,5.3c-19.9,3.6-42.5,7.6-63.9,7.6H247z"/>
<path fill="none" stroke="#353535" stroke-width="0.958" d="M247,143.2c-21.5,0-44-4-63.9-7.6c-15.9-2.8-29.6-5.3-40.1-5.3
	c-7.7,0-13,1.3-16.5,4.2c-1.7-0.2-3.4-0.2-5-0.2c-10.9,0-18.9,3.3-23.2,5.1c-0.2,0.1-0.4,0.2-0.6,0.2c1.1-10.5,12.8-19.3,18.6-23
	c0.1,0.4,0.3,0.9,0.6,1.3c1.5,2.4,4.5,4.1,7.6,4.1c2.6,0,4.9-1.1,6.4-3.2l0.1-0.1l0.1-0.1c0.9-1.5,1.3-3.1,1.4-4.8v-1l0-0.1
	c-0.1-1-0.4-2.6-1.5-4.7c-0.3-0.5-0.5-0.9-0.8-1.3c-0.8-1.2-0.8-1.4-0.7-1.7l0.8-2.1l-1.9-1.1c-0.3-0.2-1-0.5-2.1-0.5
	c-0.6,0-1.4,0.1-2.2,0.6c-0.3-0.9-0.7-1.7-1.2-2.1c0.5-0.5,1-1.2,1.2-2.1c0.8,0.5,1.6,0.6,2.2,0.6c1.1,0,1.8-0.4,2.1-0.5l1.9-1.1
	l-0.8-2.1c-0.1-0.3,0-0.6,0.7-1.7c0.3-0.4,0.6-0.8,0.8-1.3c1.1-2.1,1.4-3.7,1.5-4.7l0-0.1v-1c-0.1-1.6-0.5-3.2-1.4-4.8l-0.1-0.1
	l-0.1-0.1c-1.5-2.1-3.8-3.2-6.4-3.2c-3.1,0-6.1,1.6-7.6,4.1c-0.3,0.4-0.5,0.9-0.6,1.3c-5.8-3.7-17.5-12.5-18.6-23
	c0.2,0.1,0.4,0.2,0.6,0.2c4.3,1.8,12.2,5.1,23.2,5.1c1.6,0,3.3-0.1,5-0.2c3.5,2.9,8.8,4.2,16.5,4.2c10.5,0,24.2-2.5,40.1-5.3
	C203,60,225.5,56,247,56h6.1c21.5,0,44,4,63.9,7.6c15.9,2.8,29.6,5.3,40.1,5.3c7.7,0,13-1.3,16.5-4.2c1.7,0.1,3.4,0.2,5,0.2
	c10.9,0,18.9-3.3,23.2-5.1c0.2-0.1,0.4-0.2,0.6-0.2c-1.1,10.5-12.8,19.3-18.6,23c-0.1-0.4-0.3-0.9-0.6-1.3c-1.5-2.4-4.5-4.1-7.6-4.1
	c-2.6,0-4.9,1.1-6.4,3.2l-0.1,0.1l-0.1,0.1c-0.9,1.5-1.3,3.1-1.4,4.8l0,1.5l0.1,0.1c0.1,1,0.5,2.4,1.4,4.2c0.3,0.5,0.5,0.9,0.8,1.3
	c0.8,1.2,0.8,1.4,0.7,1.7l-0.8,2.1l1.9,1.1c0.3,0.2,1,0.5,2.1,0.5c0.6,0,1.4-0.1,2.2-0.6c0.3,0.9,0.7,1.7,1.2,2.1
	c-0.6,0.5-1,1.2-1.2,2.1c-0.8-0.5-1.6-0.6-2.2-0.6c-1.1,0-1.8,0.4-2.1,0.5l-1.9,1.1l0.8,2.1c0.1,0.3,0,0.6-0.7,1.7
	c-0.3,0.4-0.6,0.8-0.8,1.3c-1.2,2.3-1.5,4-1.5,4.9v0.9c0.1,1.6,0.5,3.2,1.4,4.8l0.1,0.1l0.1,0.1c1.5,2.1,3.8,3.2,6.4,3.2
	c3.1,0,6.1-1.6,7.6-4.1c0.3-0.4,0.5-0.9,0.6-1.3c5.8,3.7,17.5,12.5,18.6,23c-0.2-0.1-0.4-0.2-0.6-0.2c-4.3-1.8-12.2-5.1-23.2-5.1
	c-1.6,0-3.3,0.1-5,0.2c-3.5-2.9-8.8-4.2-16.5-4.2c-10.5,0-24.2,2.5-40.1,5.3c-19.9,3.6-42.5,7.6-63.9,7.6H247z"/>
<path fill="none" stroke="#353535" stroke-width="3.197" d="M381.4,112.2c0,0-1.3-0.1-0.4,1.5c2,3.8-6.2,8.4-9.8,3.5
	c-0.7-1.2-1-2.4-1-3.6v-0.4v0v-0.1v-0.2c0-0.6,0.2-1.9,1.2-3.8c0.8-1.5,2.5-3,1.7-5.2c0,0,1.2-0.7,2.6,0.8c0,0,2.4,0.2,2.7-1.8
	c0.4-2,0.8-1.4,2-1.4c0.9,0,1.1-1.3,1.1-2c0-0.7-0.2-1.9-1.1-1.9c-1.2,0-1.7,0.6-2-1.4c-0.4-2-2.7-1.8-2.7-1.8
	c-1.4,1.5-2.6,0.8-2.6,0.8c0.8-2.1-0.8-3.6-1.7-5.2c-1-1.9-1.2-3.2-1.2-3.8v-0.2V86v0v-0.4c0-1.2,0.4-2.4,1-3.6
	c3.7-5,11.8-0.3,9.8,3.5c-0.9,1.6,0.4,1.5,0.4,1.5c0.1,0.1,25.2-13.2,23.5-30.6c-1.5-1.6-12.5,7.8-32.2,5.6
	c-13.3,13.3-69.3-8.6-119.6-8.6H247c-50.3,0-106.3,21.9-119.6,8.6c-19.8,2.2-30.8-7.2-32.2-5.6c-1.7,17.4,23.4,30.7,23.5,30.6
	c0,0,1.3,0.1,0.4-1.5c-2-3.8,6.2-8.4,9.8-3.5c0.7,1.2,1,2.4,1,3.6v0.5v0.3c0,0.6-0.2,1.9-1.2,3.6c-0.8,1.5-2.5,3-1.7,5.2
	c0,0-1.2,0.7-2.6-0.8c0,0-2.4-0.2-2.7,1.8c-0.4,2-0.8,1.4-2,1.4c-0.9,0-1.1,1.3-1.1,2c0,0.7,0.2,1.9,1.1,1.9c1.2,0,1.7-0.6,2,1.4
	c0.4,2,2.7,1.8,2.7,1.8c1.4-1.5,2.6-0.8,2.6-0.8c-0.8,2.1,0.8,3.6,1.7,5.2c0.9,1.8,1.1,3,1.2,3.6v0.3v0.5c0,1.2-0.4,2.4-1,3.6
	c-3.7,5-11.8,0.3-9.8-3.5c0.9-1.6-0.4-1.5-0.4-1.5c-0.1-0.1-25.2,13.2-23.5,30.6c1.5,1.6,12.5-7.8,32.2-5.6
	c13.3-13.3,69.3,8.6,119.6,8.6h6.1c50.3,0,106.3-21.9,119.6-8.6c19.8-2.2,30.8,7.2,32.2,5.6C406.6,125.4,381.5,112,381.4,112.2z"/>
<path fill="none" stroke="#FFFFFF" stroke-width="1.066" d="M381.4,112.2c0,0-1.3-0.1-0.4,1.5c2,3.8-6.2,8.4-9.8,3.5
	c-0.7-1.2-1-2.4-1-3.6v-0.4v0v-0.1v-0.2c0-0.6,0.2-1.9,1.2-3.8c0.8-1.5,2.5-3,1.7-5.2c0,0,1.2-0.7,2.6,0.8c0,0,2.4,0.2,2.7-1.8
	c0.4-2,0.8-1.4,2-1.4c0.9,0,1.1-1.3,1.1-2c0-0.7-0.2-1.9-1.1-1.9c-1.2,0-1.7,0.6-2-1.4c-0.4-2-2.7-1.8-2.7-1.8
	c-1.4,1.5-2.6,0.8-2.6,0.8c0.8-2.1-0.8-3.6-1.7-5.2c-1-1.9-1.2-3.2-1.2-3.8v-0.2V86v0v-0.4c0-1.2,0.4-2.4,1-3.6
	c3.7-5,11.8-0.3,9.8,3.5c-0.9,1.6,0.4,1.5,0.4,1.5c0.1,0.1,25.2-13.2,23.5-30.6c-1.5-1.6-12.5,7.8-32.2,5.6
	c-13.3,13.3-69.3-8.6-119.6-8.6H247c-50.3,0-106.3,21.9-119.6,8.6c-19.8,2.2-30.8-7.2-32.2-5.6c-1.7,17.4,23.4,30.7,23.5,30.6
	c0,0,1.3,0.1,0.4-1.5c-2-3.8,6.2-8.4,9.8-3.5c0.7,1.2,1,2.4,1,3.6v0.5v0.3c0,0.6-0.2,1.9-1.2,3.6c-0.8,1.5-2.5,3-1.7,5.2
	c0,0-1.2,0.7-2.6-0.8c0,0-2.4-0.2-2.7,1.8c-0.4,2-0.8,1.4-2,1.4c-0.9,0-1.1,1.3-1.1,2c0,0.7,0.2,1.9,1.1,1.9c1.2,0,1.7-0.6,2,1.4
	c0.4,2,2.7,1.8,2.7,1.8c1.4-1.5,2.6-0.8,2.6-0.8c-0.8,2.1,0.8,3.6,1.7,5.2c0.9,1.8,1.1,3,1.2,3.6v0.3v0.5c0,1.2-0.4,2.4-1,3.6
	c-3.7,5-11.8,0.3-9.8-3.5c0.9-1.6-0.4-1.5-0.4-1.5c-0.1-0.1-25.2,13.2-23.5,30.6c1.5,1.6,12.5-7.8,32.2-5.6
	c13.3-13.3,69.3,8.6,119.6,8.6h6.1c50.3,0,106.3-21.9,119.6-8.6c19.8-2.2,30.8,7.2,32.2,5.6C406.6,125.4,381.5,112,381.4,112.2z"/>
<polygon fill="#FFFFFF" points="177.7,114.7 154.3,114.7 154.3,109.9 171.7,86.5 154.3,86.5 154.3,81.7 177.7,81.7 177.7,86.5 
	160.5,109.9 177.7,109.9 "/>
<path fill="#FFFFFF" d="M213.1,98.3l-2.7,2.4v8.5l-6.2,5.5h-11.7l-6.2-5.5v-8.5l-2.7-2.4l2.7-2.4v-8.7l6.2-5.5h11.7l6.2,5.5v8.7
	L213.1,98.3z M205.6,107V89.5l-3.4-3h-7.6l-3.4,3V107l3.4,2.9h7.6L205.6,107z"/>
<polygon fill="#FFFFFF" points="246,109.2 239.9,114.7 228.2,114.7 221.9,109.3 221.9,100.8 219.2,98.3 221.9,95.9 221.9,87.2 
	228.2,81.7 239.9,81.7 246,87.2 246,94.1 241.2,94.1 241.2,89.4 237.8,86.5 230.2,86.5 226.8,89.5 226.8,106.9 230.2,109.9 
	237.8,109.9 241.2,107.1 241.2,103 246,103 "/>
<path fill="#FFFFFF" d="M282.4,114.7h-5l-3.1-8.2h-13.5l-3.1,8.2h-5l5.2-14l-2.3-2.4l4-2.1l5.5-14.6h5L282.4,114.7z M272.5,101.7
	l-5-13.5l-5,13.5H272.5z"/>
<polygon fill="#FFFFFF" points="311.1,114.7 291.2,114.7 291.2,100.7 288.4,98.3 291.2,95.9 291.2,81.7 296,81.7 296,109.9 
	311.1,109.9 "/>
<path fill="#FFFFFF" d="M344.5,98.3l-2.7,2.4v8.5l-6.2,5.5h-11.7l-6.2-5.5v-8.5l-2.7-2.4l2.7-2.4v-8.7l6.2-5.5h11.7l6.2,5.5v8.7
	L344.5,98.3z M336.9,107V89.5l-3.4-3h-7.6l-3.4,3V107l3.4,2.9h7.6L336.9,107z"/>
<polygon fill="none" stroke="#FFFFFF" stroke-width="0.99" points="177.7,114.7 154.3,114.7 154.3,109.9 171.7,86.5 154.3,86.5 
	154.3,81.7 177.7,81.7 177.7,86.5 160.5,109.9 177.7,109.9 "/>
<path fill="none" stroke="#FFFFFF" stroke-width="0.99" d="M213.1,98.3l-2.7,2.4v8.5l-6.2,5.5h-11.7l-6.2-5.5v-8.5l-2.7-2.4l2.7-2.4
	v-8.7l6.2-5.5h11.7l6.2,5.5v8.7L213.1,98.3z M205.6,107V89.5l-3.4-3h-7.6l-3.4,3V107l3.4,2.9h7.6L205.6,107z"/>
<polygon fill="none" stroke="#FFFFFF" stroke-width="0.99" points="246,109.2 239.9,114.7 228.2,114.7 221.9,109.3 221.9,100.8 
	219.2,98.3 221.9,95.9 221.9,87.2 228.2,81.7 239.9,81.7 246,87.2 246,94.1 241.2,94.1 241.2,89.4 237.8,86.5 230.2,86.5 
	226.8,89.5 226.8,106.9 230.2,109.9 237.8,109.9 241.2,107.1 241.2,103 246,103 "/>
<path fill="none" stroke="#FFFFFF" stroke-width="0.99" d="M282.4,114.7h-5l-3.1-8.2h-13.5l-3.1,8.2h-5l5.2-14l-2.3-2.4l4-2.1
	l5.5-14.6h5L282.4,114.7z M272.5,101.7l-5-13.5l-5,13.5H272.5z"/>
<polygon fill="none" stroke="#FFFFFF" stroke-width="0.99" points="311.1,114.7 291.2,114.7 291.2,100.7 288.4,98.3 291.2,95.9 
	291.2,81.7 296,81.7 296,109.9 311.1,109.9 "/>
<path fill="none" stroke="#FFFFFF" stroke-width="0.99" d="M344.5,98.3l-2.7,2.4v8.5l-6.2,5.5h-11.7l-6.2-5.5v-8.5l-2.7-2.4l2.7-2.4
	v-8.7l6.2-5.5h11.7l6.2,5.5v8.7L344.5,98.3z M336.9,107V89.5l-3.4-3h-7.6l-3.4,3V107l3.4,2.9h7.6L336.9,107z"/>
<polygon fill="#353535" points="177.7,114.7 154.3,114.7 154.3,109.9 171.7,86.5 154.3,86.5 154.3,81.7 177.7,81.7 177.7,86.5 
	160.5,109.9 177.7,109.9 "/>
<path fill="#353535" d="M213.1,98.3l-2.7,2.4v8.5l-6.2,5.5h-11.7l-6.2-5.5v-8.5l-2.7-2.4l2.7-2.4v-8.7l6.2-5.5h11.7l6.2,5.5v8.7
	L213.1,98.3z M205.6,107V89.5l-3.4-3h-7.6l-3.4,3V107l3.4,2.9h7.6L205.6,107z"/>
<polygon fill="#353535" points="246,109.2 239.9,114.7 228.2,114.7 221.9,109.3 221.9,100.8 219.2,98.3 221.9,95.9 221.9,87.2 
	228.2,81.7 239.9,81.7 246,87.2 246,94.1 241.2,94.1 241.2,89.4 237.8,86.5 230.2,86.5 226.8,89.5 226.8,106.9 230.2,109.9 
	237.8,109.9 241.2,107.1 241.2,103 246,103 "/>
<path fill="#353535" d="M282.4,114.7h-5l-3.1-8.2h-13.5l-3.1,8.2h-5l5.2-14l-2.3-2.4l4-2.1l5.5-14.6h5L282.4,114.7z M272.5,101.7
	l-5-13.5l-5,13.5H272.5z"/>
<polygon fill="#353535" points="311.1,114.7 291.2,114.7 291.2,100.7 288.4,98.3 291.2,95.9 291.2,81.7 296,81.7 296,109.9 
	311.1,109.9 "/>
<path fill="#353535" d="M344.5,98.3l-2.7,2.4v8.5l-6.2,5.5h-11.7l-6.2-5.5v-8.5l-2.7-2.4l2.7-2.4v-8.7l6.2-5.5h11.7l6.2,5.5v8.7
	L344.5,98.3z M336.9,107V89.5l-3.4-3h-7.6l-3.4,3V107l3.4,2.9h7.6L336.9,107z"/>
<path fill="#FFFFFF" d="M155.5,83v4.8h17.3l-17.3,23.4v4.8h23.4v-4.8h-17.2l17.2-23.4V83H155.5z M192.2,108.2V90.8l3.4-3h7.6l3.4,3
	v17.5l-3.4,2.9h-7.6L192.2,108.2z M193.6,83l-6.2,5.5v8.7l-2.7,2.4l2.7,2.4v8.5l6.2,5.5h11.7l6.2-5.5V102l2.7-2.4l-2.7-2.4v-8.7
	l-6.2-5.5H193.6z M229.3,83l-6.2,5.5v8.7l-2.7,2.4l2.7,2.4v8.5l6.2,5.4H241l6.2-5.5v-6.2h-4.8v4.1l-3.4,2.8h-7.6l-3.4-3V90.7l3.4-3
	h7.6l3.4,2.8v4.7h4.8v-6.9L241,83H229.3z M268.7,89.4l5,13.5h-9.9L268.7,89.4z M266.1,83l-5.5,14.5l-4,2.1l2.3,2.4l-5.2,14h5
	l3.1-8.2h13.5l3.1,8.2h5l-12.4-33H266.1z M292.3,83v14.2l-2.7,2.4l2.7,2.4v14h20v-4.8h-15.1V83H292.3z M323.6,108.2V90.8l3.4-3h7.6
	l3.4,3v17.5l-3.4,2.9H327L323.6,108.2z M325,83l-6.2,5.5v8.7l-2.8,2.4l2.8,2.4v8.5l6.2,5.5h11.7l6.2-5.5V102l2.8-2.4l-2.8-2.4v-8.7
	l-6.2-5.5H325z"/>
<g>
	<defs>
		<path id="SVGID_1_" d="M238.9,39.4c0,0-24.5,7.1-27.7,13.9c-3.3,6.8-3.1,25.5-3.1,25.5l44.7,15.1l28-14.7l-8.9-26.1
			c3.4,0.3,12.6,1.5,12.6,1.5l10.3-0.9c0,0-29.2-23.2-37.6-28.5c-1-0.6-2-0.9-3-0.9C246.5,24.4,238.9,39.4,238.9,39.4"/>
	</defs>
	<clipPath id="SVGID_2_">
		<use xlink:href="#SVGID_1_"  overflow="visible"/>
	</clipPath>
	<path clip-path="url(#SVGID_2_)" fill="none" stroke="#353535" stroke-width="0.904" d="M264.1,51.4c8.2,0,15.2,3.1,18.7,5.3l1-0.7
		c-12.5-12.4-24.6-11.2-28.4-13.4c-3.8-2.2-1.2-6.1,0.4-6.3c0.4-0.1,1.2,0.4,1.6,1.5c1.2,3.7,4.7,2.9,5.8,2.6
		c0.6-0.9-1.5-8.4-7.7-8.9c-5.8-0.4-8.1,5.9-7.1,9.7c0,0-1.5-0.7-3-0.4c-0.2,1-0.3,4.8,3.4,6.5c-3.1-0.8-8.9,2.4-9.5,2.9
		c-1.8,1.4-3.7,1.2-5.5-1c-0.6,0.9-3.3,4.8,0.7,7c-1,0.7-2.2,1.1-3.5,1.3c-7.9,1-9.7-5.7-10.2-6.7c-0.1-0.2-0.7-0.6-1,0.2
		c-3.1,7.9,2.2,12.2,5.5,13c5,1.3,9.7,0.9,9.4,1.5c-0.3,0.6-1.2,1.6,0.5,2.1c4.7,0.7,7.9-4.6,8.4-4.3c0.5,0.3-0.7,1.1,0.2,4.2
		c1.1,3.9,4.7,6.9,7.4,7.9c1.2,0.5,5.7,1.7,8.9-1c3.2-2.7,2.1-9,0.3-9.5c-1.5-0.3-5.6,5-6.8,6.5c-6-2.6-1.8-13-1.5-12.5
		c1.6,2.3,6.1,2.7,5.9,1C254.4,51.8,263.4,51.4,264.1,51.4z"/>
	<path clip-path="url(#SVGID_2_)" fill="none" stroke="#FFFFFF" stroke-width="1.196" d="M264.1,51.4c8.2,0,15.2,3.1,18.7,5.3l1-0.7
		c-12.5-12.4-24.6-11.2-28.4-13.4c-3.8-2.2-1.2-6.1,0.4-6.3c0.4-0.1,1.2,0.4,1.6,1.5c1.2,3.7,4.7,2.9,5.8,2.6
		c0.6-0.9-1.5-8.4-7.7-8.9c-5.8-0.4-8.1,5.9-7.1,9.7c0,0-1.5-0.7-3-0.4c-0.2,1-0.3,4.8,3.4,6.5c-3.1-0.8-8.9,2.4-9.5,2.9
		c-1.8,1.4-3.7,1.2-5.5-1c-0.6,0.9-3.3,4.8,0.7,7c-1,0.7-2.2,1.1-3.5,1.3c-7.9,1-9.7-5.7-10.2-6.7c-0.1-0.2-0.7-0.6-1,0.2
		c-3.1,7.9,2.2,12.2,5.5,13c5,1.3,9.7,0.9,9.4,1.5c-0.3,0.6-1.2,1.6,0.5,2.1c4.7,0.7,7.9-4.6,8.4-4.3c0.5,0.3-0.7,1.1,0.2,4.2
		c1.1,3.9,4.7,6.9,7.4,7.9c1.2,0.5,5.7,1.7,8.9-1c3.2-2.7,2.1-9,0.3-9.5c-1.5-0.3-5.6,5-6.8,6.5c-6-2.6-1.8-13-1.5-12.5
		c1.6,2.3,6.1,2.7,5.9,1C254.4,51.8,263.4,51.4,264.1,51.4z"/>
	<path clip-path="url(#SVGID_2_)" fill="#353535" d="M264.1,51.4c8.2,0,15.2,3.1,18.7,5.3l1-0.7c-12.5-12.4-24.6-11.2-28.4-13.4
		c-3.8-2.2-1.2-6.1,0.4-6.3c0.4-0.1,1.2,0.4,1.6,1.5c1.2,3.7,4.7,2.9,5.8,2.6c0.6-0.9-1.5-8.4-7.7-8.9c-5.8-0.4-8.1,5.9-7.1,9.7
		c0,0-1.5-0.7-3-0.4c-0.2,1-0.3,4.8,3.4,6.5c-3.1-0.8-8.9,2.4-9.5,2.9c-1.8,1.4-3.7,1.2-5.5-1c-0.6,0.9-3.3,4.8,0.7,7
		c-1,0.7-2.2,1.1-3.5,1.3c-7.9,1-9.7-5.7-10.2-6.7c-0.1-0.2-0.7-0.6-1,0.2c-3.1,7.9,2.2,12.2,5.5,13c5,1.3,9.7,0.9,9.4,1.5
		c-0.3,0.6-1.2,1.6,0.5,2.1c4.7,0.7,7.9-4.6,8.4-4.3c0.5,0.3-0.7,1.1,0.2,4.2c1.1,3.9,4.7,6.9,7.4,7.9c1.2,0.5,5.7,1.7,8.9-1
		c3.2-2.7,2.1-9,0.3-9.5c-1.5-0.3-5.6,5-6.8,6.5c-6-2.6-1.8-13-1.5-12.5c1.6,2.3,6.1,2.7,5.9,1C254.4,51.8,263.4,51.4,264.1,51.4"/>
	<path clip-path="url(#SVGID_2_)" fill="#FFFFFF" d="M255.8,73.3c-2.8-0.3-4.3-1.6-4.9-2.1c0,0,0,0,0,0c-5-4.6,0.7-14.7,0.8-14.7
		c0.2,0,0.3,1,1.6,2c1.2,0.9,2.6,1.2,2.8,0.6c-0.9-2.4-0.8-4.4,0.4-5.8c4.5-5,14.1-3.1,22.2-0.2c0.1,0-1.4-1.5-2.6-2.1
		c-0.9-0.5-3-1.9-10.6-2.2c-2.3-0.1-4.7,0.1-6.9,0.9c2.1-1,4.5-1.5,6.9-1.5c5.3,0,8,1.1,8.1,1.1c-0.4-0.3-1.4-0.9-2.7-1.4
		c-0.6-0.2-8.8-3.7-16.6,2.8c-2.2,1.8-4.1,4.2-5.4,6.8c-1.3,2.6-2.1,5.5-2.3,8.5l-0.1,0c0.1-3,0.7-5.9,1.9-8.7
		c1.2-2.8,3-5.3,5.3-7.3c2.3-1.9,5.1-3.6,8.2-3.9c0.4,0,0.9,0,1.3,0c-0.5-0.1-1-0.2-1.4-0.2c-0.8-0.1-1.6-0.1-2.4-0.1
		c-1.6,0.1-3.2,0.4-4.8,0.9c1.5-0.7,3.1-1.2,4.8-1.5c0.6-0.1,1.1-0.1,1.7-0.2c-0.6-0.1-1.1-0.2-1.7-0.3c-1.6-0.2-3.2-0.4-4.6-1.3
		c-0.4-0.2-0.8-0.5-1.1-0.8c-1.3-1.2-1.8-2.8-1.3-4.4c0.5-1.6,1.9-3,3.2-3.2c0.5-0.1,1,0.1,1.5,0.4c-0.1-0.4-0.3-0.9-0.6-1.5
		c-0.6-0.9-1.5-1.3-2.1-1.4c-2.1-0.2-3.5,1.9-3.6,2c-1.3,1.7-1.9,4.3-1.3,6.3l0.6,2.2l-2.1-0.9c0,0-0.7-0.3-1.5-0.3
		c0,1,0.3,2.5,1.6,3.6c0.4,0.3,1.2,0.9,1.5,1c0.6,0.4,1.4,1.3,1.1,1.7c-0.3,0.5-1.7,0.2-2.1,0.1c-2.1-0.5-7.7,2.1-8.5,2.7
		c-2,1.5-4.1,1.5-6-0.1c-0.8,1.6-0.7,2.8,0.2,3.6c0.2,0.2,0.5,0.4,0.8,0.5l1.6,1c0,0-6.4,5-11.6,1.8c-3.3-2-4.7-5.8-4.7-5.8
		c0,0-1.6,5.6,2.2,9.3c1.2,1.2,3,1.6,4.3,1.8c2.5,0.5,7.1,0.1,8.4,1.1c0.5,0.4,0.6,1,0.3,1.6c-0.1,0.1-0.1,0.2-0.2,0.4
		c0,0-0.1,0.1-0.1,0.2c3.9,0.5,6.8-3.7,7.5-4.3c0.3-0.2,0.6-0.3,0.9-0.2c0-0.1,0-0.1,0.1-0.2c0.3-0.8,0.6-1.6,1-2.4
		c0.7-1.5,1.7-2.9,2.8-4.1c-1,1.3-1.8,2.8-2.3,4.3c-0.3,0.8-0.5,1.5-0.6,2.3c-0.1,0.4-0.1,0.7-0.2,1.1c0,0,0,0,0,0
		c0,0.3,0,0.6-0.1,0.9c0,0.1,0,0.2,0,0.3l0,0c0,0.6,0,1.5,0.3,2.9c0.9,4.4,5.5,6.7,6.8,7.1c0.9,0.2,4.3,1.3,7-0.5c0,0,0,0,0,0
		C259.1,73,256.9,73.4,255.8,73.3 M245.2,53.7c-1.5,1.2-2.9,2.6-4.4,3.9c-0.7,0.7-1.5,1.4-2.3,2c-0.8,0.6-1.8,1.1-2.8,1.4
		c-2,0.6-4.1,0.7-6,0.3c2,0.1,4-0.3,5.7-1c0.9-0.4,1.7-0.9,2.4-1.5c0.7-0.6,1.5-1.3,2.2-2c1.4-1.4,2.9-2.8,4.6-3.9
		c1.7-1.1,3.7-1.9,5.7-2.1C248.4,51.6,246.7,52.5,245.2,53.7"/>
	<path clip-path="url(#SVGID_2_)" fill="#FFFFFF" d="M260.7,70.3c0.8-3-0.8-4.4-0.8-4.4c-0.6-0.8-4.5,4.6-5.1,5.9
		c1.8,0.7,5,0.4,5.1,0.3C260.2,72,260.3,71.9,260.7,70.3"/>
</g>
<path fill="#FFFFFF" d="M254.8,71.8c1.8,0.7,5,0.4,5.1,0.3c0.2-0.1,0.3-0.2,0.8-1.8c0.8-3-0.7-4.4-0.7-4.4c0-0.1-0.1-0.1-0.2-0.1
	C258.9,65.8,255.4,70.6,254.8,71.8"/>
<g>
	<defs>
		<path id="SVGID_3_" d="M254.8,71.8c1.8,0.7,5,0.4,5.1,0.3c0.2-0.1,0.3-0.2,0.8-1.8c0.8-3-0.7-4.4-0.7-4.4c0-0.1-0.1-0.1-0.2-0.1
			C258.9,65.8,255.4,70.6,254.8,71.8"/>
	</defs>
	<clipPath id="SVGID_4_">
		<use xlink:href="#SVGID_3_"  overflow="visible"/>
	</clipPath>
	<line clip-path="url(#SVGID_4_)" fill="#FFFFFF" x1="256" y1="63.9" x2="245.3" y2="69.1"/>
	<line clip-path="url(#SVGID_4_)" fill="#FFFFFF" x1="256.4" y1="64" x2="245.7" y2="69.2"/>
	<line clip-path="url(#SVGID_4_)" fill="#FFFFFF" x1="256.7" y1="64.1" x2="246" y2="69.3"/>
	<line clip-path="url(#SVGID_4_)" fill="#FFFFFF" x1="257" y1="64.2" x2="246.3" y2="69.4"/>
	<line clip-path="url(#SVGID_4_)" fill="#FFFFFF" x1="257.3" y1="64.3" x2="246.6" y2="69.5"/>
	<line clip-path="url(#SVGID_4_)" fill="#FFFFFF" x1="257.6" y1="64.4" x2="246.9" y2="69.6"/>
	<line clip-path="url(#SVGID_4_)" fill="#FFFFFF" x1="257.9" y1="64.5" x2="247.2" y2="69.7"/>
	<line clip-path="url(#SVGID_4_)" fill="#FFFFFF" x1="258.2" y1="64.6" x2="247.6" y2="69.8"/>
	<line clip-path="url(#SVGID_4_)" fill="#FFFFFF" x1="258.6" y1="64.8" x2="247.9" y2="69.9"/>
	<line clip-path="url(#SVGID_4_)" fill="#FFFFFF" x1="258.9" y1="64.9" x2="248.2" y2="70"/>
	<line clip-path="url(#SVGID_4_)" fill="#FFFFFF" x1="259.2" y1="65" x2="248.5" y2="70.2"/>
	<line clip-path="url(#SVGID_4_)" fill="#FFFFFF" x1="259.5" y1="65.1" x2="248.8" y2="70.3"/>
	<line clip-path="url(#SVGID_4_)" fill="#FFFFFF" x1="259.8" y1="65.2" x2="249.1" y2="70.4"/>
	<line clip-path="url(#SVGID_4_)" fill="#FFFFFF" x1="260.1" y1="65.3" x2="249.4" y2="70.5"/>
	<line clip-path="url(#SVGID_4_)" fill="#FFFFFF" x1="260.5" y1="65.4" x2="249.8" y2="70.6"/>
	<line clip-path="url(#SVGID_4_)" fill="#FFFFFF" x1="260.8" y1="65.5" x2="250.1" y2="70.7"/>
	<line clip-path="url(#SVGID_4_)" fill="#FFFFFF" x1="261.1" y1="65.6" x2="250.4" y2="70.8"/>
	<line clip-path="url(#SVGID_4_)" fill="#FFFFFF" x1="261.4" y1="65.7" x2="250.7" y2="70.9"/>
	<line clip-path="url(#SVGID_4_)" fill="#FFFFFF" x1="261.7" y1="65.8" x2="251" y2="71"/>
	<line clip-path="url(#SVGID_4_)" fill="#FFFFFF" x1="262" y1="66" x2="251.3" y2="71.1"/>
	<line clip-path="url(#SVGID_4_)" fill="#FFFFFF" x1="262.3" y1="66.1" x2="251.7" y2="71.3"/>
	<line clip-path="url(#SVGID_4_)" fill="#FFFFFF" x1="262.7" y1="66.2" x2="252" y2="71.4"/>
	<line clip-path="url(#SVGID_4_)" fill="#FFFFFF" x1="263" y1="66.3" x2="252.3" y2="71.5"/>
	<line clip-path="url(#SVGID_4_)" fill="#FFFFFF" x1="263.3" y1="66.4" x2="252.6" y2="71.6"/>
	<line clip-path="url(#SVGID_4_)" fill="#FFFFFF" x1="263.6" y1="66.5" x2="252.9" y2="71.7"/>
	<line clip-path="url(#SVGID_4_)" fill="#FFFFFF" x1="263.9" y1="66.6" x2="253.2" y2="71.8"/>
	<line clip-path="url(#SVGID_4_)" fill="#FFFFFF" x1="264.2" y1="66.7" x2="253.5" y2="71.9"/>
	<line clip-path="url(#SVGID_4_)" fill="#FFFFFF" x1="264.6" y1="66.8" x2="253.9" y2="72"/>
	<line clip-path="url(#SVGID_4_)" fill="#FFFFFF" x1="264.9" y1="66.9" x2="254.2" y2="72.1"/>
	<line clip-path="url(#SVGID_4_)" fill="#FFFFFF" x1="265.2" y1="67.1" x2="254.5" y2="72.2"/>
	<line clip-path="url(#SVGID_4_)" fill="#FFFFFF" x1="265.5" y1="67.2" x2="254.8" y2="72.3"/>
	<line clip-path="url(#SVGID_4_)" fill="#FFFFFF" x1="265.8" y1="67.3" x2="255.1" y2="72.5"/>
	<line clip-path="url(#SVGID_4_)" fill="#FFFFFF" x1="266.1" y1="67.4" x2="255.4" y2="72.6"/>
	<line clip-path="url(#SVGID_4_)" fill="#FFFFFF" x1="266.4" y1="67.5" x2="255.8" y2="72.7"/>
	<line clip-path="url(#SVGID_4_)" fill="#FFFFFF" x1="266.8" y1="67.6" x2="256.1" y2="72.8"/>
	<line clip-path="url(#SVGID_4_)" fill="#FFFFFF" x1="267.1" y1="67.7" x2="256.4" y2="72.9"/>
	<line clip-path="url(#SVGID_4_)" fill="#FFFFFF" x1="267.4" y1="67.8" x2="256.7" y2="73"/>
	<line clip-path="url(#SVGID_4_)" fill="#FFFFFF" x1="267.7" y1="67.9" x2="257" y2="73.1"/>
	<line clip-path="url(#SVGID_4_)" fill="#FFFFFF" x1="268" y1="68" x2="257.3" y2="73.2"/>
	<line clip-path="url(#SVGID_4_)" fill="#FFFFFF" x1="268.3" y1="68.1" x2="257.7" y2="73.3"/>
	<line clip-path="url(#SVGID_4_)" fill="#FFFFFF" x1="268.7" y1="68.3" x2="258" y2="73.4"/>
	<line clip-path="url(#SVGID_4_)" fill="#FFFFFF" x1="269" y1="68.4" x2="258.3" y2="73.6"/>
	<line clip-path="url(#SVGID_4_)" fill="#FFFFFF" x1="269.3" y1="68.5" x2="258.6" y2="73.7"/>
	<line clip-path="url(#SVGID_4_)" fill="#FFFFFF" x1="269.6" y1="68.6" x2="258.9" y2="73.8"/>
	<line clip-path="url(#SVGID_4_)" fill="#FFFFFF" x1="269.9" y1="68.7" x2="259.2" y2="73.9"/>
	<line clip-path="url(#SVGID_4_)" fill="#FFFFFF" x1="270.2" y1="68.8" x2="259.5" y2="74"/>
	<line clip-path="url(#SVGID_4_)" fill="#FFFFFF" x1="270.6" y1="68.9" x2="259.9" y2="74.1"/>
</g>
<g>
	<defs>
		<path id="SVGID_5_" d="M238.9,39.4c0,0-24.5,7.1-27.7,13.9c-3.3,6.8-3.1,25.5-3.1,25.5l44.7,15.1l28-14.7l-8.9-26.1
			c3.4,0.3,12.6,1.5,12.6,1.5l10.3-0.9c0,0-29.2-23.2-37.6-28.5c-1-0.6-2-0.9-3-0.9C246.5,24.4,238.9,39.4,238.9,39.4"/>
	</defs>
	<clipPath id="SVGID_6_">
		<use xlink:href="#SVGID_5_"  overflow="visible"/>
	</clipPath>
	<path clip-path="url(#SVGID_6_)" fill="#FFFFFF" d="M259.5,38.9c-0.4-0.3-0.7-0.8-0.9-1.5c0-0.1-0.1-0.2-0.1-0.2
		c-0.4-1.3,0.1-1.3-0.8-2.9c-0.4-0.7-1.1-1.2-1.7-1.5c1.3,0.2,2.4,0.7,3.4,1.6c1.9,1.7,2.7,4.1,2.9,5.2
		C261.4,39.6,260.3,39.6,259.5,38.9"/>
</g>
<g>
	<defs>
		<path id="SVGID_7_" d="M257.7,34.2c0.9,1.6,0.4,1.7,0.8,2.9c0,0.1,0.1,0.2,0.1,0.2c0.2,0.6,0.5,1.1,0.9,1.5
			c0.8,0.7,1.9,0.7,2.8,0.6c-0.2-1.1-1-3.5-2.9-5.2c-1-0.9-2.2-1.4-3.4-1.6C256.7,33.1,257.4,33.6,257.7,34.2"/>
	</defs>
	<clipPath id="SVGID_8_">
		<use xlink:href="#SVGID_7_"  overflow="visible"/>
	</clipPath>
	<line clip-path="url(#SVGID_8_)" fill="#FFFFFF" x1="257.7" y1="30.6" x2="247" y2="35.8"/>
	<line clip-path="url(#SVGID_8_)" fill="#FFFFFF" x1="258" y1="30.7" x2="247.3" y2="35.9"/>
	<line clip-path="url(#SVGID_8_)" fill="#FFFFFF" x1="258.3" y1="30.8" x2="247.6" y2="36"/>
	<line clip-path="url(#SVGID_8_)" fill="#FFFFFF" x1="258.6" y1="30.9" x2="247.9" y2="36.1"/>
	<line clip-path="url(#SVGID_8_)" fill="#FFFFFF" x1="258.9" y1="31.1" x2="248.2" y2="36.2"/>
	<line clip-path="url(#SVGID_8_)" fill="#FFFFFF" x1="259.2" y1="31.2" x2="248.5" y2="36.3"/>
	<line clip-path="url(#SVGID_8_)" fill="#FFFFFF" x1="259.6" y1="31.3" x2="248.9" y2="36.5"/>
	<line clip-path="url(#SVGID_8_)" fill="#FFFFFF" x1="259.9" y1="31.4" x2="249.2" y2="36.6"/>
	<line clip-path="url(#SVGID_8_)" fill="#FFFFFF" x1="260.2" y1="31.5" x2="249.5" y2="36.7"/>
	<line clip-path="url(#SVGID_8_)" fill="#FFFFFF" x1="260.5" y1="31.6" x2="249.8" y2="36.8"/>
	<line clip-path="url(#SVGID_8_)" fill="#FFFFFF" x1="260.8" y1="31.7" x2="250.1" y2="36.9"/>
	<line clip-path="url(#SVGID_8_)" fill="#FFFFFF" x1="261.1" y1="31.8" x2="250.4" y2="37"/>
	<line clip-path="url(#SVGID_8_)" fill="#FFFFFF" x1="261.4" y1="31.9" x2="250.8" y2="37.1"/>
	<line clip-path="url(#SVGID_8_)" fill="#FFFFFF" x1="261.8" y1="32" x2="251.1" y2="37.2"/>
	<line clip-path="url(#SVGID_8_)" fill="#FFFFFF" x1="262.1" y1="32.1" x2="251.4" y2="37.3"/>
	<line clip-path="url(#SVGID_8_)" fill="#FFFFFF" x1="262.4" y1="32.3" x2="251.7" y2="37.4"/>
	<line clip-path="url(#SVGID_8_)" fill="#FFFFFF" x1="262.7" y1="32.4" x2="252" y2="37.5"/>
	<line clip-path="url(#SVGID_8_)" fill="#FFFFFF" x1="263" y1="32.5" x2="252.3" y2="37.7"/>
	<line clip-path="url(#SVGID_8_)" fill="#FFFFFF" x1="263.3" y1="32.6" x2="252.7" y2="37.8"/>
	<line clip-path="url(#SVGID_8_)" fill="#FFFFFF" x1="263.7" y1="32.7" x2="253" y2="37.9"/>
	<line clip-path="url(#SVGID_8_)" fill="#FFFFFF" x1="264" y1="32.8" x2="253.3" y2="38"/>
	<line clip-path="url(#SVGID_8_)" fill="#FFFFFF" x1="264.3" y1="32.9" x2="253.6" y2="38.1"/>
	<line clip-path="url(#SVGID_8_)" fill="#FFFFFF" x1="264.6" y1="33" x2="253.9" y2="38.2"/>
	<line clip-path="url(#SVGID_8_)" fill="#FFFFFF" x1="264.9" y1="33.1" x2="254.2" y2="38.3"/>
	<line clip-path="url(#SVGID_8_)" fill="#FFFFFF" x1="265.2" y1="33.2" x2="254.5" y2="38.4"/>
	<line clip-path="url(#SVGID_8_)" fill="#FFFFFF" x1="265.6" y1="33.3" x2="254.9" y2="38.5"/>
	<line clip-path="url(#SVGID_8_)" fill="#FFFFFF" x1="265.9" y1="33.5" x2="255.2" y2="38.6"/>
	<line clip-path="url(#SVGID_8_)" fill="#FFFFFF" x1="266.2" y1="33.6" x2="255.5" y2="38.8"/>
	<line clip-path="url(#SVGID_8_)" fill="#FFFFFF" x1="266.5" y1="33.7" x2="255.8" y2="38.9"/>
	<line clip-path="url(#SVGID_8_)" fill="#FFFFFF" x1="266.8" y1="33.8" x2="256.1" y2="39"/>
	<line clip-path="url(#SVGID_8_)" fill="#FFFFFF" x1="267.1" y1="33.9" x2="256.4" y2="39.1"/>
	<line clip-path="url(#SVGID_8_)" fill="#FFFFFF" x1="267.4" y1="34" x2="256.8" y2="39.2"/>
	<line clip-path="url(#SVGID_8_)" fill="#FFFFFF" x1="267.8" y1="34.1" x2="257.1" y2="39.3"/>
	<line clip-path="url(#SVGID_8_)" fill="#FFFFFF" x1="268.1" y1="34.2" x2="257.4" y2="39.4"/>
	<line clip-path="url(#SVGID_8_)" fill="#FFFFFF" x1="268.4" y1="34.3" x2="257.7" y2="39.5"/>
	<line clip-path="url(#SVGID_8_)" fill="#FFFFFF" x1="268.7" y1="34.4" x2="258" y2="39.6"/>
	<line clip-path="url(#SVGID_8_)" fill="#FFFFFF" x1="269" y1="34.6" x2="258.3" y2="39.7"/>
	<line clip-path="url(#SVGID_8_)" fill="#FFFFFF" x1="269.3" y1="34.7" x2="258.6" y2="39.9"/>
	<line clip-path="url(#SVGID_8_)" fill="#FFFFFF" x1="269.7" y1="34.8" x2="259" y2="40"/>
	<line clip-path="url(#SVGID_8_)" fill="#FFFFFF" x1="270" y1="34.9" x2="259.3" y2="40.1"/>
	<line clip-path="url(#SVGID_8_)" fill="#FFFFFF" x1="270.3" y1="35" x2="259.6" y2="40.2"/>
	<line clip-path="url(#SVGID_8_)" fill="#FFFFFF" x1="270.6" y1="35.1" x2="259.9" y2="40.3"/>
	<line clip-path="url(#SVGID_8_)" fill="#FFFFFF" x1="270.9" y1="35.2" x2="260.2" y2="40.4"/>
	<line clip-path="url(#SVGID_8_)" fill="#FFFFFF" x1="271.2" y1="35.3" x2="260.5" y2="40.5"/>
	<line clip-path="url(#SVGID_8_)" fill="#FFFFFF" x1="271.5" y1="35.4" x2="260.9" y2="40.6"/>
	<line clip-path="url(#SVGID_8_)" fill="#FFFFFF" x1="271.9" y1="35.5" x2="261.2" y2="40.7"/>
	<line clip-path="url(#SVGID_8_)" fill="#FFFFFF" x1="272.2" y1="35.6" x2="261.5" y2="40.8"/>
</g>
<g>
	<defs>
		<path id="SVGID_9_" d="M225.4,120.8l8.9,26.1c-3.4-0.3-12.6-1.5-12.6-1.5l-10.3,0.9c0,0,29.2,23.3,37.6,28.5
			c8.4,5.2,18.2-14.2,18.2-14.2s24.5-7.1,27.7-13.9c3.3-6.8,3.1-25.5,3.1-25.5l-44.7-15.1L225.4,120.8z"/>
	</defs>
	<clipPath id="SVGID_10_">
		<use xlink:href="#SVGID_9_"  overflow="visible"/>
	</clipPath>
	<path clip-path="url(#SVGID_10_)" fill="none" stroke="#353535" stroke-width="0.904" d="M242,148.6c-8.2,0-15.2-3.1-18.7-5.3
		l-1,0.7c12.5,12.4,24.6,11.2,28.4,13.4c3.9,2.2,1.2,6.1-0.4,6.3c-0.4,0.1-1.2-0.4-1.6-1.5c-1.2-3.7-4.7-2.9-5.8-2.6
		c-0.6,0.9,1.5,8.4,7.7,8.9c5.8,0.4,8.1-5.9,7.1-9.7c0,0,1.5,0.7,3,0.4c0.2-1,0.3-4.8-3.4-6.5c3.1,0.8,8.9-2.4,9.5-2.9
		c1.8-1.4,3.7-1.2,5.5,1c0.6-0.9,3.3-4.8-0.7-7c1-0.7,2.2-1.1,3.5-1.3c7.9-1,9.7,5.7,10.2,6.7c0.1,0.2,0.7,0.6,1-0.2
		c3.1-7.9-2.2-12.2-5.5-13c-5-1.3-9.7-0.9-9.4-1.5c0.3-0.6,1.2-1.6-0.5-2.1c-4.7-0.7-7.9,4.6-8.4,4.3c-0.5-0.3,0.7-1.1-0.2-4.2
		c-1.1-3.9-4.7-6.9-7.4-7.9c-1.2-0.5-5.7-1.7-8.9,1c-3.2,2.7-2.1,9-0.3,9.5c1.5,0.3,5.6-5,6.8-6.6c6,2.6,1.8,13,1.5,12.5
		c-1.6-2.3-6.1-2.7-5.9-1C251.6,148.2,242.7,148.6,242,148.6z"/>
	<path clip-path="url(#SVGID_10_)" fill="none" stroke="#FFFFFF" stroke-width="1.196" d="M242,148.6c-8.2,0-15.2-3.1-18.7-5.3
		l-1,0.7c12.5,12.4,24.6,11.2,28.4,13.4c3.9,2.2,1.2,6.1-0.4,6.3c-0.4,0.1-1.2-0.4-1.6-1.5c-1.2-3.7-4.7-2.9-5.8-2.6
		c-0.6,0.9,1.5,8.4,7.7,8.9c5.8,0.4,8.1-5.9,7.1-9.7c0,0,1.5,0.7,3,0.4c0.2-1,0.3-4.8-3.4-6.5c3.1,0.8,8.9-2.4,9.5-2.9
		c1.8-1.4,3.7-1.2,5.5,1c0.6-0.9,3.3-4.8-0.7-7c1-0.7,2.2-1.1,3.5-1.3c7.9-1,9.7,5.7,10.2,6.7c0.1,0.2,0.7,0.6,1-0.2
		c3.1-7.9-2.2-12.2-5.5-13c-5-1.3-9.7-0.9-9.4-1.5c0.3-0.6,1.2-1.6-0.5-2.1c-4.7-0.7-7.9,4.6-8.4,4.3c-0.5-0.3,0.7-1.1-0.2-4.2
		c-1.1-3.9-4.7-6.9-7.4-7.9c-1.2-0.5-5.7-1.7-8.9,1c-3.2,2.7-2.1,9-0.3,9.5c1.5,0.3,5.6-5,6.8-6.6c6,2.6,1.8,13,1.5,12.5
		c-1.6-2.3-6.1-2.7-5.9-1C251.6,148.2,242.7,148.6,242,148.6z"/>
	<path clip-path="url(#SVGID_10_)" fill="#353535" d="M242,148.6c-8.2,0-15.2-3.1-18.7-5.3l-1,0.7c12.5,12.4,24.6,11.2,28.4,13.4
		c3.9,2.2,1.2,6.1-0.4,6.3c-0.4,0.1-1.2-0.4-1.6-1.5c-1.2-3.7-4.7-2.9-5.8-2.6c-0.6,0.9,1.5,8.4,7.7,8.9c5.8,0.4,8.1-5.9,7.1-9.7
		c0,0,1.5,0.7,3,0.4c0.2-1,0.3-4.8-3.4-6.5c3.1,0.8,8.9-2.4,9.5-2.9c1.8-1.4,3.7-1.2,5.5,1c0.6-0.9,3.3-4.8-0.7-7
		c1-0.7,2.2-1.1,3.5-1.3c7.9-1,9.7,5.7,10.2,6.7c0.1,0.2,0.7,0.6,1-0.2c3.1-7.9-2.2-12.2-5.5-13c-5-1.3-9.7-0.9-9.4-1.5
		c0.3-0.6,1.2-1.6-0.5-2.1c-4.7-0.7-7.9,4.6-8.4,4.3c-0.5-0.3,0.7-1.1-0.2-4.2c-1.1-3.9-4.7-6.9-7.4-7.9c-1.2-0.5-5.7-1.7-8.9,1
		c-3.2,2.7-2.1,9-0.3,9.5c1.5,0.3,5.6-5,6.8-6.6c6,2.6,1.8,13,1.5,12.5c-1.6-2.3-6.1-2.7-5.9-1C251.6,148.2,242.7,148.6,242,148.6"
		/>
	<path clip-path="url(#SVGID_10_)" fill="#FFFFFF" d="M250.2,126.7c2.8,0.3,4.3,1.6,4.9,2.1c0,0,0,0,0,0c5,4.6-0.7,14.7-0.8,14.7
		c-0.2,0-0.3-1-1.6-2c-1.2-0.9-2.6-1.2-2.8-0.6c0.9,2.4,0.8,4.4-0.4,5.8c-4.5,5-14.1,3.1-22.2,0.2c-0.1,0,1.4,1.5,2.6,2.1
		c0.9,0.5,3,1.9,10.6,2.2c2.3,0.1,4.7-0.1,6.9-0.9c-2.1,1-4.5,1.5-6.9,1.5c-5.3,0-8-1.1-8.1-1.1c0.4,0.3,1.4,0.9,2.7,1.4
		c0.6,0.2,8.8,3.7,16.6-2.8c2.2-1.8,4.1-4.1,5.4-6.8c1.3-2.6,2.1-5.5,2.3-8.5l0.1,0c-0.1,3-0.7,5.9-1.9,8.7c-1.2,2.8-3,5.3-5.3,7.3
		c-2.3,1.9-5.1,3.6-8.2,3.9c-0.4,0-0.9,0.1-1.3,0c0.5,0.1,1,0.2,1.5,0.2c0.8,0.1,1.6,0.1,2.4,0.1c1.6-0.1,3.2-0.4,4.8-0.9
		c-1.5,0.7-3.1,1.2-4.7,1.5c-0.6,0.1-1.1,0.1-1.7,0.2c0.6,0.1,1.1,0.2,1.7,0.3c1.6,0.2,3.2,0.4,4.6,1.3c0.4,0.2,0.8,0.5,1.1,0.8
		c1.3,1.2,1.8,2.8,1.3,4.4c-0.5,1.6-1.9,3-3.2,3.2c-0.5,0.1-1-0.1-1.5-0.4c0.1,0.4,0.3,0.9,0.6,1.5c0.6,0.9,1.5,1.3,2.1,1.4
		c2.1,0.2,3.5-1.9,3.6-2c1.3-1.7,1.9-4.3,1.3-6.3l-0.6-2.2l2.1,0.9c0,0,0.7,0.3,1.5,0.3c0-1-0.3-2.5-1.6-3.6c-0.4-0.3-1.2-0.9-1.5-1
		c-0.7-0.4-1.4-1.3-1.1-1.7c0.4-0.5,1.7-0.2,2.1-0.1c2.1,0.5,7.7-2.1,8.5-2.7c2-1.5,4.1-1.5,6,0.1c0.8-1.6,0.7-2.8-0.2-3.6
		c-0.2-0.2-0.5-0.4-0.8-0.5l-1.6-1c0,0,6.4-5,11.6-1.8c3.3,2,4.7,5.8,4.7,5.8c0,0,1.6-5.6-2.2-9.3c-1.2-1.2-3-1.6-4.3-1.8
		c-2.5-0.5-7.1-0.1-8.4-1.1c-0.5-0.4-0.6-1-0.3-1.6c0.1-0.1,0.1-0.2,0.2-0.4c0,0,0.1-0.1,0.1-0.2c-3.9-0.5-6.8,3.7-7.5,4.3
		c-0.3,0.2-0.6,0.3-0.9,0.2c0,0.1,0,0.1-0.1,0.2c-0.3,0.8-0.6,1.6-1,2.4c-0.7,1.5-1.7,2.9-2.8,4.1c1-1.3,1.8-2.8,2.3-4.3
		c0.3-0.8,0.5-1.5,0.6-2.3c0.1-0.4,0.1-0.7,0.2-1.1c0,0,0,0,0,0c0-0.3,0.1-0.6,0.1-0.9c0-0.1,0-0.2,0-0.3l0,0c0-0.7,0-1.5-0.3-2.9
		c-0.9-4.4-5.5-6.7-6.8-7.1c-0.9-0.2-4.3-1.3-7,0.5c0,0,0,0,0,0C247,127,249.2,126.6,250.2,126.7 M260.9,146.3
		c1.5-1.2,2.9-2.6,4.4-3.9c0.7-0.7,1.5-1.4,2.3-2c0.8-0.6,1.8-1.1,2.8-1.4c2-0.6,4.1-0.7,6-0.3c-2-0.1-4,0.3-5.7,1.1
		c-0.9,0.4-1.7,0.9-2.4,1.5c-0.7,0.6-1.4,1.3-2.2,2c-1.4,1.4-2.9,2.8-4.6,3.9c-1.7,1.1-3.7,1.9-5.6,2.1
		C257.6,148.4,259.3,147.5,260.9,146.3"/>
	<path clip-path="url(#SVGID_10_)" fill="#FFFFFF" d="M245.3,129.7c-0.8,3,0.7,4.4,0.7,4.4c0.6,0.8,4.5-4.6,5.1-5.9
		c-1.9-0.7-5-0.4-5.1-0.3C245.9,128,245.8,128.1,245.3,129.7"/>
</g>
<g>
	<defs>
		<path id="SVGID_11_" d="M246.1,127.9c-0.2,0.1-0.3,0.2-0.8,1.8c-0.8,3,0.7,4.4,0.7,4.4c0.6,0.8,4.5-4.6,5.1-5.9
			c-1-0.3-2.2-0.4-3.3-0.4C246.9,127.8,246.2,127.9,246.1,127.9"/>
	</defs>
	<clipPath id="SVGID_12_">
		<use xlink:href="#SVGID_11_"  overflow="visible"/>
	</clipPath>
	<line clip-path="url(#SVGID_12_)" fill="#FFFFFF" x1="250" y1="136.1" x2="260.7" y2="130.9"/>
	<line clip-path="url(#SVGID_12_)" fill="#FFFFFF" x1="249.7" y1="136" x2="260.4" y2="130.8"/>
	<line clip-path="url(#SVGID_12_)" fill="#FFFFFF" x1="249.4" y1="135.9" x2="260.1" y2="130.7"/>
	<line clip-path="url(#SVGID_12_)" fill="#FFFFFF" x1="249.1" y1="135.8" x2="259.8" y2="130.6"/>
	<line clip-path="url(#SVGID_12_)" fill="#FFFFFF" x1="248.8" y1="135.7" x2="259.4" y2="130.5"/>
	<line clip-path="url(#SVGID_12_)" fill="#FFFFFF" x1="248.4" y1="135.6" x2="259.1" y2="130.4"/>
	<line clip-path="url(#SVGID_12_)" fill="#FFFFFF" x1="248.1" y1="135.5" x2="258.8" y2="130.3"/>
	<line clip-path="url(#SVGID_12_)" fill="#FFFFFF" x1="247.8" y1="135.4" x2="258.5" y2="130.2"/>
	<line clip-path="url(#SVGID_12_)" fill="#FFFFFF" x1="247.5" y1="135.3" x2="258.2" y2="130.1"/>
	<line clip-path="url(#SVGID_12_)" fill="#FFFFFF" x1="247.2" y1="135.1" x2="257.9" y2="130"/>
	<line clip-path="url(#SVGID_12_)" fill="#FFFFFF" x1="246.9" y1="135" x2="257.5" y2="129.8"/>
	<line clip-path="url(#SVGID_12_)" fill="#FFFFFF" x1="246.5" y1="134.9" x2="257.2" y2="129.7"/>
	<line clip-path="url(#SVGID_12_)" fill="#FFFFFF" x1="246.2" y1="134.8" x2="256.9" y2="129.6"/>
	<line clip-path="url(#SVGID_12_)" fill="#FFFFFF" x1="245.9" y1="134.7" x2="256.6" y2="129.5"/>
	<line clip-path="url(#SVGID_12_)" fill="#FFFFFF" x1="245.6" y1="134.6" x2="256.3" y2="129.4"/>
	<line clip-path="url(#SVGID_12_)" fill="#FFFFFF" x1="245.3" y1="134.5" x2="256" y2="129.3"/>
	<line clip-path="url(#SVGID_12_)" fill="#FFFFFF" x1="245" y1="134.4" x2="255.7" y2="129.2"/>
	<line clip-path="url(#SVGID_12_)" fill="#FFFFFF" x1="244.7" y1="134.3" x2="255.3" y2="129.1"/>
	<line clip-path="url(#SVGID_12_)" fill="#FFFFFF" x1="244.3" y1="134.2" x2="255" y2="129"/>
	<line clip-path="url(#SVGID_12_)" fill="#FFFFFF" x1="244" y1="134" x2="254.7" y2="128.9"/>
	<line clip-path="url(#SVGID_12_)" fill="#FFFFFF" x1="243.7" y1="133.9" x2="254.4" y2="128.8"/>
	<line clip-path="url(#SVGID_12_)" fill="#FFFFFF" x1="243.4" y1="133.8" x2="254.1" y2="128.6"/>
	<line clip-path="url(#SVGID_12_)" fill="#FFFFFF" x1="243.1" y1="133.7" x2="253.8" y2="128.5"/>
	<line clip-path="url(#SVGID_12_)" fill="#FFFFFF" x1="242.8" y1="133.6" x2="253.4" y2="128.4"/>
	<line clip-path="url(#SVGID_12_)" fill="#FFFFFF" x1="242.4" y1="133.5" x2="253.1" y2="128.3"/>
	<line clip-path="url(#SVGID_12_)" fill="#FFFFFF" x1="242.1" y1="133.4" x2="252.8" y2="128.2"/>
	<line clip-path="url(#SVGID_12_)" fill="#FFFFFF" x1="241.8" y1="133.3" x2="252.5" y2="128.1"/>
	<line clip-path="url(#SVGID_12_)" fill="#FFFFFF" x1="241.5" y1="133.2" x2="252.2" y2="128"/>
	<line clip-path="url(#SVGID_12_)" fill="#FFFFFF" x1="241.2" y1="133.1" x2="251.9" y2="127.9"/>
	<line clip-path="url(#SVGID_12_)" fill="#FFFFFF" x1="240.9" y1="132.9" x2="251.6" y2="127.8"/>
	<line clip-path="url(#SVGID_12_)" fill="#FFFFFF" x1="240.5" y1="132.8" x2="251.2" y2="127.7"/>
	<line clip-path="url(#SVGID_12_)" fill="#FFFFFF" x1="240.2" y1="132.7" x2="250.9" y2="127.5"/>
	<line clip-path="url(#SVGID_12_)" fill="#FFFFFF" x1="239.9" y1="132.6" x2="250.6" y2="127.4"/>
	<line clip-path="url(#SVGID_12_)" fill="#FFFFFF" x1="239.6" y1="132.5" x2="250.3" y2="127.3"/>
	<line clip-path="url(#SVGID_12_)" fill="#FFFFFF" x1="239.3" y1="132.4" x2="250" y2="127.2"/>
	<line clip-path="url(#SVGID_12_)" fill="#FFFFFF" x1="239" y1="132.3" x2="249.7" y2="127.1"/>
	<line clip-path="url(#SVGID_12_)" fill="#FFFFFF" x1="238.7" y1="132.2" x2="249.3" y2="127"/>
	<line clip-path="url(#SVGID_12_)" fill="#FFFFFF" x1="238.3" y1="132.1" x2="249" y2="126.9"/>
	<line clip-path="url(#SVGID_12_)" fill="#FFFFFF" x1="238" y1="132" x2="248.7" y2="126.8"/>
	<line clip-path="url(#SVGID_12_)" fill="#FFFFFF" x1="237.7" y1="131.9" x2="248.4" y2="126.7"/>
	<line clip-path="url(#SVGID_12_)" fill="#FFFFFF" x1="237.4" y1="131.7" x2="248.1" y2="126.6"/>
	<line clip-path="url(#SVGID_12_)" fill="#FFFFFF" x1="237.1" y1="131.6" x2="247.8" y2="126.5"/>
	<line clip-path="url(#SVGID_12_)" fill="#FFFFFF" x1="236.8" y1="131.5" x2="247.5" y2="126.3"/>
	<line clip-path="url(#SVGID_12_)" fill="#FFFFFF" x1="236.4" y1="131.4" x2="247.1" y2="126.2"/>
	<line clip-path="url(#SVGID_12_)" fill="#FFFFFF" x1="236.1" y1="131.3" x2="246.8" y2="126.1"/>
	<line clip-path="url(#SVGID_12_)" fill="#FFFFFF" x1="235.8" y1="131.2" x2="246.5" y2="126"/>
	<line clip-path="url(#SVGID_12_)" fill="#FFFFFF" x1="235.5" y1="131.1" x2="246.2" y2="125.9"/>
</g>
<g>
	<defs>
		<path id="SVGID_13_" d="M225.4,120.8l8.9,26.1c-3.4-0.3-12.6-1.5-12.6-1.5l-10.3,0.9c0,0,29.2,23.3,37.6,28.5
			c8.4,5.2,18.2-14.2,18.2-14.2s24.5-7.1,27.7-13.9c3.3-6.8,3.1-25.5,3.1-25.5l-44.7-15.1L225.4,120.8z"/>
	</defs>
	<clipPath id="SVGID_14_">
		<use xlink:href="#SVGID_13_"  overflow="visible"/>
	</clipPath>
	<path clip-path="url(#SVGID_14_)" fill="#FFFFFF" d="M246.5,161.1c0.4,0.3,0.7,0.8,0.9,1.5c0,0.1,0.1,0.2,0.1,0.3
		c0.4,1.3-0.1,1.3,0.8,2.9c0.4,0.7,1.1,1.2,1.7,1.6c-1.3-0.2-2.4-0.7-3.4-1.6c-1.9-1.7-2.7-4.1-2.9-5.2
		C244.6,160.4,245.7,160.4,246.5,161.1"/>
</g>
<g>
	<defs>
		<path id="SVGID_15_" d="M243.7,160.5c0.2,1.1,1,3.5,2.9,5.2c1,0.9,2.2,1.4,3.4,1.6c-0.7-0.4-1.4-0.9-1.7-1.6
			c-0.9-1.6-0.4-1.7-0.8-2.9c0-0.1-0.1-0.2-0.1-0.3c-0.2-0.6-0.5-1.1-0.9-1.5c-0.5-0.5-1.2-0.6-1.9-0.6
			C244.3,160.5,244,160.5,243.7,160.5"/>
	</defs>
	<clipPath id="SVGID_16_">
		<use xlink:href="#SVGID_15_"  overflow="visible"/>
	</clipPath>
	<line clip-path="url(#SVGID_16_)" fill="#FFFFFF" x1="248.4" y1="169.4" x2="259.1" y2="164.2"/>
	<line clip-path="url(#SVGID_16_)" fill="#FFFFFF" x1="248.1" y1="169.3" x2="258.8" y2="164.1"/>
	<line clip-path="url(#SVGID_16_)" fill="#FFFFFF" x1="247.8" y1="169.2" x2="258.4" y2="164"/>
	<line clip-path="url(#SVGID_16_)" fill="#FFFFFF" x1="247.4" y1="169.1" x2="258.1" y2="163.9"/>
	<line clip-path="url(#SVGID_16_)" fill="#FFFFFF" x1="247.1" y1="169" x2="257.8" y2="163.8"/>
	<line clip-path="url(#SVGID_16_)" fill="#FFFFFF" x1="246.8" y1="168.8" x2="257.5" y2="163.7"/>
	<line clip-path="url(#SVGID_16_)" fill="#FFFFFF" x1="246.5" y1="168.7" x2="257.2" y2="163.6"/>
	<line clip-path="url(#SVGID_16_)" fill="#FFFFFF" x1="246.2" y1="168.6" x2="256.9" y2="163.4"/>
	<line clip-path="url(#SVGID_16_)" fill="#FFFFFF" x1="245.9" y1="168.5" x2="256.6" y2="163.3"/>
	<line clip-path="url(#SVGID_16_)" fill="#FFFFFF" x1="245.6" y1="168.4" x2="256.2" y2="163.2"/>
	<line clip-path="url(#SVGID_16_)" fill="#FFFFFF" x1="245.2" y1="168.3" x2="255.9" y2="163.1"/>
	<line clip-path="url(#SVGID_16_)" fill="#FFFFFF" x1="244.9" y1="168.2" x2="255.6" y2="163"/>
	<line clip-path="url(#SVGID_16_)" fill="#FFFFFF" x1="244.6" y1="168.1" x2="255.3" y2="162.9"/>
	<line clip-path="url(#SVGID_16_)" fill="#FFFFFF" x1="244.3" y1="168" x2="255" y2="162.8"/>
	<line clip-path="url(#SVGID_16_)" fill="#FFFFFF" x1="244" y1="167.9" x2="254.7" y2="162.7"/>
	<line clip-path="url(#SVGID_16_)" fill="#FFFFFF" x1="243.7" y1="167.8" x2="254.3" y2="162.6"/>
	<line clip-path="url(#SVGID_16_)" fill="#FFFFFF" x1="243.3" y1="167.6" x2="254" y2="162.4"/>
	<line clip-path="url(#SVGID_16_)" fill="#FFFFFF" x1="243" y1="167.5" x2="253.7" y2="162.3"/>
	<line clip-path="url(#SVGID_16_)" fill="#FFFFFF" x1="242.7" y1="167.4" x2="253.4" y2="162.2"/>
	<line clip-path="url(#SVGID_16_)" fill="#FFFFFF" x1="242.4" y1="167.3" x2="253.1" y2="162.1"/>
	<line clip-path="url(#SVGID_16_)" fill="#FFFFFF" x1="242.1" y1="167.2" x2="252.8" y2="162"/>
	<line clip-path="url(#SVGID_16_)" fill="#FFFFFF" x1="241.8" y1="167.1" x2="252.5" y2="161.9"/>
	<line clip-path="url(#SVGID_16_)" fill="#FFFFFF" x1="241.4" y1="167" x2="252.1" y2="161.8"/>
	<line clip-path="url(#SVGID_16_)" fill="#FFFFFF" x1="241.1" y1="166.9" x2="251.8" y2="161.7"/>
	<line clip-path="url(#SVGID_16_)" fill="#FFFFFF" x1="240.8" y1="166.8" x2="251.5" y2="161.6"/>
	<line clip-path="url(#SVGID_16_)" fill="#FFFFFF" x1="240.5" y1="166.7" x2="251.2" y2="161.5"/>
	<line clip-path="url(#SVGID_16_)" fill="#FFFFFF" x1="240.2" y1="166.5" x2="250.9" y2="161.4"/>
	<line clip-path="url(#SVGID_16_)" fill="#FFFFFF" x1="239.9" y1="166.4" x2="250.6" y2="161.2"/>
	<line clip-path="url(#SVGID_16_)" fill="#FFFFFF" x1="239.6" y1="166.3" x2="250.2" y2="161.1"/>
	<line clip-path="url(#SVGID_16_)" fill="#FFFFFF" x1="239.2" y1="166.2" x2="249.9" y2="161"/>
	<line clip-path="url(#SVGID_16_)" fill="#FFFFFF" x1="238.9" y1="166.1" x2="249.6" y2="160.9"/>
	<line clip-path="url(#SVGID_16_)" fill="#FFFFFF" x1="238.6" y1="166" x2="249.3" y2="160.8"/>
	<line clip-path="url(#SVGID_16_)" fill="#FFFFFF" x1="238.3" y1="165.9" x2="249" y2="160.7"/>
	<line clip-path="url(#SVGID_16_)" fill="#FFFFFF" x1="238" y1="165.8" x2="248.7" y2="160.6"/>
	<line clip-path="url(#SVGID_16_)" fill="#FFFFFF" x1="237.7" y1="165.7" x2="248.4" y2="160.5"/>
	<line clip-path="url(#SVGID_16_)" fill="#FFFFFF" x1="237.3" y1="165.6" x2="248" y2="160.4"/>
	<line clip-path="url(#SVGID_16_)" fill="#FFFFFF" x1="237" y1="165.4" x2="247.7" y2="160.3"/>
	<line clip-path="url(#SVGID_16_)" fill="#FFFFFF" x1="236.7" y1="165.3" x2="247.4" y2="160.2"/>
	<line clip-path="url(#SVGID_16_)" fill="#FFFFFF" x1="236.4" y1="165.2" x2="247.1" y2="160"/>
	<line clip-path="url(#SVGID_16_)" fill="#FFFFFF" x1="236.1" y1="165.1" x2="246.8" y2="159.9"/>
	<line clip-path="url(#SVGID_16_)" fill="#FFFFFF" x1="235.8" y1="165" x2="246.5" y2="159.8"/>
	<line clip-path="url(#SVGID_16_)" fill="#FFFFFF" x1="235.4" y1="164.9" x2="246.1" y2="159.7"/>
	<line clip-path="url(#SVGID_16_)" fill="#FFFFFF" x1="235.1" y1="164.8" x2="245.8" y2="159.6"/>
	<line clip-path="url(#SVGID_16_)" fill="#FFFFFF" x1="234.8" y1="164.7" x2="245.5" y2="159.5"/>
	<line clip-path="url(#SVGID_16_)" fill="#FFFFFF" x1="234.5" y1="164.6" x2="245.2" y2="159.4"/>
	<line clip-path="url(#SVGID_16_)" fill="#FFFFFF" x1="234.2" y1="164.5" x2="244.9" y2="159.3"/>
	<line clip-path="url(#SVGID_16_)" fill="#FFFFFF" x1="233.9" y1="164.4" x2="244.6" y2="159.2"/>
</g>
</svg>
