<?xml version="1.0" encoding="utf-8"?>
<!-- Generator: Adobe Illustrator 18.0.0, SVG Export Plug-In . SVG Version: 6.00 Build 0)  -->
<!DOCTYPE svg PUBLIC "-//W3C//DTD SVG 1.1//EN" "http://www.w3.org/Graphics/SVG/1.1/DTD/svg11.dtd">
<svg version="1.1" id="Layer_1" xmlns="http://www.w3.org/2000/svg" xmlns:xlink="http://www.w3.org/1999/xlink" x="0px" y="0px"
	 viewBox="0 0 500 200" enable-background="new 0 0 500 200" xml:space="preserve">
<path fill="#353535" d="M50,73h12.3v43.7h21.3V127H50V73z"/>
<path fill="#353535" d="M94.9,107.8L78.7,73h13l4.9,12.4c1.4,4.1,2.8,7.8,4.4,11.9h0.3c1.5-4.1,3.1-7.9,4.6-11.9l4.8-12.4h12.8
	l-16.3,34.8V127H94.9V107.8z"/>
<path fill="#353535" d="M129,73h12.5l14.1,26.8l5.4,11.9h0.3c-0.6-5.7-1.6-13.3-1.6-19.7V73h11.6v54h-12.5l-14.1-26.9l-5.3-11.8
	h-0.3c0.6,6,1.6,13.2,1.6,19.5V127H129V73z"/>
<path fill="#353535" d="M184,73h12.5l14.1,26.8l5.4,11.9h0.3c-0.6-5.7-1.6-13.3-1.6-19.7V73h11.6v54h-12.5l-14.1-26.9l-5.3-11.8
	h-0.3c0.6,6,1.6,13.2,1.6,19.5V127H184V73z"/>
<path fill="#353535" d="M256.3,73h12.3v43.7h21.3V127h-33.5L256.3,73L256.3,73z"/>
<path fill="#353535" d="M295.7,73h12.2v30.2c0,10.6,3.3,14.2,9.4,14.2c6,0,9.6-3.6,9.6-14.2V73h11.8v29c0,18.1-7.4,26-21.4,26
	s-21.5-7.9-21.5-26V73H295.7z"/>
<path fill="#353535" d="M374.9,72c7.6,0,13.2,3.4,16.8,7l-6.7,7.5c-2.7-2.5-5.3-4.1-9.9-4.1c-8.3,0-14.2,6.5-14.2,17.4
	c0,11.1,5.1,17.6,15.2,17.6c2.2,0,4.4-0.6,5.7-1.7v-9.3h-8.9v-9.9h19.8v24.9c-3.9,3.4-10.6,6.5-18.1,6.5c-14.6,0-26.2-9.5-26.2-27.7
	C348.3,82.4,360.2,72,374.9,72z"/>
<path fill="#353535" d="M401,99.8c0-17.6,10-27.7,24.5-27.7c14.6,0,24.5,10.2,24.5,27.7c0,17.6-9.9,28.2-24.5,28.2
	C411,128,401,117.4,401,99.8z M437.5,99.8c0-10.8-4.6-17.2-12-17.2c-7.3,0-12,6.5-12,17.2c0,10.9,4.7,17.7,12,17.7
	C432.9,117.5,437.5,110.6,437.5,99.8z"/>
</svg>
