<?xml version="1.0" encoding="utf-8"?>
<!-- Generator: Adobe Illustrator 18.0.0, SVG Export Plug-In . SVG Version: 6.00 Build 0)  -->
<!DOCTYPE svg PUBLIC "-//W3C//DTD SVG 1.1//EN" "http://www.w3.org/Graphics/SVG/1.1/DTD/svg11.dtd">
<svg version="1.1" id="Layer_1" xmlns="http://www.w3.org/2000/svg" xmlns:xlink="http://www.w3.org/1999/xlink" x="0px" y="0px"
	 viewBox="0 0 500 200" enable-background="new 0 0 500 200" xml:space="preserve">
<g>
	<path fill="#353535" d="M75.4,116.9l-9-16.9h-5.8v16.9H50V70h16.9C76.8,70,85,73.5,85,84.6c0,6.9-3.4,11.3-8.3,13.5l10.6,18.8H75.4
		z M60.6,91.6H66c5.5,0,8.6-2.4,8.6-7c0-4.6-3-6.2-8.6-6.2h-5.4V91.6z"/>
	<path fill="#353535" d="M92,93.2c0-15.3,8.7-24.1,21.3-24.1c12.7,0,21.3,8.8,21.3,24.1c0,15.3-8.6,24.5-21.3,24.5
		C100.7,117.8,92,108.6,92,93.2z M123.7,93.2c0-9.3-4-15-10.4-15c-6.3,0-10.4,5.6-10.4,15c0,9.4,4.1,15.4,10.4,15.4
		C119.7,108.6,123.7,102.7,123.7,93.2z"/>
	<path fill="#353535" d="M163.5,69.1c5.8,0,10.7,2.9,13.9,6.1l-5.8,6.5c-2.4-2.2-4.6-3.5-7.9-3.5c-6.5,0-11.7,5.7-11.7,15.1
		c0,9.6,4.5,15.2,11.4,15.2c3.9,0,6.6-1.7,8.9-4.2l5.8,6.4c-3.9,4.5-9.1,6.9-14.9,6.9c-12.2,0-22.1-8.3-22.1-24
		C141.1,78.2,151.4,69.1,163.5,69.1z"/>
	<path fill="#353535" d="M185.1,70h10.6v19.2h0.2l14-19.2h11.6l-14.2,18.7l16.8,28.2h-11.7l-11.4-19.8l-5.5,7.2v12.6h-10.6V70z"/>
	<path fill="#353535" d="M229.1,70h10.6v38h18.5v8.9h-29.1V70z"/>
	<path fill="#353535" d="M266.3,70h10.6v46.9h-10.6V70z"/>
	<path fill="#353535" d="M287.8,70h10.9l12.2,23.3l4.7,10.4h0.3c-0.5-5-1.4-11.6-1.4-17.1V70h10.1v46.9h-10.9l-12.2-23.4l-4.6-10.2
		h-0.3c0.5,5.2,1.4,11.4,1.4,17v16.6h-10.1V70z"/>
	<path fill="#353535" d="M333.4,125.2c5.3-1.9,8.1-5.1,8.1-8.8c-0.2,0-0.4,0-0.6,0c-3.4,0-6.4-2.2-6.4-6c0-3.7,2.9-6,6.6-6
		c4.7,0,7.3,3.7,7.3,10c0,7.9-4.5,13.9-12.9,16.4L333.4,125.2z"/>
	<path fill="#353535" d="M392.3,69.1c5.8,0,10.7,2.9,13.9,6.1l-5.8,6.5c-2.4-2.2-4.6-3.5-7.9-3.5c-6.5,0-11.7,5.7-11.7,15.1
		c0,9.6,4.5,15.2,11.4,15.2c3.9,0,6.6-1.7,8.9-4.2l5.8,6.4c-3.9,4.5-9.1,6.9-14.9,6.9c-12.2,0-22.1-8.3-22.1-24
		C369.9,78.2,380.2,69.1,392.3,69.1z"/>
	<path fill="#353535" d="M435.9,105.8h-14.4l-2.9,11.1h-10.8L422.6,70h12.7l14.7,46.9h-11.2L435.9,105.8z M433.7,97.5l-1.2-4.3
		c-1.3-4.7-2.5-10.2-3.8-15.1h-0.3c-1.1,5-2.4,10.4-3.7,15.1l-1.2,4.3H433.7z"/>
</g>
</svg>
