<?xml version="1.0" encoding="utf-8"?>
<!-- Generator: Adobe Illustrator 18.1.1, SVG Export Plug-In . SVG Version: 6.00 Build 0)  -->
<svg version="1.1" id="Layer_1" xmlns="http://www.w3.org/2000/svg" xmlns:xlink="http://www.w3.org/1999/xlink" x="0px" y="0px"
	 viewBox="0 160 1920 960" enable-background="new 0 160 1920 960" xml:space="preserve">
<g>
	<path fill="#6A6A6A" d="M289.5,704.9L255,640h-22.3v64.9H192V524.8h64.9c38,0,69.5,13.4,69.5,56.1c0,26.5-13.1,43.4-31.9,51.8
		l40.7,72.2H289.5L289.5,704.9z M232.7,607.7h20.7c21.1,0,33-9.2,33-26.9c0-17.7-11.5-23.8-33-23.8h-20.7V607.7z"/>
	<path fill="#6A6A6A" d="M353.3,613.9c0-58.8,33.4-92.5,81.8-92.5c48.8,0,81.8,33.8,81.8,92.5s-33,94.1-81.8,94.1
		C386.7,708.4,353.3,673,353.3,613.9z M475,613.9c0-35.7-15.4-57.6-39.9-57.6c-24.2,0-39.9,21.5-39.9,57.6s15.7,59.1,39.9,59.1
		C459.6,673,475,650.4,475,613.9z"/>
	<path fill="#6A6A6A" d="M627.8,521.3c22.3,0,41.1,11.1,53.4,23.4l-22.3,25c-9.2-8.4-17.7-13.4-30.3-13.4c-25,0-44.9,21.9-44.9,58
		c0,36.9,17.3,58.4,43.8,58.4c15,0,25.3-6.5,34.2-16.1l22.3,24.6c-15,17.3-34.9,26.5-57.2,26.5c-46.8,0-84.9-31.9-84.9-92.2
		C541.8,556.3,581.4,521.3,627.8,521.3z"/>
	<path fill="#6A6A6A" d="M710.8,524.8h40.7v73.7h0.8l53.8-73.7h44.5L796,596.6l64.5,108.3h-44.9l-43.8-76l-21.1,27.6v48.4H710V524.8
		H710.8z"/>
	<path fill="#6A6A6A" d="M879.7,524.8h40.7v145.9h71v34.2H879.7V524.8z"/>
	<path fill="#6A6A6A" d="M1022.6,524.8h40.7v180.1h-40.7V524.8z"/>
	<path fill="#6A6A6A" d="M1105.2,524.8h41.9l46.8,89.5l18,39.9h1.2c-1.9-19.2-5.4-44.5-5.4-65.7v-63.7h38.8v180.1h-41.9l-46.8-89.9
		l-17.7-39.2h-1.2c1.9,20,5.4,43.8,5.4,65.3v63.7h-38.8V524.8H1105.2z"/>
	<path fill="#6A6A6A" d="M1280.3,736.8c20.4-7.3,31.1-19.6,31.1-33.8c-0.8,0-1.5,0-2.3,0c-13.1,0-24.6-8.4-24.6-23
		c0-14.2,11.1-23,25.3-23c18,0,28,14.2,28,38.4c0,30.3-17.3,53.4-49.5,63L1280.3,736.8z"/>
	<path fill="#6A6A6A" d="M1506.4,521.3c22.3,0,41.1,11.1,53.4,23.4l-22.3,25c-9.2-8.4-17.7-13.4-30.3-13.4c-25,0-44.9,21.9-44.9,58
		c0,36.9,17.3,58.4,43.8,58.4c15,0,25.3-6.5,34.2-16.1l22.3,24.6c-15,17.3-34.9,26.5-57.2,26.5c-46.8,0-84.9-31.9-84.9-92.2
		C1420.4,556.3,1460,521.3,1506.4,521.3z"/>
	<path fill="#6A6A6A" d="M1673.9,662.3h-55.3l-11.1,42.6H1566l56.8-180.1h48.8l56.4,180.1h-43L1673.9,662.3z M1665.4,630.4
		l-4.6-16.5c-5-18-9.6-39.2-14.6-58h-1.2c-4.2,19.2-9.2,39.9-14.2,58l-4.6,16.5H1665.4z"/>
</g>
</svg>
