<?xml version="1.0" encoding="utf-8"?>
<!-- Generator: Adobe Illustrator 18.1.1, SVG Export Plug-In . SVG Version: 6.00 Build 0)  -->
<svg class="fill-path" version="1.1" id="Layer_1" xmlns="http://www.w3.org/2000/svg" xmlns:xlink="http://www.w3.org/1999/xlink" x="0px" y="0px"
	 viewBox="0 481.9 1920 956.3" enable-background="new 0 481.9 1920 956.3" xml:space="preserve">
<path fill="#6A6A6A" d="M598.8,743.7c-119,0-215.4,96.4-215.4,215.4s96.4,214.3,214.3,214.3c119,0,214.3-96.4,214.3-214.3
	S716.7,743.7,598.8,743.7z M710.2,992.9v78.3h-88.3v-80.6H572v80.6h-88.3v-78.3v-25.3h226.6L710.2,992.9L710.2,992.9z M441.4,948.4
	v-7.7h42.2v-94.1l57.6,57.2l57.2-57.2l55.3,57.2l56.4-57.2v94.1h38.4v7.7H441.4z"/>
<path fill="#6A6A6A" d="M902.6,864.7l-48-121h26.5l23.8,59.9l23.8-59.1h0.8l22.7,59.1l23.8-59.9h26.5l-47.2,119.8h-4.6l-21.5-51.8
	l-22.3,53H902.6L902.6,864.7z"/>
<path fill="#6A6A6A" d="M1077.3,862v-47.2H1042V862h-23.8V743.7h23.8v47.2h35.3v-47.2h23.8V862H1077.3z"/>
<path fill="#6A6A6A" d="M1128.4,862V743.7h23.8V862H1128.4z"/>
<path fill="#6A6A6A" d="M1199.4,862v-94.5h-29.2v-23.8h82.6v23.8h-29.2V862C1224,862,1199.4,862,1199.4,862z"/>
<path fill="#6A6A6A" d="M1270.8,862V743.7h59.1v23.8h-35.7v23.8h30.7v23.8h-30.7v23.8h37.2v23.8C1331.9,862,1270.8,862,1270.8,862z"
	/>
<path fill="#6A6A6A" d="M925.6,1018.3v-47.2h-35.3v47.2h-23.8V900h23.8v47.2h35.3V900h23.8v118.3L925.6,1018.3L925.6,1018.3z"/>
<path fill="#6A6A6A" d="M1016.6,895.4h2.7l49.2,122.9H1042l-4.6-12.7h-39.2l-5.4,12.7h-26.5L1016.6,895.4z M1028.5,983.7l-10.8-30.7
	l-10.8,30.7H1028.5z"/>
<path fill="#6A6A6A" d="M1097.7,1018.3v-94.5h-29.2V900h82.6v23.8h-29.3v94.5H1097.7z"/>
<path fill="#6A6A6A" d="M864.2,1142.7c13.4,10,28,10,33.8,9.2c7.3-0.8,12.7-5.4,11.9-11.9s-5.4-10-11.9-11.9
	c-18-6.5-35.3-16.5-35.3-36.5s13.4-35.3,33.8-36.5c6.5,0,14.6,0,29.2,4.6l-2.7,22.7c-12.7-5.4-20.7-5.4-24.6-4.6
	c-8.1,0.8-11.9,6.5-11.9,13.4c0.8,6.5,6.5,10,13.4,11.9c18,6.5,34.6,17.3,34.6,36.5c0,20-13.4,34.6-35.3,36.5
	c-6.5,0.8-20.7,0-37.2-8.1L864.2,1142.7z"/>
<path fill="#6A6A6A" d="M974.8,1174.6v-94.5h-29.2v-23.8h82.6v23.8H999v94.5H974.8L974.8,1174.6z"/>
<path fill="#6A6A6A" d="M1045.8,1133.5v-77.2h23.8v77.2c0,24.6,38,24.6,38,0v-77.2h23.8v77.2
	C1132.2,1189.9,1045.8,1189.9,1045.8,1133.5z"/>
<path fill="#6A6A6A" d="M1193.7,1174.6h-35.3v-118.3h35.3C1272.8,1056.3,1272.8,1174.6,1193.7,1174.6z M1182.1,1080.1v71h11.9
	c46.5,0,46.5-71,0-71H1182.1z"/>
<path fill="#6A6A6A" d="M1276.6,1174.6v-118.3h23.8v118.3H1276.6z"/>
<path fill="#6A6A6A" d="M1384.1,1054.4c81.8,0,81.8,121.7,0,121.7S1302.3,1054.4,1384.1,1054.4z M1384.1,1078.9
	c-47.2,0-47.2,72.6,0,72.6C1431.7,1151.9,1431.7,1078.9,1384.1,1078.9z"/>
<path fill="#6A6A6A" d="M1466.3,1142.7c13.4,10,28,10,33.8,9.2c7.3-0.8,12.7-5.4,11.9-11.9c-0.8-6.5-5.4-10-11.9-11.9
	c-18-6.5-35.3-16.5-35.3-36.5s13.4-35.3,33.8-36.5c6.5,0,14.6,0,29.2,4.6l-2.7,22.7c-12.7-5.4-20.7-5.4-24.6-4.6
	c-8.1,0.8-11.9,6.5-11.9,13.4c0.8,6.5,6.5,10,13.4,11.9c18,6.5,34.6,17.3,34.6,36.5c0,20-13.4,34.6-35.3,36.5
	c-6.5,0.8-20.7,0-37.2-8.1L1466.3,1142.7z"/>
</svg>
