<?xml version="1.0" encoding="utf-8"?>
<!-- Generator: Adobe Illustrator 18.1.1, SVG Export Plug-In . SVG Version: 6.00 Build 0)  -->
<svg version="1.1" id="Layer_1" xmlns="http://www.w3.org/2000/svg" xmlns:xlink="http://www.w3.org/1999/xlink" x="0px" y="0px"
	 viewBox="0 160 1920 960" enable-background="new 0 160 1920 960" xml:space="preserve">
<path fill="#6A6A6A" d="M768.8,406.1c0,0-31.5-31.5-126-31.5v188.9c95.6,0,126,31.5,126,31.5s30.3-31.5,126-31.5V374.7
	C800.3,374.7,768.8,406.1,768.8,406.1 M674.3,406.1c39.9,3.5,64.5,12.7,78.7,20v126.7c-14.2-7.7-38.8-16.9-78.7-20V406.1z
	 M863.2,533.2c-39.9,3.5-64.5,12.7-78.7,20V426.5c14.2-7.7,38.8-16.9,78.7-20V533.2z"/>
<path fill="#6A6A6A" d="M427.4,822c-12.7,0-25-1.2-37.2-3.5l1.2-32.3c5,1.5,11.1,2.7,18.4,3.8c7.3,1.2,13.8,1.9,20,1.9
	c10.8,0,19.2-1.9,25.3-6.1c6.1-4.2,9.6-10,9.6-17.3c0-9.6-13.1-19.2-38.8-28c-25.7-8.8-38.8-25-38.8-47.2c0-15.7,6.5-28.8,19.2-39.2
	c12.7-10.4,30.7-15.4,53.8-15.4c6.5,0,11.5,0,15.4,0.4c3.8,0.4,10,1.2,17.7,2.7l-1.2,31.1c-11.1-3.5-22.7-5-34.6-5
	c-21.1,0-31.5,7.3-31.5,21.9c0,9.2,13.1,18.8,39.2,28.4s39.2,25.3,39.2,46.8c0,16.5-6.9,30.3-21.1,41.1
	C469.2,816.6,450.8,822,427.4,822"/>
<path fill="#6A6A6A" d="M586.8,676.1c5.8-11.5,13.8-20.7,24.6-27.6s23-10.4,37.6-10.4c18.8,0,32.6,5,40.7,15.4s12.3,23.8,12.3,41.5
	v124h-37.6v-114c0-11.9-1.9-20.7-5.8-26.5c-3.8-5.8-10.8-8.4-20.7-8.4c-13.1,0-24.2,6.1-33,18.4s-13.4,27.3-13.4,44.9v85.6h-37.6
	V671.5c-4.2-0.8-9.2-1.5-15.7-2.3c-6.5-0.8-11.5-1.2-15.4-1.2v-24.2c10-0.8,22.3-1.5,37.2-1.9c14.6-0.4,25-0.4,30.3-0.4
	c0,5-0.4,10.8-0.8,17.3C588.3,665.3,587.5,671.1,586.8,676.1"/>
<path fill="#6A6A6A" d="M798.3,818.6h-38V671.1c-4.2-0.8-9.2-1.5-15.7-2.3s-11.5-1.2-15.4-1.2v-23.8c10-0.8,22.3-1.5,37.2-1.9
	c15-0.4,25.3-0.4,31.5-0.4v177H798.3z"/>
<path fill="#6A6A6A" d="M832.9,667.6v-23.8c10-0.8,22.3-1.5,36.9-1.9c14.6-0.4,24.6-0.4,29.6-0.4c0,6.1,0,11.9-0.4,17.7
	c-0.4,5.8-0.8,10.8-1.9,15.4c5.4-11.5,13.1-20.4,23-26.9c10-6.5,21.9-9.6,35.3-9.6c21.1,0,36.9,7.3,48.4,21.5
	c11.1,14.2,16.9,34.9,16.9,61.8c0,31.5-8.1,56.1-24.2,73.3c-16.1,17.3-38.8,26.1-68,26.1c-5.8,0-10.4,0-14.2-0.4
	c-3.8-0.4-8.1-0.8-12.7-1.9V905H864V670.7c-4.2-0.8-9.2-1.5-15.7-2.3C841.7,668,836.7,667.6,832.9,667.6 M945.4,668.8
	c-13.4,0-23.8,6.5-31.9,19.6c-8.1,13.1-11.9,27.6-11.9,44.5v54.5c8.1,2.3,17.7,3.5,28,3.5c15.7,0,28.4-5.4,37.2-15.7
	c8.8-10.8,13.4-27.3,13.4-50.7c0-18-3.1-31.9-8.8-41.5C966.1,673.8,957.3,668.8,945.4,668.8"/>
<path fill="#6A6A6A" d="M1033.3,667.6v-23.8c10-0.8,22.3-1.5,36.9-1.9c14.6-0.4,24.6-0.4,30-0.4c0,6.1,0,11.9-0.4,17.7
	c0,5.8-0.8,10.8-1.9,15.4c5.4-11.5,13.1-20.4,23-26.9s21.5-9.6,35.3-9.6c20.7,0,36.9,7.3,48.4,21.5c11.1,14.2,16.9,34.9,16.9,61.8
	c0,31.5-8.1,56.1-24.2,73.3c-16.1,17.3-38.8,26.1-68.4,26.1c-5.8,0-10.4,0-14.2-0.4c-3.8-0.4-8.1-0.8-12.7-1.9V905h-37.6V670.7
	c-4.2-0.8-9.2-1.5-15.7-2.3C1042.2,668,1036.8,667.6,1033.3,667.6 M1145.9,668.8c-13.4,0-23.8,6.5-31.9,19.6
	c-8.1,13.1-11.9,27.6-11.9,44.5v54.5c8.1,2.3,17.3,3.5,28,3.5c15.7,0,28.4-5.4,37.2-15.7c8.8-10.8,13.4-27.3,13.4-50.7
	c0-18-3.1-31.9-8.8-41.5C1166.6,673.8,1157.4,668.8,1145.9,668.8"/>
<path fill="#6A6A6A" d="M1397,732.2h-112.9c0,39.6,17.7,59.5,52.6,59.5c9.6,0,18.4-0.8,27.3-2.7c8.4-1.9,16.5-4.6,24.6-8.4l3.5,30.3
	c-8.8,3.5-18.4,6.5-28.8,8.4c-10.4,1.9-21.1,3.1-32.6,3.1c-28.4,0-49.5-7.3-64.1-22.3c-14.2-15-21.5-37.6-21.5-68.4
	c0-27.6,7.3-49.9,21.5-67.2c14.2-17.3,34.2-26.1,59.1-26.1c24.2,0,42.2,7.3,54.1,21.5s18,32.6,18,55.3L1397,732.2z M1324.4,666.1
	c-10.8,0-20,3.5-26.9,10.4c-6.9,6.9-11.5,16.5-13.1,29.2h76.4c0-12.3-3.1-21.9-9.6-29.2C1344.4,669.6,1335.6,666.1,1324.4,666.1"/>
<path fill="#6A6A6A" d="M1498,821.6c-18.8,0-31.5-3.8-38.8-11.9c-6.9-8.1-10.4-21.9-10.4-42.2v-96.4H1415v-29.6h33.8v-56.4
	l37.6-10.4v66.8h46.5v29.6h-46.5V756c0,13.4,1.5,22.3,4.6,26.9c3.1,4.6,9.2,6.9,18.8,6.9c8.4,0,16.1-0.8,23.4-2.7v31.1
	c-6.1,1.2-11.9,2.3-17.7,3.1C1509.5,821.2,1503.7,821.6,1498,821.6"/>
</svg>
