<?xml version="1.0" encoding="utf-8"?>
<!-- Generator: Adobe Illustrator 18.0.0, SVG Export Plug-In . SVG Version: 6.00 Build 0)  -->
<!DOCTYPE svg PUBLIC "-//W3C//DTD SVG 1.1//EN" "http://www.w3.org/Graphics/SVG/1.1/DTD/svg11.dtd">
<svg version="1.1" id="Layer_1" xmlns="http://www.w3.org/2000/svg" xmlns:xlink="http://www.w3.org/1999/xlink" x="0px" y="0px"
	 viewBox="0 0 500 200" enable-background="new 0 0 500 200" xml:space="preserve">
<path fill="#353535" d="M200.2,39.1c0,0-8.2-8.2-32.8-8.2v49.2c24.9,0,32.8,8.2,32.8,8.2s7.9-8.2,32.8-8.2V30.9
	C208.4,30.9,200.2,39.1,200.2,39.1 M175.6,39.1c10.4,0.9,16.8,3.3,20.5,5.2v33c-3.7-2-10.1-4.4-20.5-5.2V39.1z M224.8,72.2
	c-10.4,0.9-16.8,3.3-20.5,5.2v-33c3.7-2,10.1-4.4,20.5-5.2V72.2z"/>
<path fill="#353535" d="M111.3,147.4c-3.3,0-6.5-0.3-9.7-0.9l0.3-8.4c1.3,0.4,2.9,0.7,4.8,1s3.6,0.5,5.2,0.5c2.8,0,5-0.5,6.6-1.6
	s2.5-2.6,2.5-4.5c0-2.5-3.4-5-10.1-7.3s-10.1-6.5-10.1-12.3c0-4.1,1.7-7.5,5-10.2s8-4,14-4c1.7,0,3,0,4,0.1s2.6,0.3,4.6,0.7
	l-0.3,8.1c-2.9-0.9-5.9-1.3-9-1.3c-5.5,0-8.2,1.9-8.2,5.7c0,2.4,3.4,4.9,10.2,7.4c6.8,2.5,10.2,6.6,10.2,12.2
	c0,4.3-1.8,7.9-5.5,10.7C122.2,146,117.4,147.4,111.3,147.4"/>
<path fill="#353535" d="M152.8,109.4c1.5-3,3.6-5.4,6.4-7.2c2.8-1.8,6-2.7,9.8-2.7c4.9,0,8.5,1.3,10.6,4s3.2,6.2,3.2,10.8v32.3H173
	v-29.7c0-3.1-0.5-5.4-1.5-6.9s-2.8-2.2-5.4-2.2c-3.4,0-6.3,1.6-8.6,4.8c-2.3,3.2-3.5,7.1-3.5,11.7v22.3h-9.8v-38.4
	c-1.1-0.2-2.4-0.4-4.1-0.6c-1.7-0.2-3-0.3-4-0.3V101c2.6-0.2,5.8-0.4,9.7-0.5c3.8-0.1,6.5-0.1,7.9-0.1c0,1.3-0.1,2.8-0.2,4.5
	C153.2,106.6,153,108.1,152.8,109.4"/>
<path fill="#353535" d="M207.9,146.5H198v-38.4c-1.1-0.2-2.4-0.4-4.1-0.6c-1.7-0.2-3-0.3-4-0.3V101c2.6-0.2,5.8-0.4,9.7-0.5
	s6.6-0.1,8.2-0.1v46.1H207.9z"/>
<path fill="#353535" d="M216.9,107.2V101c2.6-0.2,5.8-0.4,9.6-0.5s6.4-0.1,7.7-0.1c0,1.6,0,3.1-0.1,4.6s-0.2,2.8-0.5,4
	c1.4-3,3.4-5.3,6-7s5.7-2.5,9.2-2.5c5.5,0,9.6,1.9,12.6,5.6c2.9,3.7,4.4,9.1,4.4,16.1c0,8.2-2.1,14.6-6.3,19.1
	c-4.2,4.5-10.1,6.8-17.7,6.8c-1.5,0-2.7,0-3.7-0.1s-2.1-0.2-3.3-0.5V169H225v-61c-1.1-0.2-2.4-0.4-4.1-0.6
	C219.2,107.3,217.9,107.2,216.9,107.2 M246.2,107.5c-3.5,0-6.2,1.7-8.3,5.1s-3.1,7.2-3.1,11.6v14.2c2.1,0.6,4.6,0.9,7.3,0.9
	c4.1,0,7.4-1.4,9.7-4.1c2.3-2.8,3.5-7.1,3.5-13.2c0-4.7-0.8-8.3-2.3-10.8C251.6,108.8,249.3,107.5,246.2,107.5"/>
<path fill="#353535" d="M269.1,107.2V101c2.6-0.2,5.8-0.4,9.6-0.5c3.8-0.1,6.4-0.1,7.8-0.1c0,1.6,0,3.1-0.1,4.6c0,1.5-0.2,2.8-0.5,4
	c1.4-3,3.4-5.3,6-7s5.6-2.5,9.2-2.5c5.4,0,9.6,1.9,12.6,5.6c2.9,3.7,4.4,9.1,4.4,16.1c0,8.2-2.1,14.6-6.3,19.1
	c-4.2,4.5-10.1,6.8-17.8,6.8c-1.5,0-2.7,0-3.7-0.1s-2.1-0.2-3.3-0.5V169h-9.8v-61c-1.1-0.2-2.4-0.4-4.1-0.6
	C271.4,107.3,270,107.2,269.1,107.2 M298.4,107.5c-3.5,0-6.2,1.7-8.3,5.1c-2.1,3.4-3.1,7.2-3.1,11.6v14.2c2.1,0.6,4.5,0.9,7.3,0.9
	c4.1,0,7.4-1.4,9.7-4.1c2.3-2.8,3.5-7.1,3.5-13.2c0-4.7-0.8-8.3-2.3-10.8C303.8,108.8,301.4,107.5,298.4,107.5"/>
<path fill="#353535" d="M363.8,124h-29.4c0,10.3,4.6,15.5,13.7,15.5c2.5,0,4.8-0.2,7.1-0.7c2.2-0.5,4.3-1.2,6.4-2.2l0.9,7.9
	c-2.3,0.9-4.8,1.7-7.5,2.2s-5.5,0.8-8.5,0.8c-7.4,0-12.9-1.9-16.7-5.8c-3.7-3.9-5.6-9.8-5.6-17.8c0-7.2,1.9-13,5.6-17.5
	s8.9-6.8,15.4-6.8c6.3,0,11,1.9,14.1,5.6s4.7,8.5,4.7,14.4L363.8,124z M344.9,106.8c-2.8,0-5.2,0.9-7,2.7c-1.8,1.8-3,4.3-3.4,7.6
	h19.9c0-3.2-0.8-5.7-2.5-7.6C350.1,107.7,347.8,106.8,344.9,106.8"/>
<path fill="#353535" d="M390.1,147.3c-4.9,0-8.2-1-10.1-3.1c-1.8-2.1-2.7-5.7-2.7-11v-25.1h-8.8v-7.7h8.8V85.7l9.8-2.7v17.4h12.1
	v7.7h-12.1v22.1c0,3.5,0.4,5.8,1.2,7c0.8,1.2,2.4,1.8,4.9,1.8c2.2,0,4.2-0.2,6.1-0.7v8.1c-1.6,0.3-3.1,0.6-4.6,0.8
	C393.1,147.2,391.6,147.3,390.1,147.3"/>
</svg>
