<?xml version="1.0" encoding="utf-8"?>
<!-- Generator: Adobe Illustrator 18.0.0, SVG Export Plug-In . SVG Version: 6.00 Build 0)  -->
<!DOCTYPE svg PUBLIC "-//W3C//DTD SVG 1.1//EN" "http://www.w3.org/Graphics/SVG/1.1/DTD/svg11.dtd">
<svg version="1.1" id="Layer_1" xmlns="http://www.w3.org/2000/svg" xmlns:xlink="http://www.w3.org/1999/xlink" x="0px" y="0px"
	 viewBox="0 0 500 200" enable-background="new 0 0 500 200" xml:space="preserve">
<g>
	<g>
		<path fill="#353535" d="M242,56c0,0.1,0.1,0.1,0.1,0.2c2,8.4,3.9,16.7,5.9,25.1c0.2,0.9,0.4,1.7,0.6,2.6c0,0,0,0,0,0
			c0.5-7.7,0.9-15.4,1.4-23.2c0,0,0.1,0,0.1,0c0.5,7.7,0.9,15.4,1.4,23.1c0.1-0.1,0.1-0.2,0.1-0.3c1.9-8.2,3.8-16.3,5.7-24.5
			c0.2-1,0.5-2,0.7-2.9c0,0.1,0,0.2,0,0.3c-0.3,2.3-0.7,4.6-1,7c-0.4,2.7-0.8,5.4-1.1,8.1c-0.4,2.5-0.7,5.1-1.1,7.6
			c-0.3,1.8-0.5,3.5-0.8,5.3c0,0,0,0,0.1,0c4.2-9.9,8.5-19.8,12.7-29.7c-2.9-0.1-5.8,0.3-8.5,1.1c-0.1,0-0.2,0.2-0.3,0.3
			c0-0.3-0.2-0.1-0.3-0.1c-1.9,0.6-3.7,1.5-5.4,2.7c-0.8,0.6-1.6,1.2-2.4,1.8c-1.4-1.2-2.9-2.3-4.6-3.1c-1-0.5-2.1-0.9-3.1-1.3
			C242.2,55.9,242,55.7,242,56c-0.1-0.1-0.3-0.3-0.4-0.3c-1.8-0.6-3.6-0.9-5.4-1c-1-0.1-1.9-0.1-3-0.1c4.3,9.9,8.5,19.8,12.7,29.6
			c0-0.8-0.1-1.5-0.2-2.3c-0.4-2.5-0.7-5.1-1.1-7.6c-0.4-2.7-0.8-5.4-1.2-8.1c-0.4-2.7-0.8-5.4-1.2-8.1
			C242.2,57.4,242.1,56.7,242,56z"/>
		<path fill="#353535" d="M221.3,57.2c-0.2-0.2-0.4-0.1-0.5,0c-2.3,0.6-4.7,1.1-7,1.7c-0.2,0-0.3,0.1-0.3,0.3
			c-0.2,1.5-0.4,3.1-0.5,4.6c0,0.1,0.1,0.2,0.1,0.3c-0.1,0.1-0.2,0.2-0.2,0.4c-0.1,0.9-0.2,1.8-0.3,2.6c-0.3,2.8-0.7,5.7-1,8.5
			c0,0.3,0,0.4,0.3,0.5c8.1,3.7,16.2,7.4,24.3,11.2c1,0.5,2,0.9,2.9,1.4c-0.3-0.3-0.6-0.6-0.9-0.9c-8.3-7.8-16.6-15.5-24.9-23.3
			c-0.1-0.1-0.2-0.2-0.3-0.3c0.1,0.1,0.2,0.1,0.3,0.2c8.7,7,17.4,14.1,26.1,21.1c0.5,0.4,1.1,0.9,1.6,1.3c-0.1-0.2-0.1-0.3-0.2-0.5
			c-2.7-4-5.4-8-8.1-12c-3.2-4.8-6.5-9.7-9.7-14.5C222.4,58.9,221.9,58,221.3,57.2c0.1,0.1,0.2,0.2,0.3,0.3
			c6.9,8.8,13.7,17.6,20.6,26.4c0.4,0.5,0.8,1,1.2,1.5c0,0,0,0,0.1,0c-3.4-10.2-6.9-20.4-10.3-30.7c-0.5,0-1,0.1-1.4,0.1
			c-3.5,0.3-6.8,1.1-10.1,2.3C221.4,57,221.4,57.1,221.3,57.2z"/>
		<path fill="#353535" d="M278.7,57.2c-0.1-0.1-0.1-0.2-0.2-0.3c-2.6-0.8-5.2-1.7-8-2c-1.2-0.1-2.3-0.2-3.5-0.4
			c-3.4,10.3-6.9,20.5-10.3,30.7c0.1-0.1,0.2-0.2,0.3-0.3c7.2-9.2,14.3-18.3,21.5-27.5C278.5,57.4,278.6,57.3,278.7,57.2
			c-0.1,0.2-0.2,0.3-0.3,0.4c-2.1,3.1-4.1,6.2-6.2,9.2c-3.9,5.8-7.8,11.7-11.8,17.5c-0.5,0.8-1,1.5-1.5,2.3c0.2-0.1,0.3-0.1,0.4-0.2
			c8.8-7.1,17.5-14.2,26.3-21.3c0.5-0.4,1-0.8,1.5-1.2c-0.1,0.1-0.2,0.2-0.3,0.4c-3.2,3-6.4,6-9.5,8.9c-4.9,4.6-9.9,9.2-14.8,13.9
			c-0.5,0.5-1,0.9-1.5,1.4c0.1,0,0.3-0.1,0.4-0.1c6.9-3.2,13.8-6.3,20.6-9.5c2.1-1,4.2-1.9,6.3-2.9c0.1-0.1,0.3-0.2,0.3-0.3
			c-0.1-1.2-0.3-2.5-0.4-3.7c-0.3-2.7-0.6-5.4-1-8c-0.2-1.7-0.4-3.4-0.6-5.1c-0.1,0-0.1,0-0.1-0.1c-2.5-0.6-4.9-1.2-7.4-1.8
			C278.9,57.1,278.8,57.2,278.7,57.2z"/>
		<path fill="#353535" d="M211.5,76.1c-0.8,6.6-1.5,13.1-2.3,19.7c0.7-0.1,1.3-0.2,1.9-0.2c4.5-0.7,8.9-1.8,13.2-3.2
			c3.8-1.2,7.7-1.8,11.8-1.6c0.5,0,0.9,0.1,1.4,0.1c0,0,0-0.1,0-0.1C228.8,85.9,220.2,81,211.5,76.1z"/>
		<path fill="#353535" d="M288.5,76.1c-8.7,4.9-17.3,9.8-26,14.7c0.7,0,1.4,0,2.1-0.1c3.6-0.1,7.1,0.4,10.5,1.4
			c4.5,1.4,9.1,2.7,13.8,3.4c0.6,0.1,1.3,0.2,2,0.3C290.1,89.2,289.3,82.7,288.5,76.1z"/>
		<path fill="#353535" d="M250,100.7c6.6,0,13.2,0,19.9,0c0.3,0,0.5-0.1,0.5-0.4c0-1.4,0-2.8,0-4.2c0-0.3-0.1-0.4-0.4-0.4
			c-5,0-10.1,0-15.1,0c-0.2,0-0.4,0.1-0.6,0.2c-1.3,0.7-2.6,1.4-3.8,2.2c-0.3,0.2-0.5,0.2-0.8,0c-1.3-0.7-2.5-1.5-3.8-2.2
			c-0.2-0.1-0.4-0.2-0.6-0.2c-5,0-10.1,0-15.1,0c-0.3,0-0.4,0.1-0.4,0.4c0,1.4,0,2.8,0,4.2c0,0.4,0.1,0.5,0.5,0.5
			C236.8,100.7,243.4,100.7,250,100.7z"/>
		<path fill="#353535" d="M211.5,76.1c8.7,4.9,17.3,9.8,25.9,14.7c0,0,0,0.1,0,0.1c-0.5,0-0.9-0.1-1.4-0.1c-4-0.3-7.9,0.4-11.8,1.6
			c-4.3,1.4-8.7,2.5-13.2,3.2c-0.6,0.1-1.2,0.2-1.9,0.2C209.9,89.2,210.7,82.7,211.5,76.1z"/>
		<path fill="#353535" d="M288.5,76.1c0.8,6.6,1.5,13.1,2.3,19.7c-0.7-0.1-1.3-0.2-2-0.3c-4.7-0.7-9.3-2-13.8-3.4
			c-3.4-1.1-6.9-1.6-10.5-1.4c-0.7,0-1.4,0.1-2.1,0.1C271.2,85.9,279.8,81,288.5,76.1z"/>
		<path fill="#353535" d="M287.1,64c-0.5,0.4-1,0.8-1.5,1.2c-8.8,7.1-17.5,14.2-26.3,21.3c-0.1,0.1-0.2,0.2-0.4,0.2
			c0.5-0.8,1-1.5,1.5-2.3c3.9-5.8,7.8-11.7,11.8-17.5c2.1-3.1,4.1-6.1,6.2-9.2c0.1-0.1,0.2-0.3,0.2-0.4l0,0c0.1,0,0.2-0.1,0.3-0.1
			c2.5,0.6,4.9,1.2,7.4,1.8c0,0,0.1,0,0.1,0.1C286.7,60.6,286.9,62.3,287.1,64L287.1,64z"/>
		<path fill="#353535" d="M213,64.1c0-0.1-0.1-0.2-0.1-0.3c0.2-1.5,0.4-3.1,0.5-4.6c0-0.2,0.1-0.3,0.3-0.3c2.3-0.6,4.7-1.1,7-1.7
			c0.2,0,0.4-0.2,0.5,0l0,0c0.6,0.9,1.1,1.7,1.7,2.6c3.2,4.8,6.5,9.7,9.7,14.5c2.7,4,5.4,8,8.1,12c0.1,0.1,0.2,0.3,0.2,0.5
			c-0.5-0.4-1.1-0.9-1.6-1.3c-8.7-7-17.4-14.1-26.1-21.1C213.2,64.2,213.1,64.2,213,64.1L213,64.1z"/>
		<path fill="#353535" d="M258,56c-0.2,1-0.5,2-0.7,2.9c-1.9,8.2-3.8,16.3-5.7,24.5c0,0.1-0.1,0.2-0.1,0.3
			c-0.5-7.7-0.9-15.4-1.4-23.1c0,0-0.1,0-0.1,0c-0.5,7.7-0.9,15.4-1.4,23.2c0,0,0,0,0,0c-0.2-0.9-0.4-1.7-0.6-2.6
			c-2-8.4-3.9-16.7-5.9-25.1c0-0.1,0-0.1-0.1-0.2l0,0c0-0.3,0.2-0.1,0.3-0.1c1,0.4,2.1,0.8,3.1,1.3c1.7,0.8,3.2,1.9,4.6,3.1
			c0.8-0.6,1.6-1.2,2.4-1.8c1.7-1.2,3.5-2,5.4-2.7C257.8,55.9,258,55.7,258,56L258,56z"/>
		<path fill="#353535" d="M278.7,57.2L278.7,57.2c-0.1,0.1-0.2,0.2-0.3,0.3c-7.2,9.2-14.3,18.3-21.5,27.5c-0.1,0.1-0.2,0.2-0.3,0.3
			c3.4-10.2,6.9-20.4,10.3-30.7c1.2,0.1,2.4,0.2,3.5,0.4c2.7,0.3,5.4,1.2,8,2C278.5,57,278.6,57.1,278.7,57.2z"/>
		<path fill="#353535" d="M221.3,57.2c0.1-0.1,0.1-0.2,0.2-0.2c3.3-1.1,6.7-2,10.1-2.3c0.5,0,0.9-0.1,1.4-0.1
			c3.4,10.2,6.9,20.4,10.3,30.7c0,0,0,0-0.1,0c-0.4-0.5-0.8-1-1.2-1.5c-6.9-8.8-13.7-17.6-20.6-26.4
			C221.5,57.4,221.4,57.3,221.3,57.2L221.3,57.2z"/>
		<path fill="#353535" d="M250,100.7c-6.6,0-13.2,0-19.9,0c-0.4,0-0.5-0.1-0.5-0.5c0-1.4,0-2.8,0-4.2c0-0.3,0.1-0.4,0.4-0.4
			c5,0,10.1,0,15.1,0c0.2,0,0.4,0.1,0.6,0.2c1.3,0.7,2.5,1.4,3.8,2.2c0.3,0.2,0.5,0.2,0.8,0c1.3-0.7,2.5-1.5,3.8-2.2
			c0.2-0.1,0.4-0.2,0.6-0.2c5,0,10.1,0,15.1,0c0.3,0,0.4,0.1,0.4,0.4c0,1.4,0,2.8,0,4.2c0,0.4-0.1,0.4-0.5,0.4
			C263.3,100.7,256.7,100.7,250,100.7z"/>
		<path fill="#353535" d="M213,64.1L213,64.1c0.1,0.1,0.1,0.2,0.2,0.3c8.3,7.8,16.6,15.5,24.9,23.3c0.3,0.3,0.6,0.6,0.9,0.9
			c-1-0.5-2-0.9-2.9-1.4c-8.1-3.7-16.2-7.4-24.3-11.2c-0.2-0.1-0.3-0.2-0.3-0.5c0.3-2.8,0.7-5.7,1-8.5c0.1-0.9,0.2-1.8,0.3-2.6
			C212.9,64.3,213,64.2,213,64.1z"/>
		<path fill="#353535" d="M287.1,64c0.3,2.7,0.6,5.4,1,8c0.1,1.2,0.3,2.5,0.4,3.7c0,0.1-0.1,0.3-0.3,0.3c-2.1,1-4.2,1.9-6.3,2.9
			c-6.9,3.2-13.8,6.3-20.6,9.5c-0.1,0.1-0.2,0.1-0.4,0.1c0.5-0.5,1-0.9,1.5-1.4c4.9-4.6,9.9-9.2,14.8-13.9c3.2-3,6.4-6,9.5-8.9
			C286.9,64.3,287,64.1,287.1,64L287.1,64z"/>
		<path fill="#353535" d="M258,56c0.1-0.1,0.2-0.3,0.3-0.3c2.7-0.8,5.6-1.2,8.5-1.1c-4.3,9.9-8.5,19.8-12.7,29.7c0,0,0,0-0.1,0
			c0.3-1.8,0.5-3.5,0.8-5.3c0.4-2.5,0.7-5.1,1.1-7.6c0.4-2.7,0.8-5.4,1.1-8.1c0.3-2.3,0.7-4.6,1-7C258,56.2,258,56.1,258,56
			C258,56,258,56,258,56z"/>
		<path fill="#353535" d="M242,56c0.1,0.7,0.1,1.4,0.2,2.1c0.4,2.7,0.8,5.4,1.2,8.1c0.4,2.7,0.8,5.4,1.2,8.1
			c0.4,2.5,0.7,5.1,1.1,7.6c0.1,0.8,0.2,1.5,0.2,2.3c-4.2-9.8-8.4-19.7-12.7-29.6c1,0,2,0,3,0.1c1.8,0.1,3.7,0.5,5.4,1
			C241.7,55.8,241.9,55.9,242,56C242,56,242,56,242,56z"/>
	</g>
	<g>
		<path fill="#353535" d="M58.1,126H62l8.1,19.1h-4.4l-1.7-4.2h-8l-1.7,4.2H50L58.1,126z M62.5,137.2L60,131l-2.5,6.1H62.5z"/>
		<path fill="#353535" d="M74.1,126.2h4.5l5,8l5-8H93v18.9h-4.1v-12.4l-5.3,8.1h-0.1l-5.3-8v12.3h-4.1V126.2z"/>
		<path fill="#353535" d="M98.7,126.2H113v3.7h-10.1v3.8h8.9v3.7h-8.9v4h10.3v3.7H98.7V126.2z"/>
		<path fill="#353535" d="M117.9,126.2h8.7c2.4,0,4.3,0.7,5.5,1.9c1.1,1.1,1.6,2.5,1.6,4.3v0.1c0,3.1-1.7,5-4.1,5.9l4.6,6.8h-4.9
			l-4.1-6.1h-0.1h-3.2v6.1h-4.2V126.2z M126.3,135.4c2,0,3.2-1.1,3.2-2.7v-0.1c0-1.8-1.2-2.7-3.3-2.7h-4.1v5.4H126.3z"/>
		<path fill="#353535" d="M138.7,126.2h4.2v18.9h-4.2V126.2z"/>
		<path fill="#353535" d="M147.9,135.7L147.9,135.7c0-5.4,4.1-9.9,9.9-9.9c3.6,0,5.7,1.2,7.5,2.9l-2.7,3.1c-1.5-1.3-2.9-2.1-4.8-2.1
			c-3.2,0-5.5,2.7-5.5,5.9v0.1c0,3.2,2.2,6,5.5,6c2.2,0,3.5-0.9,5-2.2l2.7,2.7c-1.9,2.1-4.1,3.4-7.8,3.4
			C152,145.4,147.9,141.1,147.9,135.7z"/>
		<path fill="#353535" d="M176.3,126h3.8l8.1,19.1h-4.4l-1.7-4.2h-8l-1.7,4.2h-4.2L176.3,126z M180.7,137.2l-2.5-6.1l-2.5,6.1H180.7
			z"/>
		<path fill="#353535" d="M192.3,126.2h3.8l8.9,11.7v-11.7h4.1v18.9h-3.5l-9.2-12v12h-4.1V126.2z"/>
		<path fill="#353535" d="M223.9,126.2h8.8c2.2,0,3.9,0.6,5,1.7c0.9,0.9,1.3,1.9,1.3,3.2v0.1c0,2.1-1.1,3.3-2.5,4.1
			c2.2,0.8,3.5,2.1,3.5,4.7v0.1c0,3.5-2.8,5.2-7.1,5.2h-9V126.2z M231.8,133.8c1.8,0,3-0.6,3-2v-0.1c0-1.2-1-1.9-2.7-1.9H228v4
			H231.8z M232.9,141.5c1.8,0,3-0.6,3-2.1v-0.1c0-1.3-0.9-2.1-3.1-2.1H228v4.2H232.9z"/>
		<path fill="#353535" d="M244.8,126.2h4.2v18.9h-4.2V126.2z"/>
		<path fill="#353535" d="M254.7,126.2h8.8c2.2,0,3.9,0.6,5,1.7c0.9,0.9,1.3,1.9,1.3,3.2v0.1c0,2.1-1.1,3.3-2.5,4.1
			c2.2,0.8,3.5,2.1,3.5,4.7v0.1c0,3.5-2.8,5.2-7.1,5.2h-9V126.2z M262.6,133.8c1.8,0,3-0.6,3-2v-0.1c0-1.2-1-1.9-2.7-1.9h-4.1v4
			H262.6z M263.8,141.5c1.8,0,3-0.6,3-2.1v-0.1c0-1.3-0.9-2.1-3.1-2.1h-4.8v4.2H263.8z"/>
		<path fill="#353535" d="M275.4,126.2h4.2v15.2h9.4v3.8h-13.6V126.2z"/>
		<path fill="#353535" d="M293.2,126.2h14.3v3.7h-10.1v3.8h8.9v3.7h-8.9v4h10.3v3.7h-14.4V126.2z"/>
		<path fill="#353535" d="M320.3,142.3l2.5-3c1.7,1.4,3.5,2.3,5.7,2.3c1.7,0,2.7-0.7,2.7-1.8v-0.1c0-1.1-0.6-1.6-3.8-2.4
			c-3.8-1-6.3-2-6.3-5.8v-0.1c0-3.4,2.8-5.7,6.6-5.7c2.8,0,5.1,0.9,7,2.4l-2.2,3.1c-1.7-1.2-3.3-1.9-4.9-1.9c-1.6,0-2.4,0.7-2.4,1.7
			v0.1c0,1.2,0.8,1.7,4.1,2.5c3.8,1,6,2.4,6,5.7v0.1c0,3.8-2.9,5.9-7,5.9C325.5,145.4,322.6,144.4,320.3,142.3z"/>
		<path fill="#353535" d="M339.2,135.7L339.2,135.7c0-5.4,4.2-9.9,10.1-9.9c5.8,0,10,4.4,10,9.7v0.1c0,5.4-4.2,9.8-10.1,9.8
			C343.4,145.4,339.2,141.1,339.2,135.7z M355,135.7L355,135.7c0-3.3-2.4-6-5.7-6c-3.4,0-5.7,2.7-5.7,5.9v0.1c0,3.2,2.4,6,5.7,6
			S355,138.9,355,135.7z"/>
		<path fill="#353535" d="M363.3,135.7L363.3,135.7c0-5.4,4.1-9.9,9.9-9.9c3.6,0,5.7,1.2,7.5,2.9l-2.7,3.1c-1.5-1.3-3-2.1-4.8-2.1
			c-3.2,0-5.5,2.7-5.5,5.9v0.1c0,3.2,2.2,6,5.5,6c2.2,0,3.5-0.9,5-2.2l2.7,2.7c-1.9,2.1-4.1,3.4-7.8,3.4
			C367.4,145.4,363.3,141.1,363.3,135.7z"/>
		<path fill="#353535" d="M385.4,126.2h4.2v18.9h-4.2V126.2z"/>
		<path fill="#353535" d="M395.4,126.2h14.3v3.7h-10.1v3.8h8.9v3.7h-8.9v4h10.3v3.7h-14.4V126.2z"/>
		<path fill="#353535" d="M419,130h-5.8v-3.8h15.7v3.8h-5.8v15.1H419V130z"/>
		<path fill="#353535" d="M438.6,137.6l-7.3-11.5h4.9l4.5,7.6l4.6-7.6h4.7l-7.3,11.4v7.6h-4.2V137.6z"/>
	</g>
</g>
</svg>
