<svg xmlns="http://www.w3.org/2000/svg" xmlns:xlink="http://www.w3.org/1999/xlink" version="1.1" x="0px" y="0px" viewBox="0 0 500 200" enable-background="new 0 0 500 200" xml:space="preserve"><g><g><path d="M67.4 88.5C67.4 88.6 67.5 88.6 67.4 88.5c1.1 4.5 2.1 8.9 3.1 13.4c0.1 0.5 0.2 0.9 0.3 1.4c0 0 0 0 0 0 c0.2-4.1 0.5-8.2 0.7-12.3c0 0 0 0 0 0c0.2 4.1 0.5 8.2 0.7 12.3c0 0 0.1-0.1 0.1-0.1c1-4.3 2-8.7 3-13c0.1-0.5 0.3-1 0.4-1.6 c0 0.1 0 0.1 0 0.2c-0.2 1.2-0.3 2.5-0.5 3.7c-0.2 1.4-0.4 2.8-0.6 4.3c-0.2 1.3-0.4 2.7-0.6 4c-0.1 0.9-0.3 1.9-0.4 2.8 c0 0 0 0 0 0c2.2-5.2 4.5-10.5 6.8-15.7c-1.6 0-3.1 0.2-4.5 0.6c-0.1 0-0.1 0.1-0.2 0.2c0-0.2-0.1-0.1-0.2-0.1 c-1 0.3-2 0.8-2.8 1.4c-0.4 0.3-0.8 0.6-1.3 1c-0.7-0.7-1.5-1.2-2.4-1.7c-0.5-0.3-1.1-0.5-1.7-0.7C67.5 88.5 67.4 88.4 67.4 88.5 c-0.1-0.1-0.1-0.1-0.2-0.2c-0.9-0.3-1.9-0.5-2.9-0.5c-0.5 0-1 0-1.6-0.1c2.3 5.3 4.5 10.5 6.7 15.7c0-0.4-0.1-0.8-0.1-1.2 c-0.2-1.3-0.4-2.7-0.6-4c-0.2-1.4-0.4-2.9-0.6-4.3c-0.2-1.4-0.4-2.9-0.6-4.3C67.5 89.3 67.5 88.9 67.4 88.5z" class="style0"/><path d="M56.5 89.1c-0.1-0.1-0.2 0-0.3 0c-1.2 0.3-2.5 0.6-3.7 0.9c-0.1 0-0.2 0.1-0.2 0.2 c-0.1 0.8-0.2 1.6-0.3 2.5c0 0 0 0.1 0.1 0.2c0 0.1-0.1 0.1-0.1 0.2c-0.1 0.5-0.1 0.9-0.2 1.4c-0.2 1.5-0.3 3-0.5 4.5 c0 0.1 0 0.2 0.1 0.3c4.3 2 8.6 3.9 12.9 5.9c0.5 0.2 1 0.5 1.6 0.7c-0.1-0.2-0.3-0.3-0.5-0.5c-4.4-4.1-8.8-8.2-13.2-12.4 c-0.1-0.1-0.1-0.1-0.1-0.2c0.1 0 0.1 0.1 0.2 0.1c4.6 3.7 9.2 7.5 13.8 11.2c0.3 0.2 0.6 0.5 0.9 0.7c0-0.1-0.1-0.2-0.1-0.2 c-1.4-2.1-2.9-4.3-4.3-6.4c-1.7-2.6-3.4-5.1-5.2-7.7C57 90.1 56.7 89.6 56.5 89.1c0 0 0.1 0.1 0.1 0.1c3.6 4.7 7.3 9.3 10.9 14 c0.2 0.3 0.4 0.5 0.6 0.8c0 0 0 0 0 0c-1.8-5.4-3.6-10.8-5.5-16.3c-0.3 0-0.5 0-0.8 0c-1.9 0.1-3.6 0.6-5.4 1.2 C56.5 89 56.5 89.1 56.5 89.1z" class="style0"/><path d="M86.9 89.2c0-0.1-0.1-0.1-0.1-0.1c-1.4-0.4-2.8-0.9-4.2-1.1c-0.6-0.1-1.2-0.1-1.9-0.2 c-1.8 5.4-3.6 10.9-5.5 16.3c0.1 0 0.1-0.1 0.1-0.1c3.8-4.9 7.6-9.7 11.4-14.6C86.8 89.3 86.8 89.2 86.9 89.2 c0 0.1-0.1 0.2-0.1 0.2c-1.1 1.6-2.2 3.3-3.3 4.9c-2.1 3.1-4.2 6.2-6.2 9.3c-0.3 0.4-0.5 0.8-0.8 1.2c0.1 0 0.1-0.1 0.2-0.1 c4.6-3.8 9.3-7.5 13.9-11.3c0.3-0.2 0.5-0.4 0.8-0.6c-0.1 0.1-0.1 0.1-0.2 0.2c-1.7 1.6-3.4 3.2-5.1 4.7c-2.6 2.5-5.2 4.9-7.9 7.4 c-0.3 0.3-0.5 0.5-0.8 0.8c0.1 0 0.1 0 0.2-0.1c3.6-1.7 7.3-3.4 10.9-5c1.1-0.5 2.2-1 3.3-1.5c0.1 0 0.1-0.1 0.1-0.2 c-0.1-0.7-0.1-1.3-0.2-2c-0.2-1.4-0.3-2.8-0.5-4.3c-0.1-0.9-0.2-1.8-0.3-2.7c0 0-0.1 0-0.1 0c-1.3-0.3-2.6-0.6-3.9-0.9 C87 89.1 86.9 89.1 86.9 89.2z" class="style0"/><path d="M51.2 99.2c-0.4 3.5-0.8 7-1.2 10.4c0.4 0 0.7-0.1 1-0.1c2.4-0.4 4.7-1 7-1.7c2-0.7 4.1-1 6.2-0.8 c0.2 0 0.5 0 0.7 0c0 0 0 0 0 0C60.4 104.4 55.8 101.8 51.2 99.2z" class="style0"/><path d="M92.1 99.2c-4.6 2.6-9.2 5.2-13.8 7.8c0.4 0 0.7 0 1.1 0c1.9-0.1 3.7 0.2 5.6 0.8c2.4 0.8 4.8 1.4 7.3 1.8 c0.3 0.1 0.7 0.1 1 0.1C92.9 106.1 92.5 102.7 92.1 99.2z" class="style0"/><path d="M71.7 112.2c3.5 0 7 0 10.5 0c0.2 0 0.2 0 0.2-0.2c0-0.7 0-1.5 0-2.2c0-0.2 0-0.2-0.2-0.2 c-2.7 0-5.3 0-8 0c-0.1 0-0.2 0-0.3 0.1c-0.7 0.4-1.4 0.8-2 1.2c-0.2 0.1-0.3 0.1-0.4 0c-0.7-0.4-1.3-0.8-2-1.1 c-0.1-0.1-0.2-0.1-0.3-0.1c-2.7 0-5.3 0-8 0c-0.2 0-0.2 0.1-0.2 0.2c0 0.7 0 1.5 0 2.2c0 0.2 0 0.3 0.2 0.3 C64.7 112.2 68.2 112.2 71.7 112.2z" class="style0"/><path d="M51.2 99.2c4.6 2.6 9.2 5.2 13.8 7.8c0 0 0 0 0 0c-0.2 0-0.5 0-0.7 0c-2.1-0.1-4.2 0.2-6.2 0.8 c-2.3 0.7-4.6 1.3-7 1.7c-0.3 0-0.6 0.1-1 0.1C50.4 106.1 50.8 102.7 51.2 99.2z" class="style0"/><path d="M92.1 99.2c0.4 3.5 0.8 7 1.2 10.4c-0.4 0-0.7-0.1-1-0.1c-2.5-0.4-4.9-1-7.3-1.8c-1.8-0.6-3.7-0.8-5.6-0.8 c-0.4 0-0.7 0-1.1 0C82.9 104.4 87.5 101.8 92.1 99.2z" class="style0"/><path d="M91.3 92.8c-0.3 0.2-0.5 0.4-0.8 0.6c-4.6 3.8-9.3 7.5-13.9 11.3c-0.1 0-0.1 0.1-0.2 0.1 c0.3-0.4 0.5-0.8 0.8-1.2c2.1-3.1 4.2-6.2 6.2-9.3c1.1-1.6 2.2-3.3 3.3-4.9c0-0.1 0.1-0.1 0.1-0.2c0 0 0 0 0 0 c0.1 0 0.1-0.1 0.2-0.1c1.3 0.3 2.6 0.6 3.9 0.9c0 0 0 0 0.1 0C91.1 91 91.2 91.9 91.3 92.8L91.3 92.8z" class="style0"/><path d="M52 92.8c0-0.1-0.1-0.1-0.1-0.2c0.1-0.8 0.2-1.6 0.3-2.5c0-0.1 0.1-0.2 0.2-0.2c1.2-0.3 2.5-0.6 3.7-0.9 c0.1 0 0.2-0.1 0.3 0l0 0c0.3 0.5 0.6 0.9 0.9 1.4c1.7 2.6 3.4 5.1 5.2 7.7c1.4 2.1 2.9 4.3 4.3 6.4c0.1 0.1 0.1 0.2 0.1 0.2 c-0.3-0.2-0.6-0.5-0.9-0.7c-4.6-3.7-9.2-7.5-13.8-11.2C52.1 92.9 52.1 92.8 52 92.8C52 92.8 52 92.8 52 92.8z" class="style0"/><path d="M75.9 88.5c-0.1 0.5-0.3 1-0.4 1.6c-1 4.3-2 8.7-3 13c0 0 0 0.1-0.1 0.1c-0.2-4.1-0.5-8.2-0.7-12.3 c0 0 0 0 0 0c-0.2 4.1-0.5 8.2-0.7 12.3c0 0 0 0 0 0c-0.1-0.5-0.2-0.9-0.3-1.4c-1-4.4-2.1-8.9-3.1-13.3c0 0 0-0.1 0-0.1 c0 0 0 0 0 0c0-0.2 0.1-0.1 0.1-0.1c0.6 0.2 1.1 0.4 1.7 0.7c0.9 0.4 1.7 1 2.4 1.7c0.4-0.3 0.8-0.7 1.3-1 c0.9-0.6 1.8-1.1 2.8-1.4C75.8 88.5 75.9 88.4 75.9 88.5L75.9 88.5z" class="style0"/><path d="M86.9 89.2C86.9 89.2 86.9 89.2 86.9 89.2c-0.1 0.1-0.1 0.1-0.2 0.1c-3.8 4.9-7.6 9.7-11.4 14.6 c0 0.1-0.1 0.1-0.1 0.1c1.8-5.4 3.6-10.8 5.5-16.3c0.6 0.1 1.3 0.1 1.9 0.2c1.5 0.2 2.8 0.6 4.2 1.1C86.8 89 86.8 89.1 86.9 89.2z " class="style0"/><path d="M56.5 89.1c0 0 0.1-0.1 0.1-0.1c1.8-0.6 3.5-1.1 5.4-1.2c0.2 0 0.5 0 0.8 0c1.8 5.4 3.6 10.8 5.5 16.3 c0 0 0 0 0 0c-0.2-0.3-0.4-0.5-0.6-0.8c-3.6-4.7-7.3-9.3-10.9-14C56.6 89.2 56.5 89.2 56.5 89.1C56.4 89.1 56.5 89.1 56.5 89.1z" class="style0"/><path d="M71.7 112.2c-3.5 0-7 0-10.5 0c-0.2 0-0.3-0.1-0.2-0.3c0-0.7 0-1.5 0-2.2c0-0.2 0-0.2 0.2-0.2 c2.7 0 5.3 0 8 0c0.1 0 0.2 0 0.3 0.1c0.7 0.4 1.3 0.8 2 1.1c0.2 0.1 0.3 0.1 0.4 0c0.7-0.4 1.3-0.8 2-1.2 c0.1-0.1 0.2-0.1 0.3-0.1c2.7 0 5.3 0 8 0c0.2 0 0.2 0.1 0.2 0.2c0 0.7 0 1.5 0 2.2c0 0.2-0.1 0.2-0.2 0.2 C78.7 112.2 75.2 112.2 71.7 112.2z" class="style0"/><path d="M52 92.8C52 92.8 52 92.8 52 92.8c0 0.1 0.1 0.1 0.1 0.2c4.4 4.1 8.8 8.2 13.2 12.4 c0.2 0.1 0.3 0.3 0.5 0.5c-0.5-0.2-1-0.5-1.6-0.7c-4.3-2-8.6-3.9-12.9-5.9c-0.1-0.1-0.2-0.1-0.1-0.3c0.2-1.5 0.4-3 0.5-4.5 c0.1-0.5 0.1-0.9 0.2-1.4C52 92.9 52 92.9 52 92.8z" class="style0"/><path d="M91.3 92.8c0.2 1.4 0.3 2.8 0.5 4.3c0.1 0.7 0.2 1.3 0.2 2c0 0.1-0.1 0.1-0.1 0.2c-1.1 0.5-2.2 1-3.3 1.5 c-3.6 1.7-7.3 3.4-10.9 5c-0.1 0-0.1 0.1-0.2 0.1c0.3-0.3 0.5-0.5 0.8-0.8c2.6-2.5 5.2-4.9 7.9-7.4c1.7-1.6 3.4-3.2 5.1-4.7 C91.2 92.9 91.3 92.8 91.3 92.8C91.3 92.8 91.3 92.8 91.3 92.8z" class="style0"/><path d="M75.9 88.5c0.1-0.1 0.1-0.1 0.2-0.2c1.5-0.4 3-0.6 4.5-0.6c-2.3 5.3-4.5 10.5-6.8 15.7c0 0 0 0 0 0 c0.1-0.9 0.3-1.9 0.4-2.8c0.2-1.3 0.4-2.7 0.6-4c0.2-1.4 0.4-2.8 0.6-4.3c0.2-1.2 0.4-2.5 0.5-3.7C75.9 88.6 75.9 88.6 75.9 88.5 C75.9 88.5 75.9 88.5 75.9 88.5z" class="style0"/><path d="M67.4 88.5c0 0.4 0.1 0.7 0.1 1.1c0.2 1.4 0.4 2.9 0.6 4.3c0.2 1.4 0.4 2.9 0.6 4.3c0.2 1.3 0.4 2.7 0.6 4 c0.1 0.4 0.1 0.8 0.1 1.2C67.2 98.2 65 93 62.7 87.8c0.5 0 1.1 0 1.6 0.1c1 0.1 1.9 0.2 2.9 0.5C67.3 88.4 67.4 88.5 67.4 88.5 C67.4 88.5 67.4 88.5 67.4 88.5z" class="style0"/></g><g><path d="M113.5 91.7h3.3l7 16.4H120l-1.5-3.6h-6.9l-1.5 3.6h-3.6L113.5 91.7z M117.2 101.3l-2.2-5.3l-2.2 5.3 H117.2z" class="style0"/><path d="M127.2 91.9h3.9l4.3 6.9l4.3-6.9h3.9v16.3h-3.6V97.5l-4.6 6.9h-0.1l-4.5-6.9v10.6h-3.5V91.9z" class="style0"/><path d="M148.3 91.9h12.3v3.2h-8.7v3.3h7.7v3.2h-7.7v3.4h8.8v3.2h-12.4V91.9z" class="style0"/><path d="M164.8 91.9h7.4c2.1 0 3.7 0.6 4.7 1.7c0.9 0.9 1.4 2.2 1.4 3.7v0c0 2.6-1.4 4.3-3.5 5l4 5.8h-4.2 l-3.5-5.2h0h-2.8v5.2h-3.6V91.9z M172 99.8c1.7 0 2.7-0.9 2.7-2.3v0c0-1.5-1.1-2.3-2.8-2.3h-3.6v4.7H172z" class="style0"/><path d="M182.7 91.9h3.6v16.3h-3.6V91.9z" class="style0"/><path d="M190.6 100L190.6 100c0-4.7 3.5-8.5 8.5-8.5c3.1 0 4.9 1 6.4 2.5l-2.3 2.6c-1.3-1.1-2.5-1.8-4.2-1.8 c-2.7 0-4.7 2.3-4.7 5.1v0c0 2.8 1.9 5.1 4.7 5.1c1.9 0 3-0.7 4.3-1.9l2.3 2.3c-1.7 1.8-3.5 2.9-6.7 2.9 C194.1 108.4 190.6 104.7 190.6 100z" class="style0"/><path d="M215 91.7h3.3l7 16.4h-3.7l-1.5-3.6h-6.9l-1.5 3.6H208L215 91.7z M218.7 101.3l-2.2-5.3l-2.2 5.3H218.7z" class="style0"/><path d="M228.7 91.9h3.3l7.6 10v-10h3.5v16.3h-3l-7.9-10.3v10.3h-3.5V91.9z" class="style0"/><path d="M255.9 91.9h7.6c1.9 0 3.3 0.5 4.3 1.4c0.7 0.7 1.1 1.6 1.1 2.8v0c0 1.8-1 2.9-2.1 3.5c1.9 0.7 3 1.8 3 4 v0c0 3-2.4 4.5-6.1 4.5h-7.7V91.9z M262.7 98.4c1.6 0 2.6-0.5 2.6-1.7v0c0-1.1-0.8-1.7-2.3-1.7h-3.5v3.4H262.7z M263.6 105 c1.6 0 2.5-0.6 2.5-1.8v0c0-1.1-0.8-1.8-2.6-1.8h-4.1v3.6H263.6z" class="style0"/><path d="M273.7 91.9h3.6v16.3h-3.6V91.9z" class="style0"/><path d="M282.3 91.9h7.6c1.9 0 3.3 0.5 4.3 1.4c0.7 0.7 1.1 1.6 1.1 2.8v0c0 1.8-1 2.9-2.1 3.5c1.9 0.7 3 1.8 3 4 v0c0 3-2.4 4.5-6.1 4.5h-7.7V91.9z M289.1 98.4c1.6 0 2.6-0.5 2.6-1.7v0c0-1.1-0.8-1.7-2.3-1.7h-3.5v3.4H289.1z M290.1 105 c1.6 0 2.5-0.6 2.5-1.8v0c0-1.1-0.8-1.8-2.6-1.8h-4.1v3.6H290.1z" class="style0"/><path d="M300 91.9h3.6v13h8.1v3.3H300V91.9z" class="style0"/><path d="M315.4 91.9h12.3v3.2h-8.7v3.3h7.7v3.2h-7.7v3.4h8.8v3.2h-12.4V91.9z" class="style0"/><path d="M338.7 105.8l2.1-2.5c1.5 1.2 3 2 4.9 2c1.5 0 2.3-0.6 2.3-1.5v0c0-0.9-0.6-1.4-3.3-2.1 c-3.3-0.8-5.4-1.7-5.4-5v0c0-3 2.4-4.9 5.7-4.9c2.4 0 4.4 0.7 6 2.1l-1.9 2.7c-1.4-1-2.9-1.6-4.2-1.6c-1.4 0-2.1 0.6-2.1 1.4v0 c0 1.1 0.7 1.4 3.5 2.1c3.3 0.9 5.2 2 5.2 4.9v0c0 3.2-2.5 5-6 5C343.1 108.4 340.6 107.5 338.7 105.8z" class="style0"/><path d="M354.9 100L354.9 100c0-4.7 3.6-8.5 8.7-8.5c5 0 8.6 3.7 8.6 8.4v0c0 4.6-3.6 8.4-8.7 8.4 C358.5 108.4 354.9 104.7 354.9 100z M368.4 100L368.4 100c0-2.8-2-5.2-4.9-5.2c-2.9 0-4.9 2.3-4.9 5.1v0c0 2.8 2 5.1 4.9 5.1 C366.4 105.1 368.4 102.8 368.4 100z" class="style0"/><path d="M375.5 100L375.5 100c0-4.7 3.5-8.5 8.5-8.5c3.1 0 4.9 1 6.4 2.5l-2.3 2.6c-1.3-1.1-2.5-1.8-4.2-1.8 c-2.7 0-4.7 2.3-4.7 5.1v0c0 2.8 1.9 5.1 4.7 5.1c1.9 0 3-0.7 4.3-1.9l2.3 2.3c-1.7 1.8-3.5 2.9-6.7 2.9 C379.1 108.4 375.5 104.7 375.5 100z" class="style0"/><path d="M394.5 91.9h3.6v16.3h-3.6V91.9z" class="style0"/><path d="M403.1 91.9h12.3v3.2h-8.7v3.3h7.7v3.2h-7.7v3.4h8.8v3.2h-12.4V91.9z" class="style0"/><path d="M423.4 95.2h-4.9v-3.3h13.5v3.3H427v13h-3.6V95.2z" class="style0"/><path d="M440.2 101.7l-6.3-9.9h4.2l3.9 6.5l4-6.5h4.1l-6.3 9.8v6.5h-3.6V101.7z" class="style0"/></g></g></svg>