<?xml version="1.0" encoding="utf-8"?>
<!-- Generator: Adobe Illustrator 18.1.1, SVG Export Plug-In . SVG Version: 6.00 Build 0)  -->
<svg version="1.1" id="Layer_1" xmlns="http://www.w3.org/2000/svg" xmlns:xlink="http://www.w3.org/1999/xlink" x="0px" y="0px"
	 viewBox="0 0 1920 1280" enable-background="new 0 0 1920 1280" xml:space="preserve">
<g>
	<g>
		<path fill="#6A6A6A" d="M929.3,471c0,0.4,0.4,0.4,0.4,0.8c7.7,32.3,15,64.1,22.7,96.4c0.8,3.5,1.5,6.5,2.3,10l0,0
			c1.9-29.6,3.5-59.1,5.4-89.1h0.4c1.9,29.6,3.5,59.1,5.4,88.7c0.4-0.4,0.4-0.8,0.4-1.2c7.3-31.5,14.6-62.6,21.9-94.1
			c0.8-3.8,1.9-7.7,2.7-11.1c0,0.4,0,0.8,0,1.2c-1.2,8.8-2.7,17.7-3.8,26.9c-1.5,10.4-3.1,20.7-4.2,31.1c-1.5,9.6-2.7,19.6-4.2,29.2
			c-1.2,6.9-1.9,13.4-3.1,20.4c0,0,0,0,0.4,0c16.1-38,32.6-76,48.8-114c-11.1-0.4-22.3,1.2-32.6,4.2c-0.4,0-0.8,0.8-1.2,1.2
			c0-1.2-0.8-0.4-1.2-0.4c-7.3,2.3-14.2,5.8-20.7,10.4c-3.1,2.3-6.1,4.6-9.2,6.9c-5.4-4.6-11.1-8.8-17.7-11.9
			c-3.8-1.9-8.1-3.5-11.9-5C930,470.7,929.3,469.9,929.3,471c-0.4-0.4-1.2-1.2-1.5-1.2c-6.9-2.3-13.8-3.5-20.7-3.8
			c-3.8-0.4-7.3-0.4-11.5-0.4c16.5,38,32.6,76,48.8,113.7c0-3.1-0.4-5.8-0.8-8.8c-1.5-9.6-2.7-19.6-4.2-29.2
			c-1.5-10.4-3.1-20.7-4.6-31.1c-1.5-10.4-3.1-20.7-4.6-31.1C930,476.4,929.7,473.7,929.3,471z"/>
		<path fill="#6A6A6A" d="M849.8,475.6c-0.8-0.8-1.5-0.4-1.9,0c-8.8,2.3-18,4.2-26.9,6.5c-0.8,0-1.2,0.4-1.2,1.2
			c-0.8,5.8-1.5,11.9-1.9,17.7c0,0.4,0.4,0.8,0.4,1.2c-0.4,0.4-0.8,0.8-0.8,1.5c-0.4,3.5-0.8,6.9-1.2,10
			c-1.2,10.8-2.7,21.9-3.8,32.6c0,1.2,0,1.5,1.2,1.9c31.1,14.2,62.2,28.4,93.3,43c3.8,1.9,7.7,3.5,11.1,5.4
			c-1.2-1.2-2.3-2.3-3.5-3.5c-31.9-30-63.7-59.5-95.6-89.5c-0.4-0.4-0.8-0.8-1.2-1.2c0.4,0.4,0.8,0.4,1.2,0.8
			c33.4,26.9,66.8,54.1,100.2,81c1.9,1.5,4.2,3.5,6.1,5c-0.4-0.8-0.4-1.2-0.8-1.9c-10.4-15.4-20.7-30.7-31.1-46.1
			c-12.3-18.4-25-37.2-37.2-55.7C854,482.2,852.1,478.7,849.8,475.6c0.4,0.4,0.8,0.8,1.2,1.2c26.5,33.8,52.6,67.6,79.1,101.4
			c1.5,1.9,3.1,3.8,4.6,5.8c0,0,0,0,0.4,0c-13.1-39.2-26.5-78.3-39.6-117.9c-1.9,0-3.8,0.4-5.4,0.4c-13.4,1.2-26.1,4.2-38.8,8.8
			C850.2,474.9,850.2,475.3,849.8,475.6z"/>
		<path fill="#6A6A6A" d="M1070.2,475.6c-0.4-0.4-0.4-0.8-0.8-1.2c-10-3.1-20-6.5-30.7-7.7c-4.6-0.4-8.8-0.8-13.4-1.5
			c-13.1,39.6-26.5,78.7-39.6,117.9c0.4-0.4,0.8-0.8,1.2-1.2c27.6-35.3,54.9-70.3,82.6-105.6C1069.4,476.4,1069.8,476,1070.2,475.6
			c-0.4,0.8-0.8,1.2-1.2,1.5c-8.1,11.9-15.7,23.8-23.8,35.3c-15,22.3-30,44.9-45.3,67.2c-1.9,3.1-3.8,5.8-5.8,8.8
			c0.8-0.4,1.2-0.4,1.5-0.8c33.8-27.3,67.2-54.5,101-81.8c1.9-1.5,3.8-3.1,5.8-4.6c-0.4,0.4-0.8,0.8-1.2,1.5
			c-12.3,11.5-24.6,23-36.5,34.2c-18.8,17.7-38,35.3-56.8,53.4c-1.9,1.9-3.8,3.5-5.8,5.4c0.4,0,1.2-0.4,1.5-0.4
			c26.5-12.3,53-24.2,79.1-36.5c8.1-3.8,16.1-7.3,24.2-11.1c0.4-0.4,1.2-0.8,1.2-1.2c-0.4-4.6-1.2-9.6-1.5-14.2
			c-1.2-10.4-2.3-20.7-3.8-30.7c-0.8-6.5-1.5-13.1-2.3-19.6c-0.4,0-0.4,0-0.4-0.4c-9.6-2.3-18.8-4.6-28.4-6.9
			C1071,475.3,1070.6,475.6,1070.2,475.6z"/>
		<path fill="#6A6A6A" d="M812.2,548.2c-3.1,25.3-5.8,50.3-8.8,75.6c2.7-0.4,5-0.8,7.3-0.8c17.3-2.7,34.2-6.9,50.7-12.3
			c14.6-4.6,29.6-6.9,45.3-6.1c1.9,0,3.5,0.4,5.4,0.4v-0.4C878.6,585.9,845.6,567,812.2,548.2z"/>
		<path fill="#6A6A6A" d="M1107.8,548.2c-33.4,18.8-66.4,37.6-99.8,56.4c2.7,0,5.4,0,8.1-0.4c13.8-0.4,27.3,1.5,40.3,5.4
			c17.3,5.4,34.9,10.4,53,13.1c2.3,0.4,5,0.8,7.7,1.2C1114,598.5,1110.9,573.6,1107.8,548.2z"/>
		<path fill="#6A6A6A" d="M960,642.7c25.3,0,50.7,0,76.4,0c1.2,0,1.9-0.4,1.9-1.5c0-5.4,0-10.8,0-16.1c0-1.2-0.4-1.5-1.5-1.5
			c-19.2,0-38.8,0-58,0c-0.8,0-1.5,0.4-2.3,0.8c-5,2.7-10,5.4-14.6,8.4c-1.2,0.8-1.9,0.8-3.1,0c-5-2.7-9.6-5.8-14.6-8.4
			c-0.8-0.4-1.5-0.8-2.3-0.8c-19.2,0-38.8,0-58,0c-1.2,0-1.5,0.4-1.5,1.5c0,5.4,0,10.8,0,16.1c0,1.5,0.4,1.9,1.9,1.9
			C909.3,642.7,934.7,642.7,960,642.7z"/>
		<path fill="#6A6A6A" d="M812.2,548.2c33.4,18.8,66.4,37.6,99.5,56.4v0.4c-1.9,0-3.5-0.4-5.4-0.4c-15.4-1.2-30.3,1.5-45.3,6.1
			c-16.5,5.4-33.4,9.6-50.7,12.3c-2.3,0.4-4.6,0.8-7.3,0.8C806,598.5,809.1,573.6,812.2,548.2z"/>
		<path fill="#6A6A6A" d="M1107.8,548.2c3.1,25.3,5.8,50.3,8.8,75.6c-2.7-0.4-5-0.8-7.7-1.2c-18-2.7-35.7-7.7-53-13.1
			c-13.1-4.2-26.5-6.1-40.3-5.4c-2.7,0-5.4,0.4-8.1,0.4C1041.4,585.9,1074.4,567,1107.8,548.2z"/>
		<path fill="#6A6A6A" d="M1102.5,501.8c-1.9,1.5-3.8,3.1-5.8,4.6c-33.8,27.3-67.2,54.5-101,81.8c-0.4,0.4-0.8,0.8-1.5,0.8
			c1.9-3.1,3.8-5.8,5.8-8.8c15-22.3,30-44.9,45.3-67.2c8.1-11.9,15.7-23.4,23.8-35.3c0.4-0.4,0.8-1.2,0.8-1.5l0,0
			c0.4,0,0.8-0.4,1.2-0.4c9.6,2.3,18.8,4.6,28.4,6.9c0,0,0.4,0,0.4,0.4C1100.9,488.7,1101.7,495.2,1102.5,501.8L1102.5,501.8z"/>
		<path fill="#6A6A6A" d="M817.9,502.1c0-0.4-0.4-0.8-0.4-1.2c0.8-5.8,1.5-11.9,1.9-17.7c0-0.8,0.4-1.2,1.2-1.2
			c8.8-2.3,18-4.2,26.9-6.5c0.8,0,1.5-0.8,1.9,0l0,0c2.3,3.5,4.2,6.5,6.5,10c12.3,18.4,25,37.2,37.2,55.7
			c10.4,15.4,20.7,30.7,31.1,46.1c0.4,0.4,0.8,1.2,0.8,1.9c-1.9-1.5-4.2-3.5-6.1-5c-33.4-26.9-66.8-54.1-100.2-81
			C818.7,502.5,818.3,502.5,817.9,502.1L817.9,502.1z"/>
		<path fill="#6A6A6A" d="M990.7,471c-0.8,3.8-1.9,7.7-2.7,11.1c-7.3,31.5-14.6,62.6-21.9,94.1c0,0.4-0.4,0.8-0.4,1.2
			c-1.9-29.6-3.5-59.1-5.4-88.7H960c-1.9,29.6-3.5,59.1-5.4,89.1l0,0c-0.8-3.5-1.5-6.5-2.3-10c-7.7-32.3-15-64.1-22.7-96.4
			c0-0.4,0-0.4-0.4-0.8l0,0c0-1.2,0.8-0.4,1.2-0.4c3.8,1.5,8.1,3.1,11.9,5c6.5,3.1,12.3,7.3,17.7,11.9c3.1-2.3,6.1-4.6,9.2-6.9
			c6.5-4.6,13.4-7.7,20.7-10.4C990,470.7,990.7,469.9,990.7,471L990.7,471z"/>
		<path fill="#6A6A6A" d="M1070.2,475.6L1070.2,475.6c-0.4,0.4-0.8,0.8-1.2,1.2c-27.6,35.3-54.9,70.3-82.6,105.6
			c-0.4,0.4-0.8,0.8-1.2,1.2c13.1-39.2,26.5-78.3,39.6-117.9c4.6,0.4,9.2,0.8,13.4,1.5c10.4,1.2,20.7,4.6,30.7,7.7
			C1069.4,474.9,1069.8,475.3,1070.2,475.6z"/>
		<path fill="#6A6A6A" d="M849.8,475.6c0.4-0.4,0.4-0.8,0.8-0.8c12.7-4.2,25.7-7.7,38.8-8.8c1.9,0,3.5-0.4,5.4-0.4
			c13.1,39.2,26.5,78.3,39.6,117.9c0,0,0,0-0.4,0c-1.5-1.9-3.1-3.8-4.6-5.8c-26.5-33.8-52.6-67.6-79.1-101.4
			C850.6,476.4,850.2,476,849.8,475.6L849.8,475.6z"/>
		<path fill="#6A6A6A" d="M960,642.7c-25.3,0-50.7,0-76.4,0c-1.5,0-1.9-0.4-1.9-1.9c0-5.4,0-10.8,0-16.1c0-1.2,0.4-1.5,1.5-1.5
			c19.2,0,38.8,0,58,0c0.8,0,1.5,0.4,2.3,0.8c5,2.7,9.6,5.4,14.6,8.4c1.2,0.8,1.9,0.8,3.1,0c5-2.7,9.6-5.8,14.6-8.4
			c0.8-0.4,1.5-0.8,2.3-0.8c19.2,0,38.8,0,58,0c1.2,0,1.5,0.4,1.5,1.5c0,5.4,0,10.8,0,16.1c0,1.5-0.4,1.5-1.9,1.5
			C1011.1,642.7,985.7,642.7,960,642.7z"/>
		<path fill="#6A6A6A" d="M817.9,502.1L817.9,502.1c0.4,0.4,0.4,0.8,0.8,1.2c31.9,30,63.7,59.5,95.6,89.5c1.2,1.2,2.3,2.3,3.5,3.5
			c-3.8-1.9-7.7-3.5-11.1-5.4c-31.1-14.2-62.2-28.4-93.3-43c-0.8-0.4-1.2-0.8-1.2-1.9c1.2-10.8,2.7-21.9,3.8-32.6
			c0.4-3.5,0.8-6.9,1.2-10C817.5,502.9,817.9,502.5,817.9,502.1z"/>
		<path fill="#6A6A6A" d="M1102.5,501.8c1.2,10.4,2.3,20.7,3.8,30.7c0.4,4.6,1.2,9.6,1.5,14.2c0,0.4-0.4,1.2-1.2,1.2
			c-8.1,3.8-16.1,7.3-24.2,11.1c-26.5,12.3-53,24.2-79.1,36.5c-0.4,0.4-0.8,0.4-1.5,0.4c1.9-1.9,3.8-3.5,5.8-5.4
			c18.8-17.7,38-35.3,56.8-53.4c12.3-11.5,24.6-23,36.5-34.2C1101.7,502.9,1102.1,502.1,1102.5,501.8L1102.5,501.8z"/>
		<path fill="#6A6A6A" d="M990.7,471c0.4-0.4,0.8-1.2,1.2-1.2c10.4-3.1,21.5-4.6,32.6-4.2c-16.5,38-32.6,76-48.8,114c0,0,0,0-0.4,0
			c1.2-6.9,1.9-13.4,3.1-20.4c1.5-9.6,2.7-19.6,4.2-29.2c1.5-10.4,3.1-20.7,4.2-31.1c1.2-8.8,2.7-17.7,3.8-26.9
			C990.7,471.8,990.7,471.4,990.7,471L990.7,471z"/>
		<path fill="#6A6A6A" d="M929.3,471c0.4,2.7,0.4,5.4,0.8,8.1c1.5,10.4,3.1,20.7,4.6,31.1c1.5,10.4,3.1,20.7,4.6,31.1
			c1.5,9.6,2.7,19.6,4.2,29.2c0.4,3.1,0.8,5.8,0.8,8.8c-16.1-37.6-32.3-75.6-48.8-113.7c3.8,0,7.7,0,11.5,0.4
			c6.9,0.4,14.2,1.9,20.7,3.8C928.1,470.3,928.9,470.7,929.3,471L929.3,471z"/>
	</g>
	<g>
		<path fill="#6A6A6A" d="M223.1,739.8h15l31.1,73.3h-16.9l-6.5-16.1H215l-6.5,16.1H192L223.1,739.8z M240,782.8l-9.6-23.8
			l-9.6,23.4H240V782.8z"/>
		<path fill="#6A6A6A" d="M284.5,740.6h17.3l19.2,30.7l19.2-30.7h16.9v72.6h-15.7v-47.6L321,796.7h-0.4L300.3,766v47.2h-15.7V740.6z
			"/>
		<path fill="#6A6A6A" d="M379,740.6h54.9v14.2h-38.8v14.6h34.2v14.2h-34.2V799h39.6v14.2H379V740.6z"/>
		<path fill="#6A6A6A" d="M452.7,740.6h33.4c9.2,0,16.5,2.7,21.1,7.3c4.2,4.2,6.1,9.6,6.1,16.5v0.4c0,11.9-6.5,19.2-15.7,22.7
			l17.7,26.1h-18.8l-15.7-23.4h-0.4h-12.3v23.4H452v-73H452.7z M485,775.9c7.7,0,12.3-4.2,12.3-10.4v-0.4c0-6.9-4.6-10.4-12.7-10.4
			h-15.7v20.7H485V775.9z"/>
		<path fill="#6A6A6A" d="M532.6,740.6h16.1v72.6h-16.1V740.6z"/>
		<path fill="#6A6A6A" d="M567.9,777.1L567.9,777.1c0-20.7,15.7-38,38-38c13.8,0,21.9,4.6,28.8,11.1l-10.4,11.9
			c-5.8-5-11.1-8.1-18.4-8.1c-12.3,0-21.1,10.4-21.1,22.7v0.4c0,12.3,8.4,23,21.1,23c8.4,0,13.4-3.5,19.2-8.4l10.4,10.4
			c-7.3,8.1-15.7,13.1-30,13.1C583.7,814.3,567.9,797.8,567.9,777.1z"/>
		<path fill="#6A6A6A" d="M677,739.8h14.6l31.1,73.3h-16.9l-6.5-16.1h-30.7l-6.5,16.1h-16.1L677,739.8z M693.9,782.8l-9.6-23.4
			l-9.6,23.4H693.9z"/>
		<path fill="#6A6A6A" d="M738.4,740.6H753l34.2,44.9v-44.9h15.7v72.6h-13.4l-35.3-46.1v46.1h-15.7V740.6z"/>
		<path fill="#6A6A6A" d="M859.8,740.6h33.8c8.4,0,15,2.3,19.2,6.5c3.5,3.5,5,7.3,5,12.3v0.4c0,8.1-4.2,12.7-9.6,15.7
			c8.4,3.1,13.4,8.1,13.4,18v0.4c0,13.4-10.8,20-27.3,20h-34.6V740.6z M890.1,769.8c6.9,0,11.5-2.3,11.5-7.7v-0.4
			c0-4.6-3.8-7.3-10.4-7.3h-15.7v15.4H890.1z M894.3,799.4c6.9,0,11.5-2.3,11.5-8.1v-0.4c0-5-3.5-8.1-11.9-8.1h-18.4V799h18.8V799.4
			z"/>
		<path fill="#6A6A6A" d="M940,740.6h16.1v72.6H940V740.6z"/>
		<path fill="#6A6A6A" d="M978,740.6h33.8c8.4,0,15,2.3,19.2,6.5c3.5,3.5,5,7.3,5,12.3v0.4c0,8.1-4.2,12.7-9.6,15.7
			c8.4,3.1,13.4,8.1,13.4,18v0.4c0,13.4-10.8,20-27.3,20H978L978,740.6L978,740.6z M1008.4,769.8c6.9,0,11.5-2.3,11.5-7.7v-0.4
			c0-4.6-3.8-7.3-10.4-7.3h-15.7v15.4H1008.4z M1013,799.4c6.9,0,11.5-2.3,11.5-8.1v-0.4c0-5-3.5-8.1-11.9-8.1h-18.4V799h18.8V799.4
			z"/>
		<path fill="#6A6A6A" d="M1057.5,740.6h16.1V799h36.1v14.6h-52.2V740.6z"/>
		<path fill="#6A6A6A" d="M1125.9,740.6h54.9v14.2H1142v14.6h34.2v14.2H1142V799h39.6v14.2h-55.3v-72.6H1125.9z"/>
		<path fill="#6A6A6A" d="M1230,802.4l9.6-11.5c6.5,5.4,13.4,8.8,21.9,8.8c6.5,0,10.4-2.7,10.4-6.9v-0.4c0-4.2-2.3-6.1-14.6-9.2
			c-14.6-3.8-24.2-7.7-24.2-22.3v-0.4c0-13.1,10.8-21.9,25.3-21.9c10.8,0,19.6,3.5,26.9,9.2l-8.4,11.9c-6.5-4.6-12.7-7.3-18.8-7.3
			s-9.2,2.7-9.2,6.5v0.4c0,4.6,3.1,6.5,15.7,9.6c14.6,3.8,23,9.2,23,21.9v0.4c0,14.6-11.1,22.7-26.9,22.7
			C1249.9,814.3,1238.8,810.5,1230,802.4z"/>
		<path fill="#6A6A6A" d="M1302.5,777.1L1302.5,777.1c0-20.7,16.1-38,38.8-38c22.3,0,38.4,16.9,38.4,37.2v0.4
			c0,20.7-16.1,37.6-38.8,37.6C1318.7,814.3,1302.5,797.8,1302.5,777.1z M1363.2,777.1L1363.2,777.1c0-12.7-9.2-23-21.9-23
			c-13.1,0-21.9,10.4-21.9,22.7v0.4c0,12.3,9.2,23,21.9,23C1354,800.1,1363.2,789.4,1363.2,777.1z"/>
		<path fill="#6A6A6A" d="M1395.1,777.1L1395.1,777.1c0-20.7,15.7-38,38-38c13.8,0,21.9,4.6,28.8,11.1l-10.4,11.9
			c-5.8-5-11.5-8.1-18.4-8.1c-12.3,0-21.1,10.4-21.1,22.7v0.4c0,12.3,8.4,23,21.1,23c8.4,0,13.4-3.5,19.2-8.4l10.4,10.4
			c-7.3,8.1-15.7,13.1-30,13.1C1410.8,814.3,1395.1,797.8,1395.1,777.1z"/>
		<path fill="#6A6A6A" d="M1479.9,740.6h16.1v72.6h-16.1V740.6z"/>
		<path fill="#6A6A6A" d="M1518.3,740.6h54.9v14.2h-38.8v14.6h34.2v14.2h-34.2V799h39.6v14.2h-55.3v-72.6H1518.3z"/>
		<path fill="#6A6A6A" d="M1609,755.2h-22.3v-14.6h60.3v14.6h-22.3v58H1609V755.2z"/>
		<path fill="#6A6A6A" d="M1684.2,784.4l-28-44.2h18.8l17.3,29.2l17.7-29.2h18l-28,43.8v29.2h-16.1v-28.8H1684.2z"/>
	</g>
</g>
</svg>
