<?xml version="1.0" encoding="utf-8"?>
<!-- Generator: Adobe Illustrator 18.1.1, SVG Export Plug-In . SVG Version: 6.00 Build 0)  -->
<svg class="fill-path" version="1.1" id="Layer_1" xmlns="http://www.w3.org/2000/svg" xmlns:xlink="http://www.w3.org/1999/xlink" x="0px" y="0px"
	 viewBox="0 481.9 1920 956.3" enable-background="new 0 481.9 1920 956.3" xml:space="preserve">
<path fill="#6A6A6A" d="M1035.7,1053.3c4.6,0,7.7,1.2,10.4,1.9l1.5-5.4c-1.5-1.2-5.8-2.3-12.3-2.3c-16.1,0-26.9,10.8-26.9,27.3
	c0,16.9,10.8,26.1,25.3,26.1c6.1,0,11.1-1.5,13.4-2.3l-1.5-5.4c-2.7,1.5-6.9,1.9-10.8,1.9c-12.7,0-19.6-8.1-19.6-20.7
	C1015.7,1061,1023.8,1053.3,1035.7,1053.3L1035.7,1053.3z M1134.4,1070.2h-25v-21.9h-6.9v51.5h6.9v-24.2h25v24.2h6.9v-51.5h-6.9
	V1070.2L1134.4,1070.2z M1231.2,1079.1c0,11.5-4.6,16.1-12.7,16.1c-6.9,0-11.9-4.6-11.9-16.1v-30.7h-6.9v30.3
	c0,16.1,7.7,22.3,18.4,22.3c11.1,0,19.2-6.5,19.2-22.3v-30.3h-6.9L1231.2,1079.1L1231.2,1079.1z M1317.9,1075.6L1317.9,1075.6
	c5.4-1.9,10-6.5,10-13.4c0-4.2-1.5-7.3-4.2-10c-3.1-3.1-7.7-4.2-15-4.2c-4.6,0-9.6,0.4-13.1,1.2v51.5h6.9v-22.3h6.1
	c6.1,0.4,8.8,3.1,10.4,10.4c1.5,6.5,2.7,10.8,3.5,12.3h6.9c-1.2-1.9-2.3-6.9-4.2-14.2C1324.5,1081,1322.2,1077.2,1317.9,1075.6
	L1317.9,1075.6z M1309.5,1072.9h-6.9v-18.8c1.2-0.4,3.5-0.8,6.5-0.8c7.3,0,11.9,3.1,11.9,9.6
	C1321,1069.1,1316.8,1072.9,1309.5,1072.9L1309.5,1072.9z M1408.2,1053.3c4.6,0,7.7,1.2,10.4,1.9l1.5-5.4c-1.5-1.2-5.8-2.3-12.3-2.3
	c-16.1,0-26.9,10.8-26.9,27.3c0,16.9,10.8,26.1,25.3,26.1c6.1,0,11.1-1.5,13.4-2.3l-1.5-5.4c-2.7,1.5-6.9,1.9-10.8,1.9
	c-12.7,0-19.6-8.1-19.6-20.7C1387.8,1061,1396.3,1053.3,1408.2,1053.3L1408.2,1053.3z M1506.9,1048.7v21.9h-25v-21.9h-6.9v51.5h6.9
	V1076h25v24.2h6.9v-51.5H1506.9L1506.9,1048.7z"/>
<path fill="#6A6A6A" d="M1618.6,937.4c-13.1,4.6-24.2,8.4-41.5,7.3c-10.4-0.4-20.4-1.9-30.3-3.1c-10-1.2-19.6-3.1-30.3-3.1
	c-39.2,0-66,11.5-94.5,21.5c-3.8,1.5-8.1,4.2-12.3,2.3c1.5-3.1,4.6-5,7.3-7.3c14.2-10.4,26.5-21.1,36.9-36.1
	c4.2-5.8,7.3-13.4,5.8-22.3c-1.5-5.4-5-10.4-10.4-12.7c-6.1-3.1-22.3-2.3-28.8-0.8c-8.1,1.9-15.4,6.5-22.3,10
	c-7.3,3.5-13.4,8.4-19.6,13.4c-9.2,7.3-17.7,15.7-23.8,25c-1.9,3.1-3.5,7.3-6.5,10.4c-2.3,2.3-6.5,4.2-10.4,6.5
	c-3.1,1.9-8.1,5.8-11.5,5.4c-5-0.4-8.8-9.6-7.3-16.1c0.8-4.2,5.8-7.7,7.3-10c6.9-7.3,10.8-11.1,17.3-18c3.1-3.5,5.4-7.3,7.7-10
	c10-11.9,19.6-24.6,31.9-39.2c5-6.1,9.6-13.8,14.2-21.1s9.2-15,13.1-22.3c1.5-3.8,4.6-7.3,6.1-11.5c4.2-12.3,11.1-29.2,1.5-41.9
	c-3.1-4.2-8.8-9.6-15-10c-3.5-0.4-6.9,3.1-9.6,5c-19.6,14.2-35.7,30-49.9,48.4c-11.9,15.4-22.3,33-31.5,51.8
	c-1.9,4.2-5.4,16.9-9.6,18.8c-2.3,1.2-5.4,0.4-8.1,0.8c-15.4,1.2-25.3,5-36.1,10c-4.6,1.9-8.8,3.5-12.7,5.8c-7.3,4.6-15,9.6-21.9,15
	s-11.9,12.3-19.2,17.7c-5.8,4.6-14.6,7.3-21.9,10.4c-3.1,1.5-6.1,3.1-10.8,4.6c-3.8,1.5-10,3.8-11.9,1.5c-1.9-1.9,1.2-11.1,2.3-14.6
	c1.9-5.4,4.6-10,5.4-13.8c2.7-10.8-1.2-23-10-26.1c-6.1-1.9-11.5,0-16.9,2.7c-3.5,1.5-7.3,3.1-10.4,4.6c-3.8,2.3-6.5,5.8-11.1,8.4
	c-3.5,1.9-8.1,3.8-12.3,5.8c-9.2,4.2-14.6,8.1-23.4,12.7c-3.5,1.5-10,6.1-12.7,5.8c-2.7-0.4-6.1-6.1-6.9-9.6
	c-1.5-8.1,4.6-13.1,9.6-16.9c4.2-3.5,9.2-8.4,16.1-7.3c2.7,0.8,3.5,2.7,5,4.6c5.4,6.9,16.5,3.5,22.3-4.6c1.5-1.9,3.1-4.6,4.6-7.3
	s3.5-5,4.2-7.3c3.8-13.1-8.8-18.8-20.4-18c-2.7,0-5.8,1.5-8.8,1.5c-10,1.5-17.7,3.5-26.1,6.1c-28,8.4-53,16.1-78.7,28
	c-4.2,1.5-11.9,6.5-15.4,6.5c-4.2-0.4-5.4-6.5-10.4-7.3c-6.5-1.5-13.4,2.7-17.3,4.6c-1.9,1.2-4.6,1.5-6.1,2.7
	c-4.2,2.7-11.5,10.8-13.8,15s-2.3,7.7-5.4,10.8c-2.3,2.3-6.9,4.2-10.4,6.5c-6.5,3.5-16.9,8.4-22.7,11.5c-3.5,1.5-10.4,5.8-12.3,0.8
	c1.5-8.4,6.5-15.4,11.1-21.5c9.6-12.7,18-25,28-37.2c4.6-6.1,10.4-12.7,11.9-21.1c2.3-13.1-3.5-30.3-13.4-33.4
	c-6.5-1.9-14.2,1.2-15.4,6.5c-0.4,1.5,0.8,4.6,0.4,7.3c-1.2,9.6-6.1,20.7-11.1,26.1c-3.8,3.8-8.8,7.3-13.4,11.1
	c-21.9,19.2-45.3,37.2-72.2,50.7c-6.5,3.5-10.4,4.6-16.9,7.3c-1.9,1.2-5.4,2.3-9.2,3.1c-13.4,1.9-7.3-7.3-3.5-13.4
	c2.3-3.8,4.2-7.3,6.1-10c5-7.3,10.4-12.7,13.1-19.2c1.5-3.1,2.3-8.1,1.5-11.9c-1.2-4.2-3.8-5.8-6.5-7.3c-2.3-1.5-4.6-3.5-8.4-3.8
	c-4.6,0-7.3,5.8-10.4,8.4c-10.4,9.6-19.2,16.9-30.3,25.7c-10,8.1-19.6,17.7-31.5,24.2c-2.7,1.5-10.4,6.9-13.4,4.2
	c-3.1-2.3,1.5-11.1,4.6-15c3.1-4.6,6.1-8.1,9.6-11.1c20-19.2,44.9-32.6,73.7-40.7c6.5-1.5,11.1-2.7,13.4-8.1
	c2.7-8.4-9.2-15.4-15-17.7c-3.5-1.5-10-1.5-15-1.5c-5,0.4-10.4,0-14.6,0.8c-7.3,1.2-15.4,3.5-22.7,5c-54.9,13.4-105.6,29.2-151.7,48
	c-7.7-10.8-17.7-19.2-28.8-26.1c28-21.5,58-48.4,74.5-82.9c5.4-11.5,11.9-25.7,11.9-40.7c0-13.1-5-24.2-11.1-33
	c-5.8-7.7-13.4-17.3-24.6-20c-5-1.5-10.4-0.8-15.7-1.9c-1.2,0-1.9,0-3.1,0c-21.5,2.3-38,10.8-53.8,20c-7.7,4.6-16.1,8.1-23.4,13.4
	c-21.5,15-39.6,32.3-59.9,50.3c-9.2,8.1-18.4,17.7-27.3,28c-1.5,1.9-6.5,9.6-9.6,8.4c-2.3-0.8-4.6-10.8-5.8-13.4
	c-5.4-10.4-15.4-21.1-27.3-26.1c-3.8-1.5-9.6-4.2-14.6-3.1c-8.1,1.5-12.7,13.4-8.4,22.3c2.3,5.8,8.4,6.1,11.1,10
	c6.9,8.8,7.3,27.6,6.9,43.4c0,5,0,11.1-1.2,15.7c-1.2,4.2-4.6,7.7-7.3,11.5c-21.5,33.4-42.6,68-59.1,107.1
	c-3.8,8.4-6.5,18.4-9.2,27.6c-3.1,9.6-5.8,19.2-7.3,30c-1.5,10.8-1.5,23-2.3,35.7c0,1.2,0,2.3,0,3.5c0.4,7.3,1.2,13.4,3.5,19.2
	c1.9,5,4.6,10.8,10,12.3c10.4,2.7,15.4-6.5,19.6-12.3c3.1-4.2,6.1-8.1,8.4-11.5c11.5-16.9,19.6-33.8,28.8-51.8
	c4.6-8.8,10.4-17.7,13.4-27.3c6.9-20.7,14.2-40.3,19.6-61.1c2.7-10.4,5.4-21.5,8.1-32.3s4.6-22.3,7.3-33.4c1.5-5.4,5.4-9.6,9.2-14.6
	c8.8-11.1,19.6-24.6,28.4-33.8c13.4-14.6,25.7-30,40.3-42.6c14.6-13.1,29.2-25,46.1-36.9c7.3-5.4,15.7-11.1,25.3-16.1
	c8.1-3.8,22.3-11.9,32.3-8.1c6.1,1.9,11.9,10.4,12.3,19.2c1.2,15.7-6.5,29.2-13.1,39.6c-3.5,5.4-7.3,10.4-11.1,15
	c-4.2,4.6-7.7,10-12.3,13.8c-9.6,8.8-18.4,16.5-27.3,25c-4.2,3.8-8.8,8.8-13.4,12.7c-4.6,3.8-10.8,9.2-16.1,10.4
	c-2.3,0.8-5.4,0.8-7.7,1.2c-1.9,0.4-4.2,1.5-6.1,1.9c-4.6,1.5-8.8,1.5-13.1,3.1c-7.3,1.9-15.7,5.4-23,8.8c-6.5,3.1-13.8,7.3-20,11.9
	c-5,3.8-13.4,10-13.1,19.2c0.8,10,13.4,13.1,23.8,13.4c13.1,0.4,21.1-2.7,30-6.9c5-2.3,10.4-4.6,15.4-7.3
	c10.4-5,19.2-11.9,28.8-16.1c0.8,1.5,1.5,1.5,2.7,2.3c8.4,5,16.1,12.7,21.5,20.7c-48.4,21.1-93.3,48-131.3,82.9
	c-27.6,25.3-51.8,55.3-66.4,94.5c-4.6,12.3-9.2,30.7-5,46.1c1.5,4.6,3.1,7.3,5,11.5c5,5.4,9.6,9.6,16.5,12.3
	c15.4,5.8,36.9,3.1,51.8-1.5c16.1-5,30-11.5,42.6-18.4c26.9-14.2,49.9-31.9,69.9-51.5c20.4-19.6,40.3-42.2,54.5-66.4
	c7.3-11.9,14.2-26.5,18-42.6c3.8-16.9,1.5-37.6-4.2-52.6c22.3-9.2,49.5-19.2,72.2-25.3c1.2,3.5-0.4,6.1-1.5,8.1
	c-3.5,7.3-7.3,13.1-10.4,21.1c-3.5,8.1-8.8,23-3.8,33.8c1.9,4.6,6.1,8.4,10,10.4c1.9,1.2,4.6,1.5,7.3,1.9c2.3,0.8,4.6,1.9,6.9,2.3
	c13.4,2.7,25.3-5.4,34.2-11.1c4.2-2.7,8.8-6.1,13.8-9.6c1.9-1.5,13.4-8.8,15.7-7.3c1.5,1.2,0,8.8,0.8,11.5c1.5,5.8,5.4,10,10.4,11.9
	c10.4,4.6,25.7-1.5,33.8-5.8c18-8.4,36.5-19.2,51.1-30c3.1-2.3,5.8-5.8,10-5.8c1.2,5-1.9,13.4-1.5,21.5c0.4,2.7,1.9,5,1.5,7.3
	c-0.8,3.1-10.4,7.3-14.2,9.6c-5.4,3.5-10.8,6.1-15,8.8c-10,7.3-19.2,13.4-28.8,19.2c-10,6.1-18.8,13.4-27.6,20.4
	c-8.8,7.3-16.5,15.7-25,23c-16.5,15.4-31.5,32.3-43.8,51.8c-3.1,4.6-5,10.4-7.7,16.1c-7.7,14.2-14.6,39.6-5.4,58.4
	c3.1,6.1,7.7,11.9,12.7,16.9c1.9,2.3,5.4,4.2,8.1,6.5c7.3,5,13.4,7.3,23.4,10.4c15,4.2,31.1,6.9,50.3,7.3c1.2,0,1.9,0,3.1,0
	c17.7-2.3,32.3-6.1,45.7-13.1c13.4-6.9,26.5-11.5,37.6-20.7c5.8-4.6,11.5-7.7,17.3-11.9c22.3-16.5,38.8-38.4,52.6-64.1
	c3.5-6.5,6.9-13.1,9.6-19.6c14.6-33.8,28-70.7,25-119.8c-0.4-4.2-0.8-9.2-0.8-13.8s0.4-10.4,1.5-13.1c1.5-3.5,10.8-5.8,15.4-7.3
	c12.3-4.6,22.3-8.1,33.8-12.7c4.6-1.5,13.8-6.5,16.9-5.8c1.9,0.8,2.7,3.8,3.8,6.5c3.1,8.1,7.3,13.1,10.8,19.6
	c-4.2,5-10.8,6.1-16.5,8.4c-11.1,5-22.7,11.1-31.9,19.2c-7.3,5.8-19.2,16.5-10.4,27.3c2.7,3.1,10.8,8.1,13.8,8.1
	c19.2,1.5,33.8-5.4,48.8-13.4c13.4-7.3,28-16.5,32.6-30.7c0.8-2.3,0.4-7.7,1.5-10c1.5-3.1,7.3-5,11.5-7.3c10-4.6,16.1-7.3,25-12.3
	c2.3-1.5,10-7.7,12.3-5.4c1.5,1.5-1.2,7.7-1.9,11.1c-3.5,10.4-10,24.6-5,36.1c2.3,5.4,8.4,9.6,15.7,9.6c13.4,0.4,23.4-6.5,31.9-11.1
	c3.1-1.5,6.1-3.5,9.2-5.4c3.1-1.5,5.8-5,9.6-4.6c1.5,3.1,1.2,6.1,1.5,8.4c1.5,8.4,4.6,15.7,10.4,20c8.4,6.1,21.5,4.6,33.4,1.5
	c15.7-4.2,28.8-11.5,39.9-20.7c2.7-1.9,8.8-9.2,12.3-8.1c1.5,0.8,1.9,5,3.5,7.7c1.2,2.3,2.7,4.6,4.2,7.3
	c4.2,9.6,10.8,16.1,23.8,11.5c9.2-3.1,16.1-10.4,25.7-11.9c3.5,1.5,4.2,6.5,6.9,8.8c3.5,3.8,8.8,6.9,14.6,8.1
	c24.2,5.8,48.8-1.9,69.9-7.3c20.4-4.6,42.2-13.1,66.4-14.6c26.1-1.9,51.5,1.9,79.1,0.4c19.2-1.2,33.8-7.3,46.5-15.4
	c4.6-2.7,10-5,11.5-8.8c1.2-2.3,2.3-8.4,1.5-11.1C1637.8,933.5,1626.3,934.7,1618.6,937.4L1618.6,937.4z M1340.6,860.6
	c7.7-18.8,18.4-36.5,30.7-51.5c5-6.1,10.4-12.7,16.1-16.9c0.4-0.4,1.5-1.5,1.9-0.4c1.9,1.5-0.4,4.2-1.2,5.8
	c-10.8,25.3-25,47.2-42.2,66.8c-2.3,3.1-4.6,6.9-8.4,7.7C1336.8,868.3,1339.4,864,1340.6,860.6L1340.6,860.6z M340.7,984.6
	c-1.9,10.4-6.1,21.5-10,31.1c-3.5,8.1-7.3,16.1-10.8,24.2c-1.2,2.3-1.5,6.1-4.6,7.3c-1.9-2.7,0.4-6.1,1.2-8.4
	c1.2-2.7,1.5-6.1,2.3-8.8c3.1-11.1,8.4-21.9,13.1-33c2.3-5.8,5.4-11.9,8.4-16.1h0.4C342.6,981.2,340.7,983.8,340.7,984.6
	L340.7,984.6z M562.6,985c-6.5,23.4-19.6,41.1-33.4,58c-26.9,33.4-60.7,59.9-101,81c-4.6,2.3-10,5-15.7,7.3
	c-13.4,5.4-39.9,10.4-41.9-8.4c-0.4-5.4,2.7-12.7,5-18.4c6.5-16.1,16.9-30,26.5-42.2c40.7-51.5,92.9-91.4,158.6-117.1
	c0.8,0,1.2-0.8,1.2,0C566.4,958.1,566.4,972.7,562.6,985L562.6,985z M929.3,1003.8c-1.5,11.5-4.6,21.1-7.3,31.1
	c-1.2,3.5-2.3,6.1-3.5,9.2c-1.2,3.5-0.8,6.1-1.5,10c-1.2,4.2-3.1,8.4-4.6,12.7c-5.4,13.8-11.5,26.9-19.2,39.6
	c-7.3,13.1-16.5,24.6-28,34.6c-5.4,4.6-11.9,8.8-17.7,13.4c-10,8.1-20,13.4-32.6,18c-4.6,1.5-8.8,4.2-13.4,6.1
	c-1.5,0.8-3.1,0.4-4.6,1.2c-1.5,0.4-1.9,1.5-3.5,1.9c-3.8,1.2-8.4,0.8-13.4,1.5c-22.3,4.6-53,1.5-64.9-9.6
	c-3.5-3.1-7.7-9.6-8.4-15.4c-1.9-12.7,5-28.4,9.2-36.5c5-10,13.1-19.6,18.8-27.3c13.4-17.3,29.6-31.9,45.7-45.7
	c8.1-6.9,16.1-15,25-21.1c18-12.7,36.1-23.8,56.1-35.3c4.6-2.7,10.4-5,15-7.7s9.6-6.1,14.2-8.1c5.8-2.3,11.5-4.6,16.9-7.3
	c5-2.3,9.6-7.3,15-8.4c0,0,0.4-0.4,0.8-0.4c4.2-0.8,4.2,1.5,5,8.1C930.5,978.9,930.9,994.2,929.3,1003.8L929.3,1003.8z
	 M1283.8,923.2c-13.4,11.1-25.3,25.3-41.9,33c-2.3,1.2-5,2.3-6.9,0.4c-1.2-3.5,1.5-6.5,3.5-9.2c1.5-2.7,2.7-5.8,4.6-8.1
	c7.3-9.6,19.2-19.2,30.7-25.3c3.8-1.9,9.2-5.4,13.1-5.8c3.5-0.4,5.8,1.5,6.5,3.5C1294.5,916.6,1286.8,920.5,1283.8,923.2
	L1283.8,923.2z M1379,948.1c-1.9-1.9,0.4-4.6,1.5-6.5c5.4-9.6,13.4-18.4,23-24.2c3.1-1.9,10-5.8,13.1-6.1c7.7,0,1.5,6.1-0.8,8.1
	c-7.7,9.2-18.4,16.1-28,23.8C1385.1,945.8,1382.4,948.5,1379,948.1L1379,948.1z M1200.8,867.5c5.4,1.2,14.6-2.7,18.4-5.4
	c5-3.5,4.6-8.8,7.7-14.6c2.7-5,10.8-7.3,10-16.1c-0.4-2.3-2.3-6.1-5-7.3c-1.5-0.8-10.4-1.2-11.9-0.8c-3.5,0.8-7.3,3.1-10.8,5
	c-3.5,1.5-6.9,3.8-9.6,6.1c-4.6,3.8-13.4,10.4-13.8,17.3C1185.1,860.6,1193.9,866.3,1200.8,867.5L1200.8,867.5z"/>
</svg>
