<?xml version="1.0" encoding="utf-8"?>
<!-- Generator: Adobe Illustrator 18.1.1, SVG Export Plug-In . SVG Version: 6.00 Build 0)  -->
<svg class="fill-path" version="1.1" id="Layer_1" xmlns="http://www.w3.org/2000/svg" xmlns:xlink="http://www.w3.org/1999/xlink" x="0px" y="0px"
	 viewBox="0 160 1920 960" enable-background="new 0 160 1920 960" xml:space="preserve">
<path fill="#6A6A6A" d="M192,536.3h47.2v167.8H321v39.6H192V536.3z"/>
<path fill="#6A6A6A" d="M364.4,670l-62.2-133.6h49.9l18.8,47.6c5.4,15.7,10.8,30,16.9,45.7h1.2c5.8-15.7,11.9-30.3,17.7-45.7
	l18.4-47.6h49.2L411.6,670v73.7h-47.2V670z"/>
<path fill="#6A6A6A" d="M495.4,536.3h48l54.1,102.9l20.7,45.7h1.2c-2.3-21.9-6.1-51.1-6.1-75.6v-73h44.5v207.4h-48l-54.1-103.3
	l-20.4-45.3h-1.2c2.3,23,6.1,50.7,6.1,74.9v73.7h-44.9V536.3z"/>
<path fill="#6A6A6A" d="M706.6,536.3h48l54.1,102.9l20.7,45.7h1.2c-2.3-21.9-6.1-51.1-6.1-75.6v-73H869v207.4h-48l-54.1-103.3
	l-20.4-45.3h-1.2c2.3,23,6.1,50.7,6.1,74.9v73.7h-44.9V536.3z"/>
<path fill="#6A6A6A" d="M984.2,536.3h47.2v167.8h81.8v39.6H984.6L984.2,536.3L984.2,536.3z"/>
<path fill="#6A6A6A" d="M1135.5,536.3h46.8v116c0,40.7,12.7,54.5,36.1,54.5c23,0,36.9-13.8,36.9-54.5v-116h45.3v111.4
	c0,69.5-28.4,99.8-82.2,99.8s-82.6-30.3-82.6-99.8V536.3H1135.5z"/>
<path fill="#6A6A6A" d="M1439.6,532.5c29.2,0,50.7,13.1,64.5,26.9l-25.7,28.8c-10.4-9.6-20.4-15.7-38-15.7
	c-31.9,0-54.5,25-54.5,66.8c0,42.6,19.6,67.6,58.4,67.6c8.4,0,16.9-2.3,21.9-6.5v-35.7h-34.2v-38h76v95.6c-15,13.1-40.7,25-69.5,25
	c-56.1,0-100.6-36.5-100.6-106.4C1337.5,572.4,1383.2,532.5,1439.6,532.5z"/>
<path fill="#6A6A6A" d="M1539.8,639.2c0-67.6,38.4-106.4,94.1-106.4c56.1,0,94.1,39.2,94.1,106.4c0,67.6-38,108.3-94.1,108.3
	C1578.2,747.5,1539.8,706.8,1539.8,639.2z M1680,639.2c0-41.5-17.7-66-46.1-66c-28,0-46.1,25-46.1,66c0,41.9,18,68,46.1,68
	C1662.3,707.2,1680,680.7,1680,639.2z"/>
</svg>
