<?xml version="1.0" encoding="utf-8"?>
<!-- Generator: Adobe Illustrator 18.1.1, SVG Export Plug-In . SVG Version: 6.00 Build 0)  -->
<svg class="fill-path" version="1.1" id="Layer_1" xmlns="http://www.w3.org/2000/svg" xmlns:xlink="http://www.w3.org/1999/xlink" x="0px" y="0px"
	 viewBox="0 481.9 1920 956.3" enable-background="new 0 481.9 1920 956.3" xml:space="preserve">
<polygon fill="#6A6A6A" points="193.1,864 332.7,864 193.1,1054.4 193.1,1094.2 381.1,1094.2 381.1,1055.9 242.5,1055.9 
	381.1,865.5 381.1,825.7 193.1,825.7 "/>
<path fill="#6A6A6A" d="M645.7,870.9l-50.3-45.3h-94.4l-51,45.3v70.2l-22.2,19.6l22.3,19.2v68.6l50.6,45.3h94.4l50.3-45.3v-68.6
	l22.3-19.2l-22.3-19.6v-70.2H645.7z M607.3,1030.6l-28.8,25.3h-61.3l-28.8-25.3V889.7l28.8-25.7h61.3l28.8,25.7V1030.6z"/>
<polygon fill="#6A6A6A" points="1336.2,825.7 1297.9,825.7 1297.9,941.2 1275.6,960.7 1297.9,980.3 1297.9,1094.2 1459,1094.2 
	1459,1055.9 1336.2,1055.9 "/>
<polygon fill="#6A6A6A" points="788.9,825.7 737.8,870.9 737.8,941.6 715.5,960.7 737.8,980.6 737.8,1049.4 788.9,1094.2 
	883.2,1094.2 933.4,1049 933.4,998.3 895.1,998.3 895.1,1031.3 866.7,1055.9 805.4,1055.9 776.2,1030.6 776.2,889.3 805.4,864 
	866.7,864 895.1,888.6 895.1,925.4 933.4,925.4 933.4,870.9 883.2,825.7 "/>
<path fill="#6A6A6A" d="M1086.5,825.7l-44.2,118.2l-32.3,16.9l18.4,20.4l-42.2,113.2h40.7l25-69h109l25,69h40.7l-100.1-268.5
	L1086.5,825.7L1086.5,825.7z M1066.6,986.8l39.9-109l39.9,109H1066.6z"/>
<path fill="#6A6A6A" d="M1704.6,941.2v-70.2l-48.8-45.3h-94.4l-48.8,45.3v70.2l-22.3,19.6l22.4,19.2v68.6l48.8,45.3h94.4l48.8-45.3
	v-68.6l22.3-19.2L1704.6,941.2z M1666.2,1030.6l-26.9,25.3H1578l-26.9-25.3V889.7L1578,864h61.3l26.9,25.7V1030.6z"/>
</svg>
