<?xml version="1.0" encoding="utf-8"?>
<!-- Generator: Adobe Illustrator 18.1.1, SVG Export Plug-In . SVG Version: 6.00 Build 0)  -->
<svg version="1.1" id="Layer_1" xmlns="http://www.w3.org/2000/svg" xmlns:xlink="http://www.w3.org/1999/xlink" x="0px" y="0px"
	 viewBox="0 160 1920 960" enable-background="new 0 160 1920 960" xml:space="preserve">
<g id="Stanford" display="none">
	<path display="inline" fill="#353535" d="M828.7,595.8c0-11.1,0-21.9,0-32.6c0-4.6-2.3-7.3-7.3-7.7c-1.2,0-2.3-1.5-3.5-2.7
		c1.2-0.8,2.7-1.9,3.8-1.9c8.8-1.5,18-2.7,27.6-4.2c0,2.7-0.4,5.4-0.4,8.1c0,36.1-0.4,72.2-0.4,108.3c0,1.9,0.4,3.8,0.4,5.8
		c0,5,3.1,7.7,7.7,8.1c3.5,0.4,4.2,1.5,3.5,4.2c-9.6,1.5-18.8,3.5-28,4.6c-5.4,0.8-2.3-4.2-3.8-6.5c-0.8,0.4-1.9,0.8-3.1,1.2
		c-20.4,12.3-56.1,6.5-60.3-30c-2.3-21.5,5-43.4,26.9-52.2c10.8-4.2,22.3-3.8,33.4-2.3C826.8,595.5,827.5,595.8,828.7,595.8z
		 M829.1,640.4c0-8.4,0-17.3,0-25.7c0-1.9-0.8-4.2-1.9-5.4c-11.5-9.2-31.5-4.2-37.2,9.2c-4.2,10.8-5,21.9-2.3,33.4
		c4.2,17.3,20.4,25.7,37.2,20c3.1-1.2,4.6-2.7,4.6-6.1C828.7,657.3,829.1,648.8,829.1,640.4z"/>
	<path display="inline" fill="#353535" d="M905.5,561.3c8.4,0,15.7,0,23,0c6.9,0,14.2,0,21.5,0c0.4,1.5,1.2,3.5-2.7,4.2
		c-6.1,1.2-8.4,4.2-9.2,10.8c-0.4,5.4-0.4,10.8-0.4,16.1c0,16.9,0,33.8,0.4,50.7c0,3.8,0.4,8.1,1.2,11.9
		c1.9,11.1,8.1,17.7,19.2,19.2c6.5,0.8,13.8,0.8,20.4,0c11.5-1.9,18.4-9.6,18.8-23.8c0.8-25,0.4-50.3,0.4-75.3
		c0-5.4-3.5-7.7-8.1-9.2c-1.5-0.4-2.7-2.3-3.8-3.5c0.4-0.4,0.8-0.8,0.8-1.2c13.1,0,26.1,0,39.9,0c0.4,1.9,1.5,4.2-2.7,4.6
		c-5.8,0.8-8.8,4.6-8.8,10.4c-0.4,16.9-0.4,34.2-0.8,51.1c0,8.4-0.4,16.9-1.2,25.3c-1.9,17.3-11.9,28-29.2,31.9
		c-13.4,3.1-26.5,3.1-39.9-0.8c-15.7-4.2-25-15.4-25.7-31.5c-0.8-12.3-0.8-24.2-0.8-36.5c0-12.7,0-25-0.4-37.6
		c0-7.7-1.5-9.2-8.8-11.9C907.4,564.7,906.6,562.8,905.5,561.3z"/>
	<path display="inline" fill="#353535" d="M473.9,684.2c-15.7,0-30,0-45.7,0c1.9-1.9,2.7-3.8,3.8-3.8c5.8-1.2,8.8-4.6,8.8-10.4
		c0.4-18.4,0.4-37.2,0.4-55.7c0-5.4-2.7-8.4-8.4-8.8c-1.2,0-2.7-1.9-3.8-3.1c0.4-0.4,0.8-0.8,0.8-1.2c6.1-0.8,12.7-1.5,18.8-2.3
		c1.5-0.4,3.5-0.8,5-1.2c6.9-2.3,6.9-2.3,7.7,3.8c6.5-1.9,13.1-5,19.6-5.8c5.8-0.8,12.3,0,18,1.5c10.4,3.1,15.7,11.5,16.5,21.9
		c0.8,13.4,0.8,27.3,0.8,40.7c0,3.5,0,6.5,0.4,9.6c0.4,6.9,1.9,8.8,8.4,10.8c1.2,0.4,2.3,1.9,3.5,2.7c-0.4,0.4-0.4,0.8-0.8,1.2
		c-14.2,0-28.4,0-44.2,0c1.9-1.9,2.7-3.8,3.5-3.8c6.1-1.2,8.8-5.4,8.8-10.8c0.4-15.4,0.4-30.7,0-45.7c-0.4-11.1-6.9-16.5-18.4-16.5
		c-1.2,0-1.9,0-3.1,0c-12.7,1.2-13.4,1.9-13.4,14.6c0,15,0,30.3,0,45.3c0,6.5,1.2,12.3,9.6,13.4
		C471.9,680.3,472.7,682.2,473.9,684.2z"/>
	<path display="inline" fill="#353535" d="M1084,683c1.2-1.2,2.3-2.7,3.5-3.1c5.8-1.2,8.1-5,8.4-10.4c0.4-15.7,0.8-31.1,0-46.8
		c-0.4-10.8-6.9-15.7-17.7-16.1c-1.2,0-2.3,0-3.5,0c-12.7,1.2-13.4,1.9-13.4,14.6c0,15,0,29.6,0,44.5c0,6.9,0.8,13.4,9.6,14.6
		c0.8,0,1.5,1.9,2.7,3.8c-15.4,0-29.6,0-45.7,0c1.9-1.9,3.1-3.8,4.2-3.8c5.8-1.2,8.8-5,8.8-10.4c0.4-18.4,0.4-36.9,0.4-55.3
		c0-6.9-1.9-8.1-8.4-9.2c-1.5-0.4-2.3-2.3-4.2-3.8c11.5-1.9,21.1-3.5,31.9-5.4c0,0.4,0.4,1.5,0.8,2.3c0,1.2,0,1.9,0.4,2.7
		c6.9-1.9,13.1-5,20-6.1c5-0.8,10.8-0.4,15.7,0.8c11.1,2.7,18.4,11.1,18.8,22.7c0.8,13.4,0.4,27.3,0.8,40.7c0,3.8,0,7.7,0.4,11.5
		c0.4,5,2.7,8.4,8.1,9.2c1.5,0.4,2.7,1.9,3.8,2.7c-0.4,0.4-0.4,0.8-0.8,1.2c-14.2,0-28.4,0-42.6,0
		C1084.8,683.8,1084.4,683.4,1084,683z"/>
	<path display="inline" fill="#353535" d="M1633.9,596.6c14.2,0,26.9,0,39.9,0c0.8,2.7,0.8,3.8-2.7,5c-5.4,1.5-6.9,4.2-5,9.6
		c6.1,16.5,12.3,33,18.8,50.7c0.8-1.9,1.5-3.5,1.9-4.6c5-14.2,9.6-28.4,14.6-43c3.1-9.2,2.3-10.8-7.3-13.4c0-1.5,0-2.7,0-4.2
		c11.1,0,21.9,0,34.2,0c-0.8,1.5-1.2,4.2-2.3,4.6c-5.8,1.9-7.7,6.5-9.6,11.1c-11.1,29.6-22.3,59.5-33.4,89.1
		c-2.3,6.1-4.6,12.3-8.1,17.7c-8.8,14.2-30.7,18.8-44.9,10c-3.8-2.3-5-4.6-1.5-8.1c0.8-0.8,1.5-1.9,2.3-2.7c4.2-5.4,4.2-5.4,8.8-0.8
		c5.8,5.8,17.3,5.4,21.9-1.9c5.4-8.4,8.8-18,13.1-27.3c0.4-1.2,0-2.7-0.8-3.8c-10-25-19.6-50.3-29.6-75.3c-1.5-3.8-3.5-6.9-7.7-8.1
		C1635.5,600.8,1634.7,598.5,1633.9,596.6z"/>
	<path display="inline" fill="#353535" d="M192,680.7c0-8.4,0-16.9,0-25.3c1.2,0,2.7,0,4.6,0c0.4,8.1,3.8,14.6,11.9,16.9
		c10.4,3.1,21.1,3.8,30.7-2.7c8.8-6.1,9.2-21.9,0-30c-5.8-5-12.3-9.2-18.8-13.8c-5-3.5-10.4-6.9-15-10.8
		c-10.8-8.8-13.4-20.7-10-33.8c3.1-12.3,12.3-19.2,24.2-21.9c14.2-3.1,28.4-1.2,42.6,0.8c0,8.4,0,16.5,0,25
		c-2.3,1.2-3.8,1.2-4.2-2.7c-0.8-7.3-5-11.9-11.9-12.7c-6.5-0.8-13.1-1.2-19.2-0.4c-6.1,0.4-11.5,3.8-13.1,10.4
		c-1.9,6.9-1.5,13.8,4.6,18.8s13.1,9.6,19.6,14.2c5.4,3.8,11.1,7.7,16.5,11.5c16.9,13.1,16.1,49.5-11.5,57.6
		C225.4,686.8,208.9,685.7,192,680.7z"/>
	<path display="inline" fill="#353535" d="M597.1,641.2c0.8-17.3,5.8-33.4,23-41.9c14.2-6.9,29.2-6.9,43.4-0.4
		c11.5,5.4,17.7,15,20,27.3c3.5,18,1.5,34.9-11.9,48.4c-14.2,13.8-31.9,14.6-49.5,8.4c-16.5-5.8-23-19.6-24.2-36.1
		C597.5,645,597.5,643.1,597.1,641.2z M663.9,640.8C664.3,640.4,663.6,640.8,663.9,640.8c-0.4-8.8-1.9-17.7-5.8-25.3
		c-6.9-14.6-26.9-15.4-34.2-1.2c-9.2,17.3-8.4,35.3,0.8,52.2c6.9,13.1,25,12.3,33,0C662.8,658.8,663.9,650,663.9,640.8z"/>
	<path display="inline" fill="#353535" d="M354,615.8c-4.2-0.8-5-3.1-2.7-5.8c3.5-4.2,6.9-8.8,11.1-11.5c10.8-6.1,21.9-6.1,33.4-1.2
		c9.2,3.8,12.7,11.9,12.7,21.1c0.4,13.1,0,26.5,0,39.6c0,2.3,0,5,0,7.3c0.4,6.5,2.7,8.1,8.8,6.5c0.8,0,2.3,0.4,3.1,0.8
		c0.4,0.4,0.4,1.9,0,2.7c-7.7,12.3-25.7,13.1-30.7,1.2c-7.3,6.5-15.7,9.2-25.3,8.4c-11.9-1.2-19.6-7.3-21.5-18
		c-2.3-13.1,2.7-23.4,13.8-28c7.7-3.1,15.7-5.4,23.8-8.4c3.1-1.2,7.7-2.3,8.1-4.6c1.5-5.4,0.4-11.1-3.5-15.4
		c-6.5-7.3-18.8-7.3-26.5-0.4C357.1,612.4,355.6,613.9,354,615.8z M389,638.5c-7.7,3.1-14.2,5.4-20.4,8.8c-8.4,5-8.8,19.6-0.8,23.8
		c4.6,2.7,15.7,1.9,19.6-1.5c0.8-0.8,1.5-1.9,1.5-3.1C389.4,658,389,648.8,389,638.5z"/>
	<path display="inline" fill="#353535" d="M586.4,679.9c1.2,3.8-0.4,4.2-3.5,4.2c-14.6,0-28.8,0-44.9,0c1.5-1.9,2.3-3.8,3.5-3.8
		c6.9-1.2,9.2-5.8,9.6-11.9c0.4-5.8,0.4-11.5,0.4-17.7c0-14.2,0-28,0-43c-3.8,0-7.3,0-10.8,0c-1.5-3.8-0.4-5.8,2.7-6.5
		c6.5-1.9,8.8-5.8,8.1-12.7c-0.4-5,0-10,1.2-15c3.8-21.5,19.2-28.8,38.8-27.3c5.4,0.4,10.8,3.1,16.1,5c3.1,1.2,3.5,3.5,1.5,6.1
		c-1.9,2.3-3.8,5-5.4,7.7c-1.9,2.7-3.1,2.7-5.4-0.4c-2.3-3.1-5.8-6.5-9.2-8.1c-8.4-3.1-16.1,1.5-16.9,10.4
		c-1.2,9.6-1.2,19.2-1.5,29.6c6.9,0,13.1,0,19.6,0c0,3.8,0,7.3,0,11.1c-6.1,0-12.3,0-18.8,0c-0.4,1.2-0.4,1.9-0.4,2.7
		c0,18.8,0,37.6,0.4,56.8c0.4,10.4,2.7,12.3,13.1,13.1C584.8,679.9,585.6,679.9,586.4,679.9z"/>
	<path display="inline" fill="#353535" d="M1296.4,636.2c-1.2,25.7,13.8,46.1,50.3,31.9c3.8,3.1,1.9,5.4-0.8,7.7
		c-14.2,11.1-30.3,12.3-46.8,6.5c-15.4-5.8-21.1-18.8-22.3-34.2c-1.2-12.7,1.2-24.6,7.7-35.7c10.4-16.9,34.2-23.4,51.1-13.1
		c4.6,2.7,8.4,7.3,11.1,11.5c4.2,6.5,5,16.5,3.5,25.7c-8.8,0-18,0-26.9,0C1314.4,636.2,1305.6,636.2,1296.4,636.2z M1296.8,626.9
		c10.4,0,21.1,0,31.9,0c0.8,0,2.3-1.2,2.3-1.9c1.9-7.3-4.2-17.3-11.5-19.6C1306,601.2,1296,610.8,1296.8,626.9z"/>
	<path display="inline" fill="#353535" d="M1182.7,596.6c13.8,0,26.9,0,39.9,0c0.4,1.9,1.5,3.8-2.3,5c-6.1,1.5-7.3,4.2-5,11.1
		c3.8,11.1,8.1,21.9,12.3,32.6c1.5,3.5,2.7,7.3,4.6,12.3c1.5-3.8,2.7-6.5,3.5-9.2c4.6-11.5,9.6-23,14.2-34.9
		c3.1-7.7,2.3-8.8-5.4-12.3c-1.2-0.4-1.5-2.7-3.1-4.6c12.3,0,23.4,0,34.6,0c0,1.2,0,2.7,0,3.8c0,0-0.4,0.4-0.8,0.8
		c-5.8,1.2-8.4,5-10.8,10c-10.4,23-20.4,46.1-30.7,69.1c-0.8,1.5-1.9,3.8-3.8,4.2c-6.1,2.3-6.9,1.9-9.2-4.6
		c-9.2-22.7-18-45.7-27.3-68.4c-1.9-4.6-3.5-9.6-9.2-10.8C1183.9,600.8,1183.5,598.5,1182.7,596.6z"/>
	<path display="inline" fill="#353535" d="M1492.6,618.5c-4.2,1.5-5.4,0.4-6.1-3.1c-2.7-10.4-18-15.4-26.5-8.8
		c-5,3.8-5,12.3,0.4,16.5c3.8,3.1,8.4,5.4,12.7,8.1c3.1,1.9,5.8,3.5,8.8,5.4c10.8,6.9,15,15.4,13.1,26.9s-8.4,18-21.5,20.7
		c-11.9,2.3-23.8,1.5-36.1-2.7c0-7.7,0-15,0-22.7c1.2,0,3.1,0,4.6,0c3.1,14.6,11.5,20,26.1,16.5c4.6-1.2,7.7-3.5,8.8-8.1
		c1.2-5,0.4-9.6-3.8-12.3c-6.5-4.6-13.4-8.8-20.4-13.1c-8.1-5-13.4-11.9-13.1-21.9c0-13.4,7.7-23,21.1-23.8
		c9.6-0.8,19.2,0.4,28.8,0.8c1.2,0,2.7,1.9,3.1,3.1C1492.6,605.8,1492.6,612,1492.6,618.5z"/>
	<path display="inline" fill="#353535" d="M1594,577c0,6.5,0,12.7,0,19.6c10,0,19.6,0,29.6,0c0,3.8,0,6.9,0,11.1
		c-9.6,0-19.2,0-29.6,0c0,7.3,0,13.8,0,20.7c0,9.6,0,19.6,0.4,29.2c0.4,15.7,9.2,21.9,24.2,16.5c1.2-0.4,2.3-0.8,5-1.9
		c-1.2,3.1-1.2,5-2.3,6.1c-8.4,9.2-30,10.8-39.6,2.7c-7.3-6.1-7.7-14.6-7.7-23c0-14.6,0.4-29.2,0.4-43.8c0-1.9,0-3.8,0-6.1
		c-4.2,0-7.7,0-11.5,0c0-5.8,5.4-5,7.7-7.3c2.7-2.7,6.1-5,8.8-7.7s4.6-6.1,6.9-8.8C1588.2,581.2,1588.2,575.9,1594,577z"/>
	<path display="inline" fill="#353535" d="M303.4,607.4c0.8,20,0.8,39.2,1.9,58c0.4,7.7,8.1,11.1,16.5,10c3.5-0.4,6.5-1.5,11.1-3.1
		c-0.4,2.3-0.4,4.2-1.5,5.4c-8.1,9.2-29.6,11.1-39.2,3.5c-6.1-5-8.1-11.9-8.4-19.2c0-16.1,0-31.9,0-48c0-1.9,0-3.8,0-6.1
		c-3.8,0-7.3,0-12.7,0c1.5-2.3,2.3-3.8,3.5-4.2c10.4-5,17.3-13.1,23-22.7c1.2-1.5,2.7-2.7,4.2-4.2c0.4,0.4,1.2,0.8,1.5,0.8
		c0,4.6,0.4,9.2,0,13.8s1.2,6.1,5.8,5.8c7.7-0.4,15.4,0,23.4,0c0,3.5,0,6.5,0,10.4C323.7,607.4,314.1,607.4,303.4,607.4z"/>
	<path display="inline" fill="#353535" d="M1408.9,681.9c-1.5,0.8-2.7,2.3-4.2,2.3c-14.6,0-28.8,0-45.3,0c1.5-1.9,2.3-3.8,3.5-4.2
		c7.3-2.7,9.2-4.6,9.6-12.3c0.4-17.7,0.4-35.3,0-53c0-6.5-1.5-8.1-8.4-9.6c-1.2-0.4-2.3-1.9-3.5-2.7c0.8-0.8,1.9-2.3,2.7-2.7
		c9.2-1.2,18-2.3,28-3.5c0,1.5,0.4,3.8,0.8,5.8c5-1.9,10-5,15.4-5.8c5.4-0.4,11.5,0.8,16.9,2.3c3.5,0.8,4.6,3.8,2.3,7.3
		c-1.5,2.7-3.1,5.4-4.6,8.1c-2.3,4.2-3.8,4.6-7.3,0.8c-5-5.4-13.1-7.3-19.2-4.2c-1.5,0.8-3.1,3.1-3.1,4.2c0,17.3,0,34.6,0.4,51.8
		c0.4,10,1.9,11.5,12.3,12.7c0.8,0,1.5,0,2.7,0.4C1408.1,680.7,1408.5,681.1,1408.9,681.9z"/>
	<path display="inline" fill="#353535" d="M740.7,679.9c0,1.5,0,2.7,0,4.2c-15.7,0-31.1,0-46.5,0c-0.4-0.4-0.8-0.8-1.2-1.2
		c1.2-1.2,2.3-2.7,3.5-3.1c5.4-1.5,8.4-4.6,8.4-10.4c0.4-18.4,0.4-37.2,0.4-55.7c0-6.9-1.9-8.1-11.5-9.2c0-1.5,0-3.1-0.4-4.2
		c10.4-1.5,20.4-3.1,30.7-4.6c0.4,1.5,0.4,3.8,0.8,5.8c5.4-1.9,10.4-5,15.7-5.8c5.4-0.4,11.1,1.2,16.5,2.3c3.8,1.2,4.2,4.2,2.3,7.3
		c-1.5,2.7-3.1,5.8-4.6,8.4c-1.9,3.8-4.2,3.5-6.5,0.4c-5-5.8-11.5-6.5-18.4-5c-3.1,0.8-4.6,2.3-4.2,5.8c0,16.1,0,31.9,0,48
		C725.4,676.9,726.9,678.8,740.7,679.9z"/>
	<path display="inline" fill="#353535" d="M1511,603.9c0-1.5,0-3.1,0-3.5c9.6-1.9,18.8-3.8,28-5.4c4.2-0.8,3.5,1.9,3.5,4.2
		c-0.4,15.7-0.4,31.5-0.8,47.2c0,7.7,0.4,15.4,0.4,23c0,5.8,3.1,9.2,8.8,10c1.2,0.4,2.3,1.9,3.5,2.7c-0.4,0.4-0.8,0.8-0.8,1.2
		c-14.6,0-29.2,0-43.8,0c-0.4-0.4-0.8-0.8-1.2-1.2c1.2-1.2,1.9-2.7,3.5-3.1c7.3-1.9,9.6-3.8,9.6-11.1c0.4-18.4,0.4-37.2,0-55.7
		C1522.2,606.6,1520.3,605.4,1511,603.9z"/>
	<path display="inline" fill="#353535" d="M1179.3,684.2c-14.6,0-29.2,0-43.8,0c-0.4-0.4-0.8-0.8-1.2-1.2c1.2-1.2,1.9-2.7,3.5-3.1
		c6.9-1.9,9.6-3.8,9.6-11.1c0.4-18.4,0.4-37.2,0-55.7c0-6.1-1.9-7.7-10.8-8.8c0-0.4-0.4-0.8-0.4-1.5c0-1.2,0-1.9,0-1.9
		c9.6-1.9,18.8-3.8,28-5.8c3.8-0.8,3.5,1.5,3.5,3.8c-0.4,20-0.4,39.9-0.8,59.9c0,3.8,0.4,7.7,0.4,11.1c0,5.8,3.5,9.2,9.2,10
		c1.2,0.4,2.3,1.9,3.5,2.7C1180,683,1179.6,683.4,1179.3,684.2z"/>
	<path display="inline" fill="#353535" d="M1531.8,557.1c6.9,0,11.5,4.6,11.1,11.1c0,6.5-5,11.1-11.5,11.1
		c-6.9,0-11.5-4.6-11.5-11.1C1519.9,561.3,1524.9,557.1,1531.8,557.1z"/>
	<path display="inline" fill="#353535" d="M1145.5,567.8c0-6.9,5-11.1,12.3-11.1c6.9,0,11.1,4.2,11.1,10.8c0,6.9-5,11.5-11.9,11.5
		C1149.7,579.3,1145.1,574.7,1145.5,567.8z"/>
</g>
<g id="bayside" display="none">
	<path display="inline" fill="#353535" d="M1044.1,747.1c5,0,8.8,1.2,11.9,2.3l1.9-6.1c-1.9-1.2-6.5-2.7-13.8-2.7
		c-18,0-30.3,12.3-30.3,30.7c0,19.2,12.3,29.6,28.8,29.6c6.9,0,12.7-1.5,15.4-2.7l-1.5-6.1c-3.1,1.5-7.7,2.3-12.3,2.3
		c-14.2,0-22.3-9.2-22.3-23.4C1021.4,756,1030.7,747.1,1044.1,747.1L1044.1,747.1z M1155.8,766.3h-28v-24.6h-7.7v58.4h7.7v-27.3h28
		v27.3h7.7v-58.4h-7.7V766.3L1155.8,766.3z M1264.9,776.3c0,13.1-5.4,18.4-14.2,18.4c-7.7,0-13.4-5.4-13.4-18.4v-34.6h-7.7v34.2
		c0,18,8.8,25,20.7,25c12.7,0,21.9-7.3,21.9-25.3v-34.2h-7.7L1264.9,776.3L1264.9,776.3z M1363.2,772.5L1363.2,772.5
		c6.1-2.3,11.1-7.3,11.1-15c0-4.6-1.5-8.4-4.6-11.1c-3.5-3.5-8.8-4.6-16.9-4.6c-5.4,0-10.8,0.4-14.6,1.2v57.6h7.7v-25.3h6.9
		c6.9,0.4,10,3.5,11.5,11.5c1.5,7.3,3.1,12.3,3.8,13.8h7.7c-1.2-2.3-2.7-7.7-4.6-16.1C1370.5,778.2,1367.8,774,1363.2,772.5
		L1363.2,772.5z M1353.6,769h-7.7v-21.1c1.2-0.4,3.8-0.8,7.3-0.8c8.1,0,13.4,3.5,13.4,10.8C1366.7,764.8,1361.7,769,1353.6,769
		L1353.6,769z M1465,747.1c5,0,8.8,1.2,11.9,2.3l1.9-6.1c-1.9-1.2-6.5-2.7-13.8-2.7c-18,0-30.3,12.3-30.3,30.7
		c0,19.2,12.3,29.6,28.8,29.6c6.9,0,12.7-1.5,15.4-2.7l-1.5-6.1c-3.1,1.5-7.7,2.3-12.3,2.3c-14.2,0-22.3-9.2-22.3-23.4
		C1442.3,756,1451.5,747.1,1465,747.1L1465,747.1z M1576.7,741.8v24.6h-28v-24.6h-7.7v58.4h7.7v-27.3h28v27.3h7.7v-58.4H1576.7
		L1576.7,741.8z"/>
	<path display="inline" fill="#353535" d="M1703,616.2c-14.6,5-27.3,9.6-46.8,8.4c-11.5-0.4-23-2.3-34.2-3.5
		c-11.1-1.2-22.3-3.5-34.2-3.5c-44.2,0-74.5,13.1-106.8,24.2c-4.2,1.5-9.2,4.6-13.8,2.7c1.9-3.5,5.4-5.8,8.4-8.1
		c16.1-11.9,30-23.8,41.5-40.7c4.6-6.5,8.4-15,6.5-25c-1.5-6.1-5.8-11.5-11.5-14.2c-6.9-3.5-25.3-2.7-32.6-0.8
		c-9.2,2.3-17.3,7.3-25.3,11.1c-8.1,3.8-15,9.6-22.3,15c-10.4,8.1-20,17.7-26.9,28c-2.3,3.5-3.8,8.4-7.3,11.5
		c-2.7,2.7-7.3,4.6-11.5,7.3c-3.5,2.3-9.2,6.5-13.1,6.1c-5.8-0.4-10-10.8-8.4-18c0.8-4.6,6.5-8.8,8.4-11.1
		c7.7-8.4,12.3-12.7,19.6-20.4c3.5-3.8,6.1-8.1,8.8-11.1c11.1-13.4,22.3-27.6,36.1-44.2c5.8-6.9,10.8-15.7,16.1-23.8
		c5.4-8.1,10.4-16.9,14.6-25.3c1.9-4.2,5-8.1,6.9-13.1c4.6-13.8,12.7-33,1.9-47.2c-3.5-4.6-10-10.8-16.9-11.1
		c-3.8-0.4-7.7,3.5-10.8,5.8c-22.3,16.1-40.3,33.8-56.4,54.5c-13.4,17.3-25.3,37.2-35.7,58.8c-2.3,4.6-6.1,19.2-10.8,21.1
		c-2.7,1.2-6.1,0.4-9.2,0.8c-17.3,1.2-28.8,5.8-40.7,11.1c-5,2.3-10,3.8-14.2,6.5c-8.4,5-16.9,10.8-24.6,16.9
		c-7.7,6.1-13.4,13.8-21.5,20c-6.5,5-16.5,8.4-24.6,11.9c-3.5,1.5-6.9,3.5-12.3,5.4c-4.2,1.5-11.1,4.2-13.4,1.9s1.2-12.7,2.7-16.5
		c2.3-6.1,5-11.1,6.1-15.7c3.1-12.3-1.2-26.1-11.1-29.6c-6.9-2.3-13.1,0-19.2,3.1c-3.8,1.9-8.4,3.5-11.5,5.4
		c-4.2,2.7-7.3,6.5-12.7,9.6c-3.8,2.3-9.2,4.2-13.8,6.5c-10.4,4.6-16.5,9.2-26.5,14.2c-3.8,1.9-11.1,6.9-14.2,6.5s-6.9-6.9-7.7-10.8
		c-1.5-9.2,5.4-14.6,10.8-19.2c4.6-3.8,10.4-9.6,18-8.1c3.1,0.8,3.8,3.1,5.8,5.4c6.1,7.7,18.8,3.8,25-5c1.9-2.3,3.5-5.4,5-8.1
		c1.5-2.7,3.8-5.8,4.6-8.4c4.2-14.6-10-21.1-23-20.4c-3.1,0-6.5,1.5-10,1.9c-11.1,1.5-20,3.8-29.6,6.9
		c-31.9,9.6-59.9,18.4-89.1,31.9c-4.6,1.9-13.4,7.3-17.3,7.3c-4.6-0.4-6.1-7.3-11.5-8.1c-7.3-1.5-15,3.1-19.6,5.4
		c-2.3,1.2-5,1.9-6.9,3.1c-4.6,3.1-13.1,12.3-15.7,16.9c-2.7,4.6-2.7,8.8-6.1,12.3c-2.7,2.7-7.7,4.6-11.9,7.3
		c-7.3,3.8-19.2,9.6-25.7,13.1c-3.8,1.9-11.5,6.5-13.8,0.8c1.5-9.6,7.3-17.3,12.7-24.2c10.8-14.2,20.4-28.4,31.5-42.2
		c5.4-6.9,11.5-14.2,13.4-23.8c2.7-14.6-3.8-34.2-15.4-37.6c-7.3-2.3-16.1,1.2-17.3,7.3c-0.4,1.9,0.8,5.4,0.4,8.1
		c-1.2,10.8-6.9,23.4-12.7,29.6c-4.2,4.2-10,8.4-15,12.7c-24.6,21.5-51.1,42.2-81.4,57.2c-7.3,3.8-11.5,5-19.2,8.4
		c-2.3,1.2-6.1,2.7-10.4,3.5c-15,2.3-8.1-8.1-3.8-15.4c2.7-4.2,4.6-8.1,6.9-11.1c5.8-8.1,11.5-14.2,14.6-21.5
		c1.5-3.5,2.7-9.2,1.5-13.4c-1.2-4.6-4.2-6.5-7.3-8.1c-2.7-1.5-5.4-3.8-9.6-4.2c-5,0-8.4,6.5-11.9,9.6
		c-11.9,10.8-21.9,19.2-34.2,29.2c-11.1,9.2-22.3,20-35.7,27.3c-3.1,1.9-11.5,7.7-15.4,4.6c-3.5-2.7,1.9-12.7,5-16.9
		c3.5-5,6.9-9.2,10.8-12.7c22.7-21.9,50.7-36.9,83.3-46.1c7.3-1.9,12.7-3.1,15-9.2c3.1-9.6-10.4-17.3-16.9-20
		c-3.8-1.5-11.1-1.9-16.9-1.9c-5.8,0.4-11.5,0-16.5,0.8c-8.4,1.2-17.3,3.8-25.7,5.8c-61.4,12.7-119,30.3-170.9,51.5
		c-8.8-12.3-20-21.5-32.6-29.6c31.5-24.2,65.7-54.5,84.1-93.7c6.1-13.1,13.4-29.2,13.4-46.1c0-14.6-5.8-27.3-12.7-37.2
		c-6.5-8.8-15.4-19.6-27.6-22.7c-5.8-1.5-11.5-0.8-17.7-2.3c-1.2,0-2.3,0-3.5,0c-24.2,2.7-43,12.3-60.7,22.7
		c-8.8,5-18.4,9.2-26.5,15c-24.2,16.9-44.5,36.5-67.6,56.8c-10.4,9.2-20.7,20-30.7,31.5c-1.9,2.3-7.3,10.8-10.8,9.6
		c-2.7-0.8-5-12.3-6.5-15.4c-6.1-11.5-17.3-23.8-30.7-29.6c-4.2-1.9-10.8-4.6-16.5-3.5c-9.2,1.9-14.2,15-9.6,25.3
		c2.7,6.5,9.6,6.9,12.7,11.1c7.7,10,8.1,31.1,7.7,49.2c0,5.8,0,12.7-1.2,17.7c-1.2,4.6-5,8.8-8.1,13.1
		c-24.2,37.6-48.4,76.8-66.8,121c-4.2,9.6-7.3,20.7-10.4,31.1c-3.5,10.8-6.5,21.9-8.1,33.8c-1.5,11.9-1.5,26.1-2.7,40.3
		c0,1.2,0,2.7,0,3.8c0.4,8.1,1.2,15,3.8,21.5c2.3,5.8,5.4,12.3,11.1,13.8c11.5,3.1,17.3-7.3,22.3-13.8c3.5-4.6,6.9-9.2,9.6-13.1
		c13.1-19.2,22.3-38,32.6-58.8c5-10,11.5-20,15-30.7c7.7-23.4,16.1-45.7,22.3-69.1c3.1-11.9,6.1-24.2,9.2-36.5s5-25,8.1-37.6
		c1.5-6.1,6.1-10.8,10.4-16.5c10-12.7,22.3-27.6,32.3-38.4c15.4-16.5,29.2-33.8,45.7-48.4s33-28,52.2-41.5
		c8.4-6.1,17.7-12.7,28.8-18c9.2-4.2,25-13.4,36.5-9.2c6.9,2.3,13.4,11.5,13.8,21.5c1.2,17.7-7.3,33-14.6,44.5
		c-3.8,6.1-8.1,11.5-12.7,16.9s-8.8,11.1-13.8,15.7c-10.8,10-20.7,18.8-30.7,28.4c-4.6,4.2-10,10-15.4,14.2
		c-5,4.2-12.3,10.4-18,11.9c-2.7,0.8-6.1,0.8-8.8,1.2c-2.3,0.4-4.6,1.5-6.9,2.3c-5,1.5-10,1.9-14.6,3.5c-8.4,2.3-17.7,6.1-26.1,10
		c-7.3,3.5-15.7,8.4-22.7,13.4c-5.8,4.2-15.4,11.1-14.6,21.9c0.8,11.1,15.4,14.6,26.9,15c14.6,0.4,23.8-3.1,33.8-7.7
		c5.8-2.7,11.9-5.4,17.3-8.1c11.5-5.8,21.9-13.4,32.6-18c0.8,1.5,1.5,1.9,3.1,2.7c9.6,5.8,18,14.2,24.2,23.4
		c-54.5,23.8-105.6,54.1-148.2,93.7c-31.1,28.8-58.8,62.6-75.3,106.8c-5.4,13.8-10.4,34.6-5.8,52.2c1.5,5.4,3.5,8.1,5.8,13.1
		c5.8,6.1,10.8,10.8,18.8,13.8c17.3,6.5,41.9,3.5,58.8-1.9c18-5.8,33.8-13.1,48-20.7c30.3-16.1,56.4-36.1,79.1-58
		c23-22.3,45.7-47.6,61.8-75.3c8.1-13.4,16.1-30,20.4-48.4c4.2-19.2,1.5-42.6-4.6-59.5c25.3-10.4,56.1-21.9,81.4-28.8
		c1.2,3.8-0.4,6.9-1.5,9.2c-3.8,8.4-8.1,14.6-11.5,23.8c-3.8,9.2-10,26.1-4.2,38.4c2.3,5,6.9,9.6,11.1,11.9c2.3,1.2,5,1.5,8.1,2.3
		c2.7,0.8,5,2.3,7.7,2.7c15.4,3.1,28.8-6.1,38.8-12.7c4.6-3.1,10-6.9,15.7-10.8c2.3-1.5,15-10,17.7-8.1c1.9,1.2,0,10,0.8,13.1
		c1.5,6.5,6.1,11.1,11.5,13.4c11.5,5,29.2-1.9,38.4-6.5c20.4-9.6,41.1-21.5,57.6-33.8c3.5-2.7,6.5-6.5,11.1-6.5
		c1.2,5.8-2.3,15.4-1.5,24.2c0.4,3.1,2.3,5.8,1.5,8.4c-0.8,3.5-11.5,8.1-16.1,10.8c-6.1,3.8-12.3,6.9-16.9,10
		c-11.1,8.1-21.9,15-32.6,21.9c-11.1,6.9-21.1,15-31.1,23c-10,8.4-18.8,17.7-28,26.1c-18.8,17.3-35.7,36.5-49.5,58.8
		c-3.5,5.4-5.8,11.9-8.8,18c-8.8,16.1-16.5,44.5-6.1,66c3.5,6.9,8.8,13.4,14.2,19.2c2.3,2.7,6.1,4.6,9.2,7.3
		c8.4,5.8,15.4,8.4,26.5,11.5c16.9,4.6,35.3,7.7,56.8,8.1c1.2,0,2.3,0,3.5,0c20-2.7,36.5-6.9,51.5-14.6c15.4-7.7,30-13.1,42.6-23.4
		c6.5-5,13.1-8.8,19.6-13.4c25-18.8,43.8-43.4,59.5-72.6c3.8-7.3,7.7-14.6,10.8-22.3c16.5-38,31.9-79.9,28-135.6
		c-0.4-4.6-0.8-10.4-0.8-15.7c0-5,0.4-11.5,1.9-14.6c1.9-3.8,12.3-6.5,17.3-8.4c13.8-5.4,25-9.2,38.4-14.2c5-1.9,15.7-7.3,19.2-6.5
		c2.3,0.8,3.1,4.2,4.2,7.3c3.5,9.2,8.4,14.6,12.3,22.3c-4.6,5.8-12.3,6.9-18.8,9.6c-12.7,5.8-25.7,12.7-36.1,21.5
		c-8.1,6.5-21.5,18.8-11.5,30.7c3.1,3.5,12.3,9.2,15.7,9.2c21.5,1.9,38-6.1,54.9-15.4c15.4-8.4,31.5-18.8,36.9-34.6
		c0.8-2.7,0.4-8.8,1.5-11.1c1.5-3.5,8.4-5.8,13.1-8.1c11.1-5,18.4-8.1,28.4-13.8c2.7-1.5,11.1-8.8,13.8-6.1
		c1.5,1.5-1.2,8.8-2.3,12.7c-3.8,11.5-11.1,27.6-5.8,40.7c2.7,6.1,9.6,10.8,17.7,10.8c15.4,0.4,26.5-7.3,36.1-12.7
		c3.5-1.9,6.9-3.8,10.4-6.1c3.5-1.9,6.5-5.8,10.8-5.4c1.9,3.5,1.2,6.9,1.5,9.6c1.5,9.6,5.4,17.7,11.9,22.7
		c9.6,6.9,24.2,5.4,37.6,1.9c17.7-4.6,32.6-13.1,45.3-23.4c3.1-2.3,10-10.4,13.8-9.2c1.9,0.8,2.3,5.8,3.8,8.8
		c1.2,2.7,3.1,5.4,4.6,8.4c4.6,10.8,12.3,18,26.9,13.1c10.4-3.5,18-11.9,29.2-13.4c3.8,1.5,4.6,7.3,7.7,10c3.8,4.2,10,7.7,16.5,9.2
		c27.3,6.5,55.3-2.3,79.1-8.1c23-5.4,47.6-14.6,75.3-16.5c29.6-2.3,58.4,2.3,89.5,0.4c21.9-1.2,38-8.4,52.6-17.3
		c5.4-3.1,11.1-5.8,13.1-10c1.2-2.7,2.7-9.6,1.5-12.7C1724.5,611.6,1711.5,613.1,1703,616.2L1703,616.2z M1388.9,529
		c8.8-21.1,20.7-41.1,34.6-58c5.8-6.9,11.9-14.2,18-19.2c0.4-0.4,1.5-1.5,2.3-0.4c2.3,1.9-0.4,4.6-1.2,6.5
		c-12.3,28.8-28.4,53.4-47.6,75.6c-2.7,3.5-5.4,7.7-9.6,8.8C1384.3,537.9,1387.4,533.2,1388.9,529L1388.9,529z M258.8,669.6
		c-2.3,11.5-6.9,24.2-11.1,34.9c-3.8,9.2-8.4,18-12.3,27.3c-1.2,2.7-1.9,6.9-5.4,8.1c-2.3-3.1,0.4-6.9,1.2-9.6
		c1.2-3.1,1.9-6.9,2.7-10c3.5-12.7,9.6-24.6,14.6-37.2c2.7-6.5,6.1-13.4,9.6-18h0.4C260.7,665.3,258.8,668.4,258.8,669.6
		L258.8,669.6z M509.6,670c-7.3,26.5-22.3,46.5-37.6,65.7c-30.3,37.6-68.7,67.6-114,91.8c-5.4,2.7-11.1,5.8-17.7,8.1
		c-15,6.1-45.3,11.9-47.2-9.6c-0.4-6.1,3.1-14.2,5.8-20.7c7.3-18.4,19.2-33.8,30-47.6C374.8,699.1,433.5,654.2,508,625
		c0.8,0,1.2-0.8,1.2,0C513.8,639.6,513.8,656.1,509.6,670L509.6,670z M923.9,691.1c-1.9,13.1-5.4,23.8-8.4,35.3
		c-1.2,3.8-2.7,6.9-3.8,10.4c-1.2,3.8-0.8,6.9-1.9,11.1c-1.2,4.6-3.5,9.6-5.4,14.2c-6.1,15.7-13.1,30.3-21.5,44.5
		c-8.4,14.6-18.8,27.6-31.5,39.2c-6.1,5.4-13.4,10-20,15.4c-11.1,9.2-22.7,15-36.9,20.4c-5.4,1.9-10,4.6-15,6.9
		c-1.5,0.8-3.5,0.4-5.4,1.2c-1.5,0.4-2.3,1.9-3.8,2.3c-4.2,1.2-9.6,0.8-15,1.9c-25,5-59.9,1.9-73.3-10.8c-3.8-3.5-8.8-10.8-9.6-17.3
		c-2.3-14.2,5.8-32.3,10.4-41.1c5.8-11.1,14.6-22.3,21.1-30.7c15-19.6,33.4-36.1,51.8-51.5c9.2-7.7,18-16.9,28-23.8
		c20.4-14.2,40.7-26.9,63.4-39.9c5.4-3.1,11.5-5.8,16.9-8.8c5.4-3.1,10.8-6.9,16.1-9.2c6.5-2.7,13.1-5,19.2-8.1
		c5.8-2.7,10.8-8.1,16.9-9.6c0,0,0.4-0.4,0.8-0.4c4.6-0.8,4.6,1.9,5.8,9.2C925.1,663,925.8,680.3,923.9,691.1L923.9,691.1z
		 M1324.4,600.1c-15,12.7-28.8,28.8-47.2,37.2c-2.7,1.2-5.8,2.7-7.7,0.4c-1.2-3.8,1.9-7.3,3.8-10.4c1.9-3.1,3.1-6.5,5.4-9.2
		c8.1-10.8,21.9-21.5,34.6-28.8c4.2-2.3,10.4-6.1,14.6-6.5c3.8-0.4,6.5,1.5,7.3,3.8C1336.7,592.4,1327.9,597,1324.4,600.1
		L1324.4,600.1z M1432.3,628.1c-2.3-2.3,0.4-5,1.5-7.3c6.1-10.8,15-20.7,26.1-27.3c3.5-2.3,11.1-6.5,14.6-6.9c8.8,0,1.5,6.9-0.8,9.2
		c-8.8,10.4-20.7,18.4-31.9,26.9C1439.2,625.4,1436.2,628.5,1432.3,628.1L1432.3,628.1z M1230.7,537.1c6.1,1.2,16.5-3.1,20.7-6.1
		c5.8-3.8,5.4-10,8.8-16.5c3.1-5.8,12.3-8.4,11.1-18c-0.4-2.7-2.7-6.9-5.8-8.1c-1.9-0.8-11.9-1.2-13.4-0.8
		c-3.8,0.8-8.4,3.5-12.3,5.8c-3.8,1.9-7.7,4.2-10.8,6.9c-5,4.2-15.4,11.5-15.7,19.6C1213.1,529,1223,535.6,1230.7,537.1
		L1230.7,537.1z"/>
</g>
<rect x="1728" y="256" display="none" fill="#B0B0B0" width="192" height="768"/>
<rect y="256" display="none" fill="#B0B0B0" width="192" height="768"/>
<g enable-background="new    ">
	<path fill="#6A6A6A" d="M219.3,577.4H192v-24.6h82.9v24.6h-27.3v139.4h-28C219.3,716.8,219.3,577.4,219.3,577.4z"/>
	<path fill="#6A6A6A" d="M285.3,716.8v-164h28v66.8h30v-66.8h28v164h-28v-72.6h-30v72.6H285.3z"/>
	<path fill="#6A6A6A" d="M392.4,716.8v-164h75.3v24.6h-47.2v42.2h36.1v24.6h-36.1v48h50.3v24.6L392.4,716.8L392.4,716.8z"/>
	<path fill="#6A6A6A" d="M531.5,716.8v-164h28v66.8h30v-66.8h28v164h-28v-72.6h-30v72.6H531.5z"/>
	<path fill="#6A6A6A" d="M639,592.8c0-23,13.8-42.2,43-42.2c29.6,0,43,18.8,43,42.2v84.5c0,23-13.8,42.2-43,42.2
		c-29.6,0-43-18.8-43-42.2V592.8L639,592.8z M667.4,676.5c0,12.3,3.5,18,15,18s15-5.8,15-18v-82.9c0-12.3-3.5-18-15-18
		s-15,5.8-15,18V676.5z"/>
	<path fill="#6A6A6A" d="M746.5,716.8v-164h40.3c34.6,0,50.7,13.4,50.7,48.4s-16.1,48.4-50.7,48.4h-12.3v67.2L746.5,716.8
		L746.5,716.8z M774.5,626.6h11.1c18.4,0,24.2-5.8,24.2-25.3S804,576,785.6,576h-11.1V626.6z"/>
	<path fill="#6A6A6A" d="M853.6,716.8v-164h75.6v24.6H882v42.2h36.1v24.6H882v48h50.3v24.6L853.6,716.8L853.6,716.8z"/>
	<path fill="#6A6A6A" d="M1087.1,729.5c-10.4,0-18.8-1.9-28.4-15c-6.1,3.1-13.8,5.4-22.7,5.4c-29.6,0-43-18.8-43-42.2v-84.5
		c0-23,13.8-42.2,43-42.2c29.6,0,43,18.8,43,42.2v84.5c0,7.7-1.5,15-4.6,21.1c6.1,5.4,10,6.1,13.1,6.1L1087.1,729.5L1087.1,729.5z
		 M1038,658.4c3.1,1.5,7.3,3.8,13.1,10v-74.9c0-12.3-3.5-18-15-18c-11.1,0-15,5.8-15,18v82.9c0,12.3,3.5,18,15,18
		c4.6,0,7.3-0.8,9.6-2.3c-3.1-5.8-5.8-7.3-7.3-8.8v-25L1038,658.4L1038,658.4z"/>
	<path fill="#6A6A6A" d="M1100.2,553.2h28v123.6c0,12.3,4.6,17.7,15,17.7c10,0,15-5.8,15-17.7V553.2h28v122.5
		c0,28-16.1,43.8-43,43.8s-43-15.4-43-43.8V553.2L1100.2,553.2z"/>
	<path fill="#6A6A6A" d="M1207.3,592.8c0-23,13.8-42.2,43-42.2c29.6,0,43,18.8,43,42.2v84.5c0,23-13.8,42.2-43,42.2
		c-29.6,0-43-18.8-43-42.2V592.8z M1235.7,676.5c0,12.3,3.5,18,15,18c11.1,0,15-5.8,15-18v-82.9c0-12.3-3.5-18-15-18
		c-11.1,0-15,5.8-15,18V676.5z"/>
	<path fill="#6A6A6A" d="M1331.3,577.4H1304v-24.6h82.9v24.6h-27.3v139.4h-28L1331.3,577.4L1331.3,577.4z"/>
	<path fill="#6A6A6A" d="M1401.2,716.8v-164h28v164H1401.2z"/>
	<path fill="#6A6A6A" d="M1454.2,716.8v-164h75.3v24.6h-47.2v42.2h36.1v24.6h-36.1v48h50.3v24.6L1454.2,716.8L1454.2,716.8z"/>
	<path fill="#6A6A6A" d="M1548.7,716.8v-164h26.1l34.6,93.7h0.8v-93.7h25.3v164h-24.6l-35.7-102.5h-0.8v102.5H1548.7z"/>
	<path fill="#6A6A6A" d="M1672.7,577.4h-27.3v-24.6h82.6v24.6h-27.3v139.4h-28L1672.7,577.4L1672.7,577.4z"/>
</g>
</svg>
