<?xml version="1.0" encoding="utf-8"?>
<!-- Generator: Adobe Illustrator 18.1.1, SVG Export Plug-In . SVG Version: 6.00 Build 0)  -->
<svg class="fill-path" version="1.1" id="Layer_1" xmlns="http://www.w3.org/2000/svg" xmlns:xlink="http://www.w3.org/1999/xlink" x="0px" y="0px"
	 viewBox="0 481.9 1920 956.3" enable-background="new 0 481.9 1920 956.3" xml:space="preserve">
<path fill="#6A6A6A" d="M417.9,874.8c31.1,0,54.1,13.8,69.1,28.8l-27.6,31.1c-11.1-10.4-21.9-16.5-40.7-16.5
	c-34.2,0-58.4,26.9-58.4,71.4c0,45.7,20.7,72.2,62.6,72.2c8.8,0,18-2.3,23.4-6.9v-38h-36.9v-40.7h81.4v102.1
	c-16.1,13.8-43.4,26.9-74.5,26.9c-59.9,0-107.5-39.2-107.5-113.7C308.8,917.5,357.6,874.8,417.9,874.8z"/>
<path fill="#6A6A6A" d="M534.6,878.7h49.9v124c0,43.4,13.4,58.4,38.4,58.4s39.6-15,39.6-58.4v-124h48v119
	c0,74.5-30.3,106.8-87.6,106.8c-57.2,0-88.3-32.3-88.3-106.8L534.6,878.7L534.6,878.7z M565,838.7c0-13.4,9.6-23.8,23.8-23.8
	c13.8,0,23.4,10.4,23.4,23.8s-9.6,23.8-23.4,23.8C574.6,862.5,565,852.2,565,838.7z M632.5,838.7c0-13.4,10-23.8,23.8-23.8
	s23.8,10.4,23.8,23.8s-10,23.8-23.8,23.8S632.5,852.2,632.5,838.7z"/>
<path fill="#6A6A6A" d="M760.8,878.7h51.5l58,110.2l22.3,49.2h1.5c-2.3-23.4-6.5-54.9-6.5-81v-78.4h47.5v221.6h-51.8L825.7,990
	l-21.9-48.4h-1.2c2.3,24.6,6.5,54.1,6.5,80.3v78.7h-48v-222H760.8z"/>
<path fill="#6A6A6A" d="M1085.2,874.8c31.1,0,54.1,13.8,69.1,28.8l-27.6,31.1c-11.1-10.4-21.9-16.5-40.7-16.5
	c-34.2,0-58.4,26.9-58.4,71.4c0,45.7,20.7,72.2,62.6,72.2c8.8,0,18-2.3,23.4-6.9v-38h-36.9v-40.7h81.4v102.1
	c-16.1,13.8-43.4,26.9-74.5,26.9c-59.9,0-107.5-39.2-107.5-113.7C976.2,917.5,1025.4,874.8,1085.2,874.8z"/>
<path fill="#6A6A6A" d="M1192.4,988.5c0-72.6,41.1-114,100.6-114c59.9,0,100.6,41.9,100.6,114c0,72.6-40.7,116-100.6,116
	C1233.5,1104.4,1192.4,1061.1,1192.4,988.5z M1235.8,838.7c0-13.4,10-23.8,23.8-23.8s23.8,10.4,23.8,23.8s-10,23.8-23.8,23.8
	C1245.4,862.5,1235.8,852.2,1235.8,838.7z M1342.6,988.5c0-44.2-19.2-70.7-49.2-70.7s-49.2,26.5-49.2,70.7c0,44.5,19.2,73,49.2,73
	S1342.6,1032.9,1342.6,988.5z M1303.4,838.7c0-13.4,9.6-23.8,23.4-23.8c14.2,0,23.8,10.4,23.8,23.8s-9.6,23.8-23.8,23.8
	C1313,862.5,1303.4,852.2,1303.4,838.7z"/>
<path fill="#6A6A6A" d="M1555.2,1100.6l-42.2-79.9h-27.3v79.9h-50.3V878.7h79.9c46.8,0,85.6,16.5,85.6,69.1
	c0,32.6-16.1,53.4-39.6,63.7l49.9,88.7h-56.1L1555.2,1100.6L1555.2,1100.6z M1485.8,980.8h25.3c26.1,0,40.3-11.1,40.3-33
	s-14.2-29.2-40.3-29.2h-25.3V980.8z"/>
</svg>
