<?xml version="1.0" encoding="utf-8"?>
<!-- Generator: Adobe Illustrator 18.0.0, SVG Export Plug-In . SVG Version: 6.00 Build 0)  -->
<!DOCTYPE svg PUBLIC "-//W3C//DTD SVG 1.1//EN" "http://www.w3.org/Graphics/SVG/1.1/DTD/svg11.dtd">
<svg version="1.1" id="Layer_1" xmlns="http://www.w3.org/2000/svg" xmlns:xlink="http://www.w3.org/1999/xlink" x="0px" y="0px"
	 viewBox="0 0 500 200" enable-background="new 0 0 500 200" xml:space="preserve">
<g>
	<path fill="#353535" d="M156,43.7c-31,0-56.1,25.1-56.1,56.1s25.1,55.8,55.8,55.8c31,0,55.8-25.1,55.8-55.8
		C211.5,69.1,186.7,43.7,156,43.7z M185,108.6V129h-23v-21h-13v21h-23v-20.4V102h59V108.6z M115,97v-2h11V70.5l15,14.9l14.9-14.9
		l14.4,14.9L185,70.5V95h10v2H115z"/>
	<g>
		<path fill="#353535" d="M235.1,75.2l-12.5-31.5h6.9l6.2,15.6l6.2-15.4h0.2l5.9,15.4l6.2-15.6h6.9l-12.3,31.2h-1.2L242,61.4
			l-5.8,13.8H235.1z"/>
		<path fill="#353535" d="M280.6,74.5V62.2h-9.2v12.3h-6.2V43.7h6.2V56h9.2V43.7h6.2v30.8H280.6z"/>
		<path fill="#353535" d="M293.9,74.5V43.7h6.2v30.8H293.9z"/>
		<path fill="#353535" d="M312.4,74.5V49.9h-7.6v-6.2h21.5v6.2h-7.6v24.6C318.8,74.5,312.4,74.5,312.4,74.5z"/>
		<path fill="#353535" d="M331,74.5V43.7h15.4v6.2h-9.3v6.2h8v6.2h-8v6.2h9.7v6.2C346.9,74.5,331,74.5,331,74.5z"/>
	</g>
	<g>
		<path fill="#353535" d="M241.1,115.2v-12.3h-9.2v12.3h-6.2V84.4h6.2v12.3h9.2V84.4h6.2v30.8H241.1z"/>
		<path fill="#353535" d="M264.8,83.2h0.7l12.8,32h-6.9l-1.2-3.3H260l-1.4,3.3h-6.9L264.8,83.2z M267.9,106.2l-2.8-8l-2.8,8H267.9z"
			/>
		<path fill="#353535" d="M285.9,115.2V90.6h-7.6v-6.2h21.5v6.2h-7.6v24.6H285.9z"/>
	</g>
	<g>
		<path fill="#353535" d="M225.1,147.6c3.5,2.6,7.3,2.6,8.8,2.4c1.9-0.2,3.3-1.4,3.1-3.1c-0.2-1.7-1.4-2.6-3.1-3.1
			c-4.7-1.7-9.2-4.3-9.2-9.5s3.5-9.2,8.8-9.5c1.7,0,3.8,0,7.6,1.2l-0.7,5.9c-3.3-1.4-5.4-1.4-6.4-1.2c-2.1,0.2-3.1,1.7-3.1,3.5
			c0.2,1.7,1.7,2.6,3.5,3.1c4.7,1.7,9,4.5,9,9.5c0,5.2-3.5,9-9.2,9.5c-1.7,0.2-5.4,0-9.7-2.1L225.1,147.6z"/>
		<path fill="#353535" d="M253.9,155.9v-24.6h-7.6v-6.2h21.5v6.2h-7.6v24.6H253.9L253.9,155.9z"/>
		<path fill="#353535" d="M272.4,145.2v-20.1h6.2v20.1c0,6.4,9.9,6.4,9.9,0v-20.1h6.2v20.1C294.9,159.9,272.4,159.9,272.4,145.2z"/>
		<path fill="#353535" d="M310.9,155.9h-9.2v-30.8h9.2C331.5,125.1,331.5,155.9,310.9,155.9z M307.9,131.3v18.5h3.1
			c12.1,0,12.1-18.5,0-18.5H307.9z"/>
		<path fill="#353535" d="M332.5,155.9v-30.8h6.2v30.8H332.5z"/>
		<path fill="#353535" d="M360.5,124.6c21.3,0,21.3,31.7,0,31.7C339.2,156.3,339.2,124.6,360.5,124.6z M360.5,131
			c-12.3,0-12.3,18.9,0,18.9C372.9,150,372.9,131,360.5,131z"/>
		<path fill="#353535" d="M381.9,147.6c3.5,2.6,7.3,2.6,8.8,2.4c1.9-0.2,3.3-1.4,3.1-3.1c-0.2-1.7-1.4-2.6-3.1-3.1
			c-4.7-1.7-9.2-4.3-9.2-9.5s3.5-9.2,8.8-9.5c1.7,0,3.8,0,7.6,1.2l-0.7,5.9c-3.3-1.4-5.4-1.4-6.4-1.2c-2.1,0.2-3.1,1.7-3.1,3.5
			c0.2,1.7,1.7,2.6,3.5,3.1c4.7,1.7,9,4.5,9,9.5c0,5.2-3.5,9-9.2,9.5c-1.7,0.2-5.4,0-9.7-2.1L381.9,147.6z"/>
	</g>
</g>
</svg>
