<?xml version="1.0" encoding="utf-8"?>
<!-- Generator: Adobe Illustrator 18.1.1, SVG Export Plug-In . SVG Version: 6.00 Build 0)  -->
<svg version="1.1" id="Layer_1" xmlns="http://www.w3.org/2000/svg" xmlns:xlink="http://www.w3.org/1999/xlink" x="0px" y="0px"
	 viewBox="0 160 1920 960" enable-background="new 0 160 1920 960" xml:space="preserve">
<g>
	<path fill="#6A6A6A" d="M599,423.8c-119,0-215.4,96.4-215.4,215.4S480,853.5,597.9,853.5c119,0,214.3-96.4,214.3-214.3
		S716.9,423.8,599,423.8z M710.4,673v78.3h-88.3v-80.6h-49.9v80.6h-88.3V673v-25.3h226.6V673z M441.6,628.5v-7.7h42.2v-94.1
		l57.6,57.2l57.2-57.2l55.3,57.2l56.4-57.2v94.1h38.4v7.7H441.6z"/>
	<g>
		<path fill="#6A6A6A" d="M902.8,544.8l-48-121h26.5l23.8,59.9l23.8-59.1h0.8l22.7,59.1l23.8-59.9h26.5l-47.2,119.8h-4.6l-21.5-51.8
			l-22.3,53H902.8L902.8,544.8z"/>
		<path fill="#6A6A6A" d="M1077.5,542.1v-47.2h-35.3v47.2h-23.8V423.8h23.8V471h35.3v-47.2h23.8v118.3H1077.5z"/>
		<path fill="#6A6A6A" d="M1128.6,542.1V423.8h23.8v118.3H1128.6z"/>
		<path fill="#6A6A6A" d="M1199.6,542.1v-94.5h-29.2v-23.8h82.6v23.8h-29.2v94.5C1224.2,542.1,1199.6,542.1,1199.6,542.1z"/>
		<path fill="#6A6A6A" d="M1271,542.1V423.8h59.1v23.8h-35.7v23.8h30.7v23.8h-30.7V519h37.2v23.8
			C1332.1,542.1,1271,542.1,1271,542.1z"/>
	</g>
	<g>
		<path fill="#6A6A6A" d="M925.8,698.4v-47.2h-35.3v47.2h-23.8V580.1h23.8v47.2h35.3v-47.2h23.8v118.3H925.8z"/>
		<path fill="#6A6A6A" d="M1016.8,575.5h2.7l49.2,122.9h-26.5l-4.6-12.7h-39.2l-5.4,12.7h-26.5L1016.8,575.5z M1028.7,663.8
			l-10.8-30.7l-10.8,30.7H1028.7z"/>
		<path fill="#6A6A6A" d="M1097.9,698.4v-94.5h-29.2v-23.8h82.6v23.8H1122v94.5H1097.9z"/>
	</g>
	<g>
		<path fill="#6A6A6A" d="M864.4,822.8c13.4,10,28,10,33.8,9.2c7.3-0.8,12.7-5.4,11.9-11.9c-0.8-6.5-5.4-10-11.9-11.9
			c-18-6.5-35.3-16.5-35.3-36.5c0-20,13.4-35.3,33.8-36.5c6.5,0,14.6,0,29.2,4.6l-2.7,22.7c-12.7-5.4-20.7-5.4-24.6-4.6
			c-8.1,0.8-11.9,6.5-11.9,13.4c0.8,6.5,6.5,10,13.4,11.9c18,6.5,34.6,17.3,34.6,36.5c0,20-13.4,34.6-35.3,36.5
			c-6.5,0.8-20.7,0-37.2-8.1L864.4,822.8z"/>
		<path fill="#6A6A6A" d="M975,854.7v-94.5h-29.2v-23.8h82.6v23.8h-29.2v94.5H975L975,854.7z"/>
		<path fill="#6A6A6A" d="M1046,813.6v-77.2h23.8v77.2c0,24.6,38,24.6,38,0v-77.2h23.8v77.2C1132.4,870,1046,870,1046,813.6z"/>
		<path fill="#6A6A6A" d="M1193.9,854.7h-35.3V736.4h35.3C1273,736.4,1273,854.7,1193.9,854.7z M1182.3,760.2v71h11.9
			c46.5,0,46.5-71,0-71H1182.3z"/>
		<path fill="#6A6A6A" d="M1276.8,854.7V736.4h23.8v118.3H1276.8z"/>
		<path fill="#6A6A6A" d="M1384.3,734.5c81.8,0,81.8,121.7,0,121.7C1302.5,856.2,1302.5,734.5,1384.3,734.5z M1384.3,759
			c-47.2,0-47.2,72.6,0,72.6C1431.9,832,1431.9,759,1384.3,759z"/>
		<path fill="#6A6A6A" d="M1466.5,822.8c13.4,10,28,10,33.8,9.2c7.3-0.8,12.7-5.4,11.9-11.9c-0.8-6.5-5.4-10-11.9-11.9
			c-18-6.5-35.3-16.5-35.3-36.5c0-20,13.4-35.3,33.8-36.5c6.5,0,14.6,0,29.2,4.6l-2.7,22.7c-12.7-5.4-20.7-5.4-24.6-4.6
			c-8.1,0.8-11.9,6.5-11.9,13.4c0.8,6.5,6.5,10,13.4,11.9c18,6.5,34.6,17.3,34.6,36.5c0,20-13.4,34.6-35.3,36.5
			c-6.5,0.8-20.7,0-37.2-8.1L1466.5,822.8z"/>
	</g>
</g>
</svg>
