<?xml version="1.0" encoding="utf-8"?>
<!-- Generator: Adobe Illustrator 18.0.0, SVG Export Plug-In . SVG Version: 6.00 Build 0)  -->
<!DOCTYPE svg PUBLIC "-//W3C//DTD SVG 1.1//EN" "http://www.w3.org/Graphics/SVG/1.1/DTD/svg11.dtd">
<svg version="1.1" id="Layer_1" xmlns="http://www.w3.org/2000/svg" xmlns:xlink="http://www.w3.org/1999/xlink" x="0px" y="0px"
	 viewBox="0 0 500 200" enable-background="new 0 0 500 200" xml:space="preserve">
<path fill="#353535" d="M156,43.7c-31,0-56.1,25.1-56.1,56.1s25.1,55.8,55.8,55.8c31,0,55.8-25.1,55.8-55.8S186.7,43.7,156,43.7"/>
<polygon fill="#FFFFFF" points="126.2,108.5 126.2,108.5 126.2,128.8 149.3,128.8 149.3,108.5 162.6,108.5 162.6,128.8 185.5,128.8 
	185.5,108.5 185.5,102.3 126.2,102.3 "/>
<polygon fill="#FFFFFF" points="185.5,94.8 185.5,70.4 170.6,85.3 156,70.4 156,70.4 156,70.4 156,70.4 156,70.4 141.1,85.3 
	126.2,70.4 126.2,94.8 116,94.8 116,97.1 195.7,97.1 195.7,94.8 "/>
<path fill="#353535" d="M235.2,75.1l-12.5-31.5h6.9l6.2,15.6l6.2-15.4h0.2l5.9,15.4l6.2-15.6h6.9l-12.3,31.2h-1.2L242,61.3L236.3,75
	L235.2,75.1L235.2,75.1z"/>
<path fill="#353535" d="M280.6,74.4V62.1h-9.2v12.3h-6.2V43.7h6.2V56h9.2V43.7h6.2v30.8L280.6,74.4L280.6,74.4z"/>
<path fill="#353535" d="M293.9,74.4V43.7h6.2v30.8L293.9,74.4L293.9,74.4z"/>
<path fill="#353535" d="M312.3,74.4V49.8h-7.6v-6.2h21.5v6.2h-7.6v24.6C318.7,74.4,312.3,74.4,312.3,74.4z"/>
<path fill="#353535" d="M331,74.4V43.7h15.4v6.2h-9.2V56h8v6.2h-8v6.2h9.7v6.2C346.9,74.4,331,74.4,331,74.4z"/>
<path fill="#353535" d="M241.1,115.1v-12.3h-9.2v12.3h-6.2V84.3h6.2v12.3h9.2V84.3h6.2v30.8C247.3,115.1,241.1,115.1,241.1,115.1z"
	/>
<path fill="#353535" d="M264.8,83.2h0.7l12.8,31.9h-6.9l-1.2-3.3H260l-1.4,3.3h-6.9L264.8,83.2z M267.9,106.1l-2.8-8l-2.8,8H267.9z"
	/>
<path fill="#353535" d="M285.8,115.1V90.5h-7.6v-6.2h21.5v6.2h-7.6v24.6H285.8z"/>
<path fill="#353535" d="M225,147.5c3.5,2.6,7.3,2.6,8.8,2.4c1.9-0.2,3.3-1.4,3.1-3.1c-0.2-1.7-1.4-2.6-3.1-3.1
	c-4.7-1.7-9.2-4.3-9.2-9.5s3.5-9.2,8.8-9.5c1.7,0,3.8,0,7.6,1.2l-0.7,5.9c-3.3-1.4-5.4-1.4-6.4-1.2c-2.1,0.2-3.1,1.7-3.1,3.5
	c0.2,1.7,1.7,2.6,3.5,3.1c4.7,1.7,9,4.5,9,9.5c0,5.2-3.5,9-9.2,9.5c-1.7,0.2-5.4,0-9.7-2.1L225,147.5z"/>
<path fill="#353535" d="M253.9,155.8v-24.6h-7.6V125h21.5v6.2h-7.6v24.6H253.9L253.9,155.8z"/>
<path fill="#353535" d="M272.4,145.1V125h6.2v20.1c0,6.4,9.9,6.4,9.9,0V125h6.2v20.1C294.8,159.8,272.4,159.8,272.4,145.1z"/>
<path fill="#353535" d="M310.9,155.8h-9.2V125h9.2C331.5,125,331.5,155.8,310.9,155.8z M307.8,131.2v18.5h3.1
	c12.1,0,12.1-18.5,0-18.5H307.8z"/>
<path fill="#353535" d="M332.4,155.8V125h6.2v30.8H332.4z"/>
<path fill="#353535" d="M360.6,124.6c21.3,0,21.3,31.7,0,31.7C339.3,156.3,339.3,124.6,360.6,124.6z M360.6,131
	c-12.3,0-12.3,18.9,0,18.9S372.9,131,360.6,131z"/>
<path fill="#353535" d="M381.9,147.5c3.5,2.6,7.3,2.6,8.8,2.4c1.9-0.2,3.3-1.4,3.1-3.1s-1.4-2.6-3.1-3.1c-4.7-1.7-9.2-4.3-9.2-9.5
	s3.5-9.2,8.8-9.5c1.7,0,3.8,0,7.6,1.2l-0.7,5.9c-3.3-1.4-5.4-1.4-6.4-1.2c-2.1,0.2-3.1,1.7-3.1,3.5c0.2,1.7,1.7,2.6,3.5,3.1
	c4.7,1.7,9,4.5,9,9.5c0,5.2-3.5,9-9.2,9.5c-1.7,0.2-5.4,0-9.7-2.1L381.9,147.5z"/>
</svg>
