<?xml version="1.0" encoding="utf-8"?>
<!-- Generator: Adobe Illustrator 18.1.1, SVG Export Plug-In . SVG Version: 6.00 Build 0)  -->
<svg version="1.1" id="Layer_1" xmlns="http://www.w3.org/2000/svg" xmlns:xlink="http://www.w3.org/1999/xlink" x="0px" y="0px"
	 viewBox="0 160 1920 960" enable-background="new 0 160 1920 960" xml:space="preserve">
<g>
	<path fill="#6A6A6A" d="M417.8,555.1c31.1,0,54.1,13.8,69.1,28.8L459.3,615c-11.1-10.4-21.9-16.5-40.7-16.5
		c-34.2,0-58.4,26.9-58.4,71.4c0,45.7,20.7,72.2,62.6,72.2c8.8,0,18-2.3,23.4-6.9v-38h-36.9v-40.7h81.4v102.1
		c-16.1,13.8-43.4,26.9-74.5,26.9c-59.9,0-107.5-39.2-107.5-113.7C308.7,597.8,357.5,555.1,417.8,555.1z"/>
	<path fill="#6A6A6A" d="M534.5,559h49.9v124c0,43.4,13.4,58.4,38.4,58.4c25,0,39.6-15,39.6-58.4V559h48v119
		c0,74.5-30.3,106.8-87.6,106.8c-57.2,0-88.3-32.3-88.3-106.8V559z M564.9,519c0-13.4,9.6-23.8,23.8-23.8
		c13.8,0,23.4,10.4,23.4,23.8c0,13.4-9.6,23.8-23.4,23.8C574.5,542.8,564.9,532.5,564.9,519z M632.4,519c0-13.4,10-23.8,23.8-23.8
		s23.8,10.4,23.8,23.8c0,13.4-10,23.8-23.8,23.8S632.4,532.5,632.4,519z"/>
	<path fill="#6A6A6A" d="M760.7,559h51.5l58,110.2l22.3,49.2h1.5c-2.3-23.4-6.5-54.9-6.5-81V559H935v221.6h-51.8l-57.6-110.2
		L803.7,622h-1.2c2.3,24.6,6.5,54.1,6.5,80.3v78.7h-48V559H760.7z"/>
	<path fill="#6A6A6A" d="M1085.2,555.1c31.1,0,54.1,13.8,69.1,28.8l-27.6,31.1c-11.1-10.4-21.9-16.5-40.7-16.5
		c-34.2,0-58.4,26.9-58.4,71.4c0,45.7,20.7,72.2,62.6,72.2c8.8,0,18-2.3,23.4-6.9v-38h-36.9v-40.7h81.4v102.1
		c-16.1,13.8-43.4,26.9-74.5,26.9c-59.9,0-107.5-39.2-107.5-113.7C976.1,597.8,1025.3,555.1,1085.2,555.1z"/>
	<path fill="#6A6A6A" d="M1192.3,668.8c0-72.6,41.1-114,100.6-114c59.9,0,100.6,41.9,100.6,114c0,72.6-40.7,116-100.6,116
		C1233.4,784.8,1192.3,741.4,1192.3,668.8z M1235.7,519c0-13.4,10-23.8,23.8-23.8c13.8,0,23.8,10.4,23.8,23.8
		c0,13.4-10,23.8-23.8,23.8C1245.3,542.8,1235.7,532.5,1235.7,519z M1342.5,668.8c0-44.2-19.2-70.7-49.2-70.7
		c-30,0-49.2,26.5-49.2,70.7c0,44.5,19.2,73,49.2,73C1323.3,741.8,1342.5,713.3,1342.5,668.8z M1303.3,519
		c0-13.4,9.6-23.8,23.4-23.8c14.2,0,23.8,10.4,23.8,23.8c0,13.4-9.6,23.8-23.8,23.8C1312.9,542.8,1303.3,532.5,1303.3,519z"/>
	<path fill="#6A6A6A" d="M1555.2,780.9l-42.2-79.9h-27.3v79.9h-50.3V559h79.9c46.8,0,85.6,16.5,85.6,69.1
		c0,32.6-16.1,53.4-39.6,63.7l49.9,88.7h-56.1V780.9z M1485.7,661.1h25.3c26.1,0,40.3-11.1,40.3-33s-14.2-29.2-40.3-29.2h-25.3
		V661.1z"/>
</g>
</svg>
