<?xml version="1.0" encoding="utf-8"?>
<!-- Generator: Adobe Illustrator 18.0.0, SVG Export Plug-In . SVG Version: 6.00 Build 0)  -->
<!DOCTYPE svg PUBLIC "-//W3C//DTD SVG 1.1//EN" "http://www.w3.org/Graphics/SVG/1.1/DTD/svg11.dtd">
<svg version="1.1" id="Layer_1" xmlns="http://www.w3.org/2000/svg" xmlns:xlink="http://www.w3.org/1999/xlink" x="0px" y="0px"
	 viewBox="0 0 500 200" enable-background="new 0 0 500 200" xml:space="preserve">
<g>
	<path fill="#353535" d="M108.8,77.9c8.1,0,14.1,3.6,18,7.5l-7.2,8.1c-2.9-2.7-5.7-4.3-10.6-4.3c-8.9,0-15.2,7-15.2,18.6
		c0,11.9,5.4,18.8,16.3,18.8c2.3,0,4.7-0.6,6.1-1.8v-9.9h-9.6v-10.6h21.2v26.6c-4.2,3.6-11.3,7-19.4,7c-15.6,0-28-10.2-28-29.6
		C80.4,89,93.1,77.9,108.8,77.9z"/>
	<path fill="#353535" d="M139.2,78.9h13v32.3c0,11.3,3.5,15.2,10,15.2s10.3-3.9,10.3-15.2V78.9H185v31c0,19.4-7.9,27.8-22.8,27.8
		s-23-8.4-23-27.8V78.9z M147.1,68.5c0-3.5,2.5-6.2,6.2-6.2c3.6,0,6.1,2.7,6.1,6.2c0,3.5-2.5,6.2-6.1,6.2
		C149.6,74.7,147.1,72,147.1,68.5z M164.7,68.5c0-3.5,2.6-6.2,6.2-6.2s6.2,2.7,6.2,6.2c0,3.5-2.6,6.2-6.2,6.2S164.7,72,164.7,68.5z"
		/>
	<path fill="#353535" d="M198.1,78.9h13.4l15.1,28.7l5.8,12.8h0.4c-0.6-6.1-1.7-14.3-1.7-21.1V78.9h12.4v57.7H230L215,107.9
		l-5.7-12.6H209c0.6,6.4,1.7,14.1,1.7,20.9v20.5h-12.5V78.9z"/>
	<path fill="#353535" d="M282.6,77.9c8.1,0,14.1,3.6,18,7.5l-7.2,8.1c-2.9-2.7-5.7-4.3-10.6-4.3c-8.9,0-15.2,7-15.2,18.6
		c0,11.9,5.4,18.8,16.3,18.8c2.3,0,4.7-0.6,6.1-1.8v-9.9h-9.6v-10.6h21.2v26.6c-4.2,3.6-11.3,7-19.4,7c-15.6,0-28-10.2-28-29.6
		C254.2,89,267,77.9,282.6,77.9z"/>
	<path fill="#353535" d="M310.5,107.5c0-18.9,10.7-29.7,26.2-29.7c15.6,0,26.2,10.9,26.2,29.7c0,18.9-10.6,30.2-26.2,30.2
		C321.2,137.7,310.5,126.4,310.5,107.5z M321.8,68.5c0-3.5,2.6-6.2,6.2-6.2c3.6,0,6.2,2.7,6.2,6.2c0,3.5-2.6,6.2-6.2,6.2
		C324.3,74.7,321.8,72,321.8,68.5z M349.6,107.5c0-11.5-5-18.4-12.8-18.4c-7.8,0-12.8,6.9-12.8,18.4c0,11.6,5,19,12.8,19
		C344.6,126.5,349.6,119.1,349.6,107.5z M339.4,68.5c0-3.5,2.5-6.2,6.1-6.2c3.7,0,6.2,2.7,6.2,6.2c0,3.5-2.5,6.2-6.2,6.2
		C341.9,74.7,339.4,72,339.4,68.5z"/>
	<path fill="#353535" d="M405,136.7L394,115.9h-7.1v20.8h-13.1V78.9h20.8c12.2,0,22.3,4.3,22.3,18c0,8.5-4.2,13.9-10.3,16.6l13,23.1
		H405z M386.9,105.5h6.6c6.8,0,10.5-2.9,10.5-8.6c0-5.7-3.7-7.6-10.5-7.6h-6.6V105.5z"/>
</g>
</svg>
