<svg xmlns="http://www.w3.org/2000/svg" version="1.1" x="0" y="0" viewBox="1.4 592.6 814.9 269.5" enable-background="new 1.4 592.6 814.9 269.5" xml:space="preserve"><path fill="#1A1A1A" d="M600 859h-15.5v-9.5H598c0.7 0 1.4-0.6 1.4-1.4s-0.6-1.4-1.4-1.4h-13.6v-9.3h15.5c0.7 0 1.4-0.6 1.4-1.4 0-0.8-0.6-1.4-1.4-1.4h-17c-0.7 0-1.6 0.6-1.6 1.6v24.2c0 0.9 0.6 1.6 1.6 1.6H600c0.7 0 1.4-0.6 1.4-1.4C601.4 859.6 600.7 859 600 859zM749.6 834.2c-0.6 0-1.3 0.5-1.6 1l-9.5 22.6 -9.4-22.6c-0.3-0.6-0.7-1.2-1.6-1.2 -0.9 0-1.6 0.7-1.6 1.6 0 0.3 0 0.5 0.1 0.6l10.6 24.3c0.3 0.7 0.9 1.3 1.8 1.3h0.1c0.9 0 1.4-0.5 1.8-1.3l10.6-24.4c0.1-0.3 0.1-0.4 0.1-0.6C751.2 835.1 750.5 834.2 749.6 834.2zM705.1 834.2c-0.7 0-1.6 0.6-1.6 1.6v24.6c0 0.9 0.6 1.6 1.6 1.6s1.6-0.6 1.6-1.6v-24.6C706.6 835.1 706 834.2 705.1 834.2zM681.6 834.5h-18.9c-0.7 0-1.4 0.6-1.4 1.4 0 0.7 0.6 1.4 1.4 1.4h8v23c0 0.9 0.6 1.6 1.6 1.6 1 0 1.6-0.6 1.6-1.6v-23h8c0.7 0 1.4-0.6 1.4-1.4S682.3 834.5 681.6 834.5zM634.9 835.5c-0.4-0.9-1-1.4-1.9-1.4h-0.2c-1 0-1.6 0.5-1.9 1.4l-11 24.2c-0.1 0.3-0.3 0.6-0.3 0.7 0 0.7 0.6 1.4 1.4 1.4 0.6 0 1.2-0.4 1.6-1l2.9-6.3h14.8l2.9 6.3c0.3 0.6 0.7 1.2 1.6 1.2s1.6-0.6 1.6-1.6c0-0.3-0.1-0.5-0.3-0.7L634.9 835.5zM626.6 851.7l6.3-14 6.3 14H626.6zM786.5 859H771v-9.5h13.6c0.7 0 1.4-0.6 1.4-1.4s-0.6-1.4-1.4-1.4H771v-9.3h15.5c0.7 0 1.4-0.6 1.4-1.4 0-0.8-0.6-1.4-1.4-1.4h-17c-0.7 0-1.6 0.6-1.6 1.6v24.2c0 0.9 0.6 1.6 1.6 1.6h17.1c0.7 0 1.4-0.6 1.4-1.4C787.9 859.6 787.2 859 786.5 859zM548.8 834.5h-10.1c-0.7 0-1.6 0.6-1.6 1.6v24.3c0 0.9 0.6 1.6 1.6 1.6 1 0 1.6-0.6 1.6-1.6v-9.3h7.8l7.7 10c0.4 0.5 0.7 0.7 1.4 0.7 0.7 0 1.6-0.6 1.6-1.6 0-0.4-0.3-0.7-0.5-1.2l-6.8-8.7c4.2-0.7 7.4-3.5 7.4-8v-0.1c0-2.2-0.7-4.1-2-5.4C554.8 835.5 552.1 834.5 548.8 834.5zM555.5 842.8c0 3.5-2.9 5.7-7.1 5.7H540v-11h8.4C552.9 837.4 555.5 839.4 555.5 842.8L555.5 842.8zM513.3 855.6c-0.4 0-0.7 0.3-1 0.4 -2.3 2.2-4.8 3.3-8.1 3.3 -6.1 0-10.6-5-10.6-11.3v-0.1c0-6.3 4.5-11.2 10.6-11.2 3.3 0 5.8 1.3 7.8 3.1 0.3 0.1 0.6 0.4 1 0.4 0.7 0 1.6-0.6 1.6-1.6 0-0.5-0.3-1-0.6-1.3 -2.6-2-5.4-3.6-9.8-3.6 -8 0-13.8 6.4-13.8 14.2v0.1c0 7.8 5.8 14 13.6 14 4.5 0 7.5-1.6 10.1-4 0.3-0.3 0.5-0.6 0.5-1C514.9 856.4 514.2 855.6 513.3 855.6zM673.9 705.4c-5.2-5.4-11-9.7-17.8-12.9 -6.8-3.1-14.2-4.8-21.9-4.8s-14.9 1.6-21.7 4.8c-6.8 3.1-12.7 7.5-17.8 12.9 -5.2 5.4-9.1 11.7-12 19 -2.9 7.2-4.5 14.9-4.5 23.1s1.6 15.8 4.5 23c2.9 7.1 7.1 13.3 12 18.7 5.2 5.4 11 9.5 17.8 12.6 6.8 3.1 14 4.6 21.7 4.6s15-1.6 21.9-4.6c6.8-3.1 12.9-7.4 17.8-12.6 5-5.4 9.1-11.6 12-18.7 2.9-7.1 4.5-14.8 4.5-23s-1.6-15.9-4.5-23.1C683 717.3 679 711 673.9 705.4zM678.7 767.4c-2.5 6.2-5.9 11.6-10.3 16.1 -4.4 4.6-9.5 8.2-15.3 11 -5.8 2.7-12 4-18.8 4 -6.5 0-12.7-1.3-18.7-4 -5.8-2.7-11-6.3-15.3-11 -4.4-4.6-7.8-9.9-10.4-16.1 -2.6-6.2-3.9-12.7-3.9-19.7 0-7.1 1.3-13.8 3.9-20.1s6.1-11.7 10.4-16.5c4.4-4.8 9.5-8.5 15.3-11 5.8-2.7 12-4 18.7-4 6.7 0 13 1.3 18.8 4 5.8 2.7 11 6.4 15.3 11 4.4 4.8 7.8 10.1 10.3 16.5 2.5 6.3 3.7 12.9 3.7 20.1C682.3 754.7 681.2 761.3 678.7 767.4zM811.8 724.5c-2.9-7.2-7.1-13.6-12-19 -5.2-5.4-11-9.7-17.8-12.9 -6.8-3.1-14.2-4.8-21.9-4.8 -7.7 0-14.9 1.6-21.7 4.8 -6.8 3.1-12.7 7.5-17.8 12.9 -5.2 5.4-9.1 11.7-12 19 -2.9 7.2-4.5 14.9-4.5 23.1s1.4 15.8 4.5 23c2.9 7.1 7.1 13.3 12 18.7 5.2 5.4 11 9.5 17.8 12.6 6.8 3.1 14 4.6 21.7 4.6s14.9-1.6 21.9-4.6c6.8-3.1 12.9-7.4 17.8-12.6 5.2-5.4 9.1-11.6 12-18.7 2.9-7.1 4.5-14.8 4.5-23C816.3 739.6 814.7 731.8 811.8 724.5zM804.5 767.4c-2.5 6.2-5.9 11.6-10.3 16.1 -4.4 4.6-9.5 8.2-15.3 11s-12 4-18.8 4c-6.5 0-12.7-1.3-18.7-4 -5.8-2.7-11-6.3-15.3-11 -4.4-4.6-7.8-9.9-10.4-16.1 -2.6-6.2-3.9-12.7-3.9-19.7 0-7.1 1.3-13.8 3.9-20.1 2.6-6.3 6.1-11.7 10.4-16.5 4.4-4.8 9.5-8.5 15.3-11 5.8-2.7 12-4 18.7-4 6.7 0 13 1.3 18.8 4s11 6.4 15.3 11c4.4 4.8 7.8 10.1 10.3 16.5s3.7 12.9 3.7 20.1C808.2 754.7 806.9 761.3 804.5 767.4zM548.8 705.6c-5.2-5.4-11-9.7-18-12.9 -6.8-3.1-14.2-4.8-22-4.8 -10.6 0-20.1 2.9-28.5 8.4 -8.5 5.5-15 12.9-19.7 22V596.5l0 0c-0.1-2.2-1.9-3.9-4.1-3.9 -2.2 0-4 1.7-4.1 3.9l0 0v185.2 17.5 9.3c0 8.1-6.5 14.6-14.6 14.6h-1.9c-8.1 0-14.6-6.5-14.6-14.6v-7.7 -17.5 -50.6c0-6.2-1-11.8-3.2-17.1 -2-5.2-5.2-9.8-8.8-13.8 -3.9-3.9-8.4-6.8-13.6-9 -5.2-2-11-3.2-17.4-3.2 -9.3 0-17.2 2.3-23.8 6.8 -6.7 4.5-11.4 10.7-14.4 18.2 -3.2-7.6-8.4-13.6-15.3-18.2 -6.9-4.5-15-6.8-24.3-6.8 -7.7 0-14.6 1.7-20.6 4.9 -5.9 3.3-10.7 7.7-14.2 13.2v-14.6c0 0 0 0.3 0 0 0-2.2-1.8-3.9-4.1-3.9 -2.2 0-4.1 1.6-4.1 3.9 0 0.3 0 0 0 0v90.3 17.5 7.7c0 8.1-6.5 14.6-14.6 14.6h-1.9c-8.1 0-14.6-6.5-14.6-14.6v-7.7 -17.5 -60.4c0-10.7-3.9-19-11.7-24.8 -7.7-5.9-18.8-8.7-32.9-8.7 -12.9 0-23.4 2.9-31.5 8.5 -6.8 4.8-11.7 11-14.5 19 0 0-0.7 2.5-0.9 3.1l0 0c0.3 1.9 2.2 3.5 4.1 3.5 1.6 0 3.1-0.7 3.7-2l0 0c2.5-7.7 7.1-13.6 13.6-17.8 6.5-4.2 15-6.2 25.5-6.2 4.1 0 8.4 0.4 12.6 1.2 4.4 0.7 8.2 2 11.7 4 3.5 1.9 6.4 4.5 8.6 7.8 2.3 3.3 3.3 7.6 3.3 12.9 0 3.5-1 6.3-2.9 8.5 -1.9 2.2-4.8 3.9-8.5 5.2 -3.7 1.4-8.1 2.5-13.2 3.2 -5.2 0.7-10.8 1.4-17.1 1.9 -6.1 0.6-12 1.4-17.8 2.6s-11 2.9-15.5 5.5c-4.5 2.5-8.1 5.8-11 9.9 -2.7 4.1-4.1 9.4-4.1 15.8 0 5.4 1.2 10.1 3.6 14 2.5 4 5.5 7.2 9.5 9.9 3.9 2.7 8.2 4.6 13.2 5.8 4.9 1.3 9.9 1.9 14.8 1.9 11.3 0 21.1-1.8 29.4-5.5 8.4-3.6 14.8-8.7 19.3-15.2v13.8c0 0.1 0 0.3 0 0.3v7.7c0 12.6 10.3 22.9 22.9 22.9h1.9c12.6 0 22.9-10.3 22.9-22.9v-7.7c0-0.1 0-0.1 0-0.3v-68c0-5 0.9-9.7 2.7-13.9 1.8-4.2 4.1-7.8 7.2-11 3.1-3.1 6.7-5.5 11-7.2 4.2-1.8 8.8-2.6 13.9-2.6 5 0 9.7 0.9 13.9 2.6 4.4 1.8 8 4.1 11 7.2 3.1 3.1 5.5 6.7 7.2 11 1.8 4.2 2.6 8.8 2.6 13.9v71.2c0.4 1.8 2.2 2.9 4.1 2.9s3.6-1 4.1-2.9v-71.2c0-5 0.9-9.7 2.7-13.9 1.8-4.2 4.1-7.8 7.2-11 3.1-3.1 6.7-5.5 11-7.2 4.2-1.8 8.8-2.6 13.9-2.6s9.7 0.9 13.9 2.6c4.4 1.8 8 4.1 11 7.2 3.1 3.1 5.5 6.7 7.2 11 1.8 4.2 2.6 8.8 2.6 13.9v67.9c0 0.1 0 0.3 0 0.4v7.7c0 12.6 10.3 22.9 22.9 22.9h1.9c12.6 0 22.9-10.3 22.9-22.9v-5.2 -26.5c4.6 8.8 11.2 16.2 19.7 21.6 8.5 5.5 18 8.2 28.5 8.2 7.7 0 15-1.6 22-4.6 6.8-3.1 12.9-7.4 18-12.6 5.1-5.2 9.1-11.6 12.2-18.7 2.9-7.1 4.5-13.2 4.5-21.4s-1.6-17.4-4.5-24.7C558 717.4 553.9 711 548.8 705.6zM218.1 764.2c0 6.1-1.4 11.2-4.1 15.5 -2.9 4.4-6.4 8-11 11 -4.6 2.9-9.8 5-15.5 6.4s-11.7 2-17.8 2c-2.9 0-6.1-0.4-9.8-1.2 -3.7-0.7-7.2-1.9-10.6-3.7 -3.3-1.8-6.2-4.1-8.5-7.2 -2.3-3.1-3.5-6.9-3.5-11.7 0-7.7 3.1-13.6 9.3-17.8 6.2-4.1 16.5-6.8 31-8.4 4-0.3 7.8-0.6 11.7-1.2 3.9-0.4 7.6-1 11.2-1.9 3.6-0.7 6.9-1.8 10-3.1s5.7-2.9 8-4.9v25.9h-0.3V764.2zM553.7 767.4c-2.5 6.2-5.9 11.6-10.3 16.1 -4.4 4.6-9.5 8.2-15.5 11 -5.9 2.6-12.2 4-18.9 4 -6.5 0-12.9-1.3-18.7-4 -5.9-2.6-11-6.3-15.5-11 -4.4-4.6-7.8-10-10.4-16.1 -2.6-6.2-3.9-12.7-3.9-19.8 0-7.1 1.3-13.6 3.9-19.9 2.6-6.3 6.1-11.7 10.4-16.3 4.4-4.6 9.5-8.2 15.5-11 5.8-2.7 12-4.1 18.7-4.1 6.7 0 13 1.4 18.9 4.1 5.9 2.7 11 6.4 15.5 11 4.4 4.6 7.8 10 10.3 16.3 2.5 6.3 3.7 13 3.7 19.9C557.4 754.7 556.1 761.3 553.7 767.4zM110.1 724.5c-2.9-7.2-7.1-13.6-12.2-19 -5.2-5.4-11.2-9.7-18-12.9 -6.9-3.1-14.3-4.8-22-4.8 -10.6 0-20.1 2.9-28.5 8.4 -8.5 5.5-15 12.9-19.8 22v-68.3 -5.7c-0.1-2.2-1.9-3.9-4.1-3.9s-4 1.7-4.1 3.9v18.5l0 0v140l0 0c0.1 2 1.9 3.7 4 3.7 2.2 0 3.9-1.7 4.1-3.7v-0.1 -25.9c4.6 9 11.3 16.2 19.8 21.6 8.5 5.5 18 8.2 28.5 8.2 7.7 0 15-1.6 22-4.6 6.9-3.1 12.9-7.4 18-12.6 5.2-5.4 9.1-11.6 12.2-18.7 2.9-7.1 4.5-14.8 4.5-23C114.6 739.6 113.1 731.7 110.1 724.5zM102.5 767.4c-2.5 6.2-5.9 11.6-10.3 16.2 -4.4 4.6-9.5 8.2-15.5 11s-12.2 4-18.9 4c-6.5 0-12.9-1.3-18.7-4 -5.9-2.6-11-6.3-15.5-11 -4.4-4.6-7.8-10-10.4-16.2 -2.6-6.2-3.9-12.7-3.9-19.8 0-7.1 1.3-13.8 3.9-20.1s6.1-11.7 10.4-16.3c4.4-4.6 9.5-8.2 15.5-11s12-4.1 18.7-4.1c6.7 0 13 1.4 18.9 4.1 5.9 2.7 11 6.4 15.5 11 4.4 4.6 7.8 10 10.3 16.3 2.5 6.3 3.7 13 3.7 20.1S105 761.3 102.5 767.4z"/></svg>