<?xml version="1.0" encoding="utf-8"?>
<!-- Generator: Adobe Illustrator 18.0.0, SVG Export Plug-In . SVG Version: 6.00 Build 0)  -->
<!DOCTYPE svg PUBLIC "-//W3C//DTD SVG 1.1//EN" "http://www.w3.org/Graphics/SVG/1.1/DTD/svg11.dtd">
<svg version="1.1" id="Layer_1" xmlns="http://www.w3.org/2000/svg" xmlns:xlink="http://www.w3.org/1999/xlink" x="0px" y="0px"
	 viewBox="1.3 551.8 1197.2 395.8" enable-background="new 1.3 551.8 1197.2 395.8" xml:space="preserve">
<g>
	<path fill="#1A1A1A" d="M805.5,717.8c-7.6-7.9-16.2-14.2-26.4-18.9c-10-4.5-20.8-7-32.3-7c-15.5,0-29.5,4.2-41.9,12.3
		c-12.5,8.1-22.1,18.9-28.9,32.3v-179l0,0c-0.2-3.2-2.8-5.7-6-5.7s-5.9,2.5-6,5.7l0,0v272.1v25.7v13.6c0,11.9-9.6,21.5-21.5,21.5
		h-2.8c-11.9,0-21.5-9.6-21.5-21.5v-11.3v-25.7v-74.4c0-9.1-1.5-17.4-4.7-25.1c-3-7.7-7.6-14.4-13-20.2c-5.7-5.7-12.3-10-20-13.2
		c-7.7-3-16.2-4.7-25.5-4.7c-13.6,0-25.3,3.4-34.9,10c-9.8,6.6-16.8,15.7-21.1,26.8c-4.7-11.1-12.3-20-22.5-26.8
		c-10.2-6.6-22.1-10-35.7-10c-11.3,0-21.5,2.5-30.2,7.2c-8.7,4.9-15.7,11.3-20.8,19.4v-21.5c0,0,0,0.4,0,0c0-3.2-2.6-5.7-6-5.7
		c-3.2,0-6,2.3-6,5.7c0,0.4,0,0,0,0v132.6v25.7v11.3c0,11.9-9.6,21.5-21.5,21.5h-2.8c-11.9,0-21.5-9.6-21.5-21.5v-11.3v-25.7v-88.7
		c0-15.7-5.7-27.9-17.2-36.4c-11.3-8.7-27.6-12.8-48.3-12.8c-18.9,0-34.4,4.2-46.3,12.5c-10,7-17.2,16.2-21.3,27.9
		c0,0-1.1,3.6-1.3,4.5l0,0c0.4,2.8,3.2,5.1,6,5.1c2.3,0,4.5-1.1,5.5-3l0,0c3.6-11.3,10.4-20,20-26.1s22.1-9.1,37.4-9.1
		c6,0,12.3,0.6,18.5,1.7c6.4,1.1,12.1,3,17.2,5.9c5.1,2.8,9.4,6.6,12.7,11.5c3.4,4.9,4.9,11.1,4.9,18.9c0,5.1-1.5,9.3-4.3,12.5
		c-2.8,3.2-7,5.7-12.5,7.7c-5.5,2.1-11.9,3.6-19.4,4.7c-7.6,1.1-15.9,2.1-25.1,2.8c-8.9,0.9-17.6,2.1-26.1,3.8
		c-8.5,1.7-16.1,4.3-22.7,8.1c-6.6,3.6-11.9,8.5-16.1,14.5c-4,6-6,13.8-6,23.2c0,7.9,1.7,14.9,5.3,20.6c3.6,5.9,8.1,10.6,14,14.5
		c5.7,4,12.1,6.8,19.4,8.5c7.2,1.9,14.5,2.8,21.7,2.8c16.6,0,31-2.6,43.2-8.1c12.3-5.3,21.7-12.8,28.3-22.3v20.2c0,0.2,0,0.4,0,0.4
		v11.3c0,18.5,15.1,33.6,33.6,33.6h2.8c18.5,0,33.6-15.1,33.6-33.6v-11.3c0-0.2,0-0.2,0-0.4v-99.9c0-7.4,1.3-14.2,4-20.4
		c2.6-6.2,6-11.5,10.6-16.1c4.5-4.5,9.8-8.1,16.1-10.6c6.2-2.6,13-3.8,20.4-3.8s14.2,1.3,20.4,3.8c6.4,2.6,11.7,6,16.2,10.6
		c4.5,4.5,8.1,9.8,10.6,16.1c2.6,6.2,3.8,13,3.8,20.4v104.6c0.6,2.6,3.2,4.2,6,4.2s5.3-1.5,6-4.2V757.5c0-7.4,1.3-14.2,4-20.4
		c2.6-6.2,6-11.5,10.6-16.1c4.5-4.5,9.8-8.1,16.1-10.6c6.2-2.6,13-3.8,20.4-3.8s14.2,1.3,20.4,3.8c6.4,2.6,11.7,6,16.2,10.6
		c4.5,4.5,8.1,9.8,10.6,16.1c2.6,6.2,3.8,13,3.8,20.4v99.7c0,0.2,0,0.4,0,0.6v11.3c0,18.5,15.1,33.6,33.6,33.6h2.8
		c18.5,0,33.6-15.1,33.6-33.6v-7.7v-38.9c6.8,13,16.4,23.8,28.9,31.7c12.5,8.1,26.4,12.1,41.9,12.1c11.3,0,22.1-2.3,32.3-6.8
		c10-4.5,18.9-10.8,26.4-18.5s13.4-17,17.9-27.4c4.3-10.4,6.6-19.4,6.6-31.5s-2.3-25.5-6.6-36.3
		C819.1,735.2,813.1,725.7,805.5,717.8z M319.7,803.9c0,8.9-2.1,16.4-6,22.8c-4.2,6.4-9.4,11.7-16.2,16.1
		c-6.8,4.2-14.4,7.4-22.8,9.4s-17.2,3-26.2,3c-4.2,0-8.9-0.6-14.4-1.7c-5.5-1.1-10.6-2.8-15.5-5.5s-9.1-6-12.5-10.6
		c-3.4-4.5-5.1-10.2-5.1-17.2c0-11.3,4.5-20,13.6-26.1c9.1-6,24.2-10,45.5-12.3c5.9-0.4,11.5-0.9,17.2-1.7
		c5.7-0.6,11.1-1.5,16.4-2.8c5.3-1.1,10.2-2.6,14.7-4.5c4.5-1.9,8.3-4.3,11.7-7.2v38.1H319.7z M812.7,808.6
		c-3.6,9.1-8.7,17-15.1,23.6c-6.4,6.8-14,12.1-22.7,16.1c-8.7,3.8-17.9,5.9-27.8,5.9c-9.6,0-18.9-1.9-27.4-5.9
		c-8.7-3.8-16.1-9.3-22.7-16.1c-6.4-6.8-11.5-14.7-15.3-23.6c-3.8-9.1-5.7-18.7-5.7-29.1c0-10.4,1.9-20,5.7-29.3s8.9-17.2,15.3-24
		c6.4-6.8,14-12.1,22.7-16.1c8.5-4,17.7-6,27.4-6c9.8,0,19.1,2.1,27.8,6c8.7,4,16.1,9.4,22.7,16.1c6.4,6.8,11.5,14.7,15.1,24
		c3.6,9.3,5.5,19.1,5.5,29.3C818.2,789.9,816.3,799.6,812.7,808.6z"/>
	<path fill="#1A1A1A" d="M989.3,717.6c-7.6-7.9-16.2-14.2-26.2-18.9c-10-4.5-20.8-7-32.1-7s-21.9,2.3-31.9,7
		c-10,4.5-18.7,11-26.1,18.9c-7.6,7.9-13.4,17.2-17.7,27.9c-4.3,10.6-6.6,21.9-6.6,34s2.3,23.2,6.6,33.8
		c4.3,10.4,10.4,19.6,17.7,27.4c7.6,7.9,16.2,14,26.1,18.5c10,4.5,20.6,6.8,31.9,6.8s22.1-2.3,32.1-6.8s18.9-10.8,26.2-18.5
		c7.4-7.9,13.4-17,17.7-27.4c4.3-10.4,6.6-21.7,6.6-33.8s-2.3-23.4-6.6-34C1002.7,735,996.8,725.7,989.3,717.6z M996.3,808.6
		c-3.6,9.1-8.7,17-15.1,23.6c-6.4,6.8-14,12.1-22.5,16.1c-8.5,4-17.7,5.9-27.6,5.9c-9.6,0-18.7-1.9-27.4-5.9
		c-8.5-4-16.1-9.3-22.5-16.1c-6.4-6.8-11.5-14.5-15.3-23.6s-5.7-18.7-5.7-28.9c0-10.4,1.9-20.2,5.7-29.5s8.9-17.2,15.3-24.2
		c6.4-7,14-12.5,22.5-16.2c8.5-4,17.7-5.9,27.4-5.9c9.8,0,19.1,1.9,27.6,5.9c8.5,4,16.1,9.4,22.5,16.2c6.4,7,11.5,14.9,15.1,24.2
		s5.5,18.9,5.5,29.5C1001.7,789.9,1000,799.6,996.3,808.6z"/>
	<path fill="#1A1A1A" d="M1191.9,745.6c-4.3-10.6-10.4-20-17.7-27.9c-7.6-7.9-16.2-14.2-26.2-18.9c-10-4.5-20.8-7-32.1-7
		c-11.3,0-21.9,2.3-31.9,7c-10,4.5-18.7,11-26.1,18.9c-7.6,7.9-13.4,17.2-17.7,27.9c-4.3,10.6-6.6,21.9-6.6,34s2.1,23.2,6.6,33.8
		c4.3,10.4,10.4,19.6,17.7,27.4c7.6,7.9,16.2,14,26.1,18.5c10,4.5,20.6,6.8,31.9,6.8c11.3,0,21.9-2.3,32.1-6.8
		c10-4.5,18.9-10.8,26.2-18.5c7.6-7.9,13.4-17,17.7-27.4c4.3-10.4,6.6-21.7,6.6-33.8C1198.5,767.7,1196.2,756.3,1191.9,745.6z
		 M1181.1,808.6c-3.6,9.1-8.7,17-15.1,23.6c-6.4,6.8-14,12.1-22.5,16.1c-8.5,4-17.7,5.9-27.6,5.9c-9.6,0-18.7-1.9-27.4-5.9
		c-8.5-4-16.1-9.3-22.5-16.1s-11.5-14.5-15.3-23.6c-3.8-9.1-5.7-18.7-5.7-28.9c0-10.4,1.9-20.2,5.7-29.5c3.8-9.3,8.9-17.2,15.3-24.2
		c6.4-7,14-12.5,22.5-16.2c8.5-4,17.7-5.9,27.4-5.9c9.8,0,19.1,1.9,27.6,5.9c8.5,4,16.1,9.4,22.5,16.2c6.4,7,11.5,14.9,15.1,24.2
		s5.5,18.9,5.5,29.5C1186.6,789.9,1184.7,799.6,1181.1,808.6z"/>
	<path fill="#1A1A1A" d="M753.4,938.2c-0.6,0-1.1,0.4-1.5,0.6c-3.4,3.2-7,4.9-11.9,4.9c-8.9,0-15.5-7.4-15.5-16.6v-0.2
		c0-9.3,6.6-16.4,15.5-16.4c4.9,0,8.5,1.9,11.5,4.5c0.4,0.2,0.9,0.6,1.5,0.6c1.1,0,2.3-0.9,2.3-2.3c0-0.8-0.4-1.5-0.9-1.9
		c-3.8-3-7.9-5.3-14.4-5.3c-11.7,0-20.2,9.4-20.2,20.8v0.2c0,11.5,8.5,20.6,20,20.6c6.6,0,11-2.3,14.9-5.9c0.4-0.4,0.8-0.9,0.8-1.5
		C755.7,939.3,754.7,938.2,753.4,938.2z"/>
	<path fill="#1A1A1A" d="M805.5,907.2h-14.9c-1.1,0-2.3,0.9-2.3,2.3v35.7c0,1.3,0.9,2.3,2.3,2.3s2.3-0.9,2.3-2.3v-13.6h11.5
		l11.3,14.7c0.6,0.8,1.1,1.1,2.1,1.1c1.1,0,2.3-0.9,2.3-2.3c0-0.6-0.4-1.1-0.8-1.7l-10-12.8c6.2-1.1,10.8-5.1,10.8-11.7v-0.2
		c0-3.2-1.1-6-3-7.9C814.4,908.7,810.4,907.2,805.5,907.2z M815.4,919.3c0,5.1-4.3,8.3-10.4,8.3h-12.3v-16.2H805
		C811.6,911.4,815.4,914.4,815.4,919.3L815.4,919.3z"/>
	<path fill="#1A1A1A" d="M880.7,943.1h-22.8v-14h20c1.1,0,2.1-0.9,2.1-2.1s-0.9-2.1-2.1-2.1h-20v-13.6h22.7c1.1,0,2.1-0.9,2.1-2.1
		s-0.9-2.1-2.1-2.1h-24.9c-1.1,0-2.3,0.9-2.3,2.3V945c0,1.3,0.9,2.3,2.3,2.3h25.1c1.1,0,2.1-0.9,2.1-2.1
		C882.8,944,881.8,943.1,880.7,943.1z"/>
	<path fill="#1A1A1A" d="M932.1,908.7c-0.6-1.3-1.5-2.1-2.8-2.1H929c-1.5,0-2.3,0.8-2.8,2.1L910,944.2c-0.2,0.4-0.4,0.9-0.4,1.1
		c0,1.1,0.9,2.1,2.1,2.1c0.9,0,1.7-0.6,2.3-1.5l4.2-9.3H940l4.2,9.3c0.4,0.9,1.1,1.7,2.3,1.7s2.3-0.9,2.3-2.3c0-0.4-0.2-0.8-0.4-1.1
		L932.1,908.7z M919.8,932.5l9.3-20.6l9.3,20.6H919.8z"/>
	<path fill="#1A1A1A" d="M1000.6,907.2h-27.8c-1.1,0-2.1,0.9-2.1,2.1c0,1.1,0.9,2.1,2.1,2.1h11.7v33.8c0,1.3,0.9,2.3,2.3,2.3
		s2.3-0.9,2.3-2.3v-33.8h11.7c1.1,0,2.1-0.9,2.1-2.1C1002.9,908.1,1001.7,907.2,1000.6,907.2z"/>
	<path fill="#1A1A1A" d="M1035.2,906.8c-1.1,0-2.3,0.9-2.3,2.3v36.1c0,1.3,0.9,2.3,2.3,2.3s2.3-0.9,2.3-2.3v-36.1
		C1037.4,908,1036.5,906.8,1035.2,906.8z"/>
	<path fill="#1A1A1A" d="M1100.5,906.8c-0.9,0-1.9,0.8-2.3,1.5l-14,33.2l-13.8-33.2c-0.4-0.9-1.1-1.7-2.3-1.7
		c-1.3,0-2.3,1.1-2.3,2.3c0,0.4,0,0.8,0.2,0.9l15.5,35.7c0.4,1.1,1.3,1.9,2.6,1.9h0.2c1.3,0,2.1-0.8,2.6-1.9l15.5-35.9
		c0.2-0.4,0.2-0.6,0.2-0.9C1102.8,908,1101.8,906.8,1100.5,906.8z"/>
	<path fill="#1A1A1A" d="M1154.7,943.1h-22.8v-14h20c1.1,0,2.1-0.9,2.1-2.1s-0.9-2.1-2.1-2.1h-20v-13.6h22.7c1.1,0,2.1-0.9,2.1-2.1
		s-0.9-2.1-2.1-2.1h-24.9c-1.1,0-2.3,0.9-2.3,2.3V945c0,1.3,0.9,2.3,2.3,2.3h25.1c1.1,0,2.1-0.9,2.1-2.1
		C1156.8,944,1155.8,943.1,1154.7,943.1z"/>
	<path fill="#1A1A1A" d="M161.1,745.6c-4.3-10.6-10.4-20-17.9-27.9c-7.6-7.9-16.4-14.2-26.4-18.9c-10.2-4.5-21-7-32.3-7
		c-15.5,0-29.5,4.2-41.9,12.3c-12.5,8.1-22.1,18.9-29.1,32.3V636v-8.3c-0.2-3.2-2.8-5.7-6-5.7s-5.9,2.5-6,5.7v27.2l0,0v205.6l0,0
		c0.2,3,2.8,5.5,5.9,5.5c3.2,0,5.7-2.5,6-5.5v-0.2v-38.1c6.8,13.2,16.6,23.8,29.1,31.7c12.5,8.1,26.4,12.1,41.9,12.1
		c11.3,0,22.1-2.3,32.3-6.8c10.2-4.5,18.9-10.8,26.4-18.5c7.6-7.9,13.4-17,17.9-27.4c4.3-10.4,6.6-21.7,6.6-33.8
		C167.7,767.7,165.6,756.1,161.1,745.6z M149.9,808.6c-3.6,9.1-8.7,17-15.1,23.8c-6.4,6.8-14,12.1-22.7,16.1s-17.9,5.9-27.8,5.9
		c-9.6,0-18.9-1.9-27.4-5.9c-8.7-3.8-16.1-9.3-22.7-16.1c-6.4-6.8-11.5-14.7-15.3-23.8s-5.7-18.7-5.7-29.1c0-10.4,1.9-20.2,5.7-29.5
		c3.8-9.3,8.9-17.2,15.3-24s14-12.1,22.7-16.1s17.7-6,27.4-6c9.8,0,19.1,2.1,27.8,6s16.1,9.4,22.7,16.1c6.4,6.8,11.5,14.7,15.1,24
		c3.6,9.3,5.5,19.1,5.5,29.5S153.7,799.6,149.9,808.6z"/>
</g>
</svg>
