<?xml version="1.0" encoding="utf-8"?>
<!-- Generator: Adobe Illustrator 18.1.1, SVG Export Plug-In . SVG Version: 6.00 Build 0)  -->
<svg version="1.1" id="Layer_1" xmlns="http://www.w3.org/2000/svg" xmlns:xlink="http://www.w3.org/1999/xlink" x="0px" y="0px"
	 viewBox="1.4 915.1 1920 563.3" enable-background="new 1.4 915.1 1920 563.3" xml:space="preserve">
<path fill="#6A6A6A" d="M1585.9,1180.9c-12.3-12.7-25.9-22.9-41.9-30.4c-16-7.3-33.5-11.3-51.6-11.3c-18.1,0-35.1,3.8-51.1,11.3
	c-16,7.3-29.9,17.7-41.9,30.4c-12.3,12.7-21.4,27.6-28.3,44.8c-6.8,17-10.6,35.1-10.6,54.4s3.8,37.2,10.6,54.2
	c6.8,16.7,16.7,31.3,28.3,44.1c12.3,12.7,25.9,22.4,41.9,29.7c16,7.3,33,10.8,51.1,10.8c18.1,0,35.3-3.8,51.6-10.8
	c16-7.3,30.4-17.4,41.9-29.7c11.8-12.7,21.4-27.3,28.3-44.1c6.8-16.7,10.6-34.9,10.6-54.2s-3.8-37.5-10.6-54.4
	C1607.3,1208.9,1597.9,1194.1,1585.9,1180.9z M1597.2,1327c-5.9,14.6-13.9,27.3-24.3,37.9c-10.4,10.8-22.4,19.3-36,25.9
	c-13.7,6.4-28.3,9.4-44.3,9.4c-15.3,0-29.9-3.1-44.1-9.4c-13.7-6.4-25.9-14.8-36-25.9c-10.4-10.8-18.4-23.3-24.5-37.9
	c-6.1-14.6-9.2-29.9-9.2-46.4c0-16.7,3.1-32.5,9.2-47.4s14.4-27.6,24.5-38.9c10.4-11.3,22.4-20,36-25.9c13.7-6.4,28.3-9.4,44.1-9.4
	s30.6,3.1,44.3,9.4c13.7,6.4,25.9,15.1,36,25.9c10.4,11.3,18.4,23.8,24.3,38.9c5.9,14.8,8.7,30.4,8.7,47.4
	C1605.7,1297,1603.1,1312.6,1597.2,1327z M1910.8,1225.9c-6.8-17-16.7-32-28.3-44.8c-12.3-12.7-25.9-22.9-41.9-30.4
	c-16-7.3-33.5-11.3-51.6-11.3s-35.1,3.8-51.1,11.3c-16,7.3-29.9,17.7-41.9,30.4c-12.3,12.7-21.4,27.6-28.3,44.8
	c-6.8,17-10.6,35.1-10.6,54.4s3.3,37.2,10.6,54.2c6.8,16.7,16.7,31.3,28.3,44.1c12.3,12.7,25.9,22.4,41.9,29.7
	c16,7.3,33,10.8,51.1,10.8s35.1-3.8,51.6-10.8c16-7.3,30.4-17.4,41.9-29.7c12.3-12.7,21.4-27.3,28.3-44.1
	c6.8-16.7,10.6-34.9,10.6-54.2C1921.4,1261.5,1917.6,1243.1,1910.8,1225.9z M1893.6,1327c-5.9,14.6-13.9,27.3-24.3,37.9
	c-10.4,10.8-22.4,19.3-36,25.9c-13.7,6.6-28.3,9.4-44.3,9.4c-15.3,0-29.9-3.1-44.1-9.4c-13.7-6.4-25.9-14.8-36-25.9
	c-10.4-10.8-18.4-23.3-24.5-37.9c-6.1-14.6-9.2-29.9-9.2-46.4c0-16.7,3.1-32.5,9.2-47.4c6.1-14.8,14.4-27.6,24.5-38.9
	c10.4-11.3,22.4-20,36-25.9c13.7-6.4,28.3-9.4,44.1-9.4s30.6,3.1,44.3,9.4c13.7,6.4,25.9,15.1,36,25.9
	c10.4,11.3,18.4,23.8,24.3,38.9s8.7,30.4,8.7,47.4C1902.3,1297,1899.3,1312.6,1893.6,1327z M1291.1,1181.4
	c-12.3-12.7-25.9-22.9-42.4-30.4c-16-7.3-33.5-11.3-51.8-11.3c-25,0-47.4,6.8-67.1,19.8c-20,13-35.3,30.4-46.4,51.8v-287l0,0
	c-0.2-5.2-4.5-9.2-9.7-9.2c-5.2,0-9.4,4-9.7,9.2l0,0v436.4v41.2v21.9c0,19.1-15.3,34.4-34.4,34.4h-4.5c-19.1,0-34.4-15.3-34.4-34.4
	v-18.1v-41.2v-119.2c0-14.6-2.4-27.8-7.5-40.3c-4.7-12.3-12.3-23.1-20.7-32.5c-9.2-9.2-19.8-16-32-21.2c-12.3-4.7-25.9-7.5-41-7.5
	c-21.9,0-40.5,5.4-56.1,16c-15.8,10.6-26.9,25.2-33.9,42.9c-7.5-17.9-19.8-32-36-42.9c-16.3-10.6-35.3-16-57.3-16
	c-18.1,0-34.4,4-48.5,11.5c-13.9,7.8-25.2,18.1-33.5,31.1v-34.4c0,0,0,0.7,0,0c0-5.2-4.2-9.2-9.7-9.2c-5.2,0-9.7,3.8-9.7,9.2
	c0,0.7,0,0,0,0v212.8v41.2v18.1c0,19.1-15.3,34.4-34.4,34.4h-4.5c-19.1,0-34.4-15.3-34.4-34.4v-18.1v-41.2v-142.3
	c0-25.2-9.2-44.8-27.6-58.4c-18.1-13.9-44.3-20.5-77.5-20.5c-30.4,0-55.1,6.8-74.2,20c-16,11.3-27.6,25.9-34.2,44.8
	c0,0-1.6,5.9-2.1,7.3l0,0c0.7,4.5,5.2,8.2,9.7,8.2c3.8,0,7.3-1.6,8.7-4.7l0,0c5.9-18.1,16.7-32,32-41.9s35.3-14.6,60.1-14.6
	c9.7,0,19.8,0.9,29.7,2.8c10.4,1.6,19.3,4.7,27.6,9.4c8.2,4.5,15.1,10.6,20.3,18.4c5.4,7.8,7.8,17.9,7.8,30.4c0,8.2-2.4,14.8-6.8,20
	c-4.5,5.2-11.3,9.2-20,12.3c-8.7,3.3-19.1,5.9-31.1,7.5c-12.3,1.6-25.4,3.3-40.3,4.5c-14.4,1.4-28.3,3.3-41.9,6.1
	c-13.7,2.8-25.9,6.8-36.5,13c-10.6,5.9-19.1,13.7-25.9,23.3c-6.4,9.7-9.7,22.1-9.7,37.2c0,12.7,2.8,23.8,8.5,33
	c5.9,9.4,13,17,22.4,23.3c9.2,6.4,19.3,10.8,31.1,13.7c11.5,3.1,23.3,4.5,34.9,4.5c26.6,0,49.7-4.2,69.3-13
	c19.8-8.5,34.9-20.5,45.5-35.8v32.5c0,0.2,0,0.7,0,0.7v18.1c0,29.7,24.3,54,54,54h4.5c29.7,0,54-24.3,54-54v-18.1c0-0.2,0-0.2,0-0.7
	v-160.2c0-11.8,2.1-22.9,6.4-32.8c4.2-9.9,9.7-18.4,17-25.9c7.3-7.3,15.8-13,25.9-17c9.9-4.2,20.7-6.1,32.8-6.1
	c11.8,0,22.9,2.1,32.8,6.1c10.4,4.2,18.8,9.7,25.9,17c7.3,7.3,13,15.8,17,25.9c4.2,9.9,6.1,20.7,6.1,32.8v167.8
	c0.9,4.2,5.2,6.8,9.7,6.8s8.5-2.4,9.7-6.8v-167.8c0-11.8,2.1-22.9,6.4-32.8c4.2-9.9,9.7-18.4,17-25.9c7.3-7.3,15.8-13,25.9-17
	c9.9-4.2,20.7-6.1,32.8-6.1c12,0,22.9,2.1,32.8,6.1c10.4,4.2,18.8,9.7,25.9,17c7.3,7.3,13,15.8,17,25.9c4.2,9.9,6.1,20.7,6.1,32.8
	v160c0,0.2,0,0.7,0,0.9v18.1c0,29.7,24.3,54,54,54h4.5c29.7,0,54-24.3,54-54v-12.3v-62.4c10.8,20.7,26.4,38.2,46.4,50.9
	c20,13,42.4,19.3,67.1,19.3c18.1,0,35.3-3.8,51.8-10.8c16-7.3,30.4-17.4,42.4-29.7c12-12.3,21.4-27.3,28.7-44.1
	c6.8-16.7,10.6-31.1,10.6-50.4s-3.8-41-10.6-58.2C1312.8,1209.2,1303.2,1194.1,1291.1,1181.4z M512,1319.4c0,14.4-3.3,26.4-9.7,36.5
	c-6.8,10.4-15.1,18.8-25.9,25.9c-10.8,6.8-23.1,11.8-36.5,15.1c-13.4,3.3-27.6,4.7-41.9,4.7c-6.8,0-14.4-0.9-23.1-2.8
	c-8.7-1.6-17-4.5-25-8.7c-7.8-4.2-14.6-9.7-20-17c-5.4-7.3-8.2-16.3-8.2-27.6c0-18.1,7.3-32,21.9-41.9c14.6-9.7,38.9-16,73-19.8
	c9.4-0.7,18.4-1.4,27.6-2.8c9.2-0.9,17.9-2.4,26.4-4.5c8.5-1.6,16.3-4.2,23.6-7.3c7.3-3.1,13.4-6.8,18.8-11.5v61h-0.7v0.7H512z
	 M1302.7,1327c-5.9,14.6-13.9,27.3-24.3,37.9c-10.4,10.8-22.4,19.3-36.5,25.9c-13.9,6.1-28.7,9.4-44.5,9.4
	c-15.3,0-30.4-3.1-44.1-9.4c-13.9-6.1-25.9-14.8-36.5-25.9c-10.4-10.8-18.4-23.6-24.5-37.9c-6.1-14.6-9.2-29.9-9.2-46.7
	s3.1-32,9.2-46.9c6.1-14.8,14.4-27.6,24.5-38.4c10.4-10.8,22.4-19.3,36.5-25.9c13.7-6.4,28.3-9.7,44.1-9.7c15.8,0,30.6,3.3,44.5,9.7
	c13.9,6.4,25.9,15.1,36.5,25.9c10.4,10.8,18.4,23.6,24.3,38.4c5.9,14.8,8.7,30.6,8.7,46.9C1311.4,1297,1308.3,1312.6,1302.7,1327z
	 M257.5,1225.9c-6.8-17-16.7-32-28.7-44.8c-12.3-12.7-26.4-22.9-42.4-30.4c-16.3-7.3-33.7-11.3-51.8-11.3c-25,0-47.4,6.8-67.1,19.8
	c-20,13-35.3,30.4-46.7,51.8v-160.9v-13.4c-0.2-5.2-4.5-9.2-9.7-9.2s-9.4,4-9.7,9.2v43.6l0,0v329.9l0,0c0.2,4.7,4.5,8.7,9.4,8.7
	c5.2,0,9.2-4,9.7-8.7v-0.2v-61c10.8,21.2,26.6,38.2,46.7,50.9c20,13,42.4,19.3,67.1,19.3c18.1,0,35.3-3.8,51.8-10.8
	c16.3-7.3,30.4-17.4,42.4-29.7c12.3-12.7,21.4-27.3,28.7-44.1c6.8-16.7,10.6-34.9,10.6-54.2C268.1,1261.5,264.6,1242.8,257.5,1225.9
	z M239.6,1327c-5.9,14.6-13.9,27.3-24.3,38.2c-10.4,10.8-22.4,19.3-36.5,25.9c-14.1,6.6-28.7,9.4-44.5,9.4
	c-15.3,0-30.4-3.1-44.1-9.4c-13.9-6.1-25.9-14.8-36.5-25.9c-10.4-10.8-18.4-23.6-24.5-38.2c-6.1-14.6-9.2-29.9-9.2-46.7
	s3.1-32.5,9.2-47.4s14.4-27.6,24.5-38.4c10.4-10.8,22.4-19.3,36.5-25.9c14.1-6.6,28.3-9.7,44.1-9.7s30.6,3.3,44.5,9.7
	c13.9,6.4,25.9,15.1,36.5,25.9c10.4,10.8,18.4,23.6,24.3,38.4s8.7,30.6,8.7,47.4S245.5,1312.6,239.6,1327z"/>
</svg>
