<?xml version="1.0" encoding="utf-8"?>
<!-- Generator: Adobe Illustrator 18.1.1, SVG Export Plug-In . SVG Version: 6.00 Build 0)  -->
<svg version="1.1" id="Layer_1" xmlns="http://www.w3.org/2000/svg" xmlns:xlink="http://www.w3.org/1999/xlink" x="0px" y="0px"
	 viewBox="0 160 1920 960" enable-background="new 0 160 1920 960" xml:space="preserve">
<polygon fill="#6A6A6A" points="192,592.4 273,592.4 273,730.2 315.3,730.2 314.9,592.4 396.3,592.4 396.3,550.5 192,550.5 "/>
<polygon fill="#6A6A6A" points="573.3,619.3 465.4,619.3 465.4,550.5 423.6,550.5 423.6,729.9 465.4,729.9 465.4,661.1 573.7,661.1 
	573.7,729.9 615.6,729.9 615.6,550.1 573.3,550.5 "/>
<path fill="#6A6A6A" d="M819.8,550.1H645.5v179.7h41.9V592h130.2c7.7,0,11.5,6.1,11.5,18.4s-3.8,18.4-11.5,18.4H709.6l89.9,100.6
	h56.8l-53-58.8h16.1c16.1,0,28.8-6.1,38-18.8c8.8-11.5,13.1-25.3,13.1-41.5c0-16.1-4.2-30.3-13.1-41.5
	C848.6,556.3,835.6,550.1,819.8,550.1z"/>
<rect x="900.5" y="550.1" fill="#6A6A6A" width="41.9" height="179.7"/>
<polygon fill="#6A6A6A" points="1075.2,673 1011.8,550.1 965,550.1 1057.2,729.9 1092.9,729.9 1184.3,550.1 1137.4,550.1 "/>
<polygon fill="#6A6A6A" points="1400.4,592 1400.4,549.8 1208.4,550.1 1208.4,729.5 1400.1,729.5 1400.1,687.6 1250.3,687.6 
	1250.3,660.7 1390.5,660.7 1390.5,618.9 1250.3,618.9 1250.3,592 "/>
<polygon fill="#6A6A6A" points="1628.2,730.2 1666.6,729.9 1728,640 1666.6,549.8 1627.8,549.8 1689.2,640 "/>
<polygon fill="#6A6A6A" points="1551,730.2 1589.8,730.2 1651.2,640 1589.4,549.8 1551,549.8 1612.4,640 "/>
<polygon fill="#6A6A6A" points="1474.2,730.2 1512.6,730.2 1574,640 1512.6,549.8 1473.8,550.1 1535.6,640 "/>
<polygon fill="#6A6A6A" points="1689.2,640 1628.2,730.2 1666.6,729.9 1728,640 "/>
<polygon fill="#6A6A6A" points="1612.4,640 1551,730.2 1589.8,730.2 1651.2,640 "/>
<polygon fill="#6A6A6A" points="1535.6,640 1474.2,730.2 1512.6,730.2 1574,640 "/>
</svg>
