<?xml version="1.0" encoding="utf-8"?>
<!-- Generator: Adobe Illustrator 18.0.0, SVG Export Plug-In . SVG Version: 6.00 Build 0)  -->
<!DOCTYPE svg PUBLIC "-//W3C//DTD SVG 1.1//EN" "http://www.w3.org/Graphics/SVG/1.1/DTD/svg11.dtd">
<svg version="1.1" id="Layer_1" xmlns="http://www.w3.org/2000/svg" xmlns:xlink="http://www.w3.org/1999/xlink" x="0px" y="0px"
	 viewBox="0 0 500 200" enable-background="new 0 0 500 200" xml:space="preserve">
<polygon fill="#353535" points="50,87.6 71.1,87.6 71.1,123.5 82.1,123.5 82,87.6 103.2,87.6 103.2,76.7 50,76.7 "/>
<polygon fill="#353535" points="149.3,94.6 121.2,94.6 121.2,76.7 110.3,76.7 110.3,123.4 121.2,123.4 121.2,105.5 149.4,105.5 
	149.4,123.4 160.3,123.4 160.3,76.6 149.3,76.7 "/>
<path fill="#353535" d="M213.5,76.6h-45.4v46.8H179V87.5h33.9c2,0,3,1.6,3,4.8s-1,4.8-3,4.8h-28.1l23.4,26.2H223L209.2,108h4.2
	c4.2,0,7.5-1.6,9.9-4.9c2.3-3,3.4-6.6,3.4-10.8s-1.1-7.9-3.4-10.8C221,78.2,217.6,76.6,213.5,76.6z"/>
<rect x="234.5" y="76.6" fill="#353535" width="10.9" height="46.8"/>
<polygon fill="#353535" points="280,108.6 263.5,76.6 251.3,76.6 275.3,123.4 284.6,123.4 308.4,76.6 296.2,76.6 "/>
<polygon fill="#353535" points="364.7,87.5 364.7,76.5 314.7,76.6 314.7,123.3 364.6,123.3 364.6,112.4 325.6,112.4 325.6,105.4 
	362.1,105.4 362.1,94.5 325.6,94.5 325.6,87.5 "/>
<polygon fill="#353535" points="424,123.5 434,123.4 450,100 434,76.5 423.9,76.5 439.9,100 "/>
<polygon fill="#353535" points="403.9,123.5 414,123.5 430,100 413.9,76.5 403.9,76.5 419.9,100 "/>
<polygon fill="#353535" points="383.9,123.5 393.9,123.5 409.9,100 393.9,76.5 383.8,76.6 399.9,100 "/>
<polygon fill="#353535" points="439.9,100 424,123.5 434,123.4 450,100 "/>
<polygon fill="#353535" points="419.9,100 403.9,123.5 414,123.5 430,100 "/>
<polygon fill="#353535" points="399.9,100 383.9,123.5 393.9,123.5 409.9,100 "/>
</svg>
