<?xml version="1.0" encoding="utf-8"?>
<!-- Generator: Adobe Illustrator 18.0.0, SVG Export Plug-In . SVG Version: 6.00 Build 0)  -->
<!DOCTYPE svg PUBLIC "-//W3C//DTD SVG 1.1//EN" "http://www.w3.org/Graphics/SVG/1.1/DTD/svg11.dtd">
<svg version="1.1" id="Layer_1" xmlns="http://www.w3.org/2000/svg" xmlns:xlink="http://www.w3.org/1999/xlink" x="0px" y="0px"
	 viewBox="0 0 500 200" enable-background="new 0 0 500 200" xml:space="preserve">
<g id="bayside">
	<path fill="#353535" d="M271.9,127.9c1.3,0,2.3,0.3,3.1,0.6l0.5-1.6c-0.5-0.3-1.7-0.7-3.6-0.7c-4.7,0-7.9,3.2-7.9,8
		c0,5,3.2,7.7,7.5,7.7c1.8,0,3.3-0.4,4-0.7l-0.4-1.6c-0.8,0.4-2,0.6-3.2,0.6c-3.7,0-5.8-2.4-5.8-6.1
		C266,130.2,268.4,127.9,271.9,127.9L271.9,127.9z M301,132.9h-7.3v-6.4h-2v15.2h2v-7.1h7.3v7.1h2v-15.2h-2V132.9L301,132.9z
		 M329.4,135.5c0,3.4-1.4,4.8-3.7,4.8c-2,0-3.5-1.4-3.5-4.8v-9h-2v8.9c0,4.7,2.3,6.5,5.4,6.5c3.3,0,5.7-1.9,5.7-6.6v-8.9h-2
		L329.4,135.5L329.4,135.5z M355,134.5L355,134.5c1.6-0.6,2.9-1.9,2.9-3.9c0-1.2-0.4-2.2-1.2-2.9c-0.9-0.9-2.3-1.2-4.4-1.2
		c-1.4,0-2.8,0.1-3.8,0.3v15h2v-6.6h1.8c1.8,0.1,2.6,0.9,3,3c0.4,1.9,0.8,3.2,1,3.6h2c-0.3-0.6-0.7-2-1.2-4.2
		C356.9,136,356.2,134.9,355,134.5L355,134.5z M352.5,133.6h-2v-5.5c0.3-0.1,1-0.2,1.9-0.2c2.1,0,3.5,0.9,3.5,2.8
		C355.9,132.5,354.6,133.6,352.5,133.6L352.5,133.6z M381.5,127.9c1.3,0,2.3,0.3,3.1,0.6l0.5-1.6c-0.5-0.3-1.7-0.7-3.6-0.7
		c-4.7,0-7.9,3.2-7.9,8c0,5,3.2,7.7,7.5,7.7c1.8,0,3.3-0.4,4-0.7l-0.4-1.6c-0.8,0.4-2,0.6-3.2,0.6c-3.7,0-5.8-2.4-5.8-6.1
		C375.6,130.2,378,127.9,381.5,127.9L381.5,127.9z M410.6,126.5v6.4h-7.3v-6.4h-2v15.2h2v-7.1h7.3v7.1h2v-15.2H410.6L410.6,126.5z"
		/>
	<path fill="#353535" d="M443.5,93.8c-3.8,1.3-7.1,2.5-12.2,2.2c-3-0.1-6-0.6-8.9-0.9s-5.8-0.9-8.9-0.9c-11.5,0-19.4,3.4-27.8,6.3
		c-1.1,0.4-2.4,1.2-3.6,0.7c0.5-0.9,1.4-1.5,2.2-2.1c4.2-3.1,7.8-6.2,10.8-10.6c1.2-1.7,2.2-3.9,1.7-6.5c-0.4-1.6-1.5-3-3-3.7
		c-1.8-0.9-6.6-0.7-8.5-0.2c-2.4,0.6-4.5,1.9-6.6,2.9s-3.9,2.5-5.8,3.9c-2.7,2.1-5.2,4.6-7,7.3c-0.6,0.9-1,2.2-1.9,3
		c-0.7,0.7-1.9,1.2-3,1.9c-0.9,0.6-2.4,1.7-3.4,1.6c-1.5-0.1-2.6-2.8-2.2-4.7c0.2-1.2,1.7-2.3,2.2-2.9c2-2.2,3.2-3.3,5.1-5.3
		c0.9-1,1.6-2.1,2.3-2.9c2.9-3.5,5.8-7.2,9.4-11.5c1.5-1.8,2.8-4.1,4.2-6.2c1.4-2.1,2.7-4.4,3.8-6.6c0.5-1.1,1.3-2.1,1.8-3.4
		c1.2-3.6,3.3-8.6,0.5-12.3c-0.9-1.2-2.6-2.8-4.4-2.9c-1-0.1-2,0.9-2.8,1.5c-5.8,4.2-10.5,8.8-14.7,14.2c-3.5,4.5-6.6,9.7-9.3,15.3
		c-0.6,1.2-1.6,5-2.8,5.5c-0.7,0.3-1.6,0.1-2.4,0.2c-4.5,0.3-7.5,1.5-10.6,2.9c-1.3,0.6-2.6,1-3.7,1.7c-2.2,1.3-4.4,2.8-6.4,4.4
		s-3.5,3.6-5.6,5.2c-1.7,1.3-4.3,2.2-6.4,3.1c-0.9,0.4-1.8,0.9-3.2,1.4c-1.1,0.4-2.9,1.1-3.5,0.5s0.3-3.3,0.7-4.3
		c0.6-1.6,1.3-2.9,1.6-4.1c0.8-3.2-0.3-6.8-2.9-7.7c-1.8-0.6-3.4,0-5,0.8c-1,0.5-2.2,0.9-3,1.4c-1.1,0.7-1.9,1.7-3.3,2.5
		c-1,0.6-2.4,1.1-3.6,1.7c-2.7,1.2-4.3,2.4-6.9,3.7c-1,0.5-2.9,1.8-3.7,1.7c-0.8-0.1-1.8-1.8-2-2.8c-0.4-2.4,1.4-3.8,2.8-5
		c1.2-1,2.7-2.5,4.7-2.1c0.8,0.2,1,0.8,1.5,1.4c1.6,2,4.9,1,6.5-1.3c0.5-0.6,0.9-1.4,1.3-2.1s1-1.5,1.2-2.2c1.1-3.8-2.6-5.5-6-5.3
		c-0.8,0-1.7,0.4-2.6,0.5c-2.9,0.4-5.2,1-7.7,1.8c-8.3,2.5-15.6,4.8-23.2,8.3c-1.2,0.5-3.5,1.9-4.5,1.9c-1.2-0.1-1.6-1.9-3-2.1
		c-1.9-0.4-3.9,0.8-5.1,1.4c-0.6,0.3-1.3,0.5-1.8,0.8c-1.2,0.8-3.4,3.2-4.1,4.4c-0.7,1.2-0.7,2.3-1.6,3.2c-0.7,0.7-2,1.2-3.1,1.9
		c-1.9,1-5,2.5-6.7,3.4c-1,0.5-3,1.7-3.6,0.2c0.4-2.5,1.9-4.5,3.3-6.3c2.8-3.7,5.3-7.4,8.2-11c1.4-1.8,3-3.7,3.5-6.2
		c0.7-3.8-1-8.9-4-9.8c-1.9-0.6-4.2,0.3-4.5,1.9c-0.1,0.5,0.2,1.4,0.1,2.1c-0.3,2.8-1.8,6.1-3.3,7.7c-1.1,1.1-2.6,2.2-3.9,3.3
		c-6.4,5.6-13.3,11-21.2,14.9c-1.9,1-3,1.3-5,2.2c-0.6,0.3-1.6,0.7-2.7,0.9c-3.9,0.6-2.1-2.1-1-4c0.7-1.1,1.2-2.1,1.8-2.9
		c1.5-2.1,3-3.7,3.8-5.6c0.4-0.9,0.7-2.4,0.4-3.5c-0.3-1.2-1.1-1.7-1.9-2.1c-0.7-0.4-1.4-1-2.5-1.1c-1.3,0-2.2,1.7-3.1,2.5
		c-3.1,2.8-5.7,5-8.9,7.6c-2.9,2.4-5.8,5.2-9.3,7.1c-0.8,0.5-3,2-4,1.2c-0.9-0.7,0.5-3.3,1.3-4.4c0.9-1.3,1.8-2.4,2.8-3.3
		c5.9-5.7,13.2-9.6,21.7-12c1.9-0.5,3.3-0.8,3.9-2.4c0.8-2.5-2.7-4.5-4.4-5.2c-1-0.4-2.9-0.5-4.4-0.5c-1.5,0.1-3,0-4.3,0.2
		c-2.2,0.3-4.5,1-6.7,1.5c-16,3.3-31,7.9-44.5,13.4c-2.3-3.2-5.2-5.6-8.5-7.7c8.2-6.3,17.1-14.2,21.9-24.4c1.6-3.4,3.5-7.6,3.5-12
		c0-3.8-1.5-7.1-3.3-9.7c-1.7-2.3-4-5.1-7.2-5.9c-1.5-0.4-3-0.2-4.6-0.6c-0.3,0-0.6,0-0.9,0c-6.3,0.7-11.2,3.2-15.8,5.9
		c-2.3,1.3-4.8,2.4-6.9,3.9c-6.3,4.4-11.6,9.5-17.6,14.8c-2.7,2.4-5.4,5.2-8,8.2c-0.5,0.6-1.9,2.8-2.8,2.5c-0.7-0.2-1.3-3.2-1.7-4
		c-1.6-3-4.5-6.2-8-7.7c-1.1-0.5-2.8-1.2-4.3-0.9c-2.4,0.5-3.7,3.9-2.5,6.6c0.7,1.7,2.5,1.8,3.3,2.9c2,2.6,2.1,8.1,2,12.8
		c0,1.5,0,3.3-0.3,4.6c-0.3,1.2-1.3,2.3-2.1,3.4c-6.3,9.8-12.6,20-17.4,31.5c-1.1,2.5-1.9,5.4-2.7,8.1c-0.9,2.8-1.7,5.7-2.1,8.8
		c-0.4,3.1-0.4,6.8-0.7,10.5c0,0.3,0,0.7,0,1c0.1,2.1,0.3,3.9,1,5.6c0.6,1.5,1.4,3.2,2.9,3.6c3,0.8,4.5-1.9,5.8-3.6
		c0.9-1.2,1.8-2.4,2.5-3.4c3.4-5,5.8-9.9,8.5-15.3c1.3-2.6,3-5.2,3.9-8c2-6.1,4.2-11.9,5.8-18c0.8-3.1,1.6-6.3,2.4-9.5
		s1.3-6.5,2.1-9.8c0.4-1.6,1.6-2.8,2.7-4.3c2.6-3.3,5.8-7.2,8.4-10c4-4.3,7.6-8.8,11.9-12.6s8.6-7.3,13.6-10.8
		c2.2-1.6,4.6-3.3,7.5-4.7c2.4-1.1,6.5-3.5,9.5-2.4c1.8,0.6,3.5,3,3.6,5.6c0.3,4.6-1.9,8.6-3.8,11.6c-1,1.6-2.1,3-3.3,4.4
		s-2.3,2.9-3.6,4.1c-2.8,2.6-5.4,4.9-8,7.4c-1.2,1.1-2.6,2.6-4,3.7c-1.3,1.1-3.2,2.7-4.7,3.1c-0.7,0.2-1.6,0.2-2.3,0.3
		c-0.6,0.1-1.2,0.4-1.8,0.6c-1.3,0.4-2.6,0.5-3.8,0.9c-2.2,0.6-4.6,1.6-6.8,2.6c-1.9,0.9-4.1,2.2-5.9,3.5c-1.5,1.1-4,2.9-3.8,5.7
		c0.2,2.9,4,3.8,7,3.9c3.8,0.1,6.2-0.8,8.8-2c1.5-0.7,3.1-1.4,4.5-2.1c3-1.5,5.7-3.5,8.5-4.7c0.2,0.4,0.4,0.5,0.8,0.7
		c2.5,1.5,4.7,3.7,6.3,6.1C112.3,95.1,99,103,87.9,113.3c-8.1,7.5-15.3,16.3-19.6,27.8c-1.4,3.6-2.7,9-1.5,13.6
		c0.4,1.4,0.9,2.1,1.5,3.4c1.5,1.6,2.8,2.8,4.9,3.6c4.5,1.7,10.9,0.9,15.3-0.5c4.7-1.5,8.8-3.4,12.5-5.4c7.9-4.2,14.7-9.4,20.6-15.1
		c6-5.8,11.9-12.4,16.1-19.6c2.1-3.5,4.2-7.8,5.3-12.6c1.1-5,0.4-11.1-1.2-15.5c6.6-2.7,14.6-5.7,21.2-7.5c0.3,1-0.1,1.8-0.4,2.4
		c-1,2.2-2.1,3.8-3,6.2c-1,2.4-2.6,6.8-1.1,10c0.6,1.3,1.8,2.5,2.9,3.1c0.6,0.3,1.3,0.4,2.1,0.6c0.7,0.2,1.3,0.6,2,0.7
		c4,0.8,7.5-1.6,10.1-3.3c1.2-0.8,2.6-1.8,4.1-2.8c0.6-0.4,3.9-2.6,4.6-2.1c0.5,0.3,0,2.6,0.2,3.4c0.4,1.7,1.6,2.9,3,3.5
		c3,1.3,7.6-0.5,10-1.7c5.3-2.5,10.7-5.6,15-8.8c0.9-0.7,1.7-1.7,2.9-1.7c0.3,1.5-0.6,4-0.4,6.3c0.1,0.8,0.6,1.5,0.4,2.2
		c-0.2,0.9-3,2.1-4.2,2.8c-1.6,1-3.2,1.8-4.4,2.6c-2.9,2.1-5.7,3.9-8.5,5.7c-2.9,1.8-5.5,3.9-8.1,6c-2.6,2.2-4.9,4.6-7.3,6.8
		c-4.9,4.5-9.3,9.5-12.9,15.3c-0.9,1.4-1.5,3.1-2.3,4.7c-2.3,4.2-4.3,11.6-1.6,17.2c0.9,1.8,2.3,3.5,3.7,5c0.6,0.7,1.6,1.2,2.4,1.9
		c2.2,1.5,4,2.2,6.9,3c4.4,1.2,9.2,2,14.8,2.1c0.3,0,0.6,0,0.9,0c5.2-0.7,9.5-1.8,13.4-3.8c4-2,7.8-3.4,11.1-6.1
		c1.7-1.3,3.4-2.3,5.1-3.5c6.5-4.9,11.4-11.3,15.5-18.9c1-1.9,2-3.8,2.8-5.8c4.3-9.9,8.3-20.8,7.3-35.3c-0.1-1.2-0.2-2.7-0.2-4.1
		c0-1.3,0.1-3,0.5-3.8c0.5-1,3.2-1.7,4.5-2.2c3.6-1.4,6.5-2.4,10-3.7c1.3-0.5,4.1-1.9,5-1.7c0.6,0.2,0.8,1.1,1.1,1.9
		c0.9,2.4,2.2,3.8,3.2,5.8c-1.2,1.5-3.2,1.8-4.9,2.5c-3.3,1.5-6.7,3.3-9.4,5.6c-2.1,1.7-5.6,4.9-3,8c0.8,0.9,3.2,2.4,4.1,2.4
		c5.6,0.5,9.9-1.6,14.3-4c4-2.2,8.2-4.9,9.6-9c0.2-0.7,0.1-2.3,0.4-2.9c0.4-0.9,2.2-1.5,3.4-2.1c2.9-1.3,4.8-2.1,7.4-3.6
		c0.7-0.4,2.9-2.3,3.6-1.6c0.4,0.4-0.3,2.3-0.6,3.3c-1,3-2.9,7.2-1.5,10.6c0.7,1.6,2.5,2.8,4.6,2.8c4,0.1,6.9-1.9,9.4-3.3
		c0.9-0.5,1.8-1,2.7-1.6c0.9-0.5,1.7-1.5,2.8-1.4c0.5,0.9,0.3,1.8,0.4,2.5c0.4,2.5,1.4,4.6,3.1,5.9c2.5,1.8,6.3,1.4,9.8,0.5
		c4.6-1.2,8.5-3.4,11.8-6.1c0.8-0.6,2.6-2.7,3.6-2.4c0.5,0.2,0.6,1.5,1,2.3c0.3,0.7,0.8,1.4,1.2,2.2c1.2,2.8,3.2,4.7,7,3.4
		c2.7-0.9,4.7-3.1,7.6-3.5c1,0.4,1.2,1.9,2,2.6c1,1.1,2.6,2,4.3,2.4c7.1,1.7,14.4-0.6,20.6-2.1c6-1.4,12.4-3.8,19.6-4.3
		c7.7-0.6,15.2,0.6,23.3,0.1c5.7-0.3,9.9-2.2,13.7-4.5c1.4-0.8,2.9-1.5,3.4-2.6c0.3-0.7,0.7-2.5,0.4-3.3
		C449.1,92.6,445.7,93,443.5,93.8L443.5,93.8z M361.7,71.1c2.3-5.5,5.4-10.7,9-15.1c1.5-1.8,3.1-3.7,4.7-5c0.1-0.1,0.4-0.4,0.6-0.1
		c0.6,0.5-0.1,1.2-0.3,1.7c-3.2,7.5-7.4,13.9-12.4,19.7c-0.7,0.9-1.4,2-2.5,2.3C360.5,73.4,361.3,72.2,361.7,71.1L361.7,71.1z
		 M67.4,107.7c-0.6,3-1.8,6.3-2.9,9.1c-1,2.4-2.2,4.7-3.2,7.1c-0.3,0.7-0.5,1.8-1.4,2.1c-0.6-0.8,0.1-1.8,0.3-2.5
		c0.3-0.8,0.5-1.8,0.7-2.6c0.9-3.3,2.5-6.4,3.8-9.7c0.7-1.7,1.6-3.5,2.5-4.7h0.1C67.9,106.6,67.4,107.4,67.4,107.7L67.4,107.7z
		 M132.7,107.8c-1.9,6.9-5.8,12.1-9.8,17.1c-7.9,9.8-17.9,17.6-29.7,23.9c-1.4,0.7-2.9,1.5-4.6,2.1c-3.9,1.6-11.8,3.1-12.3-2.5
		c-0.1-1.6,0.8-3.7,1.5-5.4c1.9-4.8,5-8.8,7.8-12.4c12-15.2,27.3-26.9,46.7-34.5c0.2,0,0.3-0.2,0.3,0
		C133.8,99.9,133.8,104.2,132.7,107.8L132.7,107.8z M240.6,113.3c-0.5,3.4-1.4,6.2-2.2,9.2c-0.3,1-0.7,1.8-1,2.7
		c-0.3,1-0.2,1.8-0.5,2.9c-0.3,1.2-0.9,2.5-1.4,3.7c-1.6,4.1-3.4,7.9-5.6,11.6c-2.2,3.8-4.9,7.2-8.2,10.2c-1.6,1.4-3.5,2.6-5.2,4
		c-2.9,2.4-5.9,3.9-9.6,5.3c-1.4,0.5-2.6,1.2-3.9,1.8c-0.4,0.2-0.9,0.1-1.4,0.3c-0.4,0.1-0.6,0.5-1,0.6c-1.1,0.3-2.5,0.2-3.9,0.5
		c-6.5,1.3-15.6,0.5-19.1-2.8c-1-0.9-2.3-2.8-2.5-4.5c-0.6-3.7,1.5-8.4,2.7-10.7c1.5-2.9,3.8-5.8,5.5-8c3.9-5.1,8.7-9.4,13.5-13.4
		c2.4-2,4.7-4.4,7.3-6.2c5.3-3.7,10.6-7,16.5-10.4c1.4-0.8,3-1.5,4.4-2.3s2.8-1.8,4.2-2.4c1.7-0.7,3.4-1.3,5-2.1
		c1.5-0.7,2.8-2.1,4.4-2.5c0,0,0.1-0.1,0.2-0.1c1.2-0.2,1.2,0.5,1.5,2.4C240.9,106,241.1,110.5,240.6,113.3L240.6,113.3z
		 M344.9,89.6c-3.9,3.3-7.5,7.5-12.3,9.7c-0.7,0.3-1.5,0.7-2,0.1c-0.3-1,0.5-1.9,1-2.7c0.5-0.8,0.8-1.7,1.4-2.4
		c2.1-2.8,5.7-5.6,9-7.5c1.1-0.6,2.7-1.6,3.8-1.7c1-0.1,1.7,0.4,1.9,1C348.1,87.6,345.8,88.8,344.9,89.6L344.9,89.6z M373,96.9
		c-0.6-0.6,0.1-1.3,0.4-1.9c1.6-2.8,3.9-5.4,6.8-7.1c0.9-0.6,2.9-1.7,3.8-1.8c2.3,0,0.4,1.8-0.2,2.4c-2.3,2.7-5.4,4.8-8.3,7
		C374.8,96.2,374,97,373,96.9L373,96.9z M320.5,73.2c1.6,0.3,4.3-0.8,5.4-1.6c1.5-1,1.4-2.6,2.3-4.3c0.8-1.5,3.2-2.2,2.9-4.7
		c-0.1-0.7-0.7-1.8-1.5-2.1c-0.5-0.2-3.1-0.3-3.5-0.2c-1,0.2-2.2,0.9-3.2,1.5c-1,0.5-2,1.1-2.8,1.8c-1.3,1.1-4,3-4.1,5.1
		C315.9,71.1,318.5,72.8,320.5,73.2L320.5,73.2z"/>
</g>
</svg>
