<?xml version="1.0" encoding="utf-8"?>
<!-- Generator: Adobe Illustrator 18.0.0, SVG Export Plug-In . SVG Version: 6.00 Build 0)  -->
<!DOCTYPE svg PUBLIC "-//W3C//DTD SVG 1.1//EN" "http://www.w3.org/Graphics/SVG/1.1/DTD/svg11.dtd">
<svg version="1.1" id="Layer_1" xmlns="http://www.w3.org/2000/svg" xmlns:xlink="http://www.w3.org/1999/xlink" x="0px" y="0px"
	 viewBox="0 0 500 200" enable-background="new 0 0 500 200" xml:space="preserve">
<path fill="#353535" d="M147.4,130.3c0,0,3.5,0.5,15.8-3v5.3c-7,2.9-17.8,6.8-25,7.3c-11.5,0.8-8.2-7.5-6.5-9.8
	c0,0,11.7-16.4,76.3-54.7c64.6-38.3,82.3-39.2,82.3-39.2c2.9-0.4,11.8,0.8,5.4,10.4c-6.4,9.7-24.8,22.9-24.8,22.9l-13,8.6l11.3-12.7
	c12.1-11.5,13.7-15.5,13.7-15.5s-20,2-71.3,33.5C153.1,119.4,147.4,130.3,147.4,130.3"/>
<polyline fill="#353535" points="177.9,81.5 163.2,81.5 163.2,99.5 180.2,88.3 "/>
<path fill="#353535" d="M338.6,81.5h-11.8L304.3,139c-0.5-15.1-13-19.5-25.7-22.4c-13-2.9-25.8-4.4-25.8-14.3c0-10.5,9-13.8,18-13.8
	c11,0,18.7,5,20,16.5H301c-0.7-17.7-13.2-25.5-29.6-25.5c-12.1,0-24.2,5-28,16v-14h-14.7l-25.5,67.6l-16.8-45l-7.5,5.1l19.8,52.7
	h9.1L233,95h0.2v67h10.1v-11.9c5.6,9.4,16.8,13.8,29.5,13.8c9,0,18.8-2.6,25-8.6l-2.6,6.7h11l9-24.2h34l8.8,24.2h11.8 M273.2,154.9
	c-12.2,0-23.4-5.9-23.4-19.4h-6.4v-25.3c3.5,9,14.1,11.9,24.6,14.2c12.8,2.8,25.7,4.7,25.7,15.8
	C293.6,151.8,282.9,154.9,273.2,154.9z M318.8,128.7l13.6-37.5h0.2l13.4,37.5H318.8z"/>
<polyline fill="#353535" points="163.2,120.8 163.2,127.2 163.2,132.5 163.2,162 173.4,162 173.4,113.2 "/>
</svg>
