<?xml version="1.0" encoding="utf-8"?>
<!-- Generator: Adobe Illustrator 18.1.1, SVG Export Plug-In . SVG Version: 6.00 Build 0)  -->
<svg version="1.1" id="Layer_1" xmlns="http://www.w3.org/2000/svg" xmlns:xlink="http://www.w3.org/1999/xlink" x="0px" y="0px"
	 viewBox="0 160 1920 960" enable-background="new 0 160 1920 960" xml:space="preserve">
<path fill="#6A6A6A" d="M566,756.4c0,0,13.4,1.9,60.7-11.5v20.4c-26.9,11.1-68.4,26.1-96,28c-44.2,3.1-31.5-28.8-25-37.6
	c0,0,44.9-63,293-210s316-150.5,316-150.5c11.1-1.5,45.3,3.1,20.7,39.9c-24.6,37.2-95.2,87.9-95.2,87.9l-49.9,33l43.4-48.8
	c46.5-44.2,52.6-59.5,52.6-59.5s-76.8,7.7-273.8,128.6C587.9,714.5,566,756.4,566,756.4"/>
<polyline fill="#6A6A6A" points="683.1,569 626.7,569 626.7,638.1 692,595.1 "/>
<path fill="#6A6A6A" d="M1300.2,569h-45.3l-86.4,220.8c-1.9-58-49.9-74.9-98.7-86c-49.9-11.1-99.1-16.9-99.1-54.9
	c0-40.3,34.6-53,69.1-53c42.2,0,71.8,19.2,76.8,63.4h39.2c-2.7-68-50.7-97.9-113.7-97.9c-46.5,0-92.9,19.2-107.5,61.4V569h-56.4
	l-97.9,259.6l-64.5-172.8L687,675.3l76,202.4H798l96.8-256.9h0.8v257.3h38.8v-45.7c21.5,36.1,64.5,53,113.3,53c34.6,0,72.2-10,96-33
	l-10,25.7h42.2l34.6-92.9h130.6l33.8,92.9h45.3 M1049.1,850.8c-46.8,0-89.9-22.7-89.9-74.5h-24.6v-97.2
	c13.4,34.6,54.1,45.7,94.5,54.5c49.2,10.8,98.7,18,98.7,60.7C1127.4,838.9,1086.3,850.8,1049.1,850.8z M1224.2,750.2l52.2-144h0.8
	l51.5,144H1224.2z"/>
<polyline fill="#6A6A6A" points="626.7,719.9 626.7,744.4 626.7,764.8 626.7,878.1 665.9,878.1 665.9,690.7 "/>
</svg>
