<?xml version="1.0" encoding="utf-8"?>
<!-- Generator: Adobe Illustrator 18.1.1, SVG Export Plug-In . SVG Version: 6.00 Build 0)  -->
<svg class="fill-path" version="1.1" id="Layer_1" xmlns="http://www.w3.org/2000/svg" xmlns:xlink="http://www.w3.org/1999/xlink" x="0px" y="0px"
	 viewBox="0 481.9 1920 956.3" enable-background="new 0 481.9 1920 956.3" xml:space="preserve">
<path fill="#6A6A6A" d="M219.3,897.4H192v-24.6h82.9v24.6h-27.3v139.4h-28C219.3,1036.8,219.3,897.4,219.3,897.4z"/>
<path fill="#6A6A6A" d="M285.3,1036.8v-164h28v66.8h30v-66.8h28v164h-28v-72.6h-30v72.6H285.3z"/>
<path fill="#6A6A6A" d="M392.4,1036.8v-164h75.3v24.6h-47.2v42.2h36.1v24.6h-36.1v48h50.3v24.6H392.4L392.4,1036.8z"/>
<path fill="#6A6A6A" d="M531.5,1036.8v-164h28v66.8h30v-66.8h28v164h-28v-72.6h-30v72.6H531.5z"/>
<path fill="#6A6A6A" d="M639,912.8c0-23,13.8-42.2,43-42.2c29.6,0,43,18.8,43,42.2v84.5c0,23-13.8,42.2-43,42.2
	c-29.6,0-43-18.8-43-42.2V912.8L639,912.8z M667.4,996.5c0,12.3,3.5,18,15,18s15-5.8,15-18v-82.9c0-12.3-3.5-18-15-18s-15,5.8-15,18
	V996.5z"/>
<path fill="#6A6A6A" d="M746.5,1036.8v-164h40.3c34.6,0,50.7,13.4,50.7,48.4s-16.1,48.4-50.7,48.4h-12.3v67.2H746.5L746.5,1036.8z
	 M774.5,946.5h11.1c18.4,0,24.2-5.8,24.2-25.3S804,896,785.6,896h-11.1V946.5z"/>
<path fill="#6A6A6A" d="M853.6,1036.8v-164h75.6v24.6H882v42.2h36.1v24.6H882v48h50.3v24.6H853.6L853.6,1036.8z"/>
<path fill="#6A6A6A" d="M1087.1,1049.5c-10.4,0-18.8-1.9-28.4-15c-6.1,3.1-13.8,5.4-22.7,5.4c-29.6,0-43-18.8-43-42.2v-84.5
	c0-23,13.8-42.2,43-42.2c29.6,0,43,18.8,43,42.2v84.5c0,7.7-1.5,15-4.6,21.1c6.1,5.4,10,6.1,13.1,6.1L1087.1,1049.5L1087.1,1049.5z
	 M1038,978.4c3.1,1.5,7.3,3.8,13.1,10v-74.9c0-12.3-3.5-18-15-18c-11.1,0-15,5.8-15,18v82.9c0,12.3,3.5,18,15,18
	c4.6,0,7.3-0.8,9.6-2.3c-3.1-5.8-5.8-7.3-7.3-8.8v-25L1038,978.4L1038,978.4z"/>
<path fill="#6A6A6A" d="M1100.2,873.2h28v123.6c0,12.3,4.6,17.7,15,17.7c10,0,15-5.8,15-17.7V873.2h28v122.5c0,28-16.1,43.8-43,43.8
	c-26.9,0-43-15.4-43-43.8V873.2L1100.2,873.2z"/>
<path fill="#6A6A6A" d="M1207.3,912.8c0-23,13.8-42.2,43-42.2c29.6,0,43,18.8,43,42.2v84.5c0,23-13.8,42.2-43,42.2
	c-29.6,0-43-18.8-43-42.2V912.8z M1235.7,996.5c0,12.3,3.5,18,15,18c11.1,0,15-5.8,15-18v-82.9c0-12.3-3.5-18-15-18
	c-11.1,0-15,5.8-15,18V996.5z"/>
<path fill="#6A6A6A" d="M1331.3,897.4H1304v-24.6h82.9v24.6h-27.3v139.4h-28L1331.3,897.4L1331.3,897.4z"/>
<path fill="#6A6A6A" d="M1401.2,1036.8v-164h28v164H1401.2z"/>
<path fill="#6A6A6A" d="M1454.2,1036.8v-164h75.3v24.6h-47.2v42.2h36.1v24.6h-36.1v48h50.3v24.6H1454.2L1454.2,1036.8z"/>
<path fill="#6A6A6A" d="M1548.7,1036.8v-164h26.1l34.6,93.7h0.8v-93.7h25.3v164h-24.6l-35.7-102.5h-0.8v102.5H1548.7z"/>
<path fill="#6A6A6A" d="M1672.7,897.4h-27.3v-24.6h82.6v24.6h-27.3v139.4h-28V897.4L1672.7,897.4z"/>
</svg>
