<?xml version="1.0" encoding="utf-8"?>
<!-- Generator: Adobe Illustrator 18.1.1, SVG Export Plug-In . SVG Version: 6.00 Build 0)  -->
<svg class="fill-path" version="1.1" id="Layer_1" xmlns="http://www.w3.org/2000/svg" xmlns:xlink="http://www.w3.org/1999/xlink" x="0px" y="0px"
	 viewBox="0 160 1920 960" enable-background="new 0 160 1920 960" xml:space="preserve">
<path fill="#6A6A6A" d="M192,583.2h25.7v91.8h44.9v21.5H192V583.2z"/>
<path fill="#6A6A6A" d="M281.9,583.2h25.7v113.7h-25.7V583.2z"/>
<path fill="#6A6A6A" d="M334.1,583.2h26.1l29.6,56.4l11.1,25h0.8c-1.2-11.9-3.5-28-3.5-41.5v-39.9h24.2v113.7h-26.1L367.1,640
	L356,615.4h-0.8c1.2,12.7,3.5,27.6,3.5,41.1v40.3h-24.6V583.2z"/>
<path fill="#6A6A6A" d="M498.4,581.2c14.2,0,26.1,6.9,33.8,15L518,612c-5.8-5.4-11.1-8.4-19.2-8.4c-15.7,0-28,13.8-28,36.5
	c0,23.4,11.1,36.9,27.6,36.9c9.2,0,16.1-3.8,21.5-10l14.2,15.4c-9.2,11.1-21.9,16.9-36.1,16.9c-29.6,0-53.4-20-53.4-58
	C444.3,603.1,469.2,581.2,498.4,581.2z"/>
<path fill="#6A6A6A" d="M538.8,639.6c0-37.2,21.1-58.4,51.5-58.4c30.7,0,51.5,21.5,51.5,58.4c0,37.2-20.7,59.5-51.5,59.5
	C559.9,698.8,538.8,676.5,538.8,639.6z M615.6,639.6c0-22.7-9.6-36.1-25.3-36.1c-15.4,0-25.3,13.4-25.3,36.1
	c0,22.7,10,37.2,25.3,37.2C606,676.9,615.6,662.3,615.6,639.6z"/>
<path fill="#6A6A6A" d="M663.2,583.2h25.7v91.8h44.5v21.5h-70.7L663.2,583.2L663.2,583.2z"/>
<path fill="#6A6A6A" d="M753,583.2h26.1l29.6,56.4l11.1,25h0.8c-1.2-11.9-3.5-28-3.5-41.5v-39.9h24.2v113.7h-26.1l-29.6-56.4
	l-11.1-24.6h-0.8c1.2,12.7,3.5,27.6,3.5,41.1v40.3h-24.6L753,583.2L753,583.2z"/>
<path fill="#6A6A6A" d="M904.7,583.2h38.8c23.8,0,41.9,6.5,41.9,28c0,10-5.8,21.1-19.2,24.6v0.8c16.1,3.1,24.6,11.5,24.6,26.5
	c0,23-19.6,33.4-44.2,33.4h-42.2V583.2H904.7z M942.3,628.9c12.7,0,18-5.4,18-13.8s-5.8-11.9-17.7-11.9h-12.3v26.1h11.9V628.9z
	 M944.6,676.9c13.8,0,21.1-5.4,21.1-15.4c0-10-7.3-14.2-21.1-14.2h-14.2v30h14.2V676.9z"/>
<path fill="#6A6A6A" d="M1071.4,696.8l-21.9-41.1h-13.8v41.1h-25.7V583.2h41.1c24.2,0,43.8,8.4,43.8,35.3c0,16.9-8.1,27.3-20.4,32.6
	l25.7,45.3h-28.8V696.8z M1035.6,635.4h13.1c13.4,0,20.7-5.8,20.7-16.9c0-11.1-7.3-15-20.7-15h-13.1V635.4z"/>
<path fill="#6A6A6A" d="M1116.7,583.2h71v21.5h-45.3v22.7h38.8v21.5h-38.8v26.1h47.2v21.5h-73V583.2z"/>
<path fill="#6A6A6A" d="M1200.8,583.2h26.1l7.7,53c1.5,11.9,3.1,23.8,4.6,35.7h0.8c1.9-11.9,4.2-24.2,6.5-35.7l12.3-53h21.9l12.3,53
	c2.3,11.5,4.6,23.8,6.9,35.7h0.8c1.5-12.3,3.1-24.2,4.6-35.7l7.7-53h24.6l-20.4,113.7h-32.3l-11.1-51.5c-1.9-8.8-3.5-18-4.6-26.1
	h-0.8c-1.5,8.4-2.7,17.7-4.6,26.1l-10.8,51.5h-31.9L1200.8,583.2z"/>
<path fill="#6A6A6A" d="M1360.5,665c8.1,6.9,18.4,11.9,28,11.9c10.8,0,15.7-4.2,15.7-11.1c0-7.3-6.5-9.2-16.5-13.4l-14.6-6.1
	c-11.9-4.6-23-14.6-23-31.1c0-18.8,16.9-33.8,40.3-33.8c13.1,0,26.9,5.4,36.5,15l-13.1,16.1c-7.3-5.8-14.6-9.2-23.8-9.2
	c-8.8,0-14.6,3.8-14.6,10.4c0,6.9,7.3,9.2,17.3,13.4l14.6,5.8c13.8,5.8,22.3,15,22.3,30.7c0,18.8-15.7,35.3-42.6,35.3
	c-15,0-30.3-5.8-42.2-16.5L1360.5,665z"/>
<path fill="#6A6A6A" d="M1468.4,604.7h-31.5v-21.5h87.9v21.5h-31.1v91.8H1468v-91.8H1468.4z"/>
<path fill="#6A6A6A" d="M1542.9,583.2h71v21.5h-45.3v22.7h38.8v21.5h-38.8v26.1h47.2v21.5h-73V583.2z"/>
<path fill="#6A6A6A" d="M1699.2,696.8l-21.9-41.1h-13.8v41.1h-25.7V583.2h41.1c24.2,0,43.8,8.4,43.8,35.3c0,16.9-8.1,27.3-20.4,32.6
	l25.7,45.3h-28.8V696.8z M1663.5,635.4h13.1c13.4,0,20.7-5.8,20.7-16.9c0-11.1-7.3-15-20.7-15h-13.1V635.4z"/>
</svg>
