<?xml version="1.0" encoding="utf-8"?>
<!-- Generator: Adobe Illustrator 18.0.0, SVG Export Plug-In . SVG Version: 6.00 Build 0)  -->
<!DOCTYPE svg PUBLIC "-//W3C//DTD SVG 1.1//EN" "http://www.w3.org/Graphics/SVG/1.1/DTD/svg11.dtd">
<svg version="1.1" id="Layer_1" xmlns="http://www.w3.org/2000/svg" xmlns:xlink="http://www.w3.org/1999/xlink" x="0px" y="0px"
	 viewBox="0 0 500 200" enable-background="new 0 0 500 200" xml:space="preserve">
<circle fill="none" stroke="#353535" stroke-width="5" stroke-miterlimit="10" cx="103.6" cy="100" r="53.6"/>
<g>
	<path fill="#353535" d="M90.6,101.6H85v5.5h5.9c2.4,0,3.9-0.9,3.9-2.8v-0.1C94.7,102.6,93.4,101.6,90.6,101.6z"/>
	<path fill="#353535" d="M93.6,95.9L93.6,95.9c0-1.6-1.3-2.6-3.5-2.6H85v5.3h4.8C92.1,98.6,93.6,97.7,93.6,95.9z"/>
	<path fill="#353535" d="M135.7,107.6h14.9c0.3-1.8,0.5-3.6,0.6-5.4h-15.4V107.6z"/>
	<path fill="#353535" d="M135.7,115.9v5.2h10.5c0.8-1.7,1.6-3.4,2.2-5.2H135.7z"/>
	<path fill="#353535" d="M132.2,132.9v-20.1h17.2c0.2-0.7,0.4-1.3,0.5-2h-17.8V90.7h18.1c-4.3-21.8-23.6-38.2-46.6-38.2
		c-26.3,0-47.6,21.3-47.6,47.6s21.3,47.6,47.6,47.6c13.5,0,25.7-5.6,34.3-14.7H132.2z M95.6,132.9H81.5v-20.1H85v16.9h10.6V132.9z
		 M98.2,104.7c0,3.6-3,5.5-7.4,5.5h-9.3V90.1h9c2.3,0,4.1,0.6,5.3,1.8c0.9,0.9,1.4,2,1.4,3.3v0.1c0,2.4-1.4,3.7-2.9,4.5
		C96.6,100.6,98.2,101.9,98.2,104.7L98.2,104.7z M105.4,132.9h-3.5v-20.1h3.5V132.9z M105.4,110.2h-3.5V90.1h3.5V110.2z M129,116
		h-14.3v5.5H129v3.2h-14.3v8.2h-3.5v-20.1H129V116z M124.7,110.2l-6.9-9.1l-3.1,3.2v5.8h-3.5V90.1h3.5v10.1l9.6-10.1h4.3l-8.4,8.6
		l8.7,11.5H124.7z"/>
	<path fill="#353535" d="M135.7,93.8V99h15.4c0-1.8-0.2-3.5-0.4-5.2H135.7z"/>
	<path fill="#353535" d="M135.7,129.7h5c1.4-1.7,2.6-3.5,3.8-5.4h-8.8V129.7z"/>
</g>
<g>
	<path fill="#353535" d="M193.4,92.2h-6.9v-4.8H206v4.8h-6.9v20.4h-5.7V92.2z"/>
	<path fill="#353535" d="M209.9,87.4h5.7v9.7h8.7v-9.7h5.7v25.2h-5.7v-10.5h-8.7v10.5h-5.7V87.4z"/>
	<path fill="#353535" d="M235.8,87.4h15.8v4.8h-10.1v5.1h8.6v4.7h-8.6v5.8H252v4.8h-16.2V87.4z"/>
	<path fill="#353535" d="M264.9,87.4h5.7v9.7h8.7v-9.7h5.7v25.2h-5.7v-10.5h-8.7v10.5h-5.7V87.4z"/>
	<path fill="#353535" d="M290.8,87.4h5.7v14.1c0,4.9,1.5,6.6,4.4,6.6c2.8,0,4.5-1.7,4.5-6.6V87.4h5.5v13.5c0,8.5-3.4,12.1-10,12.1
		s-10-3.7-10-12.1V87.4z"/>
	<path fill="#353535" d="M316.5,87.4h8.6c5.3,0,9.3,1.4,9.3,6.3c0,2.2-1.3,4.7-4.2,5.4v0.2c3.6,0.7,5.5,2.5,5.5,5.9
		c0,5.1-4.3,7.4-9.8,7.4h-9.3V87.4z M324.8,97.6c2.8,0,4-1.2,4-3.1c0-1.9-1.3-2.7-3.9-2.7h-2.7v5.8H324.8z M325.4,108.2
		c3.1,0,4.7-1.2,4.7-3.4c0-2.2-1.6-3.2-4.7-3.2h-3.2v6.6H325.4z"/>
	<path fill="#353535" d="M347.8,87.4h8.6c5.3,0,9.3,1.4,9.3,6.3c0,2.2-1.3,4.7-4.2,5.4v0.2c3.6,0.7,5.5,2.5,5.5,5.9
		c0,5.1-4.3,7.4-9.8,7.4h-9.3V87.4z M356.2,97.6c2.8,0,4-1.2,4-3.1c0-1.9-1.3-2.7-3.9-2.7h-2.7v5.8H356.2z M356.7,108.2
		c3.1,0,4.7-1.2,4.7-3.4c0-2.2-1.6-3.2-4.7-3.2h-3.2v6.6H356.7z"/>
	<path fill="#353535" d="M371.1,87.4h5.7v25.2h-5.7V87.4z"/>
	<path fill="#353535" d="M382.7,87.4h5.7v10.3h0.1l7.5-10.3h6.2l-7.6,10l9,15.1h-6.3l-6.1-10.6l-2.9,3.9v6.8h-5.7V87.4z"/>
	<path fill="#353535" d="M406.4,87.4h15.8v4.8h-10.1v5.1h8.6v4.7h-8.6v5.8h10.5v4.8h-16.2V87.4z"/>
	<path fill="#353535" d="M429.1,105.5c1.8,1.5,4.1,2.6,6.2,2.6c2.4,0,3.5-0.9,3.5-2.4c0-1.6-1.4-2.1-3.6-3l-3.2-1.4
		c-2.6-1-5.1-3.2-5.1-6.9c0-4.2,3.7-7.5,9-7.5c2.9,0,5.9,1.2,8.1,3.3l-2.9,3.6c-1.7-1.3-3.2-2-5.3-2c-1.9,0-3.2,0.8-3.2,2.3
		c0,1.5,1.7,2.1,3.9,3l3.2,1.3c3,1.2,5,3.3,5,6.8c0,4.2-3.5,7.8-9.5,7.8c-3.3,0-6.8-1.2-9.3-3.6L429.1,105.5z"/>
</g>
</svg>
