<?xml version="1.0" encoding="utf-8"?>
<!-- Generator: Adobe Illustrator 18.1.1, SVG Export Plug-In . SVG Version: 6.00 Build 0)  -->
<svg version="1.1" id="Layer_1" xmlns="http://www.w3.org/2000/svg" xmlns:xlink="http://www.w3.org/1999/xlink" x="0px" y="0px"
	 viewBox="0 160 1920 960" enable-background="new 0 160 1920 960" xml:space="preserve">
<path fill="none" stroke="#6A6A6A" stroke-width="5" stroke-miterlimit="10" d="M397.8,434.2c113.7,0,205.8,92.2,205.8,205.8
	s-92.2,205.8-205.8,205.8S192,753.7,192,640S284.2,434.2,397.8,434.2z"/>
<g>
	<path fill="#6A6A6A" d="M347.9,646.1h-21.5v21.1h22.7c9.2,0,15-3.5,15-10.8v-0.4C363.6,650,358.7,646.1,347.9,646.1z"/>
	<path fill="#6A6A6A" d="M359.4,624.3L359.4,624.3c0-6.1-5-10-13.4-10h-19.6v20.4h18.4C353.7,634.6,359.4,631.2,359.4,624.3z"/>
	<path fill="#6A6A6A" d="M521.1,669.2h57.2c1.2-6.9,1.9-13.8,2.3-20.7h-59.1v20.7H521.1z"/>
	<path fill="#6A6A6A" d="M521.1,701.1v20h40.3c3.1-6.5,6.1-13.1,8.4-20H521.1z"/>
	<path fill="#6A6A6A" d="M507.6,766.3v-77.2h66c0.8-2.7,1.5-5,1.9-7.7h-68.4v-77.2h69.5c-16.5-83.7-90.6-146.7-178.9-146.7
		c-101,0-182.8,81.8-182.8,182.8s81.8,182.8,182.8,182.8c51.8,0,98.7-21.5,131.7-56.4h-21.9V766.3z M367.1,766.3H313v-77.2h13.4V754
		h40.7V766.3z M377.1,658c0,13.8-11.5,21.1-28.4,21.1H313V602h34.6c8.8,0,15.7,2.3,20.4,6.9c3.5,3.5,5.4,7.7,5.4,12.7v0.4
		c0,9.2-5.4,14.2-11.1,17.3C370.9,642.3,377.1,647.3,377.1,658L377.1,658z M404.7,766.3h-13.4v-77.2h13.4V766.3z M404.7,679.2h-13.4
		V602h13.4V679.2z M495.4,701.4h-54.9v21.1h54.9v12.3h-54.9v31.5H427v-77.2h68.4V701.4z M478.8,679.2l-26.5-34.9l-11.9,12.3v22.3
		H427V602h13.4v38.8l36.9-38.8h16.5l-32.3,33l33.4,44.2H478.8z"/>
	<path fill="#6A6A6A" d="M521.1,616.2v20h59.1c0-6.9-0.8-13.4-1.5-20H521.1z"/>
	<path fill="#6A6A6A" d="M521.1,754h19.2c5.4-6.5,10-13.4,14.6-20.7h-33.8V754z"/>
</g>
<g>
	<path fill="#6A6A6A" d="M742.7,610h-26.5v-18.4H791V610h-26.5v78.3h-21.9L742.7,610L742.7,610z"/>
	<path fill="#6A6A6A" d="M806,591.6h21.9v37.2h33.4v-37.2h21.9v96.8h-21.9v-40.3h-33.4v40.3H806V591.6z"/>
	<path fill="#6A6A6A" d="M905.5,591.6h60.7V610h-38.8v19.6h33v18h-33V670h40.3v18.4h-62.2V591.6z"/>
	<path fill="#6A6A6A" d="M1017.2,591.6h21.9v37.2h33.4v-37.2h21.9v96.8h-21.9v-40.3h-33.4v40.3h-21.9V591.6z"/>
	<path fill="#6A6A6A" d="M1116.7,591.6h21.9v54.1c0,18.8,5.8,25.3,16.9,25.3c10.8,0,17.3-6.5,17.3-25.3v-54.1h21.1v51.8
		c0,32.6-13.1,46.5-38.4,46.5s-38.4-14.2-38.4-46.5v-51.8H1116.7z"/>
	<path fill="#6A6A6A" d="M1215.4,591.6h33c20.4,0,35.7,5.4,35.7,24.2c0,8.4-5,18-16.1,20.7v0.8c13.8,2.7,21.1,9.6,21.1,22.7
		c0,19.6-16.5,28.4-37.6,28.4h-35.7v-96.8H1215.4z M1247.2,630.8c10.8,0,15.4-4.6,15.4-11.9s-5-10.4-15-10.4h-10.4v22.3H1247.2
		L1247.2,630.8z M1249.5,671.5c11.9,0,18-4.6,18-13.1c0-8.4-6.1-12.3-18-12.3h-12.3v25.3H1249.5z"/>
	<path fill="#6A6A6A" d="M1335.6,591.6h33c20.4,0,35.7,5.4,35.7,24.2c0,8.4-5,18-16.1,20.7v0.8c13.8,2.7,21.1,9.6,21.1,22.7
		c0,19.6-16.5,28.4-37.6,28.4h-35.7v-96.8H1335.6z M1367.8,630.8c10.8,0,15.4-4.6,15.4-11.9s-5-10.4-15-10.4h-10.4v22.3H1367.8
		L1367.8,630.8z M1369.7,671.5c11.9,0,18-4.6,18-13.1c0-8.4-6.1-12.3-18-12.3h-12.3v25.3H1369.7z"/>
	<path fill="#6A6A6A" d="M1425,591.6h21.9v96.8H1425V591.6z"/>
	<path fill="#6A6A6A" d="M1469.6,591.6h21.9v39.6h0.4l28.8-39.6h23.8l-29.2,38.4l34.6,58h-24.2l-23.4-40.7l-11.1,15v26.1h-21.9
		v-96.8H1469.6z"/>
	<path fill="#6A6A6A" d="M1560.6,591.6h60.7V610h-38.8v19.6h33v18h-33V670h40.3v18.4h-62.2L1560.6,591.6L1560.6,591.6z"/>
	<path fill="#6A6A6A" d="M1647.7,661.1c6.9,5.8,15.7,10,23.8,10c9.2,0,13.4-3.5,13.4-9.2c0-6.1-5.4-8.1-13.8-11.5l-12.3-5.4
		c-10-3.8-19.6-12.3-19.6-26.5c0-16.1,14.2-28.8,34.6-28.8c11.1,0,22.7,4.6,31.1,12.7l-11.1,13.8c-6.5-5-12.3-7.7-20.4-7.7
		c-7.3,0-12.3,3.1-12.3,8.8s6.5,8.1,15,11.5l12.3,5c11.5,4.6,19.2,12.7,19.2,26.1c0,16.1-13.4,30-36.5,30
		c-12.7,0-26.1-4.6-35.7-13.8L1647.7,661.1z"/>
</g>
</svg>
