<?xml version="1.0" encoding="utf-8"?>
<!-- Generator: Adobe Illustrator 18.1.1, SVG Export Plug-In . SVG Version: 6.00 Build 0)  -->
<svg class="fill-path" version="1.1" id="Layer_1" xmlns="http://www.w3.org/2000/svg" xmlns:xlink="http://www.w3.org/1999/xlink" x="0px" y="0px"
	 viewBox="0 481.9 1920 956.3" enable-background="new 0 481.9 1920 956.3" xml:space="preserve">
<path fill="#6A6A6A" d="M332.9,1098.6V833.3h56.4v218.9h107.5v46.5L332.9,1098.6L332.9,1098.6z"/>
<path fill="#6A6A6A" d="M536.4,843.3c0-18,10-26.9,30-26.9s30,8.8,30,26.9c0,8.4-2.7,15.4-7.7,20s-12.7,7.3-22.7,7.3
	C546.4,870.1,536.4,860.9,536.4,843.3z M594,1098.6h-55.3V895.1H594V1098.6z"/>
<path fill="#6A6A6A" d="M793.7,1038.3c0,20.7-7.3,36.9-21.9,47.6c-14.6,10.8-36.1,16.5-64.9,16.5c-14.6,0-27.3-1.2-37.6-3.1
	c-10.4-1.9-20-5-29.2-8.8v-45.7c10.4,5,21.9,8.8,34.9,12.3s24.2,5,34.2,5c20,0,30-5.8,30-17.3c0-4.2-1.2-8.1-3.8-10.8
	c-2.7-2.7-7.3-5.8-13.8-9.2c-6.5-3.5-15.4-7.3-26.1-11.9c-15.7-6.5-27.3-12.7-34.6-18s-12.7-11.9-16.1-19.2c-3.5-7.3-5-16.1-5-26.5
	c0-18,6.9-31.9,21.1-41.9c13.8-10,33.8-15,59.5-15c24.6,0,48.4,5.4,71.4,16.1l-16.9,39.9c-10-4.2-19.6-8.1-28.4-10.8
	c-8.8-2.7-17.7-4.2-26.9-4.2c-16.5,0-24.6,4.6-24.6,13.4c0,5,2.7,9.2,8.1,13.1c5.4,3.5,16.9,8.8,34.6,16.1
	c15.7,6.5,27.6,12.3,34.9,18s12.7,11.9,16.5,19.2C792.2,1019.1,793.7,1028.4,793.7,1038.3z"/>
<path fill="#6A6A6A" d="M922.8,1058.3c9.6,0,21.1-2.3,34.9-6.5v41.1c-13.8,6.1-30.7,9.2-50.7,9.2c-22.3,0-38.4-5.8-48.4-16.9
	c-10-11.1-15-28-15-50.3v-98.3h-26.5v-23.4l30.3-18.4l16.1-43h35.3v43.4h56.4v41.5h-56.8v97.9c0,7.7,2.3,13.8,6.5,17.3
	C909.3,1056.4,915.1,1058.3,922.8,1058.3z"/>
<path fill="#6A6A6A" d="M1139.7,1038.3c0,20.7-7.3,36.9-21.9,47.6c-14.6,10.8-36.1,16.5-64.9,16.5c-14.6,0-27.3-1.2-37.6-3.1
	c-10.4-1.9-20-5-29.2-8.8v-45.7c10.4,5,21.9,8.8,34.9,12.3c13,3.5,24.2,5,34.2,5c20,0,30-5.8,30-17.3c0-4.2-1.2-8.1-3.8-10.8
	c-2.7-2.7-7.3-5.8-13.8-9.2c-6.5-3.5-15.4-7.3-26.1-11.9c-15.7-6.5-27.3-12.7-34.6-18s-12.7-11.9-16.1-19.2c-3.5-7.3-5-16.1-5-26.5
	c0-18,6.9-31.9,21.1-41.9c13.8-10,33.8-15,59.5-15c24.6,0,48.4,5.4,71.4,16.1l-16.5,39.9c-10-4.2-19.6-8.1-28.4-10.8
	s-18-4.2-26.9-4.2c-16.5,0-24.6,4.6-24.6,13.4c0,5,2.7,9.2,8.1,13.1c5.4,3.5,16.9,8.8,34.6,16.1c15.7,6.5,27.6,12.3,34.9,18
	s12.7,11.9,16.5,19.2C1138.6,1019.1,1139.7,1028.4,1139.7,1038.3z"/>
<path fill="#6A6A6A" d="M1175,1072.1c0-10,2.7-17.7,8.1-23c5.4-5.4,13.4-7.7,23.8-7.7c10,0,17.7,2.7,23.4,8.1
	c5.4,5.4,8.4,13.1,8.4,23c0,9.6-2.7,17.3-8.4,22.7s-13.4,8.4-23.4,8.4s-18-2.7-23.4-8.1C1178.1,1090.2,1175,1082.5,1175,1072.1z"/>
<path fill="#6A6A6A" d="M1287.2,843.3c0-18,10-26.9,30-26.9s30,8.8,30,26.9c0,8.4-2.7,15.4-7.7,20s-12.7,7.3-22.7,7.3
	C1297.2,870.1,1287.2,860.9,1287.2,843.3z M1344.8,1098.6h-55.3V895.1h55.3V1098.6z"/>
<path fill="#6A6A6A" d="M1587.1,996.9c0,33-8.8,58.8-26.1,77.6c-17.3,18.8-41.9,28-73,28c-19.6,0-36.9-4.2-51.5-12.7
	c-15-8.4-26.5-20.7-34.2-36.9c-8.1-16.1-11.9-34.6-11.9-56.1c0-33,8.8-59.1,26.1-77.2c17.3-18.4,41.5-27.6,73-27.6
	c19.6,0,36.9,4.2,51.5,12.7c15,8.4,26.5,20.7,34.2,36.5C1582.8,956.9,1587.1,975,1587.1,996.9z M1446.9,996.9c0,20,3.5,35.3,10,45.7
	s17.3,15.4,32.3,15.4c14.6,0,25.3-5,31.9-15.4c6.5-10.4,9.6-25.3,9.6-45.7c0-20-3.5-35.3-10-45.3s-17.3-15-32.3-15
	c-14.6,0-25.3,5-31.9,15C1450.4,961.5,1446.9,976.1,1446.9,996.9z"/>
</svg>
